<?xml version="1.0" encoding="UTF-8" standalone="no"?>
<!-- Created with Digital by H.Neemann -->
<!-- created: Thu May 29 21:45:01 BRT 2025 -->

<svg
   xmlns:svg="http://www.w3.org/2000/svg"
   xmlns="http://www.w3.org/2000/svg"
   width="121.65mm"
   height="96.6mm"
   viewBox="112 98 811 644">
<g stroke-linecap="square">
<path d="M 280,340 L 290,340 L 300,340" stroke="#000000" stroke-width="4.0" fill="none"/>
<path d="M 300,360 L 290,360" stroke="#000000" stroke-width="4.0" fill="none"/>
<path d="M 300,380 L 290,380" stroke="#000000" stroke-width="4.0" fill="none"/>
<path d="M 340,640 L 440,640" stroke="#0000b2" stroke-width="4.0" fill="none"/>
<path d="M 240,560 L 240,640 L 280,640" stroke="#0000b2" stroke-width="4.0" fill="none"/>
<path d="M 220,260 L 540,260 L 680,260 L 680,220 L 720,220" stroke="#0000b2" stroke-width="4.0" fill="none"/>
<path d="M 460,600 L 460,580 L 560,580 L 560,560 L 600,560" stroke="#0000b2" stroke-width="4.0" fill="none"/>
<path d="M 360,580 L 420,580 L 420,600 L 440,600" stroke="#0000b2" stroke-width="4.0" fill="none"/>
<path d="M 780,200 L 800,200 L 820,200" stroke="#0000b2" stroke-width="4.0" fill="none"/>
<path d="M 640,200 L 720,200" stroke="#0000b2" stroke-width="4.0" fill="none"/>
<path d="M 520,520 L 600,520" stroke="#0000b2" stroke-width="4.0" fill="none"/>
<path d="M 520,140 L 560,140 L 560,180 L 600,180" stroke="#0000b2" stroke-width="4.0" fill="none"/>
<path d="M 800,460 L 820,460" stroke="#0000b2" stroke-width="4.0" fill="none"/>
<path d="M 220,340 L 280,340" stroke="#0000b2" stroke-width="4.0" fill="none"/>
<path d="M 300,340 L 580,340 L 820,340" stroke="#0000b2" stroke-width="4.0" fill="none"/>
<path d="M 540,540 L 540,660 L 600,660" stroke="#0000b2" stroke-width="4.0" fill="none"/>
<path d="M 660,660 L 700,660 L 820,660" stroke="#0000b2" stroke-width="4.0" fill="none"/>
<path d="M 340,660 L 380,660 L 380,540 L 440,540" stroke="#0000b2" stroke-width="4.0" fill="none"/>
<path d="M 580,340 L 580,220 L 600,220" stroke="#0000b2" stroke-width="4.0" fill="none"/>
<path d="M 540,260 L 540,540 L 600,540" stroke="#0000b2" stroke-width="4.0" fill="none"/>
<path d="M 660,540 L 680,540" stroke="#0000b2" stroke-width="4.0" fill="none"/>
<path d="M 520,380 L 520,480 L 720,480" stroke="#0000b2" stroke-width="4.0" fill="none"/>
<path d="M 440,160 L 460,160" stroke="#0000b2" stroke-width="4.0" fill="none"/>
<path d="M 220,660 L 220,740 L 700,740 L 700,660" stroke="#0000b2" stroke-width="4.0" fill="none"/>
<path d="M 300,360 L 560,360 L 680,360" stroke="#0000b2" stroke-width="4.0" fill="none"/>
<path d="M 400,500 L 400,680 L 600,680" stroke="#0000b2" stroke-width="4.0" fill="none"/>
<path d="M 260,680 L 280,680" stroke="#0000b2" stroke-width="4.0" fill="none"/>
<path d="M 620,220 L 620,300 L 780,300 L 780,380 L 760,380" stroke="#0000b2" stroke-width="4.0" fill="none"/>
<path d="M 480,620 L 520,620 L 520,640 L 600,640" stroke="#0000b2" stroke-width="4.0" fill="none"/>
<path d="M 220,560 L 240,560 L 260,560 L 264,560" stroke="#0000b2" stroke-width="4.0" fill="none"/>
<path d="M 440,180 L 460,180" stroke="#0000b2" stroke-width="4.0" fill="none"/>
<path d="M 400,460 L 400,500 L 440,500" stroke="#0000b2" stroke-width="4.0" fill="none"/>
<path d="M 620,440 L 720,440" stroke="#0000b2" stroke-width="4.0" fill="none"/>
<path d="M 560,360 L 560,440 L 580,440" stroke="#0000b2" stroke-width="4.0" fill="none"/>
<path d="M 300,380 L 400,380 L 520,380 L 680,380" stroke="#0000b2" stroke-width="4.0" fill="none"/>
<path d="M 560,440 L 560,560" stroke="#0000b2" stroke-width="4.0" fill="none"/>
<path d="M 400,380 L 400,420" stroke="#0000b2" stroke-width="4.0" fill="none"/>
<path d="M 460,140 L 440,140 L 440,100 L 800,100 L 800,200" stroke="#0000b2" stroke-width="4.0" fill="none"/>
<path d="M 280,660 L 220,660 L 220,600 L 260,600 L 264,600" stroke="#0000b2" stroke-width="4.0" fill="none"/>
<path d="M 720,540 L 740,540 L 740,520 L 700,520 L 700,460 L 660,460 L 660,400 L 680,400" stroke="#0000b2" stroke-width="4.0" fill="none"/>
<g>
<circle cx="540.0" cy="260.0" r="4.0" stroke="#0000b2" stroke-width="4.0" fill="#0000b2" />
<circle cx="800.0" cy="200.0" r="4.0" stroke="#0000b2" stroke-width="4.0" fill="#0000b2" />
<circle cx="580.0" cy="340.0" r="4.0" stroke="#0000b2" stroke-width="4.0" fill="#0000b2" />
<circle cx="700.0" cy="660.0" r="4.0" stroke="#0000b2" stroke-width="4.0" fill="#0000b2" />
<circle cx="220.0" cy="660.0" r="4.0" stroke="#0000b2" stroke-width="4.0" fill="#0000b2" />
<circle cx="540.0" cy="540.0" r="4.0" stroke="#0000b2" stroke-width="4.0" fill="#0000b2" />
<circle cx="560.0" cy="360.0" r="4.0" stroke="#0000b2" stroke-width="4.0" fill="#0000b2" />
<circle cx="560.0" cy="560.0" r="4.0" stroke="#0000b2" stroke-width="4.0" fill="#0000b2" />
<circle cx="240.0" cy="560.0" r="4.0" stroke="#0000b2" stroke-width="4.0" fill="#0000b2" />
<circle cx="400.0" cy="500.0" r="4.0" stroke="#0000b2" stroke-width="4.0" fill="#0000b2" />
<circle cx="560.0" cy="440.0" r="4.0" stroke="#0000b2" stroke-width="4.0" fill="#0000b2" />
<circle cx="400.0" cy="380.0" r="4.0" stroke="#0000b2" stroke-width="4.0" fill="#0000b2" />
<circle cx="520.0" cy="380.0" r="4.0" stroke="#0000b2" stroke-width="4.0" fill="#0000b2" />
</g>
<g>
<circle cx="836.0" cy="200.0" r="9.0" stroke="#000000" stroke-width="4.0" fill="none" />
<circle cx="836.0" cy="200.0" r="15.0" stroke="#000000" stroke-width="4.0" fill="none" />
<text text-anchor="start" x="865.0" y="209.0" fill="#000000" style="font-size:24px"><tspan style="font-style:italic;">PC</tspan></text>
<circle cx="820.0" cy="200.0" r="2.0" stroke="#0000b2" stroke-width="4.0" fill="#0000b2" />
</g>
<g>
<path d="M 189,325 L 219,325 L 219,355 L 189,355 Z" stroke="#000000" stroke-width="4.0" fill="none"/>
<circle cx="204.0" cy="340.0" r="9.0" stroke="#000000" stroke-width="4.0" fill="none" />
<text text-anchor="end" x="175.0" y="349.0" fill="#000000" style="font-size:24px"><tspan style="font-style:italic;">Instr</tspan></text>
<circle cx="220.0" cy="340.0" r="2.0" stroke="#b20000" stroke-width="4.0" fill="#b20000" />
</g>
<g>
<path d="M 721,190 L 779,190 L 779,230 L 721,230 Z" stroke="#000000" stroke-width="4.0" fill="none"/>
<text text-anchor="middle" x="750.0" y="182.0" fill="#000000" style="font-size:24px">PC</text>
<text text-anchor="start" x="724.0" y="206.75" fill="#808080" style="font-size:18px">D</text>
<path d="M 721,227 L 728,220 L 721,213" stroke="#000000" stroke-width="2.0" fill="none"/>
<text text-anchor="start" x="731.0" y="226.75" fill="#808080" style="font-size:18px">C</text>
<text text-anchor="end" x="776.0" y="206.75" fill="#808080" style="font-size:18px">Q</text>
<text text-anchor="end" x="776.0" y="226.75" fill="#808080" style="font-size:18px"><tspan style="text-decoration:overline;">Q</tspan></text>
<text text-anchor="middle" x="750.0" y="247.5" fill="#808080" style="font-size:18px">D</text>
<circle cx="720.0" cy="200.0" r="2.0" stroke="#0000b2" stroke-width="4.0" fill="#0000b2" />
<circle cx="720.0" cy="220.0" r="2.0" stroke="#0000b2" stroke-width="4.0" fill="#0000b2" />
<circle cx="780.0" cy="200.0" r="2.0" stroke="#b20000" stroke-width="4.0" fill="#b20000" />
<circle cx="780.0" cy="220.0" r="2.0" stroke="#b20000" stroke-width="4.0" fill="#b20000" />
</g>
<g>
<path d="M 601,176 L 639,185 L 639,215 L 601,224 Z" stroke="#000000" stroke-width="4.0" fill="none"/>
<text text-anchor="start" x="603.0" y="195.5" fill="#808080" style="font-size:18px">0</text>
<circle cx="620.0" cy="220.0" r="2.0" stroke="#0000b2" stroke-width="4.0" fill="#0000b2" />
<circle cx="600.0" cy="180.0" r="2.0" stroke="#0000b2" stroke-width="4.0" fill="#0000b2" />
<circle cx="600.0" cy="220.0" r="2.0" stroke="#0000b2" stroke-width="4.0" fill="#0000b2" />
<circle cx="640.0" cy="200.0" r="2.0" stroke="#b20000" stroke-width="4.0" fill="#b20000" />
</g>
<g>
<path d="M 461,130 L 519,130 L 519,190 L 461,190 Z" stroke="#000000" stroke-width="4.0" fill="none"/>
<text text-anchor="start" x="464.0" y="146.75" fill="#808080" style="font-size:18px">a</text>
<text text-anchor="start" x="464.0" y="166.75" fill="#808080" style="font-size:18px">b</text>
<text text-anchor="start" x="464.0" y="186.75" fill="#808080" style="font-size:18px">c<tspan style="font-size:80%;baseline-shift:sub;">i</tspan></text>
<text text-anchor="end" x="516.0" y="146.75" fill="#808080" style="font-size:18px">s</text>
<text text-anchor="end" x="516.0" y="166.75" fill="#808080" style="font-size:18px">c<tspan style="font-size:80%;baseline-shift:sub;">o</tspan></text>
<text text-anchor="middle" x="490.0" y="207.5" fill="#808080" style="font-size:18px">Soma</text>
<circle cx="460.0" cy="140.0" r="2.0" stroke="#0000b2" stroke-width="4.0" fill="#0000b2" />
<circle cx="460.0" cy="160.0" r="2.0" stroke="#0000b2" stroke-width="4.0" fill="#0000b2" />
<circle cx="460.0" cy="180.0" r="2.0" stroke="#0000b2" stroke-width="4.0" fill="#0000b2" />
<circle cx="520.0" cy="140.0" r="2.0" stroke="#b20000" stroke-width="4.0" fill="#b20000" />
<circle cx="520.0" cy="160.0" r="2.0" stroke="#b20000" stroke-width="4.0" fill="#b20000" />
</g>
<g>
<text text-anchor="end" x="437.0" y="189.0" fill="#000000" style="font-size:24px">1</text>
<circle cx="440.0" cy="180.0" r="2.0" stroke="#b20000" stroke-width="4.0" fill="#b20000" />
</g>
<g>
<text text-anchor="end" x="437.0" y="169.0" fill="#000000" style="font-size:24px">0</text>
<circle cx="440.0" cy="160.0" r="2.0" stroke="#b20000" stroke-width="4.0" fill="#b20000" />
</g>
<g>
<text text-anchor="end" x="278.0" y="337.0" fill="#808080" style="font-size:12px">0-15</text>
<text text-anchor="start" x="302.0" y="337.0" fill="#808080" style="font-size:12px">0-13</text>
<text text-anchor="start" x="302.0" y="357.0" fill="#808080" style="font-size:12px">14</text>
<text text-anchor="start" x="302.0" y="377.0" fill="#808080" style="font-size:12px">15</text>
<path d="M 288,338 L 292,338 L 292,382 L 288,382 Z" stroke="#000000" stroke-width="4.0" fill="#000000" fill-opacity="1.0"/>
<circle cx="280.0" cy="340.0" r="2.0" stroke="#0000b2" stroke-width="4.0" fill="#0000b2" />
<circle cx="300.0" cy="340.0" r="2.0" stroke="#b20000" stroke-width="4.0" fill="#b20000" />
<circle cx="300.0" cy="360.0" r="2.0" stroke="#b20000" stroke-width="4.0" fill="#b20000" />
<circle cx="300.0" cy="380.0" r="2.0" stroke="#b20000" stroke-width="4.0" fill="#b20000" />
</g>
<g>
<circle cx="836.0" cy="340.0" r="9.0" stroke="#000000" stroke-width="4.0" fill="none" />
<circle cx="836.0" cy="340.0" r="15.0" stroke="#000000" stroke-width="4.0" fill="none" />
<text text-anchor="start" x="865.0" y="349.0" fill="#000000" style="font-size:24px"><tspan style="font-style:italic;">Addr</tspan></text>
<circle cx="820.0" cy="340.0" r="2.0" stroke="#0000b2" stroke-width="4.0" fill="#0000b2" />
</g>
<g>
<path d="M 189,545 L 219,545 L 219,575 L 189,575 Z" stroke="#000000" stroke-width="4.0" fill="none"/>
<circle cx="204.0" cy="560.0" r="9.0" stroke="#000000" stroke-width="4.0" fill="none" />
<text text-anchor="end" x="175.0" y="569.0" fill="#000000" style="font-size:24px"><tspan style="font-style:italic;">Din</tspan></text>
<circle cx="220.0" cy="560.0" r="2.0" stroke="#b20000" stroke-width="4.0" fill="#b20000" />
</g>
<g>
<path d="M 189,245 L 219,245 L 219,275 L 189,275 Z" stroke="#000000" stroke-width="4.0" fill="none"/>
<text text-anchor="end" x="175.0" y="269.0" fill="#000000" style="font-size:24px"><tspan style="font-style:italic;">clock</tspan></text>
<path d="M 195,265 L 200,265 L 200,255 L 205,255 L 205,265 L 210,265 L 210,255 L 215,255" stroke="#000000" stroke-width="2.0" fill="none"/>
<circle cx="220.0" cy="260.0" r="2.0" stroke="#b20000" stroke-width="4.0" fill="#b20000" />
</g>
<g>
<path d="M 730,410 L 681,410 L 681,350 L 730,350 C 740,350 760,360 759,380 C 759,400 740,410 730,410 Z" stroke="#000000" stroke-width="4.0" fill="none"/>
<circle cx="680.0" cy="360.0" r="2.0" stroke="#0000b2" stroke-width="4.0" fill="#0000b2" />
<circle cx="680.0" cy="380.0" r="2.0" stroke="#0000b2" stroke-width="4.0" fill="#0000b2" />
<circle cx="680.0" cy="400.0" r="2.0" stroke="#0000b2" stroke-width="4.0" fill="#0000b2" />
<circle cx="760.0" cy="380.0" r="2.0" stroke="#b20000" stroke-width="4.0" fill="#b20000" />
</g>
<g>
<path d="M 601,510 L 659,510 L 659,570 L 601,570 Z" stroke="#000000" stroke-width="4.0" fill="none"/>
<text text-anchor="middle" x="630.0" y="502.0" fill="#000000" style="font-size:24px">Carry</text>
<text text-anchor="start" x="604.0" y="526.75" fill="#808080" style="font-size:18px">D</text>
<path d="M 601,547 L 608,540 L 601,533" stroke="#000000" stroke-width="2.0" fill="none"/>
<text text-anchor="start" x="611.0" y="546.75" fill="#808080" style="font-size:18px">C</text>
<text text-anchor="start" x="604.0" y="566.75" fill="#808080" style="font-size:18px">en</text>
<text text-anchor="end" x="656.0" y="546.75" fill="#808080" style="font-size:18px">Q</text>
<text text-anchor="middle" x="630.0" y="587.5" fill="#808080" style="font-size:18px">Reg</text>
<circle cx="600.0" cy="520.0" r="2.0" stroke="#0000b2" stroke-width="4.0" fill="#0000b2" />
<circle cx="600.0" cy="540.0" r="2.0" stroke="#0000b2" stroke-width="4.0" fill="#0000b2" />
<circle cx="600.0" cy="560.0" r="2.0" stroke="#0000b2" stroke-width="4.0" fill="#0000b2" />
<circle cx="660.0" cy="540.0" r="2.0" stroke="#b20000" stroke-width="4.0" fill="#b20000" />
</g>
<g>
<path d="M 601,630 L 659,630 L 659,690 L 601,690 Z" stroke="#000000" stroke-width="4.0" fill="none"/>
<text text-anchor="middle" x="630.0" y="622.0" fill="#000000" style="font-size:24px">Accumulator</text>
<text text-anchor="start" x="604.0" y="646.75" fill="#808080" style="font-size:18px">D</text>
<path d="M 601,667 L 608,660 L 601,653" stroke="#000000" stroke-width="2.0" fill="none"/>
<text text-anchor="start" x="611.0" y="666.75" fill="#808080" style="font-size:18px">C</text>
<text text-anchor="start" x="604.0" y="686.75" fill="#808080" style="font-size:18px">en</text>
<text text-anchor="end" x="656.0" y="666.75" fill="#808080" style="font-size:18px">Q</text>
<text text-anchor="middle" x="630.0" y="707.5" fill="#808080" style="font-size:18px">Reg</text>
<circle cx="600.0" cy="640.0" r="2.0" stroke="#0000b2" stroke-width="4.0" fill="#0000b2" />
<circle cx="600.0" cy="660.0" r="2.0" stroke="#0000b2" stroke-width="4.0" fill="#0000b2" />
<circle cx="600.0" cy="680.0" r="2.0" stroke="#0000b2" stroke-width="4.0" fill="#0000b2" />
<circle cx="660.0" cy="660.0" r="2.0" stroke="#b20000" stroke-width="4.0" fill="#b20000" />
</g>
<g>
<path d="M 490,550 L 441,550 L 441,490 L 490,490 C 500,490 520,500 519,520 C 519,540 500,550 490,550 Z" stroke="#000000" stroke-width="4.0" fill="none"/>
<circle cx="440.0" cy="500.0" r="2.0" stroke="#0000b2" stroke-width="4.0" fill="#0000b2" />
<circle cx="440.0" cy="540.0" r="2.0" stroke="#0000b2" stroke-width="4.0" fill="#0000b2" />
<circle cx="520.0" cy="520.0" r="2.0" stroke="#b20000" stroke-width="4.0" fill="#b20000" />
</g>
<g>
<path d="M 412,421 L 400,439 L 388,421 Z" stroke="#000000" stroke-width="4.0" fill="none"/>
<circle cx="400.0" cy="450.0" r="9.0" stroke="#000000" stroke-width="4.0" fill="none" />
<circle cx="400.0" cy="420.0" r="2.0" stroke="#0000b2" stroke-width="4.0" fill="#0000b2" />
<circle cx="400.0" cy="460.0" r="2.0" stroke="#b20000" stroke-width="4.0" fill="#b20000" />
</g>
<g>
<path d="M 441,596 L 479,605 L 479,635 L 441,644 Z" stroke="#000000" stroke-width="4.0" fill="none"/>
<text text-anchor="start" x="443.0" y="615.5" fill="#808080" style="font-size:18px">0</text>
<circle cx="460.0" cy="600.0" r="2.0" stroke="#0000b2" stroke-width="4.0" fill="#0000b2" />
<circle cx="440.0" cy="600.0" r="2.0" stroke="#0000b2" stroke-width="4.0" fill="#0000b2" />
<circle cx="440.0" cy="640.0" r="2.0" stroke="#0000b2" stroke-width="4.0" fill="#0000b2" />
<circle cx="480.0" cy="620.0" r="2.0" stroke="#b20000" stroke-width="4.0" fill="#b20000" />
</g>
<g>
<path d="M 281,630 L 339,630 L 339,690 L 281,690 Z" stroke="#000000" stroke-width="4.0" fill="none"/>
<text text-anchor="start" x="284.0" y="646.75" fill="#808080" style="font-size:18px">a</text>
<text text-anchor="start" x="284.0" y="666.75" fill="#808080" style="font-size:18px">b</text>
<text text-anchor="start" x="284.0" y="686.75" fill="#808080" style="font-size:18px">c<tspan style="font-size:80%;baseline-shift:sub;">i</tspan></text>
<text text-anchor="end" x="336.0" y="646.75" fill="#808080" style="font-size:18px">s</text>
<text text-anchor="end" x="336.0" y="666.75" fill="#808080" style="font-size:18px">c<tspan style="font-size:80%;baseline-shift:sub;">o</tspan></text>
<text text-anchor="middle" x="310.0" y="707.5" fill="#808080" style="font-size:18px">Soma</text>
<circle cx="280.0" cy="640.0" r="2.0" stroke="#0000b2" stroke-width="4.0" fill="#0000b2" />
<circle cx="280.0" cy="660.0" r="2.0" stroke="#0000b2" stroke-width="4.0" fill="#0000b2" />
<circle cx="280.0" cy="680.0" r="2.0" stroke="#0000b2" stroke-width="4.0" fill="#0000b2" />
<circle cx="340.0" cy="640.0" r="2.0" stroke="#b20000" stroke-width="4.0" fill="#b20000" />
<circle cx="340.0" cy="660.0" r="2.0" stroke="#b20000" stroke-width="4.0" fill="#b20000" />
</g>
<g>
<path d="M 290,610 L 260,610 C 270,594 270,566 260,550 L 280,550 C 310,550 330,560 340,580 C 330,600 310,610 290,610 Z" stroke="#000000" stroke-width="4.0" fill="none"/>
<circle cx="350.0" cy="580.0" r="9.0" stroke="#000000" stroke-width="4.0" fill="none" />
<circle cx="260.0" cy="560.0" r="2.0" stroke="#0000b2" stroke-width="4.0" fill="#0000b2" />
<circle cx="260.0" cy="600.0" r="2.0" stroke="#0000b2" stroke-width="4.0" fill="#0000b2" />
<circle cx="360.0" cy="580.0" r="2.0" stroke="#b20000" stroke-width="4.0" fill="#b20000" />
</g>
<g>
<circle cx="836.0" cy="660.0" r="9.0" stroke="#000000" stroke-width="4.0" fill="none" />
<circle cx="836.0" cy="660.0" r="15.0" stroke="#000000" stroke-width="4.0" fill="none" />
<text text-anchor="start" x="865.0" y="669.0" fill="#000000" style="font-size:24px"><tspan style="font-style:italic;">Dout</tspan></text>
<circle cx="820.0" cy="660.0" r="2.0" stroke="#0000b2" stroke-width="4.0" fill="#0000b2" />
</g>
<g>
<path d="M 581,428 L 599,440 L 581,452 Z" stroke="#000000" stroke-width="4.0" fill="none"/>
<circle cx="610.0" cy="440.0" r="9.0" stroke="#000000" stroke-width="4.0" fill="none" />
<circle cx="580.0" cy="440.0" r="2.0" stroke="#0000b2" stroke-width="4.0" fill="#0000b2" />
<circle cx="620.0" cy="440.0" r="2.0" stroke="#b20000" stroke-width="4.0" fill="#b20000" />
</g>
<g>
<path d="M 770,490 L 721,490 L 721,430 L 770,430 C 780,430 800,440 799,460 C 799,480 780,490 770,490 Z" stroke="#000000" stroke-width="4.0" fill="none"/>
<circle cx="720.0" cy="440.0" r="2.0" stroke="#0000b2" stroke-width="4.0" fill="#0000b2" />
<circle cx="720.0" cy="480.0" r="2.0" stroke="#0000b2" stroke-width="4.0" fill="#0000b2" />
<circle cx="800.0" cy="460.0" r="2.0" stroke="#b20000" stroke-width="4.0" fill="#b20000" />
</g>
<g>
<circle cx="836.0" cy="460.0" r="9.0" stroke="#000000" stroke-width="4.0" fill="none" />
<circle cx="836.0" cy="460.0" r="15.0" stroke="#000000" stroke-width="4.0" fill="none" />
<text text-anchor="start" x="865.0" y="469.0" fill="#000000" style="font-size:24px"><tspan style="font-style:italic;">wr</tspan></text>
<circle cx="820.0" cy="460.0" r="2.0" stroke="#0000b2" stroke-width="4.0" fill="#0000b2" />
</g>
<g>
<text text-anchor="end" x="257.0" y="689.0" fill="#000000" style="font-size:24px">0</text>
<circle cx="260.0" cy="680.0" r="2.0" stroke="#b20000" stroke-width="4.0" fill="#b20000" />
</g>
<g>
<path d="M 681,528 L 699,540 L 681,552 Z" stroke="#000000" stroke-width="4.0" fill="none"/>
<circle cx="710.0" cy="540.0" r="9.0" stroke="#000000" stroke-width="4.0" fill="none" />
<circle cx="680.0" cy="540.0" r="2.0" stroke="#0000b2" stroke-width="4.0" fill="#0000b2" />
<circle cx="720.0" cy="540.0" r="2.0" stroke="#b20000" stroke-width="4.0" fill="#b20000" />
</g>
</g>
</svg>