<?xml version="1.0" encoding="UTF-8" standalone="no"?>
<!-- Created with Digital by H.Neemann -->
<!-- created: Wed Oct 30 20:08:10 BRT 2024 -->

<svg
   xmlns:svg="http://www.w3.org/2000/svg"
   xmlns="http://www.w3.org/2000/svg"
   width="201.6mm"
   height="173.4mm"
   viewBox="258 -22 1344 1156">
<g stroke-linecap="square">
<path d="M 1320,320 L 1500,320 L 1500,240 L 1540,240" stroke="#0000b2" stroke-width="4.0" fill="none"/>
<path d="M 1140,60 L 1140,320 L 1200,320 L 1260,320" stroke="#0000b2" stroke-width="4.0" fill="none"/>
<path d="M 360,640 L 440,640" stroke="#0000b2" stroke-width="4.0" fill="none"/>
<path d="M 1580,260 L 1600,260 L 1600,580 L 420,580 L 420,440" stroke="#0000b2" stroke-width="4.0" fill="none"/>
<path d="M 700,260 L 780,260" stroke="#0000b2" stroke-width="4.0" fill="none"/>
<path d="M 1200,320 L 1200,520 L 1280,520" stroke="#0000b2" stroke-width="4.0" fill="none"/>
<path d="M 620,200 L 640,200 L 640,160" stroke="#0000b2" stroke-width="4.0" fill="none"/>
<path d="M 480,200 L 500,200" stroke="#0000b2" stroke-width="4.0" fill="none"/>
<path d="M 1060,840 L 1100,840" stroke="#0000b2" stroke-width="4.0" fill="none"/>
<path d="M 660,140 L 780,140" stroke="#0000b2" stroke-width="4.0" fill="none"/>
<path d="M 1100,460 L 1120,460 L 1120,420 L 1220,420 L 1400,420 L 1420,420" stroke="#0000b2" stroke-width="4.0" fill="none"/>
<path d="M 560,460 L 620,460 L 620,400 L 640,400" stroke="#0000b2" stroke-width="4.0" fill="none"/>
<path d="M 900,940 L 900,1100 L 980,1100" stroke="#0000b2" stroke-width="4.0" fill="none"/>
<path d="M 840,400 L 880,400 L 1180,400 L 1420,400" stroke="#0000b2" stroke-width="4.0" fill="none"/>
<path d="M 760,280 L 760,400 L 780,400" stroke="#0000b2" stroke-width="4.0" fill="none"/>
<path d="M 500,80 L 540,80 L 540,120 L 620,120" stroke="#0000b2" stroke-width="4.0" fill="none"/>
<path d="M 280,80 L 300,80" stroke="#0000b2" stroke-width="4.0" fill="none"/>
<path d="M 580,660 L 580,720 L 920,720 L 980,720" stroke="#0000b2" stroke-width="4.0" fill="none"/>
<path d="M 940,920 L 940,1040 L 980,1040" stroke="#0000b2" stroke-width="4.0" fill="none"/>
<path d="M 1220,420 L 1220,340 L 1260,340" stroke="#0000b2" stroke-width="4.0" fill="none"/>
<path d="M 540,340 L 620,340 L 620,360 L 640,360" stroke="#0000b2" stroke-width="4.0" fill="none"/>
<path d="M 340,20 L 420,20 L 420,100 L 440,100" stroke="#0000b2" stroke-width="4.0" fill="none"/>
<path d="M 400,520 L 400,660 L 440,660" stroke="#0000b2" stroke-width="4.0" fill="none"/>
<path d="M 500,660 L 580,660 L 620,660" stroke="#0000b2" stroke-width="4.0" fill="none"/>
<path d="M 660,660 L 700,660 L 720,660" stroke="#0000b2" stroke-width="4.0" fill="none"/>
<path d="M 1160,160 L 1160,280 L 1260,280" stroke="#0000b2" stroke-width="4.0" fill="none"/>
<path d="M 840,280 L 860,280" stroke="#0000b2" stroke-width="4.0" fill="none"/>
<path d="M 380,860 L 380,920 L 520,920 L 560,920" stroke="#0000b2" stroke-width="4.0" fill="none"/>
<path d="M 440,480 L 440,540 L 880,540 L 880,400" stroke="#0000b2" stroke-width="4.0" fill="none"/>
<path d="M 380,780 L 380,860 L 440,860" stroke="#0000b2" stroke-width="4.0" fill="none"/>
<path d="M 500,860 L 540,860 L 540,820 L 940,820 L 980,820" stroke="#0000b2" stroke-width="4.0" fill="none"/>
<path d="M 700,760 L 700,860 L 980,860" stroke="#0000b2" stroke-width="4.0" fill="none"/>
<path d="M 480,160 L 620,160" stroke="#0000b2" stroke-width="4.0" fill="none"/>
<path d="M 840,160 L 940,160 L 1160,160 L 1260,160" stroke="#0000b2" stroke-width="4.0" fill="none"/>
<path d="M 580,760 L 580,800 L 840,800 L 840,940 L 900,940 L 980,940" stroke="#0000b2" stroke-width="4.0" fill="none"/>
<path d="M 860,1120 L 980,1120" stroke="#0000b2" stroke-width="4.0" fill="none"/>
<path d="M 700,1120 L 820,1120" stroke="#0000b2" stroke-width="4.0" fill="none"/>
<path d="M 740,420 L 780,420" stroke="#0000b2" stroke-width="4.0" fill="none"/>
<path d="M 280,100 L 300,100" stroke="#0000b2" stroke-width="4.0" fill="none"/>
<path d="M 360,740 L 440,740" stroke="#0000b2" stroke-width="4.0" fill="none"/>
<path d="M 1060,740 L 1100,740" stroke="#0000b2" stroke-width="4.0" fill="none"/>
<path d="M 920,720 L 920,1060 L 980,1060" stroke="#0000b2" stroke-width="4.0" fill="none"/>
<path d="M 1240,360 L 1260,360" stroke="#0000b2" stroke-width="4.0" fill="none"/>
<path d="M 540,360 L 560,360 L 560,280 L 620,280" stroke="#0000b2" stroke-width="4.0" fill="none"/>
<path d="M 1180,400 L 1180,300 L 1260,300" stroke="#0000b2" stroke-width="4.0" fill="none"/>
<path d="M 1340,180 L 1340,300 L 1560,300 L 1560,280" stroke="#0000b2" stroke-width="4.0" fill="none"/>
<path d="M 740,300 L 780,300" stroke="#0000b2" stroke-width="4.0" fill="none"/>
<path d="M 1060,940 L 1100,940" stroke="#0000b2" stroke-width="4.0" fill="none"/>
<path d="M 600,240 L 620,240" stroke="#0000b2" stroke-width="4.0" fill="none"/>
<path d="M 400,760 L 400,880 L 440,880" stroke="#0000b2" stroke-width="4.0" fill="none"/>
<path d="M 500,880 L 520,880 L 520,920 L 520,960 L 560,960" stroke="#0000b2" stroke-width="4.0" fill="none"/>
<path d="M 480,180 L 500,180" stroke="#0000b2" stroke-width="4.0" fill="none"/>
<path d="M 1400,420 L 1400,180 L 1420,180" stroke="#0000b2" stroke-width="4.0" fill="none"/>
<path d="M 1480,180 L 1520,180 L 1520,280 L 1540,280" stroke="#0000b2" stroke-width="4.0" fill="none"/>
<path d="M 1240,180 L 1260,180" stroke="#0000b2" stroke-width="4.0" fill="none"/>
<path d="M 1320,180 L 1340,180 L 1340,120 L 1320,120 L 1320,100 L 1340,100" stroke="#0000b2" stroke-width="4.0" fill="none"/>
<path d="M 740,180 L 780,180" stroke="#0000b2" stroke-width="4.0" fill="none"/>
<path d="M 1360,500 L 1380,500 L 1380,440 L 1420,440" stroke="#0000b2" stroke-width="4.0" fill="none"/>
<path d="M 620,500 L 660,500 L 660,400" stroke="#0000b2" stroke-width="4.0" fill="none"/>
<path d="M 420,340 L 420,440 L 460,440 L 464,440" stroke="#0000b2" stroke-width="4.0" fill="none"/>
<path d="M 400,660 L 400,760 L 440,760" stroke="#0000b2" stroke-width="4.0" fill="none"/>
<path d="M 660,760 L 700,760 L 720,760" stroke="#0000b2" stroke-width="4.0" fill="none"/>
<path d="M 500,760 L 580,760 L 620,760" stroke="#0000b2" stroke-width="4.0" fill="none"/>
<path d="M 1080,1080 L 1100,1080" stroke="#0000b2" stroke-width="4.0" fill="none"/>
<path d="M 1100,60 L 1140,60 L 1320,60" stroke="#0000b2" stroke-width="4.0" fill="none"/>
<path d="M 360,60 L 440,60" stroke="#0000b2" stroke-width="4.0" fill="none"/>
<path d="M 680,380 L 780,380" stroke="#0000b2" stroke-width="4.0" fill="none"/>
<path d="M 460,380 L 480,380" stroke="#0000b2" stroke-width="4.0" fill="none"/>
<path d="M 700,660 L 700,700 L 820,700 L 820,960 L 980,960" stroke="#0000b2" stroke-width="4.0" fill="none"/>
<path d="M 940,160 L 940,-20 L 260,-20 L 260,60 L 300,60" stroke="#0000b2" stroke-width="4.0" fill="none"/>
<path d="M 1120,460 L 1120,520 L 760,520 L 400,520 L 400,80 L 440,80" stroke="#0000b2" stroke-width="4.0" fill="none"/>
<path d="M 1420,200 L 1380,200 L 1380,140 L 1440,140 L 1440,80 L 1420,80" stroke="#0000b2" stroke-width="4.0" fill="none"/>
<path d="M 480,340 L 420,340 L 420,160 L 460,160" stroke="#0000b2" stroke-width="4.0" fill="none"/>
<path d="M 980,920 L 940,920 L 940,820 L 940,760 L 980,760" stroke="#0000b2" stroke-width="4.0" fill="none"/>
<path d="M 1280,480 L 1260,480 L 1260,440 L 1340,440 L 1340,300" stroke="#0000b2" stroke-width="4.0" fill="none"/>
<path d="M 464,480 L 460,480 L 440,480 L 440,360 L 480,360" stroke="#0000b2" stroke-width="4.0" fill="none"/>
<path d="M 780,280 L 760,280 L 760,160 L 780,160" stroke="#0000b2" stroke-width="4.0" fill="none"/>
<path d="M 760,400 L 760,520" stroke="#0000b2" stroke-width="4.0" fill="none"/>
<path d="M 440,780 L 380,780 L 380,680 L 440,680" stroke="#0000b2" stroke-width="4.0" fill="none"/>
<path d="M 460,160 L 470,160 L 480,160" stroke="#000000" stroke-width="4.0" fill="none"/>
<path d="M 480,180 L 470,180" stroke="#000000" stroke-width="4.0" fill="none"/>
<path d="M 480,200 L 470,200" stroke="#000000" stroke-width="4.0" fill="none"/>
<path d="M 981,1040 L 981,1049" stroke="#000000" stroke-width="4.0" fill="none"/>
<path d="M 981,1120 L 981,1111" stroke="#000000" stroke-width="4.0" fill="none"/>
<g>
<circle cx="1200.0" cy="320.0" r="4.0" stroke="#0000b2" stroke-width="4.0" fill="#0000b2" />
<circle cx="400.0" cy="520.0" r="4.0" stroke="#0000b2" stroke-width="4.0" fill="#0000b2" />
<circle cx="760.0" cy="520.0" r="4.0" stroke="#0000b2" stroke-width="4.0" fill="#0000b2" />
<circle cx="1120.0" cy="460.0" r="4.0" stroke="#0000b2" stroke-width="4.0" fill="#0000b2" />
<circle cx="380.0" cy="780.0" r="4.0" stroke="#0000b2" stroke-width="4.0" fill="#0000b2" />
<circle cx="880.0" cy="400.0" r="4.0" stroke="#0000b2" stroke-width="4.0" fill="#0000b2" />
<circle cx="760.0" cy="400.0" r="4.0" stroke="#0000b2" stroke-width="4.0" fill="#0000b2" />
<circle cx="1180.0" cy="400.0" r="4.0" stroke="#0000b2" stroke-width="4.0" fill="#0000b2" />
<circle cx="920.0" cy="720.0" r="4.0" stroke="#0000b2" stroke-width="4.0" fill="#0000b2" />
<circle cx="420.0" cy="340.0" r="4.0" stroke="#0000b2" stroke-width="4.0" fill="#0000b2" />
<circle cx="400.0" cy="660.0" r="4.0" stroke="#0000b2" stroke-width="4.0" fill="#0000b2" />
<circle cx="580.0" cy="660.0" r="4.0" stroke="#0000b2" stroke-width="4.0" fill="#0000b2" />
<circle cx="700.0" cy="660.0" r="4.0" stroke="#0000b2" stroke-width="4.0" fill="#0000b2" />
<circle cx="760.0" cy="280.0" r="4.0" stroke="#0000b2" stroke-width="4.0" fill="#0000b2" />
<circle cx="520.0" cy="920.0" r="4.0" stroke="#0000b2" stroke-width="4.0" fill="#0000b2" />
<circle cx="940.0" cy="920.0" r="4.0" stroke="#0000b2" stroke-width="4.0" fill="#0000b2" />
<circle cx="380.0" cy="860.0" r="4.0" stroke="#0000b2" stroke-width="4.0" fill="#0000b2" />
<circle cx="940.0" cy="160.0" r="4.0" stroke="#0000b2" stroke-width="4.0" fill="#0000b2" />
<circle cx="1160.0" cy="160.0" r="4.0" stroke="#0000b2" stroke-width="4.0" fill="#0000b2" />
<circle cx="440.0" cy="480.0" r="4.0" stroke="#0000b2" stroke-width="4.0" fill="#0000b2" />
<circle cx="1220.0" cy="420.0" r="4.0" stroke="#0000b2" stroke-width="4.0" fill="#0000b2" />
<circle cx="1400.0" cy="420.0" r="4.0" stroke="#0000b2" stroke-width="4.0" fill="#0000b2" />
<circle cx="1340.0" cy="300.0" r="4.0" stroke="#0000b2" stroke-width="4.0" fill="#0000b2" />
<circle cx="900.0" cy="940.0" r="4.0" stroke="#0000b2" stroke-width="4.0" fill="#0000b2" />
<circle cx="1340.0" cy="180.0" r="4.0" stroke="#0000b2" stroke-width="4.0" fill="#0000b2" />
<circle cx="940.0" cy="820.0" r="4.0" stroke="#0000b2" stroke-width="4.0" fill="#0000b2" />
<circle cx="420.0" cy="440.0" r="4.0" stroke="#0000b2" stroke-width="4.0" fill="#0000b2" />
<circle cx="400.0" cy="760.0" r="4.0" stroke="#0000b2" stroke-width="4.0" fill="#0000b2" />
<circle cx="700.0" cy="760.0" r="4.0" stroke="#0000b2" stroke-width="4.0" fill="#0000b2" />
<circle cx="580.0" cy="760.0" r="4.0" stroke="#0000b2" stroke-width="4.0" fill="#0000b2" />
<circle cx="1140.0" cy="60.0" r="4.0" stroke="#0000b2" stroke-width="4.0" fill="#0000b2" />
</g>
<g>
<path d="M 1261,270 L 1319,270 L 1319,370 L 1261,370 Z" stroke="#000000" stroke-width="4.0" fill="none"/>
<text text-anchor="start" x="1264.0" y="286.75" fill="#808080" style="font-size:18px">A</text>
<text text-anchor="start" x="1264.0" y="306.75" fill="#808080" style="font-size:18px">Din</text>
<text text-anchor="start" x="1264.0" y="326.75" fill="#808080" style="font-size:18px">str</text>
<path d="M 1261,347 L 1268,340 L 1261,333" stroke="#000000" stroke-width="2.0" fill="none"/>
<text text-anchor="start" x="1271.0" y="346.75" fill="#808080" style="font-size:18px">C</text>
<text text-anchor="start" x="1264.0" y="366.75" fill="#808080" style="font-size:18px">ld</text>
<text text-anchor="end" x="1316.0" y="326.75" fill="#808080" style="font-size:18px">D</text>
<text text-anchor="middle" x="1290.0" y="387.5" fill="#808080" style="font-size:18px">RAM</text>
<circle cx="1260.0" cy="280.0" r="2.0" stroke="#0000b2" stroke-width="4.0" fill="#0000b2" />
<circle cx="1260.0" cy="300.0" r="2.0" stroke="#0000b2" stroke-width="4.0" fill="#0000b2" />
<circle cx="1260.0" cy="320.0" r="2.0" stroke="#0000b2" stroke-width="4.0" fill="#0000b2" />
<circle cx="1260.0" cy="340.0" r="2.0" stroke="#0000b2" stroke-width="4.0" fill="#0000b2" />
<circle cx="1260.0" cy="360.0" r="2.0" stroke="#0000b2" stroke-width="4.0" fill="#0000b2" />
<circle cx="1320.0" cy="320.0" r="2.0" stroke="#b20000" stroke-width="4.0" fill="#b20000" />
</g>
<g>
<path d="M 1261,150 L 1319,150 L 1319,210 L 1261,210 Z" stroke="#000000" stroke-width="4.0" fill="none"/>
<text text-anchor="start" x="1264.0" y="166.75" fill="#808080" style="font-size:18px">a</text>
<text text-anchor="start" x="1264.0" y="186.75" fill="#808080" style="font-size:18px">b</text>
<text text-anchor="end" x="1316.0" y="166.75" fill="#808080" style="font-size:18px">&gt;</text>
<text text-anchor="end" x="1316.0" y="186.75" fill="#808080" style="font-size:18px">=</text>
<text text-anchor="end" x="1316.0" y="206.75" fill="#808080" style="font-size:18px">&lt;</text>
<circle cx="1260.0" cy="160.0" r="2.0" stroke="#0000b2" stroke-width="4.0" fill="#0000b2" />
<circle cx="1260.0" cy="180.0" r="2.0" stroke="#0000b2" stroke-width="4.0" fill="#0000b2" />
<circle cx="1320.0" cy="160.0" r="2.0" stroke="#b20000" stroke-width="4.0" fill="#b20000" />
<circle cx="1320.0" cy="180.0" r="2.0" stroke="#b20000" stroke-width="4.0" fill="#b20000" />
<circle cx="1320.0" cy="200.0" r="2.0" stroke="#b20000" stroke-width="4.0" fill="#b20000" />
</g>
<g>
<path d="M 1421,170 L 1479,170 L 1479,210 L 1421,210 Z" stroke="#000000" stroke-width="4.0" fill="none"/>
<path d="M 1421,187 L 1428,180 L 1421,173" stroke="#000000" stroke-width="2.0" fill="none"/>
<text text-anchor="start" x="1431.0" y="186.75" fill="#808080" style="font-size:18px">C</text>
<text text-anchor="start" x="1424.0" y="206.75" fill="#808080" style="font-size:18px">en</text>
<text text-anchor="end" x="1476.0" y="186.75" fill="#808080" style="font-size:18px">D</text>
<text text-anchor="end" x="1476.0" y="206.75" fill="#808080" style="font-size:18px">av</text>
<text text-anchor="middle" x="1450.0" y="227.5" fill="#808080" style="font-size:18px">Teclado</text>
<circle cx="1420.0" cy="180.0" r="2.0" stroke="#0000b2" stroke-width="4.0" fill="#0000b2" />
<circle cx="1420.0" cy="200.0" r="2.0" stroke="#0000b2" stroke-width="4.0" fill="#0000b2" />
<circle cx="1480.0" cy="180.0" r="2.0" stroke="#b20000" stroke-width="4.0" fill="#b20000" />
<circle cx="1480.0" cy="200.0" r="2.0" stroke="#b20000" stroke-width="4.0" fill="#b20000" />
</g>
<g>
<path d="M 1421,390 L 1479,390 L 1479,450 L 1421,450 Z" stroke="#000000" stroke-width="4.0" fill="none"/>
<text text-anchor="start" x="1424.0" y="406.75" fill="#808080" style="font-size:18px">D</text>
<path d="M 1421,427 L 1428,420 L 1421,413" stroke="#000000" stroke-width="2.0" fill="none"/>
<text text-anchor="start" x="1431.0" y="426.75" fill="#808080" style="font-size:18px">C</text>
<text text-anchor="start" x="1424.0" y="446.75" fill="#808080" style="font-size:18px">en</text>
<text text-anchor="middle" x="1450.0" y="467.5" fill="#808080" style="font-size:18px">Terminal</text>
<circle cx="1420.0" cy="400.0" r="2.0" stroke="#0000b2" stroke-width="4.0" fill="#0000b2" />
<circle cx="1420.0" cy="420.0" r="2.0" stroke="#0000b2" stroke-width="4.0" fill="#0000b2" />
<circle cx="1420.0" cy="440.0" r="2.0" stroke="#0000b2" stroke-width="4.0" fill="#0000b2" />
</g>
<g>
<path d="M 1541,236 L 1579,245 L 1579,275 L 1541,284 Z" stroke="#000000" stroke-width="4.0" fill="none"/>
<text text-anchor="start" x="1543.0" y="255.5" fill="#808080" style="font-size:18px">0</text>
<circle cx="1560.0" cy="280.0" r="2.0" stroke="#0000b2" stroke-width="4.0" fill="#0000b2" />
<circle cx="1540.0" cy="240.0" r="2.0" stroke="#0000b2" stroke-width="4.0" fill="#0000b2" />
<circle cx="1540.0" cy="280.0" r="2.0" stroke="#0000b2" stroke-width="4.0" fill="#0000b2" />
<circle cx="1580.0" cy="260.0" r="2.0" stroke="#b20000" stroke-width="4.0" fill="#b20000" />
</g>
<g>
<text text-anchor="end" x="1237.0" y="369.0" fill="#000000" style="font-size:24px">1</text>
<circle cx="1240.0" cy="360.0" r="2.0" stroke="#b20000" stroke-width="4.0" fill="#b20000" />
</g>
<g>
<text text-anchor="end" x="1237.0" y="189.0" fill="#000000" style="font-size:24px">3FFF</text>
<circle cx="1240.0" cy="180.0" r="2.0" stroke="#b20000" stroke-width="4.0" fill="#b20000" />
</g>
<g>
<path d="M 1390,110 L 1341,110 L 1341,50 L 1390,50 C 1400,50 1420,60 1419,80 C 1419,100 1400,110 1390,110 Z" stroke="#000000" stroke-width="4.0" fill="none"/>
<circle cx="1330.0" cy="60.0" r="8.0" stroke="#000000" stroke-width="4.0" fill="none" />
<circle cx="1320.0" cy="60.0" r="2.0" stroke="#0000b2" stroke-width="4.0" fill="#0000b2" />
<circle cx="1340.0" cy="100.0" r="2.0" stroke="#0000b2" stroke-width="4.0" fill="#0000b2" />
<circle cx="1420.0" cy="80.0" r="2.0" stroke="#b20000" stroke-width="4.0" fill="#b20000" />
</g>
<g>
<path d="M 1330,530 L 1281,530 L 1281,470 L 1330,470 C 1340,470 1360,480 1359,500 C 1359,520 1340,530 1330,530 Z" stroke="#000000" stroke-width="4.0" fill="none"/>
<circle cx="1280.0" cy="480.0" r="2.0" stroke="#0000b2" stroke-width="4.0" fill="#0000b2" />
<circle cx="1280.0" cy="520.0" r="2.0" stroke="#0000b2" stroke-width="4.0" fill="#0000b2" />
<circle cx="1360.0" cy="500.0" r="2.0" stroke="#b20000" stroke-width="4.0" fill="#b20000" />
</g>
<g>
<path d="M 1069,445 L 1099,445 L 1099,475 L 1069,475 Z" stroke="#000000" stroke-width="4.0" fill="none"/>
<text text-anchor="end" x="1055.0" y="469.0" fill="#000000" style="font-size:24px"><tspan style="font-style:italic;">relogio</tspan></text>
<path d="M 1075,465 L 1080,465 L 1080,455 L 1085,455 L 1085,465 L 1090,465 L 1090,455 L 1095,455" stroke="#000000" stroke-width="2.0" fill="none"/>
<circle cx="1100.0" cy="460.0" r="2.0" stroke="#b20000" stroke-width="4.0" fill="#b20000" />
</g>
<g>
<path d="M 781,130 L 839,130 L 839,190 L 781,190 Z" stroke="#000000" stroke-width="4.0" fill="none"/>
<text text-anchor="middle" x="810.0" y="122.0" fill="#000000" style="font-size:24px">E</text>
<text text-anchor="start" x="784.0" y="146.75" fill="#808080" style="font-size:18px">D</text>
<path d="M 781,167 L 788,160 L 781,153" stroke="#000000" stroke-width="2.0" fill="none"/>
<text text-anchor="start" x="791.0" y="166.75" fill="#808080" style="font-size:18px">C</text>
<text text-anchor="start" x="784.0" y="186.75" fill="#808080" style="font-size:18px">en</text>
<text text-anchor="end" x="836.0" y="166.75" fill="#808080" style="font-size:18px">Q</text>
<text text-anchor="middle" x="810.0" y="207.5" fill="#808080" style="font-size:18px">Reg</text>
<circle cx="780.0" cy="140.0" r="2.0" stroke="#0000b2" stroke-width="4.0" fill="#0000b2" />
<circle cx="780.0" cy="160.0" r="2.0" stroke="#0000b2" stroke-width="4.0" fill="#0000b2" />
<circle cx="780.0" cy="180.0" r="2.0" stroke="#0000b2" stroke-width="4.0" fill="#0000b2" />
<circle cx="840.0" cy="160.0" r="2.0" stroke="#b20000" stroke-width="4.0" fill="#b20000" />
</g>
<g>
<path d="M 441,50 L 499,50 L 499,110 L 441,110 Z" stroke="#000000" stroke-width="4.0" fill="none"/>
<text text-anchor="middle" x="470.0" y="42.0" fill="#000000" style="font-size:24px">CI</text>
<text text-anchor="start" x="444.0" y="66.75" fill="#808080" style="font-size:18px">D</text>
<path d="M 441,87 L 448,80 L 441,73" stroke="#000000" stroke-width="2.0" fill="none"/>
<text text-anchor="start" x="451.0" y="86.75" fill="#808080" style="font-size:18px">C</text>
<text text-anchor="start" x="444.0" y="106.75" fill="#808080" style="font-size:18px">en</text>
<text text-anchor="end" x="496.0" y="86.75" fill="#808080" style="font-size:18px">Q</text>
<text text-anchor="middle" x="470.0" y="127.5" fill="#808080" style="font-size:18px">Reg</text>
<circle cx="440.0" cy="60.0" r="2.0" stroke="#0000b2" stroke-width="4.0" fill="#0000b2" />
<circle cx="440.0" cy="80.0" r="2.0" stroke="#0000b2" stroke-width="4.0" fill="#0000b2" />
<circle cx="440.0" cy="100.0" r="2.0" stroke="#0000b2" stroke-width="4.0" fill="#0000b2" />
<circle cx="500.0" cy="80.0" r="2.0" stroke="#b20000" stroke-width="4.0" fill="#b20000" />
</g>
<g>
<path d="M 781,370 L 839,370 L 839,430 L 781,430 Z" stroke="#000000" stroke-width="4.0" fill="none"/>
<text text-anchor="middle" x="810.0" y="362.0" fill="#000000" style="font-size:24px">A</text>
<text text-anchor="start" x="784.0" y="386.75" fill="#808080" style="font-size:18px">D</text>
<path d="M 781,407 L 788,400 L 781,393" stroke="#000000" stroke-width="2.0" fill="none"/>
<text text-anchor="start" x="791.0" y="406.75" fill="#808080" style="font-size:18px">C</text>
<text text-anchor="start" x="784.0" y="426.75" fill="#808080" style="font-size:18px">en</text>
<text text-anchor="end" x="836.0" y="406.75" fill="#808080" style="font-size:18px">Q</text>
<text text-anchor="middle" x="810.0" y="447.5" fill="#808080" style="font-size:18px">Reg</text>
<circle cx="780.0" cy="380.0" r="2.0" stroke="#0000b2" stroke-width="4.0" fill="#0000b2" />
<circle cx="780.0" cy="400.0" r="2.0" stroke="#0000b2" stroke-width="4.0" fill="#0000b2" />
<circle cx="780.0" cy="420.0" r="2.0" stroke="#0000b2" stroke-width="4.0" fill="#0000b2" />
<circle cx="840.0" cy="400.0" r="2.0" stroke="#b20000" stroke-width="4.0" fill="#b20000" />
</g>
<g>
<path d="M 621,116 L 659,125 L 659,155 L 621,164 Z" stroke="#000000" stroke-width="4.0" fill="none"/>
<text text-anchor="start" x="623.0" y="135.5" fill="#808080" style="font-size:18px">0</text>
<circle cx="640.0" cy="160.0" r="2.0" stroke="#0000b2" stroke-width="4.0" fill="#0000b2" />
<circle cx="620.0" cy="120.0" r="2.0" stroke="#0000b2" stroke-width="4.0" fill="#0000b2" />
<circle cx="620.0" cy="160.0" r="2.0" stroke="#0000b2" stroke-width="4.0" fill="#0000b2" />
<circle cx="660.0" cy="140.0" r="2.0" stroke="#b20000" stroke-width="4.0" fill="#b20000" />
</g>
<g>
<text text-anchor="end" x="458.0" y="157.0" fill="#808080" style="font-size:12px">0-15</text>
<text text-anchor="start" x="482.0" y="157.0" fill="#808080" style="font-size:12px">0-13</text>
<text text-anchor="start" x="482.0" y="177.0" fill="#808080" style="font-size:12px">14</text>
<text text-anchor="start" x="482.0" y="197.0" fill="#808080" style="font-size:12px">15</text>
<path d="M 468,158 L 472,158 L 472,202 L 468,202 Z" stroke="#000000" stroke-width="4.0" fill="#000000" fill-opacity="1.0"/>
<circle cx="460.0" cy="160.0" r="2.0" stroke="#0000b2" stroke-width="4.0" fill="#0000b2" />
<circle cx="480.0" cy="160.0" r="2.0" stroke="#b20000" stroke-width="4.0" fill="#b20000" />
<circle cx="480.0" cy="180.0" r="2.0" stroke="#b20000" stroke-width="4.0" fill="#b20000" />
<circle cx="480.0" cy="200.0" r="2.0" stroke="#b20000" stroke-width="4.0" fill="#b20000" />
</g>
<g>
<path d="M 301,50 L 359,50 L 359,110 L 301,110 Z" stroke="#000000" stroke-width="4.0" fill="none"/>
<text text-anchor="start" x="304.0" y="66.75" fill="#808080" style="font-size:18px">a</text>
<text text-anchor="start" x="304.0" y="86.75" fill="#808080" style="font-size:18px">b</text>
<text text-anchor="start" x="304.0" y="106.75" fill="#808080" style="font-size:18px">c<tspan style="font-size:80%;baseline-shift:sub;">i</tspan></text>
<text text-anchor="end" x="356.0" y="66.75" fill="#808080" style="font-size:18px">s</text>
<text text-anchor="end" x="356.0" y="86.75" fill="#808080" style="font-size:18px">c<tspan style="font-size:80%;baseline-shift:sub;">o</tspan></text>
<text text-anchor="middle" x="330.0" y="127.5" fill="#808080" style="font-size:18px">Soma</text>
<circle cx="300.0" cy="60.0" r="2.0" stroke="#0000b2" stroke-width="4.0" fill="#0000b2" />
<circle cx="300.0" cy="80.0" r="2.0" stroke="#0000b2" stroke-width="4.0" fill="#0000b2" />
<circle cx="300.0" cy="100.0" r="2.0" stroke="#0000b2" stroke-width="4.0" fill="#0000b2" />
<circle cx="360.0" cy="60.0" r="2.0" stroke="#b20000" stroke-width="4.0" fill="#b20000" />
<circle cx="360.0" cy="80.0" r="2.0" stroke="#b20000" stroke-width="4.0" fill="#b20000" />
</g>
<g>
<text text-anchor="end" x="277.0" y="89.0" fill="#000000" style="font-size:24px">0</text>
<circle cx="280.0" cy="80.0" r="2.0" stroke="#b20000" stroke-width="4.0" fill="#b20000" />
</g>
<g>
<text text-anchor="end" x="277.0" y="109.0" fill="#000000" style="font-size:24px">1</text>
<circle cx="280.0" cy="100.0" r="2.0" stroke="#b20000" stroke-width="4.0" fill="#b20000" />
</g>
<g>
<path d="M 481,330 L 539,330 L 539,390 L 481,390 Z" stroke="#000000" stroke-width="4.0" fill="none"/>
<text text-anchor="start" x="484.0" y="346.75" fill="#808080" style="font-size:18px">a</text>
<text text-anchor="start" x="484.0" y="366.75" fill="#808080" style="font-size:18px">b</text>
<text text-anchor="start" x="484.0" y="386.75" fill="#808080" style="font-size:18px">c<tspan style="font-size:80%;baseline-shift:sub;">i</tspan></text>
<text text-anchor="end" x="536.0" y="346.75" fill="#808080" style="font-size:18px">s</text>
<text text-anchor="end" x="536.0" y="366.75" fill="#808080" style="font-size:18px">c<tspan style="font-size:80%;baseline-shift:sub;">o</tspan></text>
<text text-anchor="middle" x="510.0" y="407.5" fill="#808080" style="font-size:18px">Soma</text>
<circle cx="480.0" cy="340.0" r="2.0" stroke="#0000b2" stroke-width="4.0" fill="#0000b2" />
<circle cx="480.0" cy="360.0" r="2.0" stroke="#0000b2" stroke-width="4.0" fill="#0000b2" />
<circle cx="480.0" cy="380.0" r="2.0" stroke="#0000b2" stroke-width="4.0" fill="#0000b2" />
<circle cx="540.0" cy="340.0" r="2.0" stroke="#b20000" stroke-width="4.0" fill="#b20000" />
<circle cx="540.0" cy="360.0" r="2.0" stroke="#b20000" stroke-width="4.0" fill="#b20000" />
</g>
<g>
<path d="M 641,356 L 679,365 L 679,395 L 641,404 Z" stroke="#000000" stroke-width="4.0" fill="none"/>
<text text-anchor="start" x="643.0" y="375.5" fill="#808080" style="font-size:18px">0</text>
<circle cx="660.0" cy="400.0" r="2.0" stroke="#0000b2" stroke-width="4.0" fill="#0000b2" />
<circle cx="640.0" cy="360.0" r="2.0" stroke="#0000b2" stroke-width="4.0" fill="#0000b2" />
<circle cx="640.0" cy="400.0" r="2.0" stroke="#0000b2" stroke-width="4.0" fill="#0000b2" />
<circle cx="680.0" cy="380.0" r="2.0" stroke="#b20000" stroke-width="4.0" fill="#b20000" />
</g>
<g>
<text text-anchor="end" x="457.0" y="389.0" fill="#000000" style="font-size:24px">0</text>
<circle cx="460.0" cy="380.0" r="2.0" stroke="#b20000" stroke-width="4.0" fill="#b20000" />
</g>
<g>
<path d="M 490,490 L 460,490 C 470,474 470,446 460,430 L 480,430 C 510,430 530,440 540,460 C 530,480 510,490 490,490 Z" stroke="#000000" stroke-width="4.0" fill="none"/>
<circle cx="550.0" cy="460.0" r="9.0" stroke="#000000" stroke-width="4.0" fill="none" />
<circle cx="460.0" cy="440.0" r="2.0" stroke="#0000b2" stroke-width="4.0" fill="#0000b2" />
<circle cx="460.0" cy="480.0" r="2.0" stroke="#0000b2" stroke-width="4.0" fill="#0000b2" />
<circle cx="560.0" cy="460.0" r="2.0" stroke="#b20000" stroke-width="4.0" fill="#b20000" />
</g>
<g>
<path d="M 781,250 L 839,250 L 839,310 L 781,310 Z" stroke="#000000" stroke-width="4.0" fill="none"/>
<text text-anchor="middle" x="810.0" y="242.0" fill="#000000" style="font-size:24px">C</text>
<text text-anchor="start" x="784.0" y="266.75" fill="#808080" style="font-size:18px">D</text>
<path d="M 781,287 L 788,280 L 781,273" stroke="#000000" stroke-width="2.0" fill="none"/>
<text text-anchor="start" x="791.0" y="286.75" fill="#808080" style="font-size:18px">C</text>
<text text-anchor="start" x="784.0" y="306.75" fill="#808080" style="font-size:18px">en</text>
<text text-anchor="end" x="836.0" y="286.75" fill="#808080" style="font-size:18px">Q</text>
<text text-anchor="middle" x="810.0" y="327.5" fill="#808080" style="font-size:18px">Reg</text>
<circle cx="780.0" cy="260.0" r="2.0" stroke="#0000b2" stroke-width="4.0" fill="#0000b2" />
<circle cx="780.0" cy="280.0" r="2.0" stroke="#0000b2" stroke-width="4.0" fill="#0000b2" />
<circle cx="780.0" cy="300.0" r="2.0" stroke="#0000b2" stroke-width="4.0" fill="#0000b2" />
<circle cx="840.0" cy="280.0" r="2.0" stroke="#b20000" stroke-width="4.0" fill="#b20000" />
</g>
<g>
<path d="M 670,290 L 621,290 L 621,230 L 670,230 C 680,230 700,240 699,260 C 699,280 680,290 670,290 Z" stroke="#000000" stroke-width="4.0" fill="none"/>
<circle cx="620.0" cy="240.0" r="2.0" stroke="#0000b2" stroke-width="4.0" fill="#0000b2" />
<circle cx="620.0" cy="280.0" r="2.0" stroke="#0000b2" stroke-width="4.0" fill="#0000b2" />
<circle cx="700.0" cy="260.0" r="2.0" stroke="#b20000" stroke-width="4.0" fill="#b20000" />
</g>
<g>
<path d="M 340,20 L 326,12 L 326,28 Z" stroke="#000000" stroke-width="4.0" fill="none"/>
<text text-anchor="end" x="321.0" y="26.75" fill="#808080" style="font-size:18px">hCI</text>
<circle cx="340.0" cy="20.0" r="2.0" stroke="#0000b2" stroke-width="4.0" fill="#0000b2" />
</g>
<g>
<path d="M 620,200 L 606,192 L 606,208 Z" stroke="#000000" stroke-width="4.0" fill="none"/>
<text text-anchor="end" x="601.0" y="206.75" fill="#808080" style="font-size:18px">sE</text>
<circle cx="620.0" cy="200.0" r="2.0" stroke="#0000b2" stroke-width="4.0" fill="#0000b2" />
</g>
<g>
<path d="M 600,240 L 586,232 L 586,248 Z" stroke="#000000" stroke-width="4.0" fill="none"/>
<text text-anchor="end" x="581.0" y="246.75" fill="#808080" style="font-size:18px">limpC</text>
<circle cx="600.0" cy="240.0" r="2.0" stroke="#0000b2" stroke-width="4.0" fill="#0000b2" />
</g>
<g>
<path d="M 620,500 L 606,492 L 606,508 Z" stroke="#000000" stroke-width="4.0" fill="none"/>
<text text-anchor="end" x="601.0" y="506.75" fill="#808080" style="font-size:18px">sULA</text>
<circle cx="620.0" cy="500.0" r="2.0" stroke="#0000b2" stroke-width="4.0" fill="#0000b2" />
</g>
<g>
<path d="M 740,180 L 726,172 L 726,188 Z" stroke="#000000" stroke-width="4.0" fill="none"/>
<text text-anchor="end" x="721.0" y="186.75" fill="#808080" style="font-size:18px">hE</text>
<circle cx="740.0" cy="180.0" r="2.0" stroke="#0000b2" stroke-width="4.0" fill="#0000b2" />
</g>
<g>
<path d="M 740,300 L 726,292 L 726,308 Z" stroke="#000000" stroke-width="4.0" fill="none"/>
<text text-anchor="end" x="721.0" y="306.75" fill="#808080" style="font-size:18px">hC</text>
<circle cx="740.0" cy="300.0" r="2.0" stroke="#0000b2" stroke-width="4.0" fill="#0000b2" />
</g>
<g>
<path d="M 740,420 L 726,412 L 726,428 Z" stroke="#000000" stroke-width="4.0" fill="none"/>
<text text-anchor="end" x="721.0" y="426.75" fill="#808080" style="font-size:18px">hA</text>
<circle cx="740.0" cy="420.0" r="2.0" stroke="#0000b2" stroke-width="4.0" fill="#0000b2" />
</g>
<g>
<path d="M 1100,60 L 1086,52 L 1086,68 Z" stroke="#000000" stroke-width="4.0" fill="none"/>
<text text-anchor="end" x="1081.0" y="66.75" fill="#808080" style="font-size:18px">grava</text>
<circle cx="1100.0" cy="60.0" r="2.0" stroke="#0000b2" stroke-width="4.0" fill="#0000b2" />
</g>
<g>
<path d="M 1100,940 L 1114,948 L 1114,932 Z" stroke="#000000" stroke-width="4.0" fill="none"/>
<text text-anchor="start" x="1119.0" y="946.75" fill="#808080" style="font-size:18px">grava</text>
<circle cx="1100.0" cy="940.0" r="2.0" stroke="#0000b2" stroke-width="4.0" fill="#0000b2" />
</g>
<g>
<path d="M 560,920 L 574,928 L 574,912 Z" stroke="#000000" stroke-width="4.0" fill="none"/>
<text text-anchor="start" x="579.0" y="926.75" fill="#808080" style="font-size:18px">hCI</text>
<circle cx="560.0" cy="920.0" r="2.0" stroke="#0000b2" stroke-width="4.0" fill="#0000b2" />
</g>
<g>
<path d="M 560,960 L 574,968 L 574,952 Z" stroke="#000000" stroke-width="4.0" fill="none"/>
<text text-anchor="start" x="579.0" y="966.75" fill="#808080" style="font-size:18px">sE</text>
<circle cx="560.0" cy="960.0" r="2.0" stroke="#0000b2" stroke-width="4.0" fill="#0000b2" />
</g>
<g>
<path d="M 720,760 L 734,768 L 734,752 Z" stroke="#000000" stroke-width="4.0" fill="none"/>
<text text-anchor="start" x="739.0" y="766.75" fill="#808080" style="font-size:18px">limpC</text>
<circle cx="720.0" cy="760.0" r="2.0" stroke="#0000b2" stroke-width="4.0" fill="#0000b2" />
</g>
<g>
<path d="M 720,660 L 734,668 L 734,652 Z" stroke="#000000" stroke-width="4.0" fill="none"/>
<text text-anchor="start" x="739.0" y="666.75" fill="#808080" style="font-size:18px">sULA</text>
<circle cx="720.0" cy="660.0" r="2.0" stroke="#0000b2" stroke-width="4.0" fill="#0000b2" />
</g>
<g>
<path d="M 1100,740 L 1114,748 L 1114,732 Z" stroke="#000000" stroke-width="4.0" fill="none"/>
<text text-anchor="start" x="1119.0" y="746.75" fill="#808080" style="font-size:18px">hC</text>
<circle cx="1100.0" cy="740.0" r="2.0" stroke="#0000b2" stroke-width="4.0" fill="#0000b2" />
</g>
<g>
<path d="M 1100,840 L 1114,848 L 1114,832 Z" stroke="#000000" stroke-width="4.0" fill="none"/>
<text text-anchor="start" x="1119.0" y="846.75" fill="#808080" style="font-size:18px">hA</text>
<circle cx="1100.0" cy="840.0" r="2.0" stroke="#0000b2" stroke-width="4.0" fill="#0000b2" />
</g>
<g>
<path d="M 1100,1080 L 1114,1088 L 1114,1072 Z" stroke="#000000" stroke-width="4.0" fill="none"/>
<text text-anchor="start" x="1119.0" y="1086.75" fill="#808080" style="font-size:18px">hE</text>
<circle cx="1100.0" cy="1080.0" r="2.0" stroke="#0000b2" stroke-width="4.0" fill="#0000b2" />
</g>
<g>
<path d="M 500,180 L 514,188 L 514,172 Z" stroke="#000000" stroke-width="4.0" fill="none"/>
<text text-anchor="start" x="519.0" y="186.75" fill="#808080" style="font-size:18px">d14</text>
<circle cx="500.0" cy="180.0" r="2.0" stroke="#0000b2" stroke-width="4.0" fill="#0000b2" />
</g>
<g>
<path d="M 500,200 L 514,208 L 514,192 Z" stroke="#000000" stroke-width="4.0" fill="none"/>
<text text-anchor="start" x="519.0" y="206.75" fill="#808080" style="font-size:18px">d15</text>
<circle cx="500.0" cy="200.0" r="2.0" stroke="#0000b2" stroke-width="4.0" fill="#0000b2" />
</g>
<g>
<path d="M 441,630 L 499,630 L 499,690 L 441,690 Z" stroke="#000000" stroke-width="4.0" fill="none"/>
<text text-anchor="start" x="444.0" y="646.75" fill="#808080" style="font-size:18px">D</text>
<path d="M 441,667 L 448,660 L 441,653" stroke="#000000" stroke-width="2.0" fill="none"/>
<text text-anchor="start" x="451.0" y="666.75" fill="#808080" style="font-size:18px">C</text>
<text text-anchor="start" x="444.0" y="686.75" fill="#808080" style="font-size:18px">en</text>
<text text-anchor="end" x="496.0" y="666.75" fill="#808080" style="font-size:18px">Q</text>
<text text-anchor="middle" x="470.0" y="707.5" fill="#808080" style="font-size:18px">Reg</text>
<circle cx="440.0" cy="640.0" r="2.0" stroke="#0000b2" stroke-width="4.0" fill="#0000b2" />
<circle cx="440.0" cy="660.0" r="2.0" stroke="#0000b2" stroke-width="4.0" fill="#0000b2" />
<circle cx="440.0" cy="680.0" r="2.0" stroke="#0000b2" stroke-width="4.0" fill="#0000b2" />
<circle cx="500.0" cy="660.0" r="2.0" stroke="#b20000" stroke-width="4.0" fill="#b20000" />
</g>
<g>
<path d="M 860,280 L 874,288 L 874,272 Z" stroke="#000000" stroke-width="4.0" fill="none"/>
<text text-anchor="start" x="879.0" y="286.75" fill="#808080" style="font-size:18px">C</text>
<circle cx="860.0" cy="280.0" r="2.0" stroke="#0000b2" stroke-width="4.0" fill="#0000b2" />
</g>
<g>
<path d="M 441,730 L 499,730 L 499,790 L 441,790 Z" stroke="#000000" stroke-width="4.0" fill="none"/>
<text text-anchor="start" x="444.0" y="746.75" fill="#808080" style="font-size:18px">D</text>
<path d="M 441,767 L 448,760 L 441,753" stroke="#000000" stroke-width="2.0" fill="none"/>
<text text-anchor="start" x="451.0" y="766.75" fill="#808080" style="font-size:18px">C</text>
<text text-anchor="start" x="444.0" y="786.75" fill="#808080" style="font-size:18px">en</text>
<text text-anchor="end" x="496.0" y="766.75" fill="#808080" style="font-size:18px">Q</text>
<text text-anchor="middle" x="470.0" y="807.5" fill="#808080" style="font-size:18px">Reg</text>
<circle cx="440.0" cy="740.0" r="2.0" stroke="#0000b2" stroke-width="4.0" fill="#0000b2" />
<circle cx="440.0" cy="760.0" r="2.0" stroke="#0000b2" stroke-width="4.0" fill="#0000b2" />
<circle cx="440.0" cy="780.0" r="2.0" stroke="#0000b2" stroke-width="4.0" fill="#0000b2" />
<circle cx="500.0" cy="760.0" r="2.0" stroke="#b20000" stroke-width="4.0" fill="#b20000" />
</g>
<g>
<path d="M 441,850 L 499,850 L 499,890 L 441,890 Z" stroke="#000000" stroke-width="4.0" fill="none"/>
<text text-anchor="start" x="444.0" y="866.75" fill="#808080" style="font-size:18px">D</text>
<path d="M 441,887 L 448,880 L 441,873" stroke="#000000" stroke-width="2.0" fill="none"/>
<text text-anchor="start" x="451.0" y="886.75" fill="#808080" style="font-size:18px">C</text>
<text text-anchor="end" x="496.0" y="866.75" fill="#808080" style="font-size:18px">Q</text>
<text text-anchor="end" x="496.0" y="886.75" fill="#808080" style="font-size:18px"><tspan style="text-decoration:overline;">Q</tspan></text>
<text text-anchor="middle" x="470.0" y="907.5" fill="#808080" style="font-size:18px">D</text>
<circle cx="440.0" cy="860.0" r="2.0" stroke="#0000b2" stroke-width="4.0" fill="#0000b2" />
<circle cx="440.0" cy="880.0" r="2.0" stroke="#0000b2" stroke-width="4.0" fill="#0000b2" />
<circle cx="500.0" cy="860.0" r="2.0" stroke="#b20000" stroke-width="4.0" fill="#b20000" />
<circle cx="500.0" cy="880.0" r="2.0" stroke="#b20000" stroke-width="4.0" fill="#b20000" />
</g>
<g>
<path d="M 360,640 L 346,632 L 346,648 Z" stroke="#000000" stroke-width="4.0" fill="none"/>
<text text-anchor="end" x="341.0" y="646.75" fill="#808080" style="font-size:18px">d14</text>
<circle cx="360.0" cy="640.0" r="2.0" stroke="#0000b2" stroke-width="4.0" fill="#0000b2" />
</g>
<g>
<path d="M 360,740 L 346,732 L 346,748 Z" stroke="#000000" stroke-width="4.0" fill="none"/>
<text text-anchor="end" x="341.0" y="746.75" fill="#808080" style="font-size:18px">d15</text>
<circle cx="360.0" cy="740.0" r="2.0" stroke="#0000b2" stroke-width="4.0" fill="#0000b2" />
</g>
<g>
<path d="M 621,648 L 639,660 L 621,672 Z" stroke="#000000" stroke-width="4.0" fill="none"/>
<circle cx="650.0" cy="660.0" r="9.0" stroke="#000000" stroke-width="4.0" fill="none" />
<circle cx="620.0" cy="660.0" r="2.0" stroke="#0000b2" stroke-width="4.0" fill="#0000b2" />
<circle cx="660.0" cy="660.0" r="2.0" stroke="#b20000" stroke-width="4.0" fill="#b20000" />
</g>
<g>
<path d="M 621,748 L 639,760 L 621,772 Z" stroke="#000000" stroke-width="4.0" fill="none"/>
<circle cx="650.0" cy="760.0" r="9.0" stroke="#000000" stroke-width="4.0" fill="none" />
<circle cx="620.0" cy="760.0" r="2.0" stroke="#0000b2" stroke-width="4.0" fill="#0000b2" />
<circle cx="660.0" cy="760.0" r="2.0" stroke="#b20000" stroke-width="4.0" fill="#b20000" />
</g>
<g>
<path d="M 1030,770 L 981,770 L 981,710 L 1030,710 C 1040,710 1060,720 1059,740 C 1059,760 1040,770 1030,770 Z" stroke="#000000" stroke-width="4.0" fill="none"/>
<circle cx="980.0" cy="720.0" r="2.0" stroke="#0000b2" stroke-width="4.0" fill="#0000b2" />
<circle cx="980.0" cy="760.0" r="2.0" stroke="#0000b2" stroke-width="4.0" fill="#0000b2" />
<circle cx="1060.0" cy="740.0" r="2.0" stroke="#b20000" stroke-width="4.0" fill="#b20000" />
</g>
<g>
<path d="M 1030,870 L 981,870 L 981,810 L 1030,810 C 1040,810 1060,820 1059,840 C 1059,860 1040,870 1030,870 Z" stroke="#000000" stroke-width="4.0" fill="none"/>
<circle cx="980.0" cy="820.0" r="2.0" stroke="#0000b2" stroke-width="4.0" fill="#0000b2" />
<circle cx="980.0" cy="860.0" r="2.0" stroke="#0000b2" stroke-width="4.0" fill="#0000b2" />
<circle cx="1060.0" cy="840.0" r="2.0" stroke="#b20000" stroke-width="4.0" fill="#b20000" />
</g>
<g>
<path d="M 1030,970 L 981,970 L 981,910 L 1030,910 C 1040,910 1060,920 1059,940 C 1059,960 1040,970 1030,970 Z" stroke="#000000" stroke-width="4.0" fill="none"/>
<circle cx="980.0" cy="920.0" r="2.0" stroke="#0000b2" stroke-width="4.0" fill="#0000b2" />
<circle cx="980.0" cy="940.0" r="2.0" stroke="#0000b2" stroke-width="4.0" fill="#0000b2" />
<circle cx="980.0" cy="960.0" r="2.0" stroke="#0000b2" stroke-width="4.0" fill="#0000b2" />
<circle cx="1060.0" cy="940.0" r="2.0" stroke="#b20000" stroke-width="4.0" fill="#b20000" />
</g>
<g>
<path d="M 1030,1110 L 981,1110 L 981,1050 L 1030,1050 C 1040,1050 1060,1060 1059,1080 C 1059,1100 1040,1110 1030,1110 Z" stroke="#000000" stroke-width="4.0" fill="none"/>
<circle cx="1070.0" cy="1080.0" r="9.0" stroke="#000000" stroke-width="4.0" fill="none" />
<circle cx="980.0" cy="1040.0" r="2.0" stroke="#0000b2" stroke-width="4.0" fill="#0000b2" />
<circle cx="980.0" cy="1060.0" r="2.0" stroke="#0000b2" stroke-width="4.0" fill="#0000b2" />
<circle cx="980.0" cy="1100.0" r="2.0" stroke="#0000b2" stroke-width="4.0" fill="#0000b2" />
<circle cx="980.0" cy="1120.0" r="2.0" stroke="#0000b2" stroke-width="4.0" fill="#0000b2" />
<circle cx="1080.0" cy="1080.0" r="2.0" stroke="#b20000" stroke-width="4.0" fill="#b20000" />
</g>
<g>
<path d="M 700,1120 L 686,1112 L 686,1128 Z" stroke="#000000" stroke-width="4.0" fill="none"/>
<text text-anchor="end" x="681.0" y="1126.75" fill="#808080" style="font-size:18px">C</text>
<circle cx="700.0" cy="1120.0" r="2.0" stroke="#0000b2" stroke-width="4.0" fill="#0000b2" />
</g>
<g>
<path d="M 821,1108 L 839,1120 L 821,1132 Z" stroke="#000000" stroke-width="4.0" fill="none"/>
<circle cx="850.0" cy="1120.0" r="9.0" stroke="#000000" stroke-width="4.0" fill="none" />
<circle cx="820.0" cy="1120.0" r="2.0" stroke="#0000b2" stroke-width="4.0" fill="#0000b2" />
<circle cx="860.0" cy="1120.0" r="2.0" stroke="#b20000" stroke-width="4.0" fill="#b20000" />
</g>
</g>
</svg>