<?xml version="1.0" encoding="UTF-8" standalone="no"?>
<!-- Created with Digital by H.Neemann -->
<!-- created: Thu Aug 15 17:23:27 BRT 2024 -->

<svg
   xmlns:svg="http://www.w3.org/2000/svg"
   xmlns="http://www.w3.org/2000/svg"
   width="186.9mm"
   height="183.75mm"
   viewBox="38 57 1246 1225">
<g stroke-linecap="square">
<path d="M 900,280 L 900,320 L 980,320" stroke="#0000b2" stroke-width="4.0" fill="none"/>
<path d="M 460,320 L 480,320" stroke="#0000b2" stroke-width="4.0" fill="none"/>
<path d="M 320,960 L 340,960 L 500,960" stroke="#0000b2" stroke-width="4.0" fill="none"/>
<path d="M 600,260 L 660,260" stroke="#0000b2" stroke-width="4.0" fill="none"/>
<path d="M 760,840 L 760,900 L 880,900" stroke="#0000b2" stroke-width="4.0" fill="none"/>
<path d="M 660,580 L 680,580" stroke="#0000b2" stroke-width="4.0" fill="none"/>
<path d="M 760,900 L 760,1220 L 840,1220" stroke="#0000b2" stroke-width="4.0" fill="none"/>
<path d="M 480,520 L 500,520" stroke="#0000b2" stroke-width="4.0" fill="none"/>
<path d="M 380,440 L 380,520 L 420,520" stroke="#0000b2" stroke-width="4.0" fill="none"/>
<path d="M 820,880 L 820,1160 L 840,1160" stroke="#0000b2" stroke-width="4.0" fill="none"/>
<path d="M 440,200 L 460,200" stroke="#0000b2" stroke-width="4.0" fill="none"/>
<path d="M 620,840 L 760,840 L 760,820" stroke="#0000b2" stroke-width="4.0" fill="none"/>
<path d="M 320,840 L 480,840 L 480,920 L 500,920" stroke="#0000b2" stroke-width="4.0" fill="none"/>
<path d="M 740,460 L 780,460 L 900,460 L 900,320" stroke="#0000b2" stroke-width="4.0" fill="none"/>
<path d="M 660,460 L 680,460" stroke="#0000b2" stroke-width="4.0" fill="none"/>
<path d="M 980,1100 L 1040,1100" stroke="#0000b2" stroke-width="4.0" fill="none"/>
<path d="M 200,720 L 240,720 L 260,720" stroke="#0000b2" stroke-width="4.0" fill="none"/>
<path d="M 1040,340 L 1080,340 L 1080,320" stroke="#0000b2" stroke-width="4.0" fill="none"/>
<path d="M 540,280 L 540,340 L 780,340 L 780,320 L 820,320" stroke="#0000b2" stroke-width="4.0" fill="none"/>
<path d="M 800,940 L 800,980 L 900,980" stroke="#0000b2" stroke-width="4.0" fill="none"/>
<path d="M 340,280 L 380,280 L 440,280" stroke="#0000b2" stroke-width="4.0" fill="none"/>
<path d="M 240,840 L 240,720 L 240,280 L 280,280" stroke="#0000b2" stroke-width="4.0" fill="none"/>
<path d="M 720,280 L 820,280" stroke="#0000b2" stroke-width="4.0" fill="none"/>
<path d="M 460,280 L 540,280 L 560,280" stroke="#0000b2" stroke-width="4.0" fill="none"/>
<path d="M 640,280 L 660,280" stroke="#0000b2" stroke-width="4.0" fill="none"/>
<path d="M 800,980 L 800,1180 L 840,1180" stroke="#0000b2" stroke-width="4.0" fill="none"/>
<path d="M 580,540 L 680,540" stroke="#0000b2" stroke-width="4.0" fill="none"/>
<path d="M 400,540 L 420,540" stroke="#0000b2" stroke-width="4.0" fill="none"/>
<path d="M 780,740 L 780,860 L 900,860" stroke="#0000b2" stroke-width="4.0" fill="none"/>
<path d="M 520,160 L 540,160 L 540,240 L 560,240" stroke="#0000b2" stroke-width="4.0" fill="none"/>
<path d="M 620,800 L 800,800 L 880,800" stroke="#0000b2" stroke-width="4.0" fill="none"/>
<path d="M 980,800 L 1020,800 L 1040,800" stroke="#0000b2" stroke-width="4.0" fill="none"/>
<path d="M 100,920 L 100,800 L 220,800 L 340,800 L 340,780" stroke="#0000b2" stroke-width="4.0" fill="none"/>
<path d="M 660,480 L 680,480" stroke="#0000b2" stroke-width="4.0" fill="none"/>
<path d="M 520,420 L 560,420" stroke="#0000b2" stroke-width="4.0" fill="none"/>
<path d="M 960,360 L 980,360" stroke="#0000b2" stroke-width="4.0" fill="none"/>
<path d="M 980,1000 L 1040,1000" stroke="#0000b2" stroke-width="4.0" fill="none"/>
<path d="M 220,800 L 220,300 L 280,300" stroke="#0000b2" stroke-width="4.0" fill="none"/>
<path d="M 460,300 L 480,300" stroke="#0000b2" stroke-width="4.0" fill="none"/>
<path d="M 640,300 L 660,300" stroke="#0000b2" stroke-width="4.0" fill="none"/>
<path d="M 860,300 L 880,300 L 940,300 L 980,300" stroke="#0000b2" stroke-width="4.0" fill="none"/>
<path d="M 800,800 L 800,940 L 1040,940" stroke="#0000b2" stroke-width="4.0" fill="none"/>
<path d="M 580,940 L 600,940 L 780,940 L 780,1020 L 900,1020" stroke="#0000b2" stroke-width="4.0" fill="none"/>
<path d="M 200,940 L 260,940" stroke="#0000b2" stroke-width="4.0" fill="none"/>
<path d="M 320,940 L 340,940 L 360,940 L 440,940 L 440,880 L 820,880 L 860,880 L 860,780 L 900,780" stroke="#0000b2" stroke-width="4.0" fill="none"/>
<path d="M 260,440 L 260,620 L 1080,620 L 1080,340" stroke="#0000b2" stroke-width="4.0" fill="none"/>
<path d="M 660,560 L 680,560" stroke="#0000b2" stroke-width="4.0" fill="none"/>
<path d="M 740,560 L 760,560 L 760,660 L 740,660 L 740,1240 L 820,1240" stroke="#0000b2" stroke-width="4.0" fill="none"/>
<path d="M 980,880 L 1040,880" stroke="#0000b2" stroke-width="4.0" fill="none"/>
<path d="M 340,940 L 340,880 L 380,880" stroke="#0000b2" stroke-width="4.0" fill="none"/>
<path d="M 440,180 L 460,180" stroke="#0000b2" stroke-width="4.0" fill="none"/>
<path d="M 320,820 L 340,820 L 340,800" stroke="#0000b2" stroke-width="4.0" fill="none"/>
<path d="M 480,500 L 540,500 L 540,460 L 560,460" stroke="#0000b2" stroke-width="4.0" fill="none"/>
<path d="M 360,400 L 360,500 L 420,500" stroke="#0000b2" stroke-width="4.0" fill="none"/>
<path d="M 600,440 L 680,440" stroke="#0000b2" stroke-width="4.0" fill="none"/>
<path d="M 960,380 L 980,380" stroke="#0000b2" stroke-width="4.0" fill="none"/>
<path d="M 280,260 L 260,260 L 260,440 L 380,440 L 420,440 L 424,440" stroke="#0000b2" stroke-width="4.0" fill="none"/>
<path d="M 580,280 L 580,300" stroke="#0000b2" stroke-width="4.0" fill="none"/>
<path d="M 580,460 L 580,480" stroke="#0000b2" stroke-width="4.0" fill="none"/>
<path d="M 840,320 L 840,340" stroke="#0000b2" stroke-width="4.0" fill="none"/>
<path d="M 780,860 L 780,940" stroke="#0000b2" stroke-width="4.0" fill="none"/>
<path d="M 120,960 L 80,960 L 80,1000 L 340,1000 L 340,960" stroke="#0000b2" stroke-width="4.0" fill="none"/>
<path d="M 260,820 L 220,820 L 220,1020 L 600,1020 L 600,940" stroke="#0000b2" stroke-width="4.0" fill="none"/>
<path d="M 460,160 L 420,160 L 420,120 L 880,120 L 880,300" stroke="#0000b2" stroke-width="4.0" fill="none"/>
<path d="M 424,400 L 420,400 L 360,400 L 360,360 L 780,360 L 780,460" stroke="#0000b2" stroke-width="4.0" fill="none"/>
<path d="M 360,920 L 360,940" stroke="#0000b2" stroke-width="4.0" fill="none"/>
<path d="M 940,280 L 940,300" stroke="#0000b2" stroke-width="4.0" fill="none"/>
<path d="M 260,960 L 240,960 L 240,840 L 260,840" stroke="#0000b2" stroke-width="4.0" fill="none"/>
<path d="M 920,1200 L 940,1200 L 940,1160 L 880,1160 L 880,1120 L 900,1120 L 904,1120" stroke="#0000b2" stroke-width="4.0" fill="none"/>
<path d="M 900,820 L 760,820 L 760,680 L 460,680 L 460,560 L 480,560" stroke="#0000b2" stroke-width="4.0" fill="none"/>
<path d="M 380,260 L 380,280" stroke="#0000b2" stroke-width="4.0" fill="none"/>
<path d="M 1020,780 L 1020,800" stroke="#0000b2" stroke-width="4.0" fill="none"/>
<path d="M 120,920 L 100,920 L 60,920 L 60,1080 L 900,1080 L 904,1080" stroke="#0000b2" stroke-width="4.0" fill="none"/>
<path d="M 440,280 L 450,280 L 460,280" stroke="#000000" stroke-width="4.0" fill="none"/>
<path d="M 460,300 L 450,300" stroke="#000000" stroke-width="4.0" fill="none"/>
<path d="M 460,320 L 450,320" stroke="#000000" stroke-width="4.0" fill="none"/>
<path d="M 841,1160 L 841,1169" stroke="#000000" stroke-width="4.0" fill="none"/>
<path d="M 841,1240 L 841,1231" stroke="#000000" stroke-width="4.0" fill="none"/>
<path d="M 1232,195 L 1257,195 L 1282,195" stroke="#000000" stroke-width="4.0" fill="none"/>
<path d="M 1232,230 L 1257,230 L 1257,205 L 1282,205" stroke="#000000" stroke-width="4.0" fill="none"/>
<path d="M 1232,265 L 1257,265 L 1282,265" stroke="#000000" stroke-width="4.0" fill="none"/>
<path d="M 1232,200 L 1282,200" stroke-dasharray="4.0,4.0" stroke="#000000" stroke-width="1.0" fill="none"/>
<path d="M 1232,235 L 1282,235" stroke-dasharray="4.0,4.0" stroke="#000000" stroke-width="1.0" fill="none"/>
<path d="M 1282,165 L 1232,165 L 1232,270 L 1282,270 Z" stroke-dasharray="4.0,4.0" stroke="#000000" stroke-width="1.0" fill="none"/>
<path d="M 1257,165 L 1257,270" stroke-dasharray="4.0,4.0" stroke="#000000" stroke-width="1.0" fill="none"/>
<g>
<circle cx="900.0" cy="320.0" r="4.0" stroke="#0000b2" stroke-width="4.0" fill="#0000b2" />
<circle cx="340.0" cy="960.0" r="4.0" stroke="#0000b2" stroke-width="4.0" fill="#0000b2" />
<circle cx="760.0" cy="900.0" r="4.0" stroke="#0000b2" stroke-width="4.0" fill="#0000b2" />
<circle cx="760.0" cy="840.0" r="4.0" stroke="#0000b2" stroke-width="4.0" fill="#0000b2" />
<circle cx="240.0" cy="840.0" r="4.0" stroke="#0000b2" stroke-width="4.0" fill="#0000b2" />
<circle cx="780.0" cy="460.0" r="4.0" stroke="#0000b2" stroke-width="4.0" fill="#0000b2" />
<circle cx="360.0" cy="400.0" r="4.0" stroke="#0000b2" stroke-width="4.0" fill="#0000b2" />
<circle cx="240.0" cy="720.0" r="4.0" stroke="#0000b2" stroke-width="4.0" fill="#0000b2" />
<circle cx="1080.0" cy="340.0" r="4.0" stroke="#0000b2" stroke-width="4.0" fill="#0000b2" />
<circle cx="800.0" cy="980.0" r="4.0" stroke="#0000b2" stroke-width="4.0" fill="#0000b2" />
<circle cx="380.0" cy="280.0" r="4.0" stroke="#0000b2" stroke-width="4.0" fill="#0000b2" />
<circle cx="540.0" cy="280.0" r="4.0" stroke="#0000b2" stroke-width="4.0" fill="#0000b2" />
<circle cx="100.0" cy="920.0" r="4.0" stroke="#0000b2" stroke-width="4.0" fill="#0000b2" />
<circle cx="780.0" cy="860.0" r="4.0" stroke="#0000b2" stroke-width="4.0" fill="#0000b2" />
<circle cx="800.0" cy="800.0" r="4.0" stroke="#0000b2" stroke-width="4.0" fill="#0000b2" />
<circle cx="1020.0" cy="800.0" r="4.0" stroke="#0000b2" stroke-width="4.0" fill="#0000b2" />
<circle cx="220.0" cy="800.0" r="4.0" stroke="#0000b2" stroke-width="4.0" fill="#0000b2" />
<circle cx="340.0" cy="800.0" r="4.0" stroke="#0000b2" stroke-width="4.0" fill="#0000b2" />
<circle cx="880.0" cy="300.0" r="4.0" stroke="#0000b2" stroke-width="4.0" fill="#0000b2" />
<circle cx="940.0" cy="300.0" r="4.0" stroke="#0000b2" stroke-width="4.0" fill="#0000b2" />
<circle cx="800.0" cy="940.0" r="4.0" stroke="#0000b2" stroke-width="4.0" fill="#0000b2" />
<circle cx="600.0" cy="940.0" r="4.0" stroke="#0000b2" stroke-width="4.0" fill="#0000b2" />
<circle cx="340.0" cy="940.0" r="4.0" stroke="#0000b2" stroke-width="4.0" fill="#0000b2" />
<circle cx="360.0" cy="940.0" r="4.0" stroke="#0000b2" stroke-width="4.0" fill="#0000b2" />
<circle cx="780.0" cy="940.0" r="4.0" stroke="#0000b2" stroke-width="4.0" fill="#0000b2" />
<circle cx="820.0" cy="880.0" r="4.0" stroke="#0000b2" stroke-width="4.0" fill="#0000b2" />
<circle cx="760.0" cy="820.0" r="4.0" stroke="#0000b2" stroke-width="4.0" fill="#0000b2" />
<circle cx="260.0" cy="440.0" r="4.0" stroke="#0000b2" stroke-width="4.0" fill="#0000b2" />
<circle cx="380.0" cy="440.0" r="4.0" stroke="#0000b2" stroke-width="4.0" fill="#0000b2" />
</g>
<g>
<path d="M 981,290 L 1039,290 L 1039,390 L 981,390 Z" stroke="#000000" stroke-width="4.0" fill="none"/>
<text text-anchor="start" x="984.0" y="306.75" fill="#808080" style="font-size:18px">A</text>
<text text-anchor="start" x="984.0" y="326.75" fill="#808080" style="font-size:18px">Din</text>
<text text-anchor="start" x="984.0" y="366.75" fill="#808080" style="font-size:18px">str</text>
<path d="M 981,387 L 988,380 L 981,373" stroke="#000000" stroke-width="2.0" fill="none"/>
<text text-anchor="start" x="991.0" y="386.75" fill="#808080" style="font-size:18px">C</text>
<text text-anchor="end" x="1036.0" y="346.75" fill="#808080" style="font-size:18px">D</text>
<text text-anchor="middle" x="1010.0" y="407.5" fill="#808080" style="font-size:18px">RAM</text>
<circle cx="980.0" cy="300.0" r="2.0" stroke="#0000b2" stroke-width="4.0" fill="#0000b2" />
<circle cx="980.0" cy="320.0" r="2.0" stroke="#0000b2" stroke-width="4.0" fill="#0000b2" />
<circle cx="980.0" cy="360.0" r="2.0" stroke="#0000b2" stroke-width="4.0" fill="#0000b2" />
<circle cx="980.0" cy="380.0" r="2.0" stroke="#0000b2" stroke-width="4.0" fill="#0000b2" />
<circle cx="1040.0" cy="340.0" r="2.0" stroke="#b20000" stroke-width="4.0" fill="#b20000" />
</g>
<g>
<path d="M 821,276 L 859,285 L 859,315 L 821,324 Z" stroke="#000000" stroke-width="4.0" fill="none"/>
<text text-anchor="start" x="823.0" y="295.5" fill="#808080" style="font-size:18px">0</text>
<circle cx="840.0" cy="320.0" r="2.0" stroke="#0000b2" stroke-width="4.0" fill="#0000b2" />
<circle cx="820.0" cy="280.0" r="2.0" stroke="#0000b2" stroke-width="4.0" fill="#0000b2" />
<circle cx="820.0" cy="320.0" r="2.0" stroke="#0000b2" stroke-width="4.0" fill="#0000b2" />
<circle cx="860.0" cy="300.0" r="2.0" stroke="#b20000" stroke-width="4.0" fill="#b20000" />
</g>
<g>
<path d="M 661,250 L 719,250 L 719,310 L 661,310 Z" stroke="#000000" stroke-width="4.0" fill="none"/>
<text text-anchor="middle" x="690.0" y="242.0" fill="#000000" style="font-size:24px">PC</text>
<text text-anchor="start" x="664.0" y="266.75" fill="#808080" style="font-size:18px">D</text>
<path d="M 661,287 L 668,280 L 661,273" stroke="#000000" stroke-width="2.0" fill="none"/>
<text text-anchor="start" x="671.0" y="286.75" fill="#808080" style="font-size:18px">C</text>
<text text-anchor="start" x="664.0" y="306.75" fill="#808080" style="font-size:18px">en</text>
<text text-anchor="end" x="716.0" y="286.75" fill="#808080" style="font-size:18px">Q</text>
<text text-anchor="middle" x="690.0" y="327.5" fill="#808080" style="font-size:18px">Reg</text>
<circle cx="660.0" cy="260.0" r="2.0" stroke="#0000b2" stroke-width="4.0" fill="#0000b2" />
<circle cx="660.0" cy="280.0" r="2.0" stroke="#0000b2" stroke-width="4.0" fill="#0000b2" />
<circle cx="660.0" cy="300.0" r="2.0" stroke="#0000b2" stroke-width="4.0" fill="#0000b2" />
<circle cx="720.0" cy="280.0" r="2.0" stroke="#b20000" stroke-width="4.0" fill="#b20000" />
</g>
<g>
<path d="M 681,430 L 739,430 L 739,490 L 681,490 Z" stroke="#000000" stroke-width="4.0" fill="none"/>
<text text-anchor="middle" x="710.0" y="422.0" fill="#000000" style="font-size:24px">Akku</text>
<text text-anchor="start" x="684.0" y="446.75" fill="#808080" style="font-size:18px">D</text>
<path d="M 681,467 L 688,460 L 681,453" stroke="#000000" stroke-width="2.0" fill="none"/>
<text text-anchor="start" x="691.0" y="466.75" fill="#808080" style="font-size:18px">C</text>
<text text-anchor="start" x="684.0" y="486.75" fill="#808080" style="font-size:18px">en</text>
<text text-anchor="end" x="736.0" y="466.75" fill="#808080" style="font-size:18px">Q</text>
<text text-anchor="middle" x="710.0" y="507.5" fill="#808080" style="font-size:18px">Reg</text>
<circle cx="680.0" cy="440.0" r="2.0" stroke="#0000b2" stroke-width="4.0" fill="#0000b2" />
<circle cx="680.0" cy="460.0" r="2.0" stroke="#0000b2" stroke-width="4.0" fill="#0000b2" />
<circle cx="680.0" cy="480.0" r="2.0" stroke="#0000b2" stroke-width="4.0" fill="#0000b2" />
<circle cx="740.0" cy="460.0" r="2.0" stroke="#b20000" stroke-width="4.0" fill="#b20000" />
</g>
<g>
<path d="M 561,416 L 599,425 L 599,455 L 561,464 Z" stroke="#000000" stroke-width="4.0" fill="none"/>
<text text-anchor="start" x="563.0" y="435.5" fill="#808080" style="font-size:18px">0</text>
<circle cx="580.0" cy="460.0" r="2.0" stroke="#0000b2" stroke-width="4.0" fill="#0000b2" />
<circle cx="560.0" cy="420.0" r="2.0" stroke="#0000b2" stroke-width="4.0" fill="#0000b2" />
<circle cx="560.0" cy="460.0" r="2.0" stroke="#0000b2" stroke-width="4.0" fill="#0000b2" />
<circle cx="600.0" cy="440.0" r="2.0" stroke="#b20000" stroke-width="4.0" fill="#b20000" />
</g>
<g>
<path d="M 421,490 L 479,490 L 479,550 L 421,550 Z" stroke="#000000" stroke-width="4.0" fill="none"/>
<text text-anchor="start" x="424.0" y="506.75" fill="#808080" style="font-size:18px">a</text>
<text text-anchor="start" x="424.0" y="526.75" fill="#808080" style="font-size:18px">b</text>
<text text-anchor="start" x="424.0" y="546.75" fill="#808080" style="font-size:18px">c<tspan style="font-size:80%;baseline-shift:sub;">i</tspan></text>
<text text-anchor="end" x="476.0" y="506.75" fill="#808080" style="font-size:18px">s</text>
<text text-anchor="end" x="476.0" y="526.75" fill="#808080" style="font-size:18px">c<tspan style="font-size:80%;baseline-shift:sub;">o</tspan></text>
<text text-anchor="middle" x="450.0" y="567.5" fill="#808080" style="font-size:18px">Soma</text>
<circle cx="420.0" cy="500.0" r="2.0" stroke="#0000b2" stroke-width="4.0" fill="#0000b2" />
<circle cx="420.0" cy="520.0" r="2.0" stroke="#0000b2" stroke-width="4.0" fill="#0000b2" />
<circle cx="420.0" cy="540.0" r="2.0" stroke="#0000b2" stroke-width="4.0" fill="#0000b2" />
<circle cx="480.0" cy="500.0" r="2.0" stroke="#b20000" stroke-width="4.0" fill="#b20000" />
<circle cx="480.0" cy="520.0" r="2.0" stroke="#b20000" stroke-width="4.0" fill="#b20000" />
</g>
<g>
<path d="M 450,450 L 420,450 C 430,434 430,406 420,390 L 440,390 C 470,390 490,400 500,420 C 490,440 470,450 450,450 Z" stroke="#000000" stroke-width="4.0" fill="none"/>
<circle cx="510.0" cy="420.0" r="9.0" stroke="#000000" stroke-width="4.0" fill="none" />
<circle cx="420.0" cy="400.0" r="2.0" stroke="#0000b2" stroke-width="4.0" fill="#0000b2" />
<circle cx="420.0" cy="440.0" r="2.0" stroke="#0000b2" stroke-width="4.0" fill="#0000b2" />
<circle cx="520.0" cy="420.0" r="2.0" stroke="#b20000" stroke-width="4.0" fill="#b20000" />
</g>
<g>
<text text-anchor="end" x="397.0" y="549.0" fill="#000000" style="font-size:24px">0</text>
<circle cx="400.0" cy="540.0" r="2.0" stroke="#b20000" stroke-width="4.0" fill="#b20000" />
</g>
<g>
<path d="M 561,236 L 599,245 L 599,275 L 561,284 Z" stroke="#000000" stroke-width="4.0" fill="none"/>
<text text-anchor="start" x="563.0" y="255.5" fill="#808080" style="font-size:18px">0</text>
<circle cx="580.0" cy="280.0" r="2.0" stroke="#0000b2" stroke-width="4.0" fill="#0000b2" />
<circle cx="560.0" cy="240.0" r="2.0" stroke="#0000b2" stroke-width="4.0" fill="#0000b2" />
<circle cx="560.0" cy="280.0" r="2.0" stroke="#0000b2" stroke-width="4.0" fill="#0000b2" />
<circle cx="600.0" cy="260.0" r="2.0" stroke="#b20000" stroke-width="4.0" fill="#b20000" />
</g>
<g>
<text text-anchor="end" x="438.0" y="277.0" fill="#808080" style="font-size:12px">0-7</text>
<text text-anchor="start" x="462.0" y="277.0" fill="#808080" style="font-size:12px">0-5</text>
<text text-anchor="start" x="462.0" y="297.0" fill="#808080" style="font-size:12px">6</text>
<text text-anchor="start" x="462.0" y="317.0" fill="#808080" style="font-size:12px">7</text>
<path d="M 448,278 L 452,278 L 452,322 L 448,322 Z" stroke="#000000" stroke-width="4.0" fill="#000000" fill-opacity="1.0"/>
<circle cx="440.0" cy="280.0" r="2.0" stroke="#0000b2" stroke-width="4.0" fill="#0000b2" />
<circle cx="460.0" cy="280.0" r="2.0" stroke="#b20000" stroke-width="4.0" fill="#b20000" />
<circle cx="460.0" cy="300.0" r="2.0" stroke="#b20000" stroke-width="4.0" fill="#b20000" />
<circle cx="460.0" cy="320.0" r="2.0" stroke="#b20000" stroke-width="4.0" fill="#b20000" />
</g>
<g>
<path d="M 461,150 L 519,150 L 519,210 L 461,210 Z" stroke="#000000" stroke-width="4.0" fill="none"/>
<text text-anchor="start" x="464.0" y="166.75" fill="#808080" style="font-size:18px">a</text>
<text text-anchor="start" x="464.0" y="186.75" fill="#808080" style="font-size:18px">b</text>
<text text-anchor="start" x="464.0" y="206.75" fill="#808080" style="font-size:18px">c<tspan style="font-size:80%;baseline-shift:sub;">i</tspan></text>
<text text-anchor="end" x="516.0" y="166.75" fill="#808080" style="font-size:18px">s</text>
<text text-anchor="end" x="516.0" y="186.75" fill="#808080" style="font-size:18px">c<tspan style="font-size:80%;baseline-shift:sub;">o</tspan></text>
<text text-anchor="middle" x="490.0" y="227.5" fill="#808080" style="font-size:18px">Soma</text>
<circle cx="460.0" cy="160.0" r="2.0" stroke="#0000b2" stroke-width="4.0" fill="#0000b2" />
<circle cx="460.0" cy="180.0" r="2.0" stroke="#0000b2" stroke-width="4.0" fill="#0000b2" />
<circle cx="460.0" cy="200.0" r="2.0" stroke="#0000b2" stroke-width="4.0" fill="#0000b2" />
<circle cx="520.0" cy="160.0" r="2.0" stroke="#b20000" stroke-width="4.0" fill="#b20000" />
<circle cx="520.0" cy="180.0" r="2.0" stroke="#b20000" stroke-width="4.0" fill="#b20000" />
</g>
<g>
<text text-anchor="end" x="437.0" y="209.0" fill="#000000" style="font-size:24px">1</text>
<circle cx="440.0" cy="200.0" r="2.0" stroke="#b20000" stroke-width="4.0" fill="#b20000" />
</g>
<g>
<text text-anchor="end" x="437.0" y="189.0" fill="#000000" style="font-size:24px">0</text>
<circle cx="440.0" cy="180.0" r="2.0" stroke="#b20000" stroke-width="4.0" fill="#b20000" />
</g>
<g>
<path d="M 169,705 L 199,705 L 199,735 L 169,735 Z" stroke="#000000" stroke-width="4.0" fill="none"/>
<text text-anchor="end" x="155.0" y="729.0" fill="#000000" style="font-size:24px"><tspan style="font-style:italic;">clk</tspan></text>
<path d="M 175,725 L 180,725 L 180,715 L 185,715 L 185,725 L 190,725 L 190,715 L 195,715" stroke="#000000" stroke-width="2.0" fill="none"/>
<circle cx="200.0" cy="720.0" r="2.0" stroke="#b20000" stroke-width="4.0" fill="#b20000" />
</g>
<g>
<path d="M 260,720 L 274,728 L 274,712 Z" stroke="#000000" stroke-width="4.0" fill="none"/>
<text text-anchor="start" x="279.0" y="726.75" fill="#808080" style="font-size:18px">clk</text>
<circle cx="260.0" cy="720.0" r="2.0" stroke="#0000b2" stroke-width="4.0" fill="#0000b2" />
</g>
<g>
<path d="M 660,460 L 646,452 L 646,468 Z" stroke="#000000" stroke-width="4.0" fill="none"/>
<text text-anchor="end" x="641.0" y="466.75" fill="#808080" style="font-size:18px">clk</text>
<circle cx="660.0" cy="460.0" r="2.0" stroke="#0000b2" stroke-width="4.0" fill="#0000b2" />
</g>
<g>
<path d="M 640,280 L 626,272 L 626,288 Z" stroke="#000000" stroke-width="4.0" fill="none"/>
<text text-anchor="end" x="621.0" y="286.75" fill="#808080" style="font-size:18px">clk</text>
<circle cx="640.0" cy="280.0" r="2.0" stroke="#0000b2" stroke-width="4.0" fill="#0000b2" />
</g>
<g>
<path d="M 960,380 L 946,372 L 946,388 Z" stroke="#000000" stroke-width="4.0" fill="none"/>
<text text-anchor="end" x="941.0" y="386.75" fill="#808080" style="font-size:18px">clk</text>
<circle cx="960.0" cy="380.0" r="2.0" stroke="#0000b2" stroke-width="4.0" fill="#0000b2" />
</g>
<g>
<path d="M 480,300 L 494,308 L 494,292 Z" stroke="#000000" stroke-width="4.0" fill="none"/>
<text text-anchor="start" x="499.0" y="306.75" fill="#808080" style="font-size:18px">i6</text>
<circle cx="480.0" cy="300.0" r="2.0" stroke="#0000b2" stroke-width="4.0" fill="#0000b2" />
</g>
<g>
<path d="M 480,320 L 494,328 L 494,312 Z" stroke="#000000" stroke-width="4.0" fill="none"/>
<text text-anchor="start" x="499.0" y="326.75" fill="#808080" style="font-size:18px">i7</text>
<circle cx="480.0" cy="320.0" r="2.0" stroke="#0000b2" stroke-width="4.0" fill="#0000b2" />
</g>
<g>
<path d="M 580,480 L 572,494 L 588,494 Z" stroke="#000000" stroke-width="4.0" fill="none"/>
<text text-anchor="end" x="580.0" y="505.75" fill="#808080" style="font-size:18px" transform="rotate(-90,580.0,499.0)" >sAk</text>
<circle cx="580.0" cy="480.0" r="2.0" stroke="#0000b2" stroke-width="4.0" fill="#0000b2" />
</g>
<g>
<path d="M 580,300 L 572,314 L 588,314 Z" stroke="#000000" stroke-width="4.0" fill="none"/>
<text text-anchor="end" x="580.0" y="325.75" fill="#808080" style="font-size:18px" transform="rotate(-90,580.0,319.0)" >sA</text>
<circle cx="580.0" cy="300.0" r="2.0" stroke="#0000b2" stroke-width="4.0" fill="#0000b2" />
</g>
<g>
<path d="M 840,340 L 832,354 L 848,354 Z" stroke="#000000" stroke-width="4.0" fill="none"/>
<text text-anchor="end" x="840.0" y="365.75" fill="#808080" style="font-size:18px" transform="rotate(-90,840.0,359.0)" >sA</text>
<circle cx="840.0" cy="340.0" r="2.0" stroke="#0000b2" stroke-width="4.0" fill="#0000b2" />
</g>
<g>
<path d="M 660,480 L 646,472 L 646,488 Z" stroke="#000000" stroke-width="4.0" fill="none"/>
<text text-anchor="end" x="641.0" y="486.75" fill="#808080" style="font-size:18px">eAk</text>
<circle cx="660.0" cy="480.0" r="2.0" stroke="#0000b2" stroke-width="4.0" fill="#0000b2" />
</g>
<g>
<path d="M 640,300 L 626,292 L 626,308 Z" stroke="#000000" stroke-width="4.0" fill="none"/>
<text text-anchor="end" x="621.0" y="306.75" fill="#808080" style="font-size:18px">ePC</text>
<circle cx="640.0" cy="300.0" r="2.0" stroke="#0000b2" stroke-width="4.0" fill="#0000b2" />
</g>
<g>
<path d="M 960,360 L 946,352 L 946,368 Z" stroke="#000000" stroke-width="4.0" fill="none"/>
<text text-anchor="end" x="941.0" y="366.75" fill="#808080" style="font-size:18px">wr</text>
<circle cx="960.0" cy="360.0" r="2.0" stroke="#0000b2" stroke-width="4.0" fill="#0000b2" />
</g>
<g>
<path d="M 261,810 L 319,810 L 319,850 L 261,850 Z" stroke="#000000" stroke-width="4.0" fill="none"/>
<text text-anchor="start" x="264.0" y="826.75" fill="#808080" style="font-size:18px">D</text>
<path d="M 261,847 L 268,840 L 261,833" stroke="#000000" stroke-width="2.0" fill="none"/>
<text text-anchor="start" x="271.0" y="846.75" fill="#808080" style="font-size:18px">C</text>
<text text-anchor="end" x="316.0" y="826.75" fill="#808080" style="font-size:18px">Q</text>
<text text-anchor="end" x="316.0" y="846.75" fill="#808080" style="font-size:18px"><tspan style="text-decoration:overline;">Q</tspan></text>
<text text-anchor="middle" x="290.0" y="867.5" fill="#808080" style="font-size:18px">D</text>
<circle cx="260.0" cy="820.0" r="2.0" stroke="#0000b2" stroke-width="4.0" fill="#0000b2" />
<circle cx="260.0" cy="840.0" r="2.0" stroke="#0000b2" stroke-width="4.0" fill="#0000b2" />
<circle cx="320.0" cy="820.0" r="2.0" stroke="#b20000" stroke-width="4.0" fill="#b20000" />
<circle cx="320.0" cy="840.0" r="2.0" stroke="#b20000" stroke-width="4.0" fill="#b20000" />
</g>
<g>
<path d="M 380,880 L 394,888 L 394,872 Z" stroke="#000000" stroke-width="4.0" fill="none"/>
<text text-anchor="start" x="399.0" y="886.75" fill="#808080" style="font-size:18px">sA</text>
<circle cx="380.0" cy="880.0" r="2.0" stroke="#0000b2" stroke-width="4.0" fill="#0000b2" />
</g>
<g>
<path d="M 950,830 L 901,830 L 901,770 L 950,770 C 960,770 980,780 979,800 C 979,820 960,830 950,830 Z" stroke="#000000" stroke-width="4.0" fill="none"/>
<circle cx="890.0" cy="800.0" r="8.0" stroke="#000000" stroke-width="4.0" fill="none" />
<circle cx="900.0" cy="780.0" r="2.0" stroke="#0000b2" stroke-width="4.0" fill="#0000b2" />
<circle cx="880.0" cy="800.0" r="2.0" stroke="#0000b2" stroke-width="4.0" fill="#0000b2" />
<circle cx="900.0" cy="820.0" r="2.0" stroke="#0000b2" stroke-width="4.0" fill="#0000b2" />
<circle cx="980.0" cy="800.0" r="2.0" stroke="#b20000" stroke-width="4.0" fill="#b20000" />
</g>
<g>
<path d="M 620,800 L 606,792 L 606,808 Z" stroke="#000000" stroke-width="4.0" fill="none"/>
<text text-anchor="end" x="601.0" y="806.75" fill="#808080" style="font-size:18px">i6</text>
<circle cx="620.0" cy="800.0" r="2.0" stroke="#0000b2" stroke-width="4.0" fill="#0000b2" />
</g>
<g>
<path d="M 620,840 L 606,832 L 606,848 Z" stroke="#000000" stroke-width="4.0" fill="none"/>
<text text-anchor="end" x="601.0" y="846.75" fill="#808080" style="font-size:18px">i7</text>
<circle cx="620.0" cy="840.0" r="2.0" stroke="#0000b2" stroke-width="4.0" fill="#0000b2" />
</g>
<g>
<path d="M 1040,800 L 1054,808 L 1054,792 Z" stroke="#000000" stroke-width="4.0" fill="none"/>
<text text-anchor="start" x="1059.0" y="806.75" fill="#808080" style="font-size:18px">wr</text>
<circle cx="1040.0" cy="800.0" r="2.0" stroke="#0000b2" stroke-width="4.0" fill="#0000b2" />
</g>
<g>
<path d="M 950,910 L 901,910 L 901,850 L 950,850 C 960,850 980,860 979,880 C 979,900 960,910 950,910 Z" stroke="#000000" stroke-width="4.0" fill="none"/>
<circle cx="890.0" cy="900.0" r="8.0" stroke="#000000" stroke-width="4.0" fill="none" />
<circle cx="900.0" cy="860.0" r="2.0" stroke="#0000b2" stroke-width="4.0" fill="#0000b2" />
<circle cx="880.0" cy="900.0" r="2.0" stroke="#0000b2" stroke-width="4.0" fill="#0000b2" />
<circle cx="980.0" cy="880.0" r="2.0" stroke="#b20000" stroke-width="4.0" fill="#b20000" />
</g>
<g>
<path d="M 1040,880 L 1054,888 L 1054,872 Z" stroke="#000000" stroke-width="4.0" fill="none"/>
<text text-anchor="start" x="1059.0" y="886.75" fill="#808080" style="font-size:18px">eAk</text>
<circle cx="1040.0" cy="880.0" r="2.0" stroke="#0000b2" stroke-width="4.0" fill="#0000b2" />
</g>
<g>
<path d="M 1040,940 L 1054,948 L 1054,932 Z" stroke="#000000" stroke-width="4.0" fill="none"/>
<text text-anchor="start" x="1059.0" y="946.75" fill="#808080" style="font-size:18px">sAk</text>
<circle cx="1040.0" cy="940.0" r="2.0" stroke="#0000b2" stroke-width="4.0" fill="#0000b2" />
</g>
<g>
<path d="M 681,530 L 739,530 L 739,590 L 681,590 Z" stroke="#000000" stroke-width="4.0" fill="none"/>
<text text-anchor="middle" x="710.0" y="522.0" fill="#000000" style="font-size:24px">C</text>
<text text-anchor="start" x="684.0" y="546.75" fill="#808080" style="font-size:18px">D</text>
<path d="M 681,567 L 688,560 L 681,553" stroke="#000000" stroke-width="2.0" fill="none"/>
<text text-anchor="start" x="691.0" y="566.75" fill="#808080" style="font-size:18px">C</text>
<text text-anchor="start" x="684.0" y="586.75" fill="#808080" style="font-size:18px">en</text>
<text text-anchor="end" x="736.0" y="566.75" fill="#808080" style="font-size:18px">Q</text>
<text text-anchor="middle" x="710.0" y="607.5" fill="#808080" style="font-size:18px">Reg</text>
<circle cx="680.0" cy="540.0" r="2.0" stroke="#0000b2" stroke-width="4.0" fill="#0000b2" />
<circle cx="680.0" cy="560.0" r="2.0" stroke="#0000b2" stroke-width="4.0" fill="#0000b2" />
<circle cx="680.0" cy="580.0" r="2.0" stroke="#0000b2" stroke-width="4.0" fill="#0000b2" />
<circle cx="740.0" cy="560.0" r="2.0" stroke="#b20000" stroke-width="4.0" fill="#b20000" />
</g>
<g>
<path d="M 660,560 L 646,552 L 646,568 Z" stroke="#000000" stroke-width="4.0" fill="none"/>
<text text-anchor="end" x="641.0" y="566.75" fill="#808080" style="font-size:18px">clk</text>
<circle cx="660.0" cy="560.0" r="2.0" stroke="#0000b2" stroke-width="4.0" fill="#0000b2" />
</g>
<g>
<path d="M 660,580 L 646,572 L 646,588 Z" stroke="#000000" stroke-width="4.0" fill="none"/>
<text text-anchor="end" x="641.0" y="586.75" fill="#808080" style="font-size:18px">eC</text>
<circle cx="660.0" cy="580.0" r="2.0" stroke="#0000b2" stroke-width="4.0" fill="#0000b2" />
</g>
<g>
<path d="M 930,1130 L 900,1130 C 910,1114 910,1086 900,1070 L 920,1070 C 950,1070 970,1080 980,1100 C 970,1120 950,1130 930,1130 Z" stroke="#000000" stroke-width="4.0" fill="none"/>
<circle cx="900.0" cy="1080.0" r="2.0" stroke="#0000b2" stroke-width="4.0" fill="#0000b2" />
<circle cx="900.0" cy="1120.0" r="2.0" stroke="#0000b2" stroke-width="4.0" fill="#0000b2" />
<circle cx="980.0" cy="1100.0" r="2.0" stroke="#b20000" stroke-width="4.0" fill="#b20000" />
</g>
<g>
<path d="M 890,1230 L 841,1230 L 841,1170 L 890,1170 C 900,1170 920,1180 919,1200 C 919,1220 900,1230 890,1230 Z" stroke="#000000" stroke-width="4.0" fill="none"/>
<circle cx="830.0" cy="1240.0" r="8.0" stroke="#000000" stroke-width="4.0" fill="none" />
<circle cx="840.0" cy="1160.0" r="2.0" stroke="#0000b2" stroke-width="4.0" fill="#0000b2" />
<circle cx="840.0" cy="1180.0" r="2.0" stroke="#0000b2" stroke-width="4.0" fill="#0000b2" />
<circle cx="840.0" cy="1220.0" r="2.0" stroke="#0000b2" stroke-width="4.0" fill="#0000b2" />
<circle cx="820.0" cy="1240.0" r="2.0" stroke="#0000b2" stroke-width="4.0" fill="#0000b2" />
<circle cx="920.0" cy="1200.0" r="2.0" stroke="#b20000" stroke-width="4.0" fill="#b20000" />
</g>
<g>
<path d="M 1040,1100 L 1054,1108 L 1054,1092 Z" stroke="#000000" stroke-width="4.0" fill="none"/>
<text text-anchor="start" x="1059.0" y="1106.75" fill="#808080" style="font-size:18px">ePC</text>
<circle cx="1040.0" cy="1100.0" r="2.0" stroke="#0000b2" stroke-width="4.0" fill="#0000b2" />
</g>
<g>
<path d="M 550,570 L 501,570 L 501,510 L 550,510 C 560,510 580,520 579,540 C 579,560 560,570 550,570 Z" stroke="#000000" stroke-width="4.0" fill="none"/>
<circle cx="490.0" cy="560.0" r="8.0" stroke="#000000" stroke-width="4.0" fill="none" />
<circle cx="500.0" cy="520.0" r="2.0" stroke="#0000b2" stroke-width="4.0" fill="#0000b2" />
<circle cx="480.0" cy="560.0" r="2.0" stroke="#0000b2" stroke-width="4.0" fill="#0000b2" />
<circle cx="580.0" cy="540.0" r="2.0" stroke="#b20000" stroke-width="4.0" fill="#b20000" />
</g>
<g>
<path d="M 950,1030 L 901,1030 L 901,970 L 950,970 C 960,970 980,980 979,1000 C 979,1020 960,1030 950,1030 Z" stroke="#000000" stroke-width="4.0" fill="none"/>
<circle cx="900.0" cy="980.0" r="2.0" stroke="#0000b2" stroke-width="4.0" fill="#0000b2" />
<circle cx="900.0" cy="1020.0" r="2.0" stroke="#0000b2" stroke-width="4.0" fill="#0000b2" />
<circle cx="980.0" cy="1000.0" r="2.0" stroke="#b20000" stroke-width="4.0" fill="#b20000" />
</g>
<g>
<path d="M 1040,1000 L 1054,1008 L 1054,992 Z" stroke="#000000" stroke-width="4.0" fill="none"/>
<text text-anchor="start" x="1059.0" y="1006.75" fill="#808080" style="font-size:18px">eC</text>
<circle cx="1040.0" cy="1000.0" r="2.0" stroke="#0000b2" stroke-width="4.0" fill="#0000b2" />
</g>
<g>
<text text-anchor="start" x="1022.0" y="776.0" fill="#000000" style="font-size:24px">wr</text>
<text text-anchor="start" x="1022.0" y="802.0" fill="#000000" style="font-size:24px">?</text>
<circle cx="1020.0" cy="780.0" r="2.0" stroke="#0000b2" stroke-width="4.0" fill="#0000b2" />
</g>
<g>
<text text-anchor="start" x="942.0" y="276.0" fill="#000000" style="font-size:24px">A</text>
<text text-anchor="start" x="942.0" y="302.0" fill="#000000" style="font-size:24px">?</text>
<circle cx="940.0" cy="280.0" r="2.0" stroke="#0000b2" stroke-width="4.0" fill="#0000b2" />
</g>
<g>
<text text-anchor="start" x="902.0" y="276.0" fill="#000000" style="font-size:24px">Din</text>
<text text-anchor="start" x="902.0" y="302.0" fill="#000000" style="font-size:24px">?</text>
<circle cx="900.0" cy="280.0" r="2.0" stroke="#0000b2" stroke-width="4.0" fill="#0000b2" />
</g>
<g>
<text text-anchor="start" x="1082.0" y="316.0" fill="#000000" style="font-size:24px">Dout</text>
<text text-anchor="start" x="1082.0" y="342.0" fill="#000000" style="font-size:24px">?</text>
<circle cx="1080.0" cy="320.0" r="2.0" stroke="#0000b2" stroke-width="4.0" fill="#0000b2" />
</g>
<g>
<text text-anchor="end" x="1230.0" y="191.0" fill="#000000" style="font-size:24px">A</text>
<text text-anchor="end" x="1230.0" y="226.0" fill="#000000" style="font-size:24px">B</text>
<text text-anchor="end" x="1230.0" y="261.0" fill="#000000" style="font-size:24px">C</text>
</g>
<g>
<text text-anchor="start" x="782.0" y="736.0" fill="#000000" style="font-size:24px">exec</text>
<text text-anchor="start" x="782.0" y="762.0" fill="#000000" style="font-size:24px">?</text>
<circle cx="780.0" cy="740.0" r="2.0" stroke="#0000b2" stroke-width="4.0" fill="#0000b2" />
</g>
<g>
<path d="M 261,930 L 319,930 L 319,970 L 261,970 Z" stroke="#000000" stroke-width="4.0" fill="none"/>
<text text-anchor="start" x="264.0" y="946.75" fill="#808080" style="font-size:18px">D</text>
<path d="M 261,967 L 268,960 L 261,953" stroke="#000000" stroke-width="2.0" fill="none"/>
<text text-anchor="start" x="271.0" y="966.75" fill="#808080" style="font-size:18px">C</text>
<text text-anchor="end" x="316.0" y="946.75" fill="#808080" style="font-size:18px">Q</text>
<text text-anchor="end" x="316.0" y="966.75" fill="#808080" style="font-size:18px"><tspan style="text-decoration:overline;">Q</tspan></text>
<text text-anchor="middle" x="290.0" y="987.5" fill="#808080" style="font-size:18px">D</text>
<circle cx="260.0" cy="940.0" r="2.0" stroke="#0000b2" stroke-width="4.0" fill="#0000b2" />
<circle cx="260.0" cy="960.0" r="2.0" stroke="#0000b2" stroke-width="4.0" fill="#0000b2" />
<circle cx="320.0" cy="940.0" r="2.0" stroke="#b20000" stroke-width="4.0" fill="#b20000" />
<circle cx="320.0" cy="960.0" r="2.0" stroke="#b20000" stroke-width="4.0" fill="#b20000" />
</g>
<g>
<text text-anchor="start" x="362.0" y="916.0" fill="#000000" style="font-size:24px">mem</text>
<text text-anchor="start" x="362.0" y="942.0" fill="#000000" style="font-size:24px">?</text>
<circle cx="360.0" cy="920.0" r="2.0" stroke="#0000b2" stroke-width="4.0" fill="#0000b2" />
</g>
<g>
<path d="M 281,250 L 339,250 L 339,310 L 281,310 Z" stroke="#000000" stroke-width="4.0" fill="none"/>
<text text-anchor="middle" x="310.0" y="242.0" fill="#000000" style="font-size:24px">IR</text>
<text text-anchor="start" x="284.0" y="266.75" fill="#808080" style="font-size:18px">D</text>
<path d="M 281,287 L 288,280 L 281,273" stroke="#000000" stroke-width="2.0" fill="none"/>
<text text-anchor="start" x="291.0" y="286.75" fill="#808080" style="font-size:18px">C</text>
<text text-anchor="start" x="284.0" y="306.75" fill="#808080" style="font-size:18px">en</text>
<text text-anchor="end" x="336.0" y="286.75" fill="#808080" style="font-size:18px">Q</text>
<text text-anchor="middle" x="310.0" y="327.5" fill="#808080" style="font-size:18px">Reg</text>
<circle cx="280.0" cy="260.0" r="2.0" stroke="#0000b2" stroke-width="4.0" fill="#0000b2" />
<circle cx="280.0" cy="280.0" r="2.0" stroke="#0000b2" stroke-width="4.0" fill="#0000b2" />
<circle cx="280.0" cy="300.0" r="2.0" stroke="#0000b2" stroke-width="4.0" fill="#0000b2" />
<circle cx="340.0" cy="280.0" r="2.0" stroke="#b20000" stroke-width="4.0" fill="#b20000" />
</g>
<g>
<path d="M 550,970 L 501,970 L 501,910 L 550,910 C 560,910 580,920 579,940 C 579,960 560,970 550,970 Z" stroke="#000000" stroke-width="4.0" fill="none"/>
<circle cx="500.0" cy="920.0" r="2.0" stroke="#0000b2" stroke-width="4.0" fill="#0000b2" />
<circle cx="500.0" cy="960.0" r="2.0" stroke="#0000b2" stroke-width="4.0" fill="#0000b2" />
<circle cx="580.0" cy="940.0" r="2.0" stroke="#b20000" stroke-width="4.0" fill="#b20000" />
</g>
<g>
<text text-anchor="start" x="382.0" y="256.0" fill="#000000" style="font-size:24px">instr</text>
<text text-anchor="start" x="382.0" y="282.0" fill="#000000" style="font-size:24px">?</text>
<circle cx="380.0" cy="260.0" r="2.0" stroke="#0000b2" stroke-width="4.0" fill="#0000b2" />
</g>
<g>
<path d="M 170,970 L 121,970 L 121,910 L 170,910 C 180,910 200,920 199,940 C 199,960 180,970 170,970 Z" stroke="#000000" stroke-width="4.0" fill="none"/>
<circle cx="120.0" cy="920.0" r="2.0" stroke="#0000b2" stroke-width="4.0" fill="#0000b2" />
<circle cx="120.0" cy="960.0" r="2.0" stroke="#0000b2" stroke-width="4.0" fill="#0000b2" />
<circle cx="200.0" cy="940.0" r="2.0" stroke="#b20000" stroke-width="4.0" fill="#b20000" />
</g>
<g>
<text text-anchor="start" x="342.0" y="776.0" fill="#000000" style="font-size:24px">fetch</text>
<text text-anchor="start" x="342.0" y="802.0" fill="#000000" style="font-size:24px">?</text>
<circle cx="340.0" cy="780.0" r="2.0" stroke="#0000b2" stroke-width="4.0" fill="#0000b2" />
</g>
<g>
<text text-anchor="start" x="162.0" y="77.0" fill="#000000" style="font-size:24px">Data Path</text>
<path d="M 160,80 L 920,80 L 920,640 L 160,640 Z" stroke-dasharray="4.0,4.0" stroke="#000000" stroke-width="1.0" fill="none"/>
</g>
<g>
<text text-anchor="start" x="42.0" y="697.0" fill="#000000" style="font-size:24px">Control Unit</text>
<path d="M 40,700 L 1000,700 L 1000,1280 L 40,1280 Z" stroke-dasharray="4.0,4.0" stroke="#000000" stroke-width="1.0" fill="none"/>
</g>
</g>
</svg>