<?xml version="1.0" encoding="UTF-8" standalone="no"?>
<!-- Created with Digital by H.Neemann -->
<!-- created: Sat Nov 16 15:34:30 BRT 2024 -->

<svg
   xmlns:svg="http://www.w3.org/2000/svg"
   xmlns="http://www.w3.org/2000/svg"
   width="202.95mm"
   height="123.0mm"
   viewBox="469 122 1353 820">
<g stroke-linecap="square">
<path d="M 920,320 L 1020,320" stroke="#0000b2" stroke-width="4.0" fill="none"/>
<path d="M 1040,320 L 1140,320 L 1140,280 L 1460,280 L 1460,400 L 1480,400" stroke="#0000b2" stroke-width="4.0" fill="none"/>
<path d="M 1220,560 L 1220,480 L 1220,320 L 1300,320 L 1320,320" stroke="#0000b2" stroke-width="4.0" fill="none"/>
<path d="M 1100,760 L 1100,640 L 1580,640 L 1600,640" stroke="#0000b2" stroke-width="4.0" fill="none"/>
<path d="M 1400,580 L 1420,580 L 1420,780 L 1600,780" stroke="#0000b2" stroke-width="4.0" fill="none"/>
<path d="M 1540,420 L 1540,580 L 1600,580" stroke="#0000b2" stroke-width="4.0" fill="none"/>
<path d="M 1000,840 L 1040,840 L 1040,820 L 1120,820" stroke="#0000b2" stroke-width="4.0" fill="none"/>
<path d="M 960,840 L 980,840" stroke="#0000b2" stroke-width="4.0" fill="none"/>
<path d="M 1000,200 L 1020,200" stroke="#0000b2" stroke-width="4.0" fill="none"/>
<path d="M 1280,780 L 1300,780 L 1300,800 L 1340,800" stroke="#0000b2" stroke-width="4.0" fill="none"/>
<path d="M 1660,780 L 1700,780 L 1700,640 L 1740,640" stroke="#0000b2" stroke-width="4.0" fill="none"/>
<path d="M 1660,460 L 1700,460 L 1700,320 L 1740,320" stroke="#0000b2" stroke-width="4.0" fill="none"/>
<path d="M 920,400 L 940,400 L 940,660 L 1560,660 L 1600,660" stroke="#0000b2" stroke-width="4.0" fill="none"/>
<path d="M 1200,400 L 1260,400 L 1260,520 L 1320,520" stroke="#0000b2" stroke-width="4.0" fill="none"/>
<path d="M 1300,320 L 1300,400 L 1320,400" stroke="#0000b2" stroke-width="4.0" fill="none"/>
<path d="M 1500,400 L 1520,400 L 1520,280 L 1600,280" stroke="#0000b2" stroke-width="4.0" fill="none"/>
<path d="M 580,340 L 640,340 L 640,320 L 720,320" stroke="#0000b2" stroke-width="4.0" fill="none"/>
<path d="M 700,340 L 720,340" stroke="#0000b2" stroke-width="4.0" fill="none"/>
<path d="M 920,340 L 960,340 L 960,260 L 1020,260" stroke="#0000b2" stroke-width="4.0" fill="none"/>
<path d="M 1400,340 L 1440,340 L 1440,300 L 1600,300" stroke="#0000b2" stroke-width="4.0" fill="none"/>
<path d="M 1040,340 L 1120,340 L 1120,680 L 1440,680 L 1440,740 L 1480,740" stroke="#0000b2" stroke-width="4.0" fill="none"/>
<path d="M 1040,280 L 1120,280 L 1120,260 L 1540,260 L 1600,260" stroke="#0000b2" stroke-width="4.0" fill="none"/>
<path d="M 940,660 L 940,800 L 1120,800" stroke="#0000b2" stroke-width="4.0" fill="none"/>
<path d="M 920,420 L 980,420" stroke="#0000b2" stroke-width="4.0" fill="none"/>
<path d="M 1200,420 L 1240,420 L 1240,600 L 1320,600" stroke="#0000b2" stroke-width="4.0" fill="none"/>
<path d="M 1400,420 L 1440,420 L 1440,460 L 1600,460" stroke="#0000b2" stroke-width="4.0" fill="none"/>
<path d="M 1540,260 L 1540,420 L 1600,420" stroke="#0000b2" stroke-width="4.0" fill="none"/>
<path d="M 1500,420 L 1520,420 L 1520,440 L 1600,440" stroke="#0000b2" stroke-width="4.0" fill="none"/>
<path d="M 1540,580 L 1540,740 L 1600,740" stroke="#0000b2" stroke-width="4.0" fill="none"/>
<path d="M 1500,740 L 1520,740 L 1520,600 L 1600,600" stroke="#0000b2" stroke-width="4.0" fill="none"/>
<path d="M 920,360 L 1180,360" stroke="#0000b2" stroke-width="4.0" fill="none"/>
<path d="M 1200,360 L 1320,360" stroke="#0000b2" stroke-width="4.0" fill="none"/>
<path d="M 600,300 L 720,300" stroke="#0000b2" stroke-width="4.0" fill="none"/>
<path d="M 1660,300 L 1740,300" stroke="#0000b2" stroke-width="4.0" fill="none"/>
<path d="M 1760,300 L 1820,300 L 1820,900 L 1100,900 L 1100,840 L 1120,840" stroke="#0000b2" stroke-width="4.0" fill="none"/>
<path d="M 1660,620 L 1740,620" stroke="#0000b2" stroke-width="4.0" fill="none"/>
<path d="M 1760,620 L 1800,620 L 1800,940 L 660,940 L 660,400 L 680,400" stroke="#0000b2" stroke-width="4.0" fill="none"/>
<path d="M 960,340 L 960,820 L 980,820" stroke="#0000b2" stroke-width="4.0" fill="none"/>
<path d="M 940,180 L 1000,180 L 1000,160 L 1020,160" stroke="#0000b2" stroke-width="4.0" fill="none"/>
<path d="M 1400,500 L 1440,500 L 1440,620 L 1600,620" stroke="#0000b2" stroke-width="4.0" fill="none"/>
<path d="M 640,340 L 640,760 L 1100,760 L 1120,760" stroke="#0000b2" stroke-width="4.0" fill="none"/>
<path d="M 1500,760 L 1600,760" stroke="#0000b2" stroke-width="4.0" fill="none"/>
<path d="M 920,440 L 1020,440" stroke="#0000b2" stroke-width="4.0" fill="none"/>
<path d="M 1200,380 L 1280,380 L 1280,440 L 1320,440" stroke="#0000b2" stroke-width="4.0" fill="none"/>
<path d="M 920,380 L 1160,380 L 1160,480 L 1220,480 L 1320,480" stroke="#0000b2" stroke-width="4.0" fill="none"/>
<path d="M 700,380 L 720,380" stroke="#0000b2" stroke-width="4.0" fill="none"/>
<path d="M 720,360 L 660,360 L 660,240 L 1100,240 L 1100,180 L 1080,180" stroke="#0000b2" stroke-width="4.0" fill="none"/>
<path d="M 1600,340 L 1560,340 L 1560,500 L 1600,500" stroke="#0000b2" stroke-width="4.0" fill="none"/>
<path d="M 1560,500 L 1560,660 L 1560,820 L 1600,820" stroke="#0000b2" stroke-width="4.0" fill="none"/>
<path d="M 1600,320 L 1580,320 L 1580,480 L 1600,480" stroke="#0000b2" stroke-width="4.0" fill="none"/>
<path d="M 1580,480 L 1580,640 L 1580,800 L 1600,800" stroke="#0000b2" stroke-width="4.0" fill="none"/>
<path d="M 1280,760 L 1320,760 L 1320,720 L 620,720 L 620,380 L 680,380" stroke="#0000b2" stroke-width="4.0" fill="none"/>
<path d="M 920,300 L 940,300 L 940,220 L 760,220 L 760,160 L 920,160" stroke="#0000b2" stroke-width="4.0" fill="none"/>
<path d="M 1120,780 L 1080,780 L 1080,560 L 1220,560 L 1320,560" stroke="#0000b2" stroke-width="4.0" fill="none"/>
<path d="M 1120,860 L 1020,860 L 1020,480 L 1140,480 L 1140,320" stroke="#0000b2" stroke-width="4.0" fill="none"/>
<path d="M 920,160 L 930,160 L 940,160" stroke="#000000" stroke-width="4.0" fill="none"/>
<path d="M 940,180 L 930,180" stroke="#000000" stroke-width="4.0" fill="none"/>
<path d="M 940,200 L 930,200" stroke="#000000" stroke-width="4.0" fill="none"/>
<path d="M 1020,320 L 1030,320 L 1040,320" stroke="#000000" stroke-width="4.0" fill="none"/>
<path d="M 1040,340 L 1030,340" stroke="#000000" stroke-width="4.0" fill="none"/>
<path d="M 1180,360 L 1190,360 L 1200,360" stroke="#000000" stroke-width="4.0" fill="none"/>
<path d="M 1200,380 L 1190,380" stroke="#000000" stroke-width="4.0" fill="none"/>
<path d="M 1200,400 L 1190,400" stroke="#000000" stroke-width="4.0" fill="none"/>
<path d="M 1200,420 L 1190,420" stroke="#000000" stroke-width="4.0" fill="none"/>
<path d="M 1020,260 L 1030,260 L 1040,260" stroke="#000000" stroke-width="4.0" fill="none"/>
<path d="M 1040,280 L 1030,280" stroke="#000000" stroke-width="4.0" fill="none"/>
<path d="M 1040,300 L 1030,300" stroke="#000000" stroke-width="4.0" fill="none"/>
<path d="M 1480,400 L 1490,400 L 1500,400" stroke="#000000" stroke-width="4.0" fill="none"/>
<path d="M 1500,420 L 1490,420" stroke="#000000" stroke-width="4.0" fill="none"/>
<path d="M 1480,740 L 1490,740 L 1500,740" stroke="#000000" stroke-width="4.0" fill="none"/>
<path d="M 1500,760 L 1490,760" stroke="#000000" stroke-width="4.0" fill="none"/>
<path d="M 1740,300 L 1750,300 L 1760,300" stroke="#000000" stroke-width="4.0" fill="none"/>
<path d="M 1740,320 L 1750,320" stroke="#000000" stroke-width="4.0" fill="none"/>
<path d="M 1740,620 L 1750,620 L 1760,620" stroke="#000000" stroke-width="4.0" fill="none"/>
<path d="M 1740,640 L 1750,640" stroke="#000000" stroke-width="4.0" fill="none"/>
<path d="M 680,380 L 690,380 L 700,380" stroke="#000000" stroke-width="4.0" fill="none"/>
<path d="M 680,400 L 690,400" stroke="#000000" stroke-width="4.0" fill="none"/>
<path d="M 980,820 L 990,820 L 1000,820" stroke="#000000" stroke-width="4.0" fill="none"/>
<path d="M 980,840 L 990,840 L 1000,840" stroke="#000000" stroke-width="4.0" fill="none"/>
<g>
<circle cx="1140.0" cy="320.0" r="4.0" stroke="#0000b2" stroke-width="4.0" fill="#0000b2" />
<circle cx="1300.0" cy="320.0" r="4.0" stroke="#0000b2" stroke-width="4.0" fill="#0000b2" />
<circle cx="1580.0" cy="640.0" r="4.0" stroke="#0000b2" stroke-width="4.0" fill="#0000b2" />
<circle cx="1540.0" cy="580.0" r="4.0" stroke="#0000b2" stroke-width="4.0" fill="#0000b2" />
<circle cx="1540.0" cy="260.0" r="4.0" stroke="#0000b2" stroke-width="4.0" fill="#0000b2" />
<circle cx="640.0" cy="340.0" r="4.0" stroke="#0000b2" stroke-width="4.0" fill="#0000b2" />
<circle cx="960.0" cy="340.0" r="4.0" stroke="#0000b2" stroke-width="4.0" fill="#0000b2" />
<circle cx="940.0" cy="660.0" r="4.0" stroke="#0000b2" stroke-width="4.0" fill="#0000b2" />
<circle cx="1560.0" cy="660.0" r="4.0" stroke="#0000b2" stroke-width="4.0" fill="#0000b2" />
<circle cx="1220.0" cy="480.0" r="4.0" stroke="#0000b2" stroke-width="4.0" fill="#0000b2" />
<circle cx="1580.0" cy="480.0" r="4.0" stroke="#0000b2" stroke-width="4.0" fill="#0000b2" />
<circle cx="1540.0" cy="420.0" r="4.0" stroke="#0000b2" stroke-width="4.0" fill="#0000b2" />
<circle cx="1220.0" cy="560.0" r="4.0" stroke="#0000b2" stroke-width="4.0" fill="#0000b2" />
<circle cx="1560.0" cy="500.0" r="4.0" stroke="#0000b2" stroke-width="4.0" fill="#0000b2" />
<circle cx="1100.0" cy="760.0" r="4.0" stroke="#0000b2" stroke-width="4.0" fill="#0000b2" />
</g>
<g>
<path d="M 721,290 L 919,290 L 919,450 L 721,450 Z" stroke="#000000" stroke-width="4.0" fill="none"/>
<text text-anchor="middle" x="820.0" y="282.0" fill="#000000" style="font-size:24px">darkriscv</text>
<text text-anchor="start" x="724.0" y="306.75" fill="#808080" style="font-size:18px">RES</text>
<text text-anchor="start" x="724.0" y="326.75" fill="#808080" style="font-size:18px">CLK</text>
<text text-anchor="start" x="724.0" y="346.75" fill="#808080" style="font-size:18px">HLT</text>
<text text-anchor="start" x="724.0" y="366.75" fill="#808080" style="font-size:18px">IDATA</text>
<text text-anchor="start" x="724.0" y="386.75" fill="#808080" style="font-size:18px">DATAI</text>
<text text-anchor="end" x="916.0" y="306.75" fill="#808080" style="font-size:18px">IADDR</text>
<text text-anchor="end" x="916.0" y="326.75" fill="#808080" style="font-size:18px">DATAO</text>
<text text-anchor="end" x="916.0" y="346.75" fill="#808080" style="font-size:18px">DADDR</text>
<text text-anchor="end" x="916.0" y="366.75" fill="#808080" style="font-size:18px">BE</text>
<text text-anchor="end" x="916.0" y="386.75" fill="#808080" style="font-size:18px">WR</text>
<text text-anchor="end" x="916.0" y="406.75" fill="#808080" style="font-size:18px">RD</text>
<text text-anchor="end" x="916.0" y="426.75" fill="#808080" style="font-size:18px">IDLE</text>
<text text-anchor="end" x="916.0" y="446.75" fill="#808080" style="font-size:18px">DEBUG</text>
<text text-anchor="middle" x="820.0" y="467.5" fill="#808080" style="font-size:18px">Arquivo externo</text>
<circle cx="720.0" cy="300.0" r="2.0" stroke="#0000b2" stroke-width="4.0" fill="#0000b2" />
<circle cx="720.0" cy="320.0" r="2.0" stroke="#0000b2" stroke-width="4.0" fill="#0000b2" />
<circle cx="720.0" cy="340.0" r="2.0" stroke="#0000b2" stroke-width="4.0" fill="#0000b2" />
<circle cx="720.0" cy="360.0" r="2.0" stroke="#0000b2" stroke-width="4.0" fill="#0000b2" />
<circle cx="720.0" cy="380.0" r="2.0" stroke="#0000b2" stroke-width="4.0" fill="#0000b2" />
<circle cx="920.0" cy="300.0" r="2.0" stroke="#b20000" stroke-width="4.0" fill="#b20000" />
<circle cx="920.0" cy="320.0" r="2.0" stroke="#b20000" stroke-width="4.0" fill="#b20000" />
<circle cx="920.0" cy="340.0" r="2.0" stroke="#b20000" stroke-width="4.0" fill="#b20000" />
<circle cx="920.0" cy="360.0" r="2.0" stroke="#b20000" stroke-width="4.0" fill="#b20000" />
<circle cx="920.0" cy="380.0" r="2.0" stroke="#b20000" stroke-width="4.0" fill="#b20000" />
<circle cx="920.0" cy="400.0" r="2.0" stroke="#b20000" stroke-width="4.0" fill="#b20000" />
<circle cx="920.0" cy="420.0" r="2.0" stroke="#b20000" stroke-width="4.0" fill="#b20000" />
<circle cx="920.0" cy="440.0" r="2.0" stroke="#b20000" stroke-width="4.0" fill="#b20000" />
</g>
<g>
<path d="M 1121,746 L 1279,746 L 1279,874 L 1121,874 Z" stroke="#ffffb4" stroke-width="0.0" fill="#ffffb4" fill-opacity="0.7843137254901961"/>
<path d="M 1121,746 L 1279,746 L 1279,874 L 1121,874 Z" stroke="#000000" stroke-width="4.0" fill="none"/>
<path d="M 1121,767 L 1128,760 L 1121,753" stroke="#000000" stroke-width="2.0" fill="none"/>
<text text-anchor="start" x="1131.0" y="766.75" fill="#808080" style="font-size:18px">relogio</text>
<text text-anchor="start" x="1124.0" y="786.75" fill="#808080" style="font-size:18px">write</text>
<text text-anchor="start" x="1124.0" y="806.75" fill="#808080" style="font-size:18px">read</text>
<text text-anchor="start" x="1124.0" y="826.75" fill="#808080" style="font-size:18px">Addr</text>
<text text-anchor="start" x="1124.0" y="846.75" fill="#808080" style="font-size:18px">dMemOut</text>
<text text-anchor="start" x="1124.0" y="866.75" fill="#808080" style="font-size:18px">dIn</text>
<text text-anchor="end" x="1276.0" y="766.75" fill="#808080" style="font-size:18px">dOut</text>
<text text-anchor="end" x="1276.0" y="786.75" fill="#808080" style="font-size:18px">cnt</text>
<text text-anchor="middle" x="1200.0" y="891.5" fill="#808080" style="font-size:18px">TermCnt</text>
<circle cx="1120.0" cy="760.0" r="2.0" stroke="#0000b2" stroke-width="4.0" fill="#0000b2" />
<circle cx="1120.0" cy="780.0" r="2.0" stroke="#0000b2" stroke-width="4.0" fill="#0000b2" />
<circle cx="1120.0" cy="800.0" r="2.0" stroke="#0000b2" stroke-width="4.0" fill="#0000b2" />
<circle cx="1120.0" cy="820.0" r="2.0" stroke="#0000b2" stroke-width="4.0" fill="#0000b2" />
<circle cx="1120.0" cy="840.0" r="2.0" stroke="#0000b2" stroke-width="4.0" fill="#0000b2" />
<circle cx="1120.0" cy="860.0" r="2.0" stroke="#0000b2" stroke-width="4.0" fill="#0000b2" />
<circle cx="1280.0" cy="760.0" r="2.0" stroke="#b20000" stroke-width="4.0" fill="#b20000" />
<circle cx="1280.0" cy="780.0" r="2.0" stroke="#b20000" stroke-width="4.0" fill="#b20000" />
</g>
<g>
<path d="M 1021,150 L 1079,150 L 1079,210 L 1021,210 Z" stroke="#000000" stroke-width="4.0" fill="none"/>
<text text-anchor="middle" x="1050.0" y="142.0" fill="#000000" style="font-size:24px">instructions</text>
<text text-anchor="start" x="1024.0" y="166.75" fill="#808080" style="font-size:18px">A</text>
<text text-anchor="start" x="1024.0" y="206.75" fill="#808080" style="font-size:18px">sel</text>
<text text-anchor="end" x="1076.0" y="186.75" fill="#808080" style="font-size:18px">D</text>
<text text-anchor="middle" x="1050.0" y="227.5" fill="#808080" style="font-size:18px">ROM</text>
<circle cx="1020.0" cy="160.0" r="2.0" stroke="#0000b2" stroke-width="4.0" fill="#0000b2" />
<circle cx="1020.0" cy="200.0" r="2.0" stroke="#0000b2" stroke-width="4.0" fill="#0000b2" />
<circle cx="1080.0" cy="180.0" r="2.0" stroke="#b20000" stroke-width="4.0" fill="#b20000" />
</g>
<g>
<text text-anchor="end" x="918.0" y="157.0" fill="#808080" style="font-size:12px">0-31</text>
<text text-anchor="start" x="942.0" y="157.0" fill="#808080" style="font-size:12px">0,1</text>
<text text-anchor="start" x="942.0" y="177.0" fill="#808080" style="font-size:12px">2-15</text>
<text text-anchor="start" x="942.0" y="197.0" fill="#808080" style="font-size:12px">16-31</text>
<path d="M 928,158 L 932,158 L 932,202 L 928,202 Z" stroke="#000000" stroke-width="4.0" fill="#000000" fill-opacity="1.0"/>
<circle cx="920.0" cy="160.0" r="2.0" stroke="#0000b2" stroke-width="4.0" fill="#0000b2" />
<circle cx="940.0" cy="160.0" r="2.0" stroke="#b20000" stroke-width="4.0" fill="#b20000" />
<circle cx="940.0" cy="180.0" r="2.0" stroke="#b20000" stroke-width="4.0" fill="#b20000" />
<circle cx="940.0" cy="200.0" r="2.0" stroke="#b20000" stroke-width="4.0" fill="#b20000" />
</g>
<g>
<path d="M 599,310 L 541,310 L 541,290 L 599,290 Z" stroke="#000000" stroke-width="4.0" fill="none"/>
<text text-anchor="end" x="530.0" y="309.0" fill="#000000" style="font-size:24px">reset</text>
<path d="M 545,306 L 570,306 L 570,294 L 545,294 Z" stroke="#808080" stroke-width="0.0" fill="#808080" fill-opacity="1.0"/>
<circle cx="600.0" cy="300.0" r="2.0" stroke="#b20000" stroke-width="4.0" fill="#b20000" />
</g>
<g>
<path d="M 549,325 L 579,325 L 579,355 L 549,355 Z" stroke="#000000" stroke-width="4.0" fill="none"/>
<text text-anchor="end" x="535.0" y="349.0" fill="#000000" style="font-size:24px"><tspan style="font-style:italic;">clock</tspan></text>
<path d="M 555,345 L 560,345 L 560,335 L 565,335 L 565,345 L 570,345 L 570,335 L 575,335" stroke="#000000" stroke-width="2.0" fill="none"/>
<circle cx="580.0" cy="340.0" r="2.0" stroke="#b20000" stroke-width="4.0" fill="#b20000" />
</g>
<g>
<text text-anchor="end" x="697.0" y="349.0" fill="#000000" style="font-size:24px">0</text>
<circle cx="700.0" cy="340.0" r="2.0" stroke="#b20000" stroke-width="4.0" fill="#b20000" />
</g>
<g>
<text text-anchor="end" x="1018.0" y="317.0" fill="#808080" style="font-size:12px">0-31</text>
<text text-anchor="start" x="1042.0" y="317.0" fill="#808080" style="font-size:12px">0-15</text>
<text text-anchor="start" x="1042.0" y="337.0" fill="#808080" style="font-size:12px">16-31</text>
<path d="M 1028,318 L 1032,318 L 1032,342 L 1028,342 Z" stroke="#000000" stroke-width="4.0" fill="#000000" fill-opacity="1.0"/>
<circle cx="1020.0" cy="320.0" r="2.0" stroke="#0000b2" stroke-width="4.0" fill="#0000b2" />
<circle cx="1040.0" cy="320.0" r="2.0" stroke="#b20000" stroke-width="4.0" fill="#b20000" />
<circle cx="1040.0" cy="340.0" r="2.0" stroke="#b20000" stroke-width="4.0" fill="#b20000" />
</g>
<g>
<circle cx="996.0" cy="420.0" r="9.0" stroke="#000000" stroke-width="4.0" fill="none" />
<circle cx="996.0" cy="420.0" r="15.0" stroke="#000000" stroke-width="4.0" fill="none" />
<text text-anchor="start" x="1025.0" y="429.0" fill="#000000" style="font-size:24px"><tspan style="font-style:italic;">idle</tspan></text>
<circle cx="980.0" cy="420.0" r="2.0" stroke="#0000b2" stroke-width="4.0" fill="#0000b2" />
</g>
<g>
<circle cx="1036.0" cy="440.0" r="9.0" stroke="#000000" stroke-width="4.0" fill="none" />
<circle cx="1036.0" cy="440.0" r="15.0" stroke="#000000" stroke-width="4.0" fill="none" />
<text text-anchor="start" x="1065.0" y="449.0" fill="#000000" style="font-size:24px"><tspan style="font-style:italic;">debug</tspan></text>
<circle cx="1020.0" cy="440.0" r="2.0" stroke="#0000b2" stroke-width="4.0" fill="#0000b2" />
</g>
<g>
<path d="M 1370,370 L 1321,370 L 1321,310 L 1370,310 C 1380,310 1400,320 1399,340 C 1399,360 1380,370 1370,370 Z" stroke="#000000" stroke-width="4.0" fill="none"/>
<circle cx="1320.0" cy="320.0" r="2.0" stroke="#0000b2" stroke-width="4.0" fill="#0000b2" />
<circle cx="1320.0" cy="360.0" r="2.0" stroke="#0000b2" stroke-width="4.0" fill="#0000b2" />
<circle cx="1400.0" cy="340.0" r="2.0" stroke="#b20000" stroke-width="4.0" fill="#b20000" />
</g>
<g>
<path d="M 1370,450 L 1321,450 L 1321,390 L 1370,390 C 1380,390 1400,400 1399,420 C 1399,440 1380,450 1370,450 Z" stroke="#000000" stroke-width="4.0" fill="none"/>
<circle cx="1320.0" cy="400.0" r="2.0" stroke="#0000b2" stroke-width="4.0" fill="#0000b2" />
<circle cx="1320.0" cy="440.0" r="2.0" stroke="#0000b2" stroke-width="4.0" fill="#0000b2" />
<circle cx="1400.0" cy="420.0" r="2.0" stroke="#b20000" stroke-width="4.0" fill="#b20000" />
</g>
<g>
<path d="M 1370,530 L 1321,530 L 1321,470 L 1370,470 C 1380,470 1400,480 1399,500 C 1399,520 1380,530 1370,530 Z" stroke="#000000" stroke-width="4.0" fill="none"/>
<circle cx="1320.0" cy="480.0" r="2.0" stroke="#0000b2" stroke-width="4.0" fill="#0000b2" />
<circle cx="1320.0" cy="520.0" r="2.0" stroke="#0000b2" stroke-width="4.0" fill="#0000b2" />
<circle cx="1400.0" cy="500.0" r="2.0" stroke="#b20000" stroke-width="4.0" fill="#b20000" />
</g>
<g>
<path d="M 1370,610 L 1321,610 L 1321,550 L 1370,550 C 1380,550 1400,560 1399,580 C 1399,600 1380,610 1370,610 Z" stroke="#000000" stroke-width="4.0" fill="none"/>
<circle cx="1320.0" cy="560.0" r="2.0" stroke="#0000b2" stroke-width="4.0" fill="#0000b2" />
<circle cx="1320.0" cy="600.0" r="2.0" stroke="#0000b2" stroke-width="4.0" fill="#0000b2" />
<circle cx="1400.0" cy="580.0" r="2.0" stroke="#b20000" stroke-width="4.0" fill="#b20000" />
</g>
<g>
<text text-anchor="end" x="1178.0" y="357.0" fill="#808080" style="font-size:12px">0-3</text>
<text text-anchor="start" x="1202.0" y="357.0" fill="#808080" style="font-size:12px">0</text>
<text text-anchor="start" x="1202.0" y="377.0" fill="#808080" style="font-size:12px">1</text>
<text text-anchor="start" x="1202.0" y="397.0" fill="#808080" style="font-size:12px">2</text>
<text text-anchor="start" x="1202.0" y="417.0" fill="#808080" style="font-size:12px">3</text>
<path d="M 1188,358 L 1192,358 L 1192,422 L 1188,422 Z" stroke="#000000" stroke-width="4.0" fill="#000000" fill-opacity="1.0"/>
<circle cx="1180.0" cy="360.0" r="2.0" stroke="#0000b2" stroke-width="4.0" fill="#0000b2" />
<circle cx="1200.0" cy="360.0" r="2.0" stroke="#b20000" stroke-width="4.0" fill="#b20000" />
<circle cx="1200.0" cy="380.0" r="2.0" stroke="#b20000" stroke-width="4.0" fill="#b20000" />
<circle cx="1200.0" cy="400.0" r="2.0" stroke="#b20000" stroke-width="4.0" fill="#b20000" />
<circle cx="1200.0" cy="420.0" r="2.0" stroke="#b20000" stroke-width="4.0" fill="#b20000" />
</g>
<g>
<circle cx="1356.0" cy="800.0" r="9.0" stroke="#000000" stroke-width="4.0" fill="none" />
<circle cx="1356.0" cy="800.0" r="15.0" stroke="#000000" stroke-width="4.0" fill="none" />
<text text-anchor="start" x="1385.0" y="809.0" fill="#000000" style="font-size:24px"><tspan style="font-style:italic;">cnt</tspan></text>
<circle cx="1340.0" cy="800.0" r="2.0" stroke="#0000b2" stroke-width="4.0" fill="#0000b2" />
</g>
<g>
<path d="M 1601,250 L 1659,250 L 1659,350 L 1601,350 Z" stroke="#000000" stroke-width="4.0" fill="none"/>
<text text-anchor="middle" x="1630.0" y="242.0" fill="#000000" style="font-size:24px">m0</text>
<text text-anchor="start" x="1604.0" y="266.75" fill="#808080" style="font-size:18px">A</text>
<text text-anchor="start" x="1604.0" y="286.75" fill="#808080" style="font-size:18px">Din</text>
<text text-anchor="start" x="1604.0" y="306.75" fill="#808080" style="font-size:18px">str</text>
<path d="M 1601,327 L 1608,320 L 1601,313" stroke="#000000" stroke-width="2.0" fill="none"/>
<text text-anchor="start" x="1611.0" y="326.75" fill="#808080" style="font-size:18px">C</text>
<text text-anchor="start" x="1604.0" y="346.75" fill="#808080" style="font-size:18px">ld</text>
<text text-anchor="end" x="1656.0" y="306.75" fill="#808080" style="font-size:18px">D</text>
<text text-anchor="middle" x="1630.0" y="367.5" fill="#808080" style="font-size:18px">RAM</text>
<circle cx="1600.0" cy="260.0" r="2.0" stroke="#0000b2" stroke-width="4.0" fill="#0000b2" />
<circle cx="1600.0" cy="280.0" r="2.0" stroke="#0000b2" stroke-width="4.0" fill="#0000b2" />
<circle cx="1600.0" cy="300.0" r="2.0" stroke="#0000b2" stroke-width="4.0" fill="#0000b2" />
<circle cx="1600.0" cy="320.0" r="2.0" stroke="#0000b2" stroke-width="4.0" fill="#0000b2" />
<circle cx="1600.0" cy="340.0" r="2.0" stroke="#0000b2" stroke-width="4.0" fill="#0000b2" />
<circle cx="1660.0" cy="300.0" r="2.0" stroke="#b20000" stroke-width="4.0" fill="#b20000" />
</g>
<g>
<path d="M 1601,410 L 1659,410 L 1659,510 L 1601,510 Z" stroke="#000000" stroke-width="4.0" fill="none"/>
<text text-anchor="middle" x="1630.0" y="402.0" fill="#000000" style="font-size:24px">m1</text>
<text text-anchor="start" x="1604.0" y="426.75" fill="#808080" style="font-size:18px">A</text>
<text text-anchor="start" x="1604.0" y="446.75" fill="#808080" style="font-size:18px">Din</text>
<text text-anchor="start" x="1604.0" y="466.75" fill="#808080" style="font-size:18px">str</text>
<path d="M 1601,487 L 1608,480 L 1601,473" stroke="#000000" stroke-width="2.0" fill="none"/>
<text text-anchor="start" x="1611.0" y="486.75" fill="#808080" style="font-size:18px">C</text>
<text text-anchor="start" x="1604.0" y="506.75" fill="#808080" style="font-size:18px">ld</text>
<text text-anchor="end" x="1656.0" y="466.75" fill="#808080" style="font-size:18px">D</text>
<text text-anchor="middle" x="1630.0" y="527.5" fill="#808080" style="font-size:18px">RAM</text>
<circle cx="1600.0" cy="420.0" r="2.0" stroke="#0000b2" stroke-width="4.0" fill="#0000b2" />
<circle cx="1600.0" cy="440.0" r="2.0" stroke="#0000b2" stroke-width="4.0" fill="#0000b2" />
<circle cx="1600.0" cy="460.0" r="2.0" stroke="#0000b2" stroke-width="4.0" fill="#0000b2" />
<circle cx="1600.0" cy="480.0" r="2.0" stroke="#0000b2" stroke-width="4.0" fill="#0000b2" />
<circle cx="1600.0" cy="500.0" r="2.0" stroke="#0000b2" stroke-width="4.0" fill="#0000b2" />
<circle cx="1660.0" cy="460.0" r="2.0" stroke="#b20000" stroke-width="4.0" fill="#b20000" />
</g>
<g>
<path d="M 1601,570 L 1659,570 L 1659,670 L 1601,670 Z" stroke="#000000" stroke-width="4.0" fill="none"/>
<text text-anchor="middle" x="1630.0" y="562.0" fill="#000000" style="font-size:24px">m2</text>
<text text-anchor="start" x="1604.0" y="586.75" fill="#808080" style="font-size:18px">A</text>
<text text-anchor="start" x="1604.0" y="606.75" fill="#808080" style="font-size:18px">Din</text>
<text text-anchor="start" x="1604.0" y="626.75" fill="#808080" style="font-size:18px">str</text>
<path d="M 1601,647 L 1608,640 L 1601,633" stroke="#000000" stroke-width="2.0" fill="none"/>
<text text-anchor="start" x="1611.0" y="646.75" fill="#808080" style="font-size:18px">C</text>
<text text-anchor="start" x="1604.0" y="666.75" fill="#808080" style="font-size:18px">ld</text>
<text text-anchor="end" x="1656.0" y="626.75" fill="#808080" style="font-size:18px">D</text>
<text text-anchor="middle" x="1630.0" y="687.5" fill="#808080" style="font-size:18px">RAM</text>
<circle cx="1600.0" cy="580.0" r="2.0" stroke="#0000b2" stroke-width="4.0" fill="#0000b2" />
<circle cx="1600.0" cy="600.0" r="2.0" stroke="#0000b2" stroke-width="4.0" fill="#0000b2" />
<circle cx="1600.0" cy="620.0" r="2.0" stroke="#0000b2" stroke-width="4.0" fill="#0000b2" />
<circle cx="1600.0" cy="640.0" r="2.0" stroke="#0000b2" stroke-width="4.0" fill="#0000b2" />
<circle cx="1600.0" cy="660.0" r="2.0" stroke="#0000b2" stroke-width="4.0" fill="#0000b2" />
<circle cx="1660.0" cy="620.0" r="2.0" stroke="#b20000" stroke-width="4.0" fill="#b20000" />
</g>
<g>
<path d="M 1601,730 L 1659,730 L 1659,830 L 1601,830 Z" stroke="#000000" stroke-width="4.0" fill="none"/>
<text text-anchor="middle" x="1630.0" y="722.0" fill="#000000" style="font-size:24px">m3</text>
<text text-anchor="start" x="1604.0" y="746.75" fill="#808080" style="font-size:18px">A</text>
<text text-anchor="start" x="1604.0" y="766.75" fill="#808080" style="font-size:18px">Din</text>
<text text-anchor="start" x="1604.0" y="786.75" fill="#808080" style="font-size:18px">str</text>
<path d="M 1601,807 L 1608,800 L 1601,793" stroke="#000000" stroke-width="2.0" fill="none"/>
<text text-anchor="start" x="1611.0" y="806.75" fill="#808080" style="font-size:18px">C</text>
<text text-anchor="start" x="1604.0" y="826.75" fill="#808080" style="font-size:18px">ld</text>
<text text-anchor="end" x="1656.0" y="786.75" fill="#808080" style="font-size:18px">D</text>
<text text-anchor="middle" x="1630.0" y="847.5" fill="#808080" style="font-size:18px">RAM</text>
<circle cx="1600.0" cy="740.0" r="2.0" stroke="#0000b2" stroke-width="4.0" fill="#0000b2" />
<circle cx="1600.0" cy="760.0" r="2.0" stroke="#0000b2" stroke-width="4.0" fill="#0000b2" />
<circle cx="1600.0" cy="780.0" r="2.0" stroke="#0000b2" stroke-width="4.0" fill="#0000b2" />
<circle cx="1600.0" cy="800.0" r="2.0" stroke="#0000b2" stroke-width="4.0" fill="#0000b2" />
<circle cx="1600.0" cy="820.0" r="2.0" stroke="#0000b2" stroke-width="4.0" fill="#0000b2" />
<circle cx="1660.0" cy="780.0" r="2.0" stroke="#b20000" stroke-width="4.0" fill="#b20000" />
</g>
<g>
<text text-anchor="end" x="1018.0" y="257.0" fill="#808080" style="font-size:12px">0-31</text>
<text text-anchor="start" x="1042.0" y="257.0" fill="#808080" style="font-size:12px">0,1</text>
<text text-anchor="start" x="1042.0" y="277.0" fill="#808080" style="font-size:12px">2-17</text>
<text text-anchor="start" x="1042.0" y="297.0" fill="#808080" style="font-size:12px">18-31</text>
<path d="M 1028,258 L 1032,258 L 1032,302 L 1028,302 Z" stroke="#000000" stroke-width="4.0" fill="#000000" fill-opacity="1.0"/>
<circle cx="1020.0" cy="260.0" r="2.0" stroke="#0000b2" stroke-width="4.0" fill="#0000b2" />
<circle cx="1040.0" cy="260.0" r="2.0" stroke="#b20000" stroke-width="4.0" fill="#b20000" />
<circle cx="1040.0" cy="280.0" r="2.0" stroke="#b20000" stroke-width="4.0" fill="#b20000" />
<circle cx="1040.0" cy="300.0" r="2.0" stroke="#b20000" stroke-width="4.0" fill="#b20000" />
</g>
<g>
<text text-anchor="end" x="1478.0" y="397.0" fill="#808080" style="font-size:12px">0-15</text>
<text text-anchor="start" x="1502.0" y="397.0" fill="#808080" style="font-size:12px">0-7</text>
<text text-anchor="start" x="1502.0" y="417.0" fill="#808080" style="font-size:12px">8-15</text>
<path d="M 1488,398 L 1492,398 L 1492,422 L 1488,422 Z" stroke="#000000" stroke-width="4.0" fill="#000000" fill-opacity="1.0"/>
<circle cx="1480.0" cy="400.0" r="2.0" stroke="#0000b2" stroke-width="4.0" fill="#0000b2" />
<circle cx="1500.0" cy="400.0" r="2.0" stroke="#b20000" stroke-width="4.0" fill="#b20000" />
<circle cx="1500.0" cy="420.0" r="2.0" stroke="#b20000" stroke-width="4.0" fill="#b20000" />
</g>
<g>
<text text-anchor="end" x="1478.0" y="737.0" fill="#808080" style="font-size:12px">0-15</text>
<text text-anchor="start" x="1502.0" y="737.0" fill="#808080" style="font-size:12px">0-7</text>
<text text-anchor="start" x="1502.0" y="757.0" fill="#808080" style="font-size:12px">8-15</text>
<path d="M 1488,738 L 1492,738 L 1492,762 L 1488,762 Z" stroke="#000000" stroke-width="4.0" fill="#000000" fill-opacity="1.0"/>
<circle cx="1480.0" cy="740.0" r="2.0" stroke="#0000b2" stroke-width="4.0" fill="#0000b2" />
<circle cx="1500.0" cy="740.0" r="2.0" stroke="#b20000" stroke-width="4.0" fill="#b20000" />
<circle cx="1500.0" cy="760.0" r="2.0" stroke="#b20000" stroke-width="4.0" fill="#b20000" />
</g>
<g>
<text text-anchor="end" x="1738.0" y="297.0" fill="#808080" style="font-size:12px">0-7</text>
<text text-anchor="end" x="1738.0" y="317.0" fill="#808080" style="font-size:12px">8-15</text>
<text text-anchor="start" x="1762.0" y="297.0" fill="#808080" style="font-size:12px">0-15</text>
<path d="M 1748,298 L 1752,298 L 1752,322 L 1748,322 Z" stroke="#000000" stroke-width="4.0" fill="#000000" fill-opacity="1.0"/>
<circle cx="1740.0" cy="300.0" r="2.0" stroke="#0000b2" stroke-width="4.0" fill="#0000b2" />
<circle cx="1740.0" cy="320.0" r="2.0" stroke="#0000b2" stroke-width="4.0" fill="#0000b2" />
<circle cx="1760.0" cy="300.0" r="2.0" stroke="#b20000" stroke-width="4.0" fill="#b20000" />
</g>
<g>
<text text-anchor="end" x="1738.0" y="617.0" fill="#808080" style="font-size:12px">0-7</text>
<text text-anchor="end" x="1738.0" y="637.0" fill="#808080" style="font-size:12px">8-15</text>
<text text-anchor="start" x="1762.0" y="617.0" fill="#808080" style="font-size:12px">0-15</text>
<path d="M 1748,618 L 1752,618 L 1752,642 L 1748,642 Z" stroke="#000000" stroke-width="4.0" fill="#000000" fill-opacity="1.0"/>
<circle cx="1740.0" cy="620.0" r="2.0" stroke="#0000b2" stroke-width="4.0" fill="#0000b2" />
<circle cx="1740.0" cy="640.0" r="2.0" stroke="#0000b2" stroke-width="4.0" fill="#0000b2" />
<circle cx="1760.0" cy="620.0" r="2.0" stroke="#b20000" stroke-width="4.0" fill="#b20000" />
</g>
<g>
<text text-anchor="end" x="678.0" y="377.0" fill="#808080" style="font-size:12px">0-15</text>
<text text-anchor="end" x="678.0" y="397.0" fill="#808080" style="font-size:12px">16-31</text>
<text text-anchor="start" x="702.0" y="377.0" fill="#808080" style="font-size:12px">0-31</text>
<path d="M 688,378 L 692,378 L 692,402 L 688,402 Z" stroke="#000000" stroke-width="4.0" fill="#000000" fill-opacity="1.0"/>
<circle cx="680.0" cy="380.0" r="2.0" stroke="#0000b2" stroke-width="4.0" fill="#0000b2" />
<circle cx="680.0" cy="400.0" r="2.0" stroke="#0000b2" stroke-width="4.0" fill="#0000b2" />
<circle cx="700.0" cy="380.0" r="2.0" stroke="#b20000" stroke-width="4.0" fill="#b20000" />
</g>
<g>
<text text-anchor="end" x="997.0" y="209.0" fill="#000000" style="font-size:24px">1</text>
<circle cx="1000.0" cy="200.0" r="2.0" stroke="#b20000" stroke-width="4.0" fill="#b20000" />
</g>
<g>
<text text-anchor="end" x="978.0" y="817.0" fill="#808080" style="font-size:12px">0-31</text>
<text text-anchor="end" x="978.0" y="837.0" fill="#808080" style="font-size:12px">32,33</text>
<text text-anchor="start" x="1002.0" y="817.0" fill="#808080" style="font-size:12px">0,1</text>
<text text-anchor="start" x="1002.0" y="837.0" fill="#808080" style="font-size:12px">2-33</text>
<path d="M 988,818 L 992,818 L 992,842 L 988,842 Z" stroke="#000000" stroke-width="4.0" fill="#000000" fill-opacity="1.0"/>
<circle cx="980.0" cy="820.0" r="2.0" stroke="#0000b2" stroke-width="4.0" fill="#0000b2" />
<circle cx="980.0" cy="840.0" r="2.0" stroke="#0000b2" stroke-width="4.0" fill="#0000b2" />
<circle cx="1000.0" cy="820.0" r="2.0" stroke="#b20000" stroke-width="4.0" fill="#b20000" />
<circle cx="1000.0" cy="840.0" r="2.0" stroke="#b20000" stroke-width="4.0" fill="#b20000" />
</g>
<g>
<text text-anchor="end" x="957.0" y="849.0" fill="#000000" style="font-size:24px">3</text>
<circle cx="960.0" cy="840.0" r="2.0" stroke="#b20000" stroke-width="4.0" fill="#b20000" />
</g>
</g>
</svg>