<?xml version="1.0" encoding="UTF-8" standalone="no"?>
<!-- Created with Digital by H.Neemann -->
<!-- created: Sat Nov 16 15:34:54 BRT 2024 -->

<svg
   xmlns:svg="http://www.w3.org/2000/svg"
   xmlns="http://www.w3.org/2000/svg"
   width="160.95mm"
   height="66.6mm"
   viewBox="389 278 1073 444">
<g stroke-linecap="square">
<path d="M 880,640 L 940,640" stroke="#0000b2" stroke-width="4.0" fill="none"/>
<path d="M 520,420 L 560,420 L 560,400 L 680,400" stroke="#0000b2" stroke-width="4.0" fill="none"/>
<path d="M 920,420 L 1080,420 L 1080,360 L 1120,360" stroke="#0000b2" stroke-width="4.0" fill="none"/>
<path d="M 1080,420 L 1080,580 L 1120,580" stroke="#0000b2" stroke-width="4.0" fill="none"/>
<path d="M 1280,580 L 1340,580" stroke="#0000b2" stroke-width="4.0" fill="none"/>
<path d="M 1180,360 L 1300,360" stroke="#0000b2" stroke-width="4.0" fill="none"/>
<path d="M 1320,360 L 1460,360 L 1460,720 L 1100,720 L 1100,640 L 1120,640" stroke="#0000b2" stroke-width="4.0" fill="none"/>
<path d="M 960,680 L 1020,680" stroke="#0000b2" stroke-width="4.0" fill="none"/>
<path d="M 640,460 L 680,460" stroke="#0000b2" stroke-width="4.0" fill="none"/>
<path d="M 960,620 L 1120,620" stroke="#0000b2" stroke-width="4.0" fill="none"/>
<path d="M 920,400 L 1060,400 L 1120,400" stroke="#0000b2" stroke-width="4.0" fill="none"/>
<path d="M 1100,380 L 1100,560 L 1120,560" stroke="#0000b2" stroke-width="4.0" fill="none"/>
<path d="M 1280,560 L 1300,560 L 1300,500 L 1360,500" stroke="#0000b2" stroke-width="4.0" fill="none"/>
<path d="M 1040,660 L 1120,660" stroke="#0000b2" stroke-width="4.0" fill="none"/>
<path d="M 1000,440 L 1000,660 L 1020,660" stroke="#0000b2" stroke-width="4.0" fill="none"/>
<path d="M 540,380 L 540,280 L 1100,280 L 1100,380 L 1120,380" stroke="#0000b2" stroke-width="4.0" fill="none"/>
<path d="M 920,440 L 1000,440 L 1000,340 L 1120,340" stroke="#0000b2" stroke-width="4.0" fill="none"/>
<path d="M 640,440 L 680,440" stroke="#0000b2" stroke-width="4.0" fill="none"/>
<path d="M 1060,400 L 1060,600 L 1120,600" stroke="#0000b2" stroke-width="4.0" fill="none"/>
<path d="M 520,380 L 540,380 L 680,380" stroke="#0000b2" stroke-width="4.0" fill="none"/>
<path d="M 920,380 L 960,380 L 960,320 L 1120,320" stroke="#0000b2" stroke-width="4.0" fill="none"/>
<path d="M 1240,380 L 1300,380" stroke="#0000b2" stroke-width="4.0" fill="none"/>
<path d="M 940,620 L 880,620 L 880,540 L 960,540 L 960,380" stroke="#0000b2" stroke-width="4.0" fill="none"/>
<path d="M 680,420 L 600,420 L 600,520 L 1280,520 L 1280,460 L 1440,460 L 1440,500 L 1380,500" stroke="#0000b2" stroke-width="4.0" fill="none"/>
<path d="M 1360,500 L 1370,500 L 1380,500" stroke="#000000" stroke-width="4.0" fill="none"/>
<path d="M 1380,520 L 1370,520" stroke="#000000" stroke-width="4.0" fill="none"/>
<path d="M 940,620 L 950,620 L 960,620" stroke="#000000" stroke-width="4.0" fill="none"/>
<path d="M 940,640 L 950,640" stroke="#000000" stroke-width="4.0" fill="none"/>
<path d="M 1020,660 L 1030,660 L 1040,660" stroke="#000000" stroke-width="4.0" fill="none"/>
<path d="M 1020,680 L 1030,680" stroke="#000000" stroke-width="4.0" fill="none"/>
<path d="M 1300,360 L 1310,360 L 1320,360" stroke="#000000" stroke-width="4.0" fill="none"/>
<path d="M 1300,380 L 1310,380" stroke="#000000" stroke-width="4.0" fill="none"/>
<g>
<circle cx="1080.0" cy="420.0" r="4.0" stroke="#0000b2" stroke-width="4.0" fill="#0000b2" />
<circle cx="1060.0" cy="400.0" r="4.0" stroke="#0000b2" stroke-width="4.0" fill="#0000b2" />
<circle cx="1000.0" cy="440.0" r="4.0" stroke="#0000b2" stroke-width="4.0" fill="#0000b2" />
<circle cx="540.0" cy="380.0" r="4.0" stroke="#0000b2" stroke-width="4.0" fill="#0000b2" />
<circle cx="960.0" cy="380.0" r="4.0" stroke="#0000b2" stroke-width="4.0" fill="#0000b2" />
<circle cx="1100.0" cy="380.0" r="4.0" stroke="#0000b2" stroke-width="4.0" fill="#0000b2" />
</g>
<g>
<path d="M 681,370 L 919,370 L 919,470 L 681,470 Z" stroke="#000000" stroke-width="4.0" fill="none"/>
<text text-anchor="middle" x="800.0" y="362.0" fill="#000000" style="font-size:24px">glacial</text>
<text text-anchor="start" x="684.0" y="386.75" fill="#808080" style="font-size:18px">clk</text>
<text text-anchor="start" x="684.0" y="406.75" fill="#808080" style="font-size:18px">reset</text>
<text text-anchor="start" x="684.0" y="426.75" fill="#808080" style="font-size:18px">mem_rd_data</text>
<text text-anchor="start" x="684.0" y="446.75" fill="#808080" style="font-size:18px">xint</text>
<text text-anchor="start" x="684.0" y="466.75" fill="#808080" style="font-size:18px">xtick</text>
<text text-anchor="end" x="916.0" y="386.75" fill="#808080" style="font-size:18px">mem_addr</text>
<text text-anchor="end" x="916.0" y="406.75" fill="#808080" style="font-size:18px">mem_rd_en</text>
<text text-anchor="end" x="916.0" y="426.75" fill="#808080" style="font-size:18px">mem_wr_en</text>
<text text-anchor="end" x="916.0" y="446.75" fill="#808080" style="font-size:18px">mem_wr_data</text>
<text text-anchor="end" x="916.0" y="466.75" fill="#808080" style="font-size:18px">uart_tx</text>
<text text-anchor="middle" x="800.0" y="487.5" fill="#808080" style="font-size:18px">Arquivo externo</text>
<circle cx="680.0" cy="380.0" r="2.0" stroke="#0000b2" stroke-width="4.0" fill="#0000b2" />
<circle cx="680.0" cy="400.0" r="2.0" stroke="#0000b2" stroke-width="4.0" fill="#0000b2" />
<circle cx="680.0" cy="420.0" r="2.0" stroke="#0000b2" stroke-width="4.0" fill="#0000b2" />
<circle cx="680.0" cy="440.0" r="2.0" stroke="#0000b2" stroke-width="4.0" fill="#0000b2" />
<circle cx="680.0" cy="460.0" r="2.0" stroke="#0000b2" stroke-width="4.0" fill="#0000b2" />
<circle cx="920.0" cy="380.0" r="2.0" stroke="#b20000" stroke-width="4.0" fill="#b20000" />
<circle cx="920.0" cy="400.0" r="2.0" stroke="#b20000" stroke-width="4.0" fill="#b20000" />
<circle cx="920.0" cy="420.0" r="2.0" stroke="#b20000" stroke-width="4.0" fill="#b20000" />
<circle cx="920.0" cy="440.0" r="2.0" stroke="#b20000" stroke-width="4.0" fill="#b20000" />
<circle cx="920.0" cy="460.0" r="2.0" stroke="#b20000" stroke-width="4.0" fill="#b20000" />
</g>
<g>
<path d="M 1121,546 L 1279,546 L 1279,674 L 1121,674 Z" stroke="#ffffb4" stroke-width="0.0" fill="#ffffb4" fill-opacity="0.7843137254901961"/>
<path d="M 1121,546 L 1279,546 L 1279,674 L 1121,674 Z" stroke="#000000" stroke-width="4.0" fill="none"/>
<path d="M 1121,567 L 1128,560 L 1121,553" stroke="#000000" stroke-width="2.0" fill="none"/>
<text text-anchor="start" x="1131.0" y="566.75" fill="#808080" style="font-size:18px">relogio</text>
<text text-anchor="start" x="1124.0" y="586.75" fill="#808080" style="font-size:18px">write</text>
<text text-anchor="start" x="1124.0" y="606.75" fill="#808080" style="font-size:18px">read</text>
<text text-anchor="start" x="1124.0" y="626.75" fill="#808080" style="font-size:18px">Addr</text>
<text text-anchor="start" x="1124.0" y="646.75" fill="#808080" style="font-size:18px">dMemOut</text>
<text text-anchor="start" x="1124.0" y="666.75" fill="#808080" style="font-size:18px">dIn</text>
<text text-anchor="end" x="1276.0" y="566.75" fill="#808080" style="font-size:18px">dOut</text>
<text text-anchor="end" x="1276.0" y="586.75" fill="#808080" style="font-size:18px">cnt</text>
<text text-anchor="middle" x="1200.0" y="691.5" fill="#808080" style="font-size:18px">TermCnt</text>
<circle cx="1120.0" cy="560.0" r="2.0" stroke="#0000b2" stroke-width="4.0" fill="#0000b2" />
<circle cx="1120.0" cy="580.0" r="2.0" stroke="#0000b2" stroke-width="4.0" fill="#0000b2" />
<circle cx="1120.0" cy="600.0" r="2.0" stroke="#0000b2" stroke-width="4.0" fill="#0000b2" />
<circle cx="1120.0" cy="620.0" r="2.0" stroke="#0000b2" stroke-width="4.0" fill="#0000b2" />
<circle cx="1120.0" cy="640.0" r="2.0" stroke="#0000b2" stroke-width="4.0" fill="#0000b2" />
<circle cx="1120.0" cy="660.0" r="2.0" stroke="#0000b2" stroke-width="4.0" fill="#0000b2" />
<circle cx="1280.0" cy="560.0" r="2.0" stroke="#b20000" stroke-width="4.0" fill="#b20000" />
<circle cx="1280.0" cy="580.0" r="2.0" stroke="#b20000" stroke-width="4.0" fill="#b20000" />
</g>
<g>
<path d="M 1121,310 L 1179,310 L 1179,410 L 1121,410 Z" stroke="#000000" stroke-width="4.0" fill="none"/>
<text text-anchor="start" x="1124.0" y="326.75" fill="#808080" style="font-size:18px">A</text>
<text text-anchor="start" x="1124.0" y="346.75" fill="#808080" style="font-size:18px">Din</text>
<text text-anchor="start" x="1124.0" y="366.75" fill="#808080" style="font-size:18px">str</text>
<path d="M 1121,387 L 1128,380 L 1121,373" stroke="#000000" stroke-width="2.0" fill="none"/>
<text text-anchor="start" x="1131.0" y="386.75" fill="#808080" style="font-size:18px">C</text>
<text text-anchor="start" x="1124.0" y="406.75" fill="#808080" style="font-size:18px">ld</text>
<text text-anchor="end" x="1176.0" y="366.75" fill="#808080" style="font-size:18px">D</text>
<text text-anchor="middle" x="1150.0" y="427.5" fill="#808080" style="font-size:18px">RAM</text>
<circle cx="1120.0" cy="320.0" r="2.0" stroke="#0000b2" stroke-width="4.0" fill="#0000b2" />
<circle cx="1120.0" cy="340.0" r="2.0" stroke="#0000b2" stroke-width="4.0" fill="#0000b2" />
<circle cx="1120.0" cy="360.0" r="2.0" stroke="#0000b2" stroke-width="4.0" fill="#0000b2" />
<circle cx="1120.0" cy="380.0" r="2.0" stroke="#0000b2" stroke-width="4.0" fill="#0000b2" />
<circle cx="1120.0" cy="400.0" r="2.0" stroke="#0000b2" stroke-width="4.0" fill="#0000b2" />
<circle cx="1180.0" cy="360.0" r="2.0" stroke="#b20000" stroke-width="4.0" fill="#b20000" />
</g>
<g>
<path d="M 489,365 L 519,365 L 519,395 L 489,395 Z" stroke="#000000" stroke-width="4.0" fill="none"/>
<text text-anchor="end" x="475.0" y="389.0" fill="#000000" style="font-size:24px"><tspan style="font-style:italic;">clock</tspan></text>
<path d="M 495,385 L 500,385 L 500,375 L 505,375 L 505,385 L 510,385 L 510,375 L 515,375" stroke="#000000" stroke-width="2.0" fill="none"/>
<circle cx="520.0" cy="380.0" r="2.0" stroke="#b20000" stroke-width="4.0" fill="#b20000" />
</g>
<g>
<path d="M 519,430 L 461,430 L 461,410 L 519,410 Z" stroke="#000000" stroke-width="4.0" fill="none"/>
<text text-anchor="end" x="450.0" y="429.0" fill="#000000" style="font-size:24px">reset</text>
<path d="M 465,426 L 490,426 L 490,414 L 465,414 Z" stroke="#808080" stroke-width="0.0" fill="#808080" fill-opacity="1.0"/>
<circle cx="520.0" cy="420.0" r="2.0" stroke="#b20000" stroke-width="4.0" fill="#b20000" />
</g>
<g>
<text text-anchor="end" x="637.0" y="449.0" fill="#000000" style="font-size:24px">0</text>
<circle cx="640.0" cy="440.0" r="2.0" stroke="#b20000" stroke-width="4.0" fill="#b20000" />
</g>
<g>
<text text-anchor="end" x="637.0" y="469.0" fill="#000000" style="font-size:24px">0</text>
<circle cx="640.0" cy="460.0" r="2.0" stroke="#b20000" stroke-width="4.0" fill="#b20000" />
</g>
<g>
<text text-anchor="end" x="1358.0" y="497.0" fill="#808080" style="font-size:12px">0-15</text>
<text text-anchor="start" x="1382.0" y="497.0" fill="#808080" style="font-size:12px">0-7</text>
<text text-anchor="start" x="1382.0" y="517.0" fill="#808080" style="font-size:12px">8-15</text>
<path d="M 1368,498 L 1372,498 L 1372,522 L 1368,522 Z" stroke="#000000" stroke-width="4.0" fill="#000000" fill-opacity="1.0"/>
<circle cx="1360.0" cy="500.0" r="2.0" stroke="#0000b2" stroke-width="4.0" fill="#0000b2" />
<circle cx="1380.0" cy="500.0" r="2.0" stroke="#b20000" stroke-width="4.0" fill="#b20000" />
<circle cx="1380.0" cy="520.0" r="2.0" stroke="#b20000" stroke-width="4.0" fill="#b20000" />
</g>
<g>
<text text-anchor="end" x="938.0" y="617.0" fill="#808080" style="font-size:12px">0-15</text>
<text text-anchor="end" x="938.0" y="637.0" fill="#808080" style="font-size:12px">16-31</text>
<text text-anchor="start" x="962.0" y="617.0" fill="#808080" style="font-size:12px">0-31</text>
<path d="M 948,618 L 952,618 L 952,642 L 948,642 Z" stroke="#000000" stroke-width="4.0" fill="#000000" fill-opacity="1.0"/>
<circle cx="940.0" cy="620.0" r="2.0" stroke="#0000b2" stroke-width="4.0" fill="#0000b2" />
<circle cx="940.0" cy="640.0" r="2.0" stroke="#0000b2" stroke-width="4.0" fill="#0000b2" />
<circle cx="960.0" cy="620.0" r="2.0" stroke="#b20000" stroke-width="4.0" fill="#b20000" />
</g>
<g>
<text text-anchor="end" x="877.0" y="649.0" fill="#000000" style="font-size:24px">FFFF</text>
<circle cx="880.0" cy="640.0" r="2.0" stroke="#b20000" stroke-width="4.0" fill="#b20000" />
</g>
<g>
<text text-anchor="end" x="1018.0" y="657.0" fill="#808080" style="font-size:12px">0-7</text>
<text text-anchor="end" x="1018.0" y="677.0" fill="#808080" style="font-size:12px">8-15</text>
<text text-anchor="start" x="1042.0" y="657.0" fill="#808080" style="font-size:12px">0-15</text>
<path d="M 1028,658 L 1032,658 L 1032,682 L 1028,682 Z" stroke="#000000" stroke-width="4.0" fill="#000000" fill-opacity="1.0"/>
<circle cx="1020.0" cy="660.0" r="2.0" stroke="#0000b2" stroke-width="4.0" fill="#0000b2" />
<circle cx="1020.0" cy="680.0" r="2.0" stroke="#0000b2" stroke-width="4.0" fill="#0000b2" />
<circle cx="1040.0" cy="660.0" r="2.0" stroke="#b20000" stroke-width="4.0" fill="#b20000" />
</g>
<g>
<text text-anchor="end" x="957.0" y="689.0" fill="#000000" style="font-size:24px">0</text>
<circle cx="960.0" cy="680.0" r="2.0" stroke="#b20000" stroke-width="4.0" fill="#b20000" />
</g>
<g>
<text text-anchor="end" x="1298.0" y="357.0" fill="#808080" style="font-size:12px">0-7</text>
<text text-anchor="end" x="1298.0" y="377.0" fill="#808080" style="font-size:12px">8-15</text>
<text text-anchor="start" x="1322.0" y="357.0" fill="#808080" style="font-size:12px">0-15</text>
<path d="M 1308,358 L 1312,358 L 1312,382 L 1308,382 Z" stroke="#000000" stroke-width="4.0" fill="#000000" fill-opacity="1.0"/>
<circle cx="1300.0" cy="360.0" r="2.0" stroke="#0000b2" stroke-width="4.0" fill="#0000b2" />
<circle cx="1300.0" cy="380.0" r="2.0" stroke="#0000b2" stroke-width="4.0" fill="#0000b2" />
<circle cx="1320.0" cy="360.0" r="2.0" stroke="#b20000" stroke-width="4.0" fill="#b20000" />
</g>
<g>
<text text-anchor="end" x="1237.0" y="389.0" fill="#000000" style="font-size:24px">0</text>
<circle cx="1240.0" cy="380.0" r="2.0" stroke="#b20000" stroke-width="4.0" fill="#b20000" />
</g>
<g>
<circle cx="1356.0" cy="580.0" r="9.0" stroke="#000000" stroke-width="4.0" fill="none" />
<circle cx="1356.0" cy="580.0" r="15.0" stroke="#000000" stroke-width="4.0" fill="none" />
<text text-anchor="start" x="1385.0" y="589.0" fill="#000000" style="font-size:24px"><tspan style="font-style:italic;">cnt</tspan></text>
<circle cx="1340.0" cy="580.0" r="2.0" stroke="#0000b2" stroke-width="4.0" fill="#0000b2" />
</g>
</g>
</svg>