<?xml version="1.0" encoding="UTF-8" standalone="no"?>
<!-- Created with Digital by H.Neemann -->
<!-- created: Fri Sep 13 18:17:55 BRT 2024 -->

<svg
   xmlns:svg="http://www.w3.org/2000/svg"
   xmlns="http://www.w3.org/2000/svg"
   width="265.35mm"
   height="153.0mm"
   viewBox="-268 -218 1769 1020">
<g stroke-linecap="square">
<path d="M -20,400 L -20,320 L 60,320" stroke="#0000b2" stroke-width="4.0" fill="none"/>
<path d="M 1120,360 L 1120,320 L 1180,320" stroke="#0000b2" stroke-width="4.0" fill="none"/>
<path d="M 640,320 L 700,320" stroke="#0000b2" stroke-width="4.0" fill="none"/>
<path d="M -160,260 L 20,260 L 20,200" stroke="#0000b2" stroke-width="4.0" fill="none"/>
<path d="M 400,260 L 420,260 L 420,220" stroke="#0000b2" stroke-width="4.0" fill="none"/>
<path d="M 480,440 L 480,520 L 540,520 L 544,520" stroke="#0000b2" stroke-width="4.0" fill="none"/>
<path d="M 1180,520 L 1200,520 L 1200,380" stroke="#0000b2" stroke-width="4.0" fill="none"/>
<path d="M 720,500 L 720,520 L 820,520 L 820,340" stroke="#0000b2" stroke-width="4.0" fill="none"/>
<path d="M 120,200 L 160,200 L 160,120 L 280,120 L 400,120" stroke="#0000b2" stroke-width="4.0" fill="none"/>
<path d="M 20,80 L 20,200 L 60,200" stroke="#0000b2" stroke-width="4.0" fill="none"/>
<path d="M -60,-140 L 60,-140" stroke="#0000b2" stroke-width="4.0" fill="none"/>
<path d="M 280,120 L 280,460 L 400,460" stroke="#0000b2" stroke-width="4.0" fill="none"/>
<path d="M 120,460 L 240,460 L 240,160 L 400,160" stroke="#0000b2" stroke-width="4.0" fill="none"/>
<path d="M 1040,480 L 1040,460 L 1080,460 L 1080,500 L 1100,500" stroke="#0000b2" stroke-width="4.0" fill="none"/>
<path d="M 620,460 L 700,460" stroke="#0000b2" stroke-width="4.0" fill="none"/>
<path d="M 440,140 L 480,140 L 660,140 L 700,140" stroke="#0000b2" stroke-width="4.0" fill="none"/>
<path d="M 340,60 L 340,400 L 400,400" stroke="#0000b2" stroke-width="4.0" fill="none"/>
<path d="M -60,400 L -20,400 L -20,440" stroke="#0000b2" stroke-width="4.0" fill="none"/>
<path d="M 1040,420 L 1040,400 L 1080,400 L 1080,440 L 1100,440" stroke="#0000b2" stroke-width="4.0" fill="none"/>
<path d="M 120,720 L 200,720 L 200,540" stroke="#0000b2" stroke-width="4.0" fill="none"/>
<path d="M 20,600 L 20,720 L 60,720" stroke="#0000b2" stroke-width="4.0" fill="none"/>
<path d="M 120,80 L 300,80 L 300,100 L 400,100" stroke="#0000b2" stroke-width="4.0" fill="none"/>
<path d="M 20,-40 L 20,80 L 60,80" stroke="#0000b2" stroke-width="4.0" fill="none"/>
<path d="M -60,-20 L 60,-20" stroke="#0000b2" stroke-width="4.0" fill="none"/>
<path d="M 120,340 L 260,340 L 260,140 L 400,140" stroke="#0000b2" stroke-width="4.0" fill="none"/>
<path d="M 20,260 L 20,340 L 60,340" stroke="#0000b2" stroke-width="4.0" fill="none"/>
<path d="M 1220,340 L 1260,340 L 1260,220 L 1360,220" stroke="#0000b2" stroke-width="4.0" fill="none"/>
<path d="M 1040,360 L 1040,340 L 1080,340 L 1080,380 L 1100,380" stroke="#0000b2" stroke-width="4.0" fill="none"/>
<path d="M 720,320 L 720,340 L 820,340 L 820,320 L 840,320" stroke="#0000b2" stroke-width="4.0" fill="none"/>
<path d="M 700,600 L 820,600 L 820,520" stroke="#0000b2" stroke-width="4.0" fill="none"/>
<path d="M 120,600 L 220,600 L 220,520" stroke="#0000b2" stroke-width="4.0" fill="none"/>
<path d="M 400,600 L 420,600 L 420,560" stroke="#0000b2" stroke-width="4.0" fill="none"/>
<path d="M 900,280 L 960,280" stroke="#0000b2" stroke-width="4.0" fill="none"/>
<path d="M 580,320 L 580,280 L 700,280" stroke="#0000b2" stroke-width="4.0" fill="none"/>
<path d="M 620,540 L 680,540 L 680,500 L 700,500" stroke="#0000b2" stroke-width="4.0" fill="none"/>
<path d="M 700,220 L 720,220 L 720,180" stroke="#0000b2" stroke-width="4.0" fill="none"/>
<path d="M -60,220 L 60,220" stroke="#0000b2" stroke-width="4.0" fill="none"/>
<path d="M 120,-160 L 340,-160 L 340,60 L 400,60" stroke="#0000b2" stroke-width="4.0" fill="none"/>
<path d="M 440,480 L 500,480 L 540,480" stroke="#0000b2" stroke-width="4.0" fill="none"/>
<path d="M 260,340 L 260,480 L 400,480" stroke="#0000b2" stroke-width="4.0" fill="none"/>
<path d="M 1120,480 L 1160,480 L 1160,360 L 1180,360" stroke="#0000b2" stroke-width="4.0" fill="none"/>
<path d="M -60,480 L 60,480" stroke="#0000b2" stroke-width="4.0" fill="none"/>
<path d="M -160,480 L -140,480 L -140,440 L -80,440 L -80,420" stroke="#0000b2" stroke-width="4.0" fill="none"/>
<path d="M 740,480 L 940,480 L 940,320 L 960,320" stroke="#0000b2" stroke-width="4.0" fill="none"/>
<path d="M 740,160 L 800,160 L 800,280 L 840,280" stroke="#0000b2" stroke-width="4.0" fill="none"/>
<path d="M 320,80 L 320,420 L 400,420" stroke="#0000b2" stroke-width="4.0" fill="none"/>
<path d="M -160,420 L -100,420" stroke="#0000b2" stroke-width="4.0" fill="none"/>
<path d="M 1120,420 L 1140,420 L 1140,340 L 1180,340" stroke="#0000b2" stroke-width="4.0" fill="none"/>
<path d="M 660,140 L 660,100 L 1300,100 L 1300,460 L 1360,460" stroke="#0000b2" stroke-width="4.0" fill="none"/>
<path d="M -60,100 L 60,100" stroke="#0000b2" stroke-width="4.0" fill="none"/>
<path d="M -60,740 L 60,740" stroke="#0000b2" stroke-width="4.0" fill="none"/>
<path d="M 120,-40 L 320,-40 L 320,80 L 400,80" stroke="#0000b2" stroke-width="4.0" fill="none"/>
<path d="M -60,360 L 60,360" stroke="#0000b2" stroke-width="4.0" fill="none"/>
<path d="M -60,620 L 60,620" stroke="#0000b2" stroke-width="4.0" fill="none"/>
<path d="M 1000,300 L 1020,300 L 1180,300" stroke="#0000b2" stroke-width="4.0" fill="none"/>
<path d="M 740,300 L 840,300" stroke="#0000b2" stroke-width="4.0" fill="none"/>
<path d="M 240,460 L 240,500 L 400,500" stroke="#0000b2" stroke-width="4.0" fill="none"/>
<path d="M 1040,500 L 1060,500 L 1060,480 L 1100,480" stroke="#0000b2" stroke-width="4.0" fill="none"/>
<path d="M 660,180 L 700,180" stroke="#0000b2" stroke-width="4.0" fill="none"/>
<path d="M 300,100 L 300,440 L 400,440" stroke="#0000b2" stroke-width="4.0" fill="none"/>
<path d="M 480,140 L 480,440 L 540,440" stroke="#0000b2" stroke-width="4.0" fill="none"/>
<path d="M -20,580 L -20,440 L 60,440" stroke="#0000b2" stroke-width="4.0" fill="none"/>
<path d="M 1040,440 L 1060,440 L 1060,420 L 1100,420" stroke="#0000b2" stroke-width="4.0" fill="none"/>
<path d="M 1040,380 L 1060,380 L 1060,360 L 1100,360" stroke="#0000b2" stroke-width="4.0" fill="none"/>
<path d="M 880,380 L 980,380 L 980,320" stroke="#0000b2" stroke-width="4.0" fill="none"/>
<path d="M 400,200 L 200,200 L 200,540 L 400,540" stroke="#0000b2" stroke-width="4.0" fill="none"/>
<path d="M 60,-180 L -20,-180 L -20,-60 L 60,-60" stroke="#0000b2" stroke-width="4.0" fill="none"/>
<path d="M 60,580 L -20,580 L -20,700 L 60,700" stroke="#0000b2" stroke-width="4.0" fill="none"/>
<path d="M 60,180 L -20,180 L -20,60 L 60,60" stroke="#0000b2" stroke-width="4.0" fill="none"/>
<path d="M -20,-60 L -20,60" stroke="#0000b2" stroke-width="4.0" fill="none"/>
<path d="M -20,180 L -20,320" stroke="#0000b2" stroke-width="4.0" fill="none"/>
<path d="M 60,-160 L 20,-160 L 20,-40 L 60,-40" stroke="#0000b2" stroke-width="4.0" fill="none"/>
<path d="M 60,460 L 20,460 L 20,600 L 60,600" stroke="#0000b2" stroke-width="4.0" fill="none"/>
<path d="M 20,340 L 20,460" stroke="#0000b2" stroke-width="4.0" fill="none"/>
<path d="M 400,520 L 220,520 L 220,180 L 400,180" stroke="#0000b2" stroke-width="4.0" fill="none"/>
<path d="M 600,320 L 580,320 L 500,320 L 500,480 L 500,560 L 540,560 L 544,560" stroke="#0000b2" stroke-width="4.0" fill="none"/>
<path d="M 1260,340 L 1260,800 L -120,800 L -120,380 L -100,380" stroke="#0000b2" stroke-width="4.0" fill="none"/>
<path d="M 1020,300 L 1020,480" stroke="#0000b2" stroke-width="4.0" fill="none"/>
<path d="M 1020,360 L 1030,360 L 1040,360" stroke="#000000" stroke-width="4.0" fill="none"/>
<path d="M 1040,380 L 1030,380" stroke="#000000" stroke-width="4.0" fill="none"/>
<path d="M 1100,360 L 1110,360 L 1120,360" stroke="#000000" stroke-width="4.0" fill="none"/>
<path d="M 1100,380 L 1110,380" stroke="#000000" stroke-width="4.0" fill="none"/>
<path d="M 1020,420 L 1030,420 L 1040,420" stroke="#000000" stroke-width="4.0" fill="none"/>
<path d="M 1040,440 L 1030,440" stroke="#000000" stroke-width="4.0" fill="none"/>
<path d="M 1100,420 L 1110,420 L 1120,420" stroke="#000000" stroke-width="4.0" fill="none"/>
<path d="M 1100,440 L 1110,440" stroke="#000000" stroke-width="4.0" fill="none"/>
<path d="M 1020,480 L 1030,480 L 1040,480" stroke="#000000" stroke-width="4.0" fill="none"/>
<path d="M 1040,500 L 1030,500" stroke="#000000" stroke-width="4.0" fill="none"/>
<path d="M 1100,480 L 1110,480 L 1120,480" stroke="#000000" stroke-width="4.0" fill="none"/>
<path d="M 1100,500 L 1110,500" stroke="#000000" stroke-width="4.0" fill="none"/>
<g>
<circle cx="-20.0" cy="320.0" r="4.0" stroke="#0000b2" stroke-width="4.0" fill="#0000b2" />
<circle cx="580.0" cy="320.0" r="4.0" stroke="#0000b2" stroke-width="4.0" fill="#0000b2" />
<circle cx="20.0" cy="260.0" r="4.0" stroke="#0000b2" stroke-width="4.0" fill="#0000b2" />
<circle cx="-20.0" cy="580.0" r="4.0" stroke="#0000b2" stroke-width="4.0" fill="#0000b2" />
<circle cx="220.0" cy="520.0" r="4.0" stroke="#0000b2" stroke-width="4.0" fill="#0000b2" />
<circle cx="820.0" cy="520.0" r="4.0" stroke="#0000b2" stroke-width="4.0" fill="#0000b2" />
<circle cx="20.0" cy="200.0" r="4.0" stroke="#0000b2" stroke-width="4.0" fill="#0000b2" />
<circle cx="240.0" cy="460.0" r="4.0" stroke="#0000b2" stroke-width="4.0" fill="#0000b2" />
<circle cx="20.0" cy="460.0" r="4.0" stroke="#0000b2" stroke-width="4.0" fill="#0000b2" />
<circle cx="480.0" cy="140.0" r="4.0" stroke="#0000b2" stroke-width="4.0" fill="#0000b2" />
<circle cx="660.0" cy="140.0" r="4.0" stroke="#0000b2" stroke-width="4.0" fill="#0000b2" />
<circle cx="-20.0" cy="400.0" r="4.0" stroke="#0000b2" stroke-width="4.0" fill="#0000b2" />
<circle cx="320.0" cy="80.0" r="4.0" stroke="#0000b2" stroke-width="4.0" fill="#0000b2" />
<circle cx="20.0" cy="80.0" r="4.0" stroke="#0000b2" stroke-width="4.0" fill="#0000b2" />
<circle cx="260.0" cy="340.0" r="4.0" stroke="#0000b2" stroke-width="4.0" fill="#0000b2" />
<circle cx="20.0" cy="340.0" r="4.0" stroke="#0000b2" stroke-width="4.0" fill="#0000b2" />
<circle cx="1260.0" cy="340.0" r="4.0" stroke="#0000b2" stroke-width="4.0" fill="#0000b2" />
<circle cx="820.0" cy="340.0" r="4.0" stroke="#0000b2" stroke-width="4.0" fill="#0000b2" />
<circle cx="20.0" cy="600.0" r="4.0" stroke="#0000b2" stroke-width="4.0" fill="#0000b2" />
<circle cx="200.0" cy="540.0" r="4.0" stroke="#0000b2" stroke-width="4.0" fill="#0000b2" />
<circle cx="500.0" cy="480.0" r="4.0" stroke="#0000b2" stroke-width="4.0" fill="#0000b2" />
<circle cx="300.0" cy="100.0" r="4.0" stroke="#0000b2" stroke-width="4.0" fill="#0000b2" />
<circle cx="20.0" cy="-40.0" r="4.0" stroke="#0000b2" stroke-width="4.0" fill="#0000b2" />
<circle cx="1020.0" cy="300.0" r="4.0" stroke="#0000b2" stroke-width="4.0" fill="#0000b2" />
<circle cx="-20.0" cy="180.0" r="4.0" stroke="#0000b2" stroke-width="4.0" fill="#0000b2" />
<circle cx="480.0" cy="440.0" r="4.0" stroke="#0000b2" stroke-width="4.0" fill="#0000b2" />
<circle cx="-20.0" cy="440.0" r="4.0" stroke="#0000b2" stroke-width="4.0" fill="#0000b2" />
<circle cx="280.0" cy="120.0" r="4.0" stroke="#0000b2" stroke-width="4.0" fill="#0000b2" />
<circle cx="-20.0" cy="-60.0" r="4.0" stroke="#0000b2" stroke-width="4.0" fill="#0000b2" />
<circle cx="340.0" cy="60.0" r="4.0" stroke="#0000b2" stroke-width="4.0" fill="#0000b2" />
<circle cx="-20.0" cy="60.0" r="4.0" stroke="#0000b2" stroke-width="4.0" fill="#0000b2" />
</g>
<g>
<circle cx="1376.0" cy="220.0" r="9.0" stroke="#000000" stroke-width="4.0" fill="none" />
<circle cx="1376.0" cy="220.0" r="15.0" stroke="#000000" stroke-width="4.0" fill="none" />
<text text-anchor="start" x="1405.0" y="229.0" fill="#000000" style="font-size:24px"><tspan style="font-style:italic;">address</tspan></text>
<circle cx="1360.0" cy="220.0" r="2.0" stroke="#0000b2" stroke-width="4.0" fill="#0000b2" />
</g>
<g>
<circle cx="1376.0" cy="300.0" r="9.0" stroke="#000000" stroke-width="4.0" fill="none" />
<circle cx="1376.0" cy="300.0" r="15.0" stroke="#000000" stroke-width="4.0" fill="none" />
<text text-anchor="start" x="1405.0" y="309.0" fill="#000000" style="font-size:24px"><tspan style="font-style:italic;">wr</tspan></text>
<circle cx="1360.0" cy="300.0" r="2.0" stroke="#0000b2" stroke-width="4.0" fill="#0000b2" />
</g>
<g>
<circle cx="1376.0" cy="360.0" r="9.0" stroke="#000000" stroke-width="4.0" fill="none" />
<circle cx="1376.0" cy="360.0" r="15.0" stroke="#000000" stroke-width="4.0" fill="none" />
<text text-anchor="start" x="1405.0" y="369.0" fill="#000000" style="font-size:24px"><tspan style="font-style:italic;">rd</tspan></text>
<circle cx="1360.0" cy="360.0" r="2.0" stroke="#0000b2" stroke-width="4.0" fill="#0000b2" />
</g>
<g>
<circle cx="1376.0" cy="460.0" r="9.0" stroke="#000000" stroke-width="4.0" fill="none" />
<circle cx="1376.0" cy="460.0" r="15.0" stroke="#000000" stroke-width="4.0" fill="none" />
<text text-anchor="start" x="1405.0" y="469.0" fill="#000000" style="font-size:24px"><tspan style="font-style:italic;">dOut</tspan></text>
<circle cx="1360.0" cy="460.0" r="2.0" stroke="#0000b2" stroke-width="4.0" fill="#0000b2" />
</g>
<g>
<path d="M -191,185 L -161,185 L -161,215 L -191,215 Z" stroke="#000000" stroke-width="4.0" fill="none"/>
<circle cx="-176.0" cy="200.0" r="9.0" stroke="#000000" stroke-width="4.0" fill="none" />
<text text-anchor="end" x="-205.0" y="209.0" fill="#000000" style="font-size:24px"><tspan style="font-style:italic;">reset</tspan></text>
<circle cx="-160.0" cy="200.0" r="2.0" stroke="#b20000" stroke-width="4.0" fill="#b20000" />
</g>
<g>
<path d="M -191,245 L -161,245 L -161,275 L -191,275 Z" stroke="#000000" stroke-width="4.0" fill="none"/>
<text text-anchor="end" x="-205.0" y="269.0" fill="#000000" style="font-size:24px"><tspan style="font-style:italic;">clock</tspan></text>
<path d="M -185,265 L -180,265 L -180,255 L -175,255 L -175,265 L -170,265 L -170,255 L -165,255" stroke="#000000" stroke-width="2.0" fill="none"/>
<circle cx="-160.0" cy="260.0" r="2.0" stroke="#b20000" stroke-width="4.0" fill="#b20000" />
</g>
<g>
<path d="M -191,405 L -161,405 L -161,435 L -191,435 Z" stroke="#000000" stroke-width="4.0" fill="none"/>
<circle cx="-176.0" cy="420.0" r="9.0" stroke="#000000" stroke-width="4.0" fill="none" />
<text text-anchor="end" x="-205.0" y="429.0" fill="#000000" style="font-size:24px"><tspan style="font-style:italic;">dIn</tspan></text>
<circle cx="-160.0" cy="420.0" r="2.0" stroke="#b20000" stroke-width="4.0" fill="#b20000" />
</g>
<g>
<path d="M 841,270 L 899,270 L 899,330 L 841,330 Z" stroke="#000000" stroke-width="4.0" fill="none"/>
<text text-anchor="start" x="844.0" y="286.75" fill="#808080" style="font-size:18px">a</text>
<text text-anchor="start" x="844.0" y="306.75" fill="#808080" style="font-size:18px">b</text>
<text text-anchor="start" x="844.0" y="326.75" fill="#808080" style="font-size:18px">c<tspan style="font-size:80%;baseline-shift:sub;">i</tspan></text>
<text text-anchor="end" x="896.0" y="286.75" fill="#808080" style="font-size:18px">s</text>
<text text-anchor="end" x="896.0" y="306.75" fill="#808080" style="font-size:18px">c<tspan style="font-size:80%;baseline-shift:sub;">o</tspan></text>
<text text-anchor="middle" x="870.0" y="347.5" fill="#808080" style="font-size:18px">Soma</text>
<circle cx="840.0" cy="280.0" r="2.0" stroke="#0000b2" stroke-width="4.0" fill="#0000b2" />
<circle cx="840.0" cy="300.0" r="2.0" stroke="#0000b2" stroke-width="4.0" fill="#0000b2" />
<circle cx="840.0" cy="320.0" r="2.0" stroke="#0000b2" stroke-width="4.0" fill="#0000b2" />
<circle cx="900.0" cy="280.0" r="2.0" stroke="#b20000" stroke-width="4.0" fill="#b20000" />
<circle cx="900.0" cy="300.0" r="2.0" stroke="#b20000" stroke-width="4.0" fill="#b20000" />
</g>
<g>
<path d="M 961,276 L 999,285 L 999,315 L 961,324 Z" stroke="#000000" stroke-width="4.0" fill="none"/>
<text text-anchor="start" x="963.0" y="295.5" fill="#808080" style="font-size:18px">0</text>
<circle cx="980.0" cy="320.0" r="2.0" stroke="#0000b2" stroke-width="4.0" fill="#0000b2" />
<circle cx="960.0" cy="280.0" r="2.0" stroke="#0000b2" stroke-width="4.0" fill="#0000b2" />
<circle cx="960.0" cy="320.0" r="2.0" stroke="#0000b2" stroke-width="4.0" fill="#0000b2" />
<circle cx="1000.0" cy="300.0" r="2.0" stroke="#b20000" stroke-width="4.0" fill="#b20000" />
</g>
<g>
<path d="M 590,490 L 541,490 L 541,430 L 590,430 C 600,430 620,440 619,460 C 619,480 600,490 590,490 Z" stroke="#000000" stroke-width="4.0" fill="none"/>
<circle cx="540.0" cy="440.0" r="2.0" stroke="#0000b2" stroke-width="4.0" fill="#0000b2" />
<circle cx="540.0" cy="480.0" r="2.0" stroke="#0000b2" stroke-width="4.0" fill="#0000b2" />
<circle cx="620.0" cy="460.0" r="2.0" stroke="#b20000" stroke-width="4.0" fill="#b20000" />
</g>
<g>
<path d="M 570,570 L 540,570 C 550,554 550,526 540,510 L 560,510 C 590,510 610,520 620,540 C 610,560 590,570 570,570 Z" stroke="#000000" stroke-width="4.0" fill="none"/>
<circle cx="540.0" cy="520.0" r="2.0" stroke="#0000b2" stroke-width="4.0" fill="#0000b2" />
<circle cx="540.0" cy="560.0" r="2.0" stroke="#0000b2" stroke-width="4.0" fill="#0000b2" />
<circle cx="620.0" cy="540.0" r="2.0" stroke="#b20000" stroke-width="4.0" fill="#b20000" />
</g>
<g>
<path d="M 601,308 L 619,320 L 601,332 Z" stroke="#000000" stroke-width="4.0" fill="none"/>
<circle cx="630.0" cy="320.0" r="9.0" stroke="#000000" stroke-width="4.0" fill="none" />
<circle cx="600.0" cy="320.0" r="2.0" stroke="#0000b2" stroke-width="4.0" fill="#0000b2" />
<circle cx="640.0" cy="320.0" r="2.0" stroke="#b20000" stroke-width="4.0" fill="#b20000" />
</g>
<g>
<path d="M 701,136 L 739,145 L 739,175 L 701,184 Z" stroke="#000000" stroke-width="4.0" fill="none"/>
<text text-anchor="start" x="703.0" y="155.5" fill="#808080" style="font-size:18px">0</text>
<circle cx="720.0" cy="180.0" r="2.0" stroke="#0000b2" stroke-width="4.0" fill="#0000b2" />
<circle cx="700.0" cy="140.0" r="2.0" stroke="#0000b2" stroke-width="4.0" fill="#0000b2" />
<circle cx="700.0" cy="180.0" r="2.0" stroke="#0000b2" stroke-width="4.0" fill="#0000b2" />
<circle cx="740.0" cy="160.0" r="2.0" stroke="#b20000" stroke-width="4.0" fill="#b20000" />
</g>
<g>
<path d="M 61,-190 L 119,-190 L 119,-130 L 61,-130 Z" stroke="#000000" stroke-width="4.0" fill="none"/>
<text text-anchor="middle" x="90.0" y="-198.0" fill="#000000" style="font-size:24px">r0</text>
<text text-anchor="start" x="64.0" y="-173.25" fill="#808080" style="font-size:18px">D</text>
<path d="M 61,-153 L 68,-160 L 61,-167" stroke="#000000" stroke-width="2.0" fill="none"/>
<text text-anchor="start" x="71.0" y="-153.25" fill="#808080" style="font-size:18px">C</text>
<text text-anchor="start" x="64.0" y="-133.25" fill="#808080" style="font-size:18px">en</text>
<text text-anchor="end" x="116.0" y="-153.25" fill="#808080" style="font-size:18px">Q</text>
<text text-anchor="middle" x="90.0" y="-112.5" fill="#808080" style="font-size:18px">Reg</text>
<circle cx="60.0" cy="-180.0" r="2.0" stroke="#0000b2" stroke-width="4.0" fill="#0000b2" />
<circle cx="60.0" cy="-160.0" r="2.0" stroke="#0000b2" stroke-width="4.0" fill="#0000b2" />
<circle cx="60.0" cy="-140.0" r="2.0" stroke="#0000b2" stroke-width="4.0" fill="#0000b2" />
<circle cx="120.0" cy="-160.0" r="2.0" stroke="#b20000" stroke-width="4.0" fill="#b20000" />
</g>
<g>
<path d="M 61,-70 L 119,-70 L 119,-10 L 61,-10 Z" stroke="#000000" stroke-width="4.0" fill="none"/>
<text text-anchor="middle" x="90.0" y="-78.0" fill="#000000" style="font-size:24px">r1</text>
<text text-anchor="start" x="64.0" y="-53.25" fill="#808080" style="font-size:18px">D</text>
<path d="M 61,-33 L 68,-40 L 61,-47" stroke="#000000" stroke-width="2.0" fill="none"/>
<text text-anchor="start" x="71.0" y="-33.25" fill="#808080" style="font-size:18px">C</text>
<text text-anchor="start" x="64.0" y="-13.25" fill="#808080" style="font-size:18px">en</text>
<text text-anchor="end" x="116.0" y="-33.25" fill="#808080" style="font-size:18px">Q</text>
<text text-anchor="middle" x="90.0" y="7.5" fill="#808080" style="font-size:18px">Reg</text>
<circle cx="60.0" cy="-60.0" r="2.0" stroke="#0000b2" stroke-width="4.0" fill="#0000b2" />
<circle cx="60.0" cy="-40.0" r="2.0" stroke="#0000b2" stroke-width="4.0" fill="#0000b2" />
<circle cx="60.0" cy="-20.0" r="2.0" stroke="#0000b2" stroke-width="4.0" fill="#0000b2" />
<circle cx="120.0" cy="-40.0" r="2.0" stroke="#b20000" stroke-width="4.0" fill="#b20000" />
</g>
<g>
<path d="M 61,50 L 119,50 L 119,110 L 61,110 Z" stroke="#000000" stroke-width="4.0" fill="none"/>
<text text-anchor="middle" x="90.0" y="42.0" fill="#000000" style="font-size:24px">r2</text>
<text text-anchor="start" x="64.0" y="66.75" fill="#808080" style="font-size:18px">D</text>
<path d="M 61,87 L 68,80 L 61,73" stroke="#000000" stroke-width="2.0" fill="none"/>
<text text-anchor="start" x="71.0" y="86.75" fill="#808080" style="font-size:18px">C</text>
<text text-anchor="start" x="64.0" y="106.75" fill="#808080" style="font-size:18px">en</text>
<text text-anchor="end" x="116.0" y="86.75" fill="#808080" style="font-size:18px">Q</text>
<text text-anchor="middle" x="90.0" y="127.5" fill="#808080" style="font-size:18px">Reg</text>
<circle cx="60.0" cy="60.0" r="2.0" stroke="#0000b2" stroke-width="4.0" fill="#0000b2" />
<circle cx="60.0" cy="80.0" r="2.0" stroke="#0000b2" stroke-width="4.0" fill="#0000b2" />
<circle cx="60.0" cy="100.0" r="2.0" stroke="#0000b2" stroke-width="4.0" fill="#0000b2" />
<circle cx="120.0" cy="80.0" r="2.0" stroke="#b20000" stroke-width="4.0" fill="#b20000" />
</g>
<g>
<path d="M 61,170 L 119,170 L 119,230 L 61,230 Z" stroke="#000000" stroke-width="4.0" fill="none"/>
<text text-anchor="middle" x="90.0" y="162.0" fill="#000000" style="font-size:24px">r3</text>
<text text-anchor="start" x="64.0" y="186.75" fill="#808080" style="font-size:18px">D</text>
<path d="M 61,207 L 68,200 L 61,193" stroke="#000000" stroke-width="2.0" fill="none"/>
<text text-anchor="start" x="71.0" y="206.75" fill="#808080" style="font-size:18px">C</text>
<text text-anchor="start" x="64.0" y="226.75" fill="#808080" style="font-size:18px">en</text>
<text text-anchor="end" x="116.0" y="206.75" fill="#808080" style="font-size:18px">Q</text>
<text text-anchor="middle" x="90.0" y="247.5" fill="#808080" style="font-size:18px">Reg</text>
<circle cx="60.0" cy="180.0" r="2.0" stroke="#0000b2" stroke-width="4.0" fill="#0000b2" />
<circle cx="60.0" cy="200.0" r="2.0" stroke="#0000b2" stroke-width="4.0" fill="#0000b2" />
<circle cx="60.0" cy="220.0" r="2.0" stroke="#0000b2" stroke-width="4.0" fill="#0000b2" />
<circle cx="120.0" cy="200.0" r="2.0" stroke="#b20000" stroke-width="4.0" fill="#b20000" />
</g>
<g>
<path d="M 61,310 L 119,310 L 119,370 L 61,370 Z" stroke="#000000" stroke-width="4.0" fill="none"/>
<text text-anchor="middle" x="90.0" y="302.0" fill="#000000" style="font-size:24px">r4</text>
<text text-anchor="start" x="64.0" y="326.75" fill="#808080" style="font-size:18px">D</text>
<path d="M 61,347 L 68,340 L 61,333" stroke="#000000" stroke-width="2.0" fill="none"/>
<text text-anchor="start" x="71.0" y="346.75" fill="#808080" style="font-size:18px">C</text>
<text text-anchor="start" x="64.0" y="366.75" fill="#808080" style="font-size:18px">en</text>
<text text-anchor="end" x="116.0" y="346.75" fill="#808080" style="font-size:18px">Q</text>
<text text-anchor="middle" x="90.0" y="387.5" fill="#808080" style="font-size:18px">Reg</text>
<circle cx="60.0" cy="320.0" r="2.0" stroke="#0000b2" stroke-width="4.0" fill="#0000b2" />
<circle cx="60.0" cy="340.0" r="2.0" stroke="#0000b2" stroke-width="4.0" fill="#0000b2" />
<circle cx="60.0" cy="360.0" r="2.0" stroke="#0000b2" stroke-width="4.0" fill="#0000b2" />
<circle cx="120.0" cy="340.0" r="2.0" stroke="#b20000" stroke-width="4.0" fill="#b20000" />
</g>
<g>
<path d="M 61,430 L 119,430 L 119,490 L 61,490 Z" stroke="#000000" stroke-width="4.0" fill="none"/>
<text text-anchor="middle" x="90.0" y="422.0" fill="#000000" style="font-size:24px">r5</text>
<text text-anchor="start" x="64.0" y="446.75" fill="#808080" style="font-size:18px">D</text>
<path d="M 61,467 L 68,460 L 61,453" stroke="#000000" stroke-width="2.0" fill="none"/>
<text text-anchor="start" x="71.0" y="466.75" fill="#808080" style="font-size:18px">C</text>
<text text-anchor="start" x="64.0" y="486.75" fill="#808080" style="font-size:18px">en</text>
<text text-anchor="end" x="116.0" y="466.75" fill="#808080" style="font-size:18px">Q</text>
<text text-anchor="middle" x="90.0" y="507.5" fill="#808080" style="font-size:18px">Reg</text>
<circle cx="60.0" cy="440.0" r="2.0" stroke="#0000b2" stroke-width="4.0" fill="#0000b2" />
<circle cx="60.0" cy="460.0" r="2.0" stroke="#0000b2" stroke-width="4.0" fill="#0000b2" />
<circle cx="60.0" cy="480.0" r="2.0" stroke="#0000b2" stroke-width="4.0" fill="#0000b2" />
<circle cx="120.0" cy="460.0" r="2.0" stroke="#b20000" stroke-width="4.0" fill="#b20000" />
</g>
<g>
<path d="M 61,570 L 119,570 L 119,630 L 61,630 Z" stroke="#000000" stroke-width="4.0" fill="none"/>
<text text-anchor="middle" x="90.0" y="562.0" fill="#000000" style="font-size:24px">r6</text>
<text text-anchor="start" x="64.0" y="586.75" fill="#808080" style="font-size:18px">D</text>
<path d="M 61,607 L 68,600 L 61,593" stroke="#000000" stroke-width="2.0" fill="none"/>
<text text-anchor="start" x="71.0" y="606.75" fill="#808080" style="font-size:18px">C</text>
<text text-anchor="start" x="64.0" y="626.75" fill="#808080" style="font-size:18px">en</text>
<text text-anchor="end" x="116.0" y="606.75" fill="#808080" style="font-size:18px">Q</text>
<text text-anchor="middle" x="90.0" y="647.5" fill="#808080" style="font-size:18px">Reg</text>
<circle cx="60.0" cy="580.0" r="2.0" stroke="#0000b2" stroke-width="4.0" fill="#0000b2" />
<circle cx="60.0" cy="600.0" r="2.0" stroke="#0000b2" stroke-width="4.0" fill="#0000b2" />
<circle cx="60.0" cy="620.0" r="2.0" stroke="#0000b2" stroke-width="4.0" fill="#0000b2" />
<circle cx="120.0" cy="600.0" r="2.0" stroke="#b20000" stroke-width="4.0" fill="#b20000" />
</g>
<g>
<path d="M 61,690 L 119,690 L 119,750 L 61,750 Z" stroke="#000000" stroke-width="4.0" fill="none"/>
<text text-anchor="middle" x="90.0" y="682.0" fill="#000000" style="font-size:24px">PC</text>
<text text-anchor="start" x="64.0" y="706.75" fill="#808080" style="font-size:18px">D</text>
<path d="M 61,727 L 68,720 L 61,713" stroke="#000000" stroke-width="2.0" fill="none"/>
<text text-anchor="start" x="71.0" y="726.75" fill="#808080" style="font-size:18px">C</text>
<text text-anchor="start" x="64.0" y="746.75" fill="#808080" style="font-size:18px">en</text>
<text text-anchor="end" x="116.0" y="726.75" fill="#808080" style="font-size:18px">Q</text>
<text text-anchor="middle" x="90.0" y="767.5" fill="#808080" style="font-size:18px">Reg</text>
<circle cx="60.0" cy="700.0" r="2.0" stroke="#0000b2" stroke-width="4.0" fill="#0000b2" />
<circle cx="60.0" cy="720.0" r="2.0" stroke="#0000b2" stroke-width="4.0" fill="#0000b2" />
<circle cx="60.0" cy="740.0" r="2.0" stroke="#0000b2" stroke-width="4.0" fill="#0000b2" />
<circle cx="120.0" cy="720.0" r="2.0" stroke="#b20000" stroke-width="4.0" fill="#b20000" />
</g>
<g>
<path d="M 401,56 L 439,65 L 439,215 L 401,224 Z" stroke="#000000" stroke-width="4.0" fill="none"/>
<text text-anchor="start" x="403.0" y="75.5" fill="#808080" style="font-size:18px">0</text>
<circle cx="420.0" cy="220.0" r="2.0" stroke="#0000b2" stroke-width="4.0" fill="#0000b2" />
<circle cx="400.0" cy="60.0" r="2.0" stroke="#0000b2" stroke-width="4.0" fill="#0000b2" />
<circle cx="400.0" cy="80.0" r="2.0" stroke="#0000b2" stroke-width="4.0" fill="#0000b2" />
<circle cx="400.0" cy="100.0" r="2.0" stroke="#0000b2" stroke-width="4.0" fill="#0000b2" />
<circle cx="400.0" cy="120.0" r="2.0" stroke="#0000b2" stroke-width="4.0" fill="#0000b2" />
<circle cx="400.0" cy="140.0" r="2.0" stroke="#0000b2" stroke-width="4.0" fill="#0000b2" />
<circle cx="400.0" cy="160.0" r="2.0" stroke="#0000b2" stroke-width="4.0" fill="#0000b2" />
<circle cx="400.0" cy="180.0" r="2.0" stroke="#0000b2" stroke-width="4.0" fill="#0000b2" />
<circle cx="400.0" cy="200.0" r="2.0" stroke="#0000b2" stroke-width="4.0" fill="#0000b2" />
<circle cx="440.0" cy="140.0" r="2.0" stroke="#b20000" stroke-width="4.0" fill="#b20000" />
</g>
<g>
<path d="M 401,396 L 439,405 L 439,555 L 401,564 Z" stroke="#000000" stroke-width="4.0" fill="none"/>
<text text-anchor="start" x="403.0" y="415.5" fill="#808080" style="font-size:18px">0</text>
<circle cx="420.0" cy="560.0" r="2.0" stroke="#0000b2" stroke-width="4.0" fill="#0000b2" />
<circle cx="400.0" cy="400.0" r="2.0" stroke="#0000b2" stroke-width="4.0" fill="#0000b2" />
<circle cx="400.0" cy="420.0" r="2.0" stroke="#0000b2" stroke-width="4.0" fill="#0000b2" />
<circle cx="400.0" cy="440.0" r="2.0" stroke="#0000b2" stroke-width="4.0" fill="#0000b2" />
<circle cx="400.0" cy="460.0" r="2.0" stroke="#0000b2" stroke-width="4.0" fill="#0000b2" />
<circle cx="400.0" cy="480.0" r="2.0" stroke="#0000b2" stroke-width="4.0" fill="#0000b2" />
<circle cx="400.0" cy="500.0" r="2.0" stroke="#0000b2" stroke-width="4.0" fill="#0000b2" />
<circle cx="400.0" cy="520.0" r="2.0" stroke="#0000b2" stroke-width="4.0" fill="#0000b2" />
<circle cx="400.0" cy="540.0" r="2.0" stroke="#0000b2" stroke-width="4.0" fill="#0000b2" />
<circle cx="440.0" cy="480.0" r="2.0" stroke="#b20000" stroke-width="4.0" fill="#b20000" />
</g>
<g>
<path d="M -99,376 L -61,385 L -61,415 L -99,424 Z" stroke="#000000" stroke-width="4.0" fill="none"/>
<text text-anchor="start" x="-97.0" y="395.5" fill="#808080" style="font-size:18px">0</text>
<circle cx="-80.0" cy="420.0" r="2.0" stroke="#0000b2" stroke-width="4.0" fill="#0000b2" />
<circle cx="-100.0" cy="380.0" r="2.0" stroke="#0000b2" stroke-width="4.0" fill="#0000b2" />
<circle cx="-100.0" cy="420.0" r="2.0" stroke="#0000b2" stroke-width="4.0" fill="#0000b2" />
<circle cx="-60.0" cy="400.0" r="2.0" stroke="#b20000" stroke-width="4.0" fill="#b20000" />
</g>
<g>
<path d="M 1181,296 L 1219,305 L 1219,375 L 1181,384 Z" stroke="#000000" stroke-width="4.0" fill="none"/>
<text text-anchor="start" x="1183.0" y="315.5" fill="#808080" style="font-size:18px">0</text>
<circle cx="1200.0" cy="380.0" r="2.0" stroke="#0000b2" stroke-width="4.0" fill="#0000b2" />
<circle cx="1180.0" cy="300.0" r="2.0" stroke="#0000b2" stroke-width="4.0" fill="#0000b2" />
<circle cx="1180.0" cy="320.0" r="2.0" stroke="#0000b2" stroke-width="4.0" fill="#0000b2" />
<circle cx="1180.0" cy="340.0" r="2.0" stroke="#0000b2" stroke-width="4.0" fill="#0000b2" />
<circle cx="1180.0" cy="360.0" r="2.0" stroke="#0000b2" stroke-width="4.0" fill="#0000b2" />
<circle cx="1220.0" cy="340.0" r="2.0" stroke="#b20000" stroke-width="4.0" fill="#b20000" />
</g>
<g>
<text text-anchor="end" x="1018.0" y="357.0" fill="#808080" style="font-size:12px">0-15</text>
<text text-anchor="start" x="1042.0" y="357.0" fill="#808080" style="font-size:12px">0</text>
<text text-anchor="start" x="1042.0" y="377.0" fill="#808080" style="font-size:12px">1-15</text>
<path d="M 1028,358 L 1032,358 L 1032,382 L 1028,382 Z" stroke="#000000" stroke-width="4.0" fill="#000000" fill-opacity="1.0"/>
<circle cx="1020.0" cy="360.0" r="2.0" stroke="#0000b2" stroke-width="4.0" fill="#0000b2" />
<circle cx="1040.0" cy="360.0" r="2.0" stroke="#b20000" stroke-width="4.0" fill="#b20000" />
<circle cx="1040.0" cy="380.0" r="2.0" stroke="#b20000" stroke-width="4.0" fill="#b20000" />
</g>
<g>
<text text-anchor="end" x="1098.0" y="357.0" fill="#808080" style="font-size:12px">0-14</text>
<text text-anchor="end" x="1098.0" y="377.0" fill="#808080" style="font-size:12px">15</text>
<text text-anchor="start" x="1122.0" y="357.0" fill="#808080" style="font-size:12px">0-15</text>
<path d="M 1108,358 L 1112,358 L 1112,382 L 1108,382 Z" stroke="#000000" stroke-width="4.0" fill="#000000" fill-opacity="1.0"/>
<circle cx="1100.0" cy="360.0" r="2.0" stroke="#0000b2" stroke-width="4.0" fill="#0000b2" />
<circle cx="1100.0" cy="380.0" r="2.0" stroke="#0000b2" stroke-width="4.0" fill="#0000b2" />
<circle cx="1120.0" cy="360.0" r="2.0" stroke="#b20000" stroke-width="4.0" fill="#b20000" />
</g>
<g>
<text text-anchor="end" x="1018.0" y="417.0" fill="#808080" style="font-size:12px">0-15</text>
<text text-anchor="start" x="1042.0" y="417.0" fill="#808080" style="font-size:12px">0-3</text>
<text text-anchor="start" x="1042.0" y="437.0" fill="#808080" style="font-size:12px">4-15</text>
<path d="M 1028,418 L 1032,418 L 1032,442 L 1028,442 Z" stroke="#000000" stroke-width="4.0" fill="#000000" fill-opacity="1.0"/>
<circle cx="1020.0" cy="420.0" r="2.0" stroke="#0000b2" stroke-width="4.0" fill="#0000b2" />
<circle cx="1040.0" cy="420.0" r="2.0" stroke="#b20000" stroke-width="4.0" fill="#b20000" />
<circle cx="1040.0" cy="440.0" r="2.0" stroke="#b20000" stroke-width="4.0" fill="#b20000" />
</g>
<g>
<text text-anchor="end" x="1098.0" y="417.0" fill="#808080" style="font-size:12px">0-11</text>
<text text-anchor="end" x="1098.0" y="437.0" fill="#808080" style="font-size:12px">12-15</text>
<text text-anchor="start" x="1122.0" y="417.0" fill="#808080" style="font-size:12px">0-15</text>
<path d="M 1108,418 L 1112,418 L 1112,442 L 1108,442 Z" stroke="#000000" stroke-width="4.0" fill="#000000" fill-opacity="1.0"/>
<circle cx="1100.0" cy="420.0" r="2.0" stroke="#0000b2" stroke-width="4.0" fill="#0000b2" />
<circle cx="1100.0" cy="440.0" r="2.0" stroke="#0000b2" stroke-width="4.0" fill="#0000b2" />
<circle cx="1120.0" cy="420.0" r="2.0" stroke="#b20000" stroke-width="4.0" fill="#b20000" />
</g>
<g>
<text text-anchor="end" x="1018.0" y="477.0" fill="#808080" style="font-size:12px">0-15</text>
<text text-anchor="start" x="1042.0" y="477.0" fill="#808080" style="font-size:12px">0-7</text>
<text text-anchor="start" x="1042.0" y="497.0" fill="#808080" style="font-size:12px">8-15</text>
<path d="M 1028,478 L 1032,478 L 1032,502 L 1028,502 Z" stroke="#000000" stroke-width="4.0" fill="#000000" fill-opacity="1.0"/>
<circle cx="1020.0" cy="480.0" r="2.0" stroke="#0000b2" stroke-width="4.0" fill="#0000b2" />
<circle cx="1040.0" cy="480.0" r="2.0" stroke="#b20000" stroke-width="4.0" fill="#b20000" />
<circle cx="1040.0" cy="500.0" r="2.0" stroke="#b20000" stroke-width="4.0" fill="#b20000" />
</g>
<g>
<text text-anchor="end" x="1098.0" y="477.0" fill="#808080" style="font-size:12px">0-7</text>
<text text-anchor="end" x="1098.0" y="497.0" fill="#808080" style="font-size:12px">8-15</text>
<text text-anchor="start" x="1122.0" y="477.0" fill="#808080" style="font-size:12px">0-15</text>
<path d="M 1108,478 L 1112,478 L 1112,502 L 1108,502 Z" stroke="#000000" stroke-width="4.0" fill="#000000" fill-opacity="1.0"/>
<circle cx="1100.0" cy="480.0" r="2.0" stroke="#0000b2" stroke-width="4.0" fill="#0000b2" />
<circle cx="1100.0" cy="500.0" r="2.0" stroke="#0000b2" stroke-width="4.0" fill="#0000b2" />
<circle cx="1120.0" cy="480.0" r="2.0" stroke="#b20000" stroke-width="4.0" fill="#b20000" />
</g>
<g>
<path d="M 400,600 L 386,592 L 386,608 Z" stroke="#000000" stroke-width="4.0" fill="none"/>
<text text-anchor="end" x="381.0" y="606.75" fill="#808080" style="font-size:18px">rB</text>
<circle cx="400.0" cy="600.0" r="2.0" stroke="#0000b2" stroke-width="4.0" fill="#0000b2" />
</g>
<g>
<path d="M 400,260 L 386,252 L 386,268 Z" stroke="#000000" stroke-width="4.0" fill="none"/>
<text text-anchor="end" x="381.0" y="266.75" fill="#808080" style="font-size:18px">rA</text>
<circle cx="400.0" cy="260.0" r="2.0" stroke="#0000b2" stroke-width="4.0" fill="#0000b2" />
</g>
<g>
<path d="M 660,180 L 646,172 L 646,188 Z" stroke="#000000" stroke-width="4.0" fill="none"/>
<text text-anchor="end" x="641.0" y="186.75" fill="#808080" style="font-size:18px">offset</text>
<circle cx="660.0" cy="180.0" r="2.0" stroke="#0000b2" stroke-width="4.0" fill="#0000b2" />
</g>
<g>
<path d="M 700,220 L 686,212 L 686,228 Z" stroke="#000000" stroke-width="4.0" fill="none"/>
<text text-anchor="end" x="681.0" y="226.75" fill="#808080" style="font-size:18px">mem</text>
<circle cx="700.0" cy="220.0" r="2.0" stroke="#0000b2" stroke-width="4.0" fill="#0000b2" />
</g>
<g>
<path d="M 880,380 L 866,372 L 866,388 Z" stroke="#000000" stroke-width="4.0" fill="none"/>
<text text-anchor="end" x="861.0" y="386.75" fill="#808080" style="font-size:18px">IR5</text>
<circle cx="880.0" cy="380.0" r="2.0" stroke="#0000b2" stroke-width="4.0" fill="#0000b2" />
</g>
<g>
<path d="M 1180,520 L 1166,512 L 1166,528 Z" stroke="#000000" stroke-width="4.0" fill="none"/>
<text text-anchor="end" x="1161.0" y="526.75" fill="#808080" style="font-size:18px">shft</text>
<circle cx="1180.0" cy="520.0" r="2.0" stroke="#0000b2" stroke-width="4.0" fill="#0000b2" />
</g>
<g>
<path d="M -60,-140 L -74,-148 L -74,-132 Z" stroke="#000000" stroke-width="4.0" fill="none"/>
<text text-anchor="end" x="-79.0" y="-133.25" fill="#808080" style="font-size:18px">w0</text>
<circle cx="-60.0" cy="-140.0" r="2.0" stroke="#0000b2" stroke-width="4.0" fill="#0000b2" />
</g>
<g>
<path d="M -60,-20 L -74,-28 L -74,-12 Z" stroke="#000000" stroke-width="4.0" fill="none"/>
<text text-anchor="end" x="-79.0" y="-13.25" fill="#808080" style="font-size:18px">w1</text>
<circle cx="-60.0" cy="-20.0" r="2.0" stroke="#0000b2" stroke-width="4.0" fill="#0000b2" />
</g>
<g>
<path d="M -60,100 L -74,92 L -74,108 Z" stroke="#000000" stroke-width="4.0" fill="none"/>
<text text-anchor="end" x="-79.0" y="106.75" fill="#808080" style="font-size:18px">w2</text>
<circle cx="-60.0" cy="100.0" r="2.0" stroke="#0000b2" stroke-width="4.0" fill="#0000b2" />
</g>
<g>
<path d="M -60,220 L -74,212 L -74,228 Z" stroke="#000000" stroke-width="4.0" fill="none"/>
<text text-anchor="end" x="-79.0" y="226.75" fill="#808080" style="font-size:18px">w3</text>
<circle cx="-60.0" cy="220.0" r="2.0" stroke="#0000b2" stroke-width="4.0" fill="#0000b2" />
</g>
<g>
<path d="M -60,360 L -74,352 L -74,368 Z" stroke="#000000" stroke-width="4.0" fill="none"/>
<text text-anchor="end" x="-79.0" y="366.75" fill="#808080" style="font-size:18px">w4</text>
<circle cx="-60.0" cy="360.0" r="2.0" stroke="#0000b2" stroke-width="4.0" fill="#0000b2" />
</g>
<g>
<path d="M -60,480 L -74,472 L -74,488 Z" stroke="#000000" stroke-width="4.0" fill="none"/>
<text text-anchor="end" x="-79.0" y="486.75" fill="#808080" style="font-size:18px">w5</text>
<circle cx="-60.0" cy="480.0" r="2.0" stroke="#0000b2" stroke-width="4.0" fill="#0000b2" />
</g>
<g>
<path d="M -60,620 L -74,612 L -74,628 Z" stroke="#000000" stroke-width="4.0" fill="none"/>
<text text-anchor="end" x="-79.0" y="626.75" fill="#808080" style="font-size:18px">w6</text>
<circle cx="-60.0" cy="620.0" r="2.0" stroke="#0000b2" stroke-width="4.0" fill="#0000b2" />
</g>
<g>
<path d="M -60,740 L -74,732 L -74,748 Z" stroke="#000000" stroke-width="4.0" fill="none"/>
<text text-anchor="end" x="-79.0" y="746.75" fill="#808080" style="font-size:18px">wPC</text>
<circle cx="-60.0" cy="740.0" r="2.0" stroke="#0000b2" stroke-width="4.0" fill="#0000b2" />
</g>
<g>
<path d="M 700,600 L 686,592 L 686,608 Z" stroke="#000000" stroke-width="4.0" fill="none"/>
<text text-anchor="end" x="681.0" y="606.75" fill="#808080" style="font-size:18px">IR4</text>
<circle cx="700.0" cy="600.0" r="2.0" stroke="#0000b2" stroke-width="4.0" fill="#0000b2" />
</g>
<g>
<path d="M -160,480 L -174,472 L -174,488 Z" stroke="#000000" stroke-width="4.0" fill="none"/>
<text text-anchor="end" x="-179.0" y="486.75" fill="#808080" style="font-size:18px">mem</text>
<circle cx="-160.0" cy="480.0" r="2.0" stroke="#0000b2" stroke-width="4.0" fill="#0000b2" />
</g>
<g>
<path d="M 701,276 L 739,285 L 739,315 L 701,324 Z" stroke="#000000" stroke-width="4.0" fill="none"/>
<text text-anchor="start" x="703.0" y="295.5" fill="#808080" style="font-size:18px">0</text>
<circle cx="720.0" cy="320.0" r="2.0" stroke="#0000b2" stroke-width="4.0" fill="#0000b2" />
<circle cx="700.0" cy="280.0" r="2.0" stroke="#0000b2" stroke-width="4.0" fill="#0000b2" />
<circle cx="700.0" cy="320.0" r="2.0" stroke="#0000b2" stroke-width="4.0" fill="#0000b2" />
<circle cx="740.0" cy="300.0" r="2.0" stroke="#b20000" stroke-width="4.0" fill="#b20000" />
</g>
<g>
<path d="M 701,456 L 739,465 L 739,495 L 701,504 Z" stroke="#000000" stroke-width="4.0" fill="none"/>
<text text-anchor="start" x="703.0" y="475.5" fill="#808080" style="font-size:18px">0</text>
<circle cx="720.0" cy="500.0" r="2.0" stroke="#0000b2" stroke-width="4.0" fill="#0000b2" />
<circle cx="700.0" cy="460.0" r="2.0" stroke="#0000b2" stroke-width="4.0" fill="#0000b2" />
<circle cx="700.0" cy="500.0" r="2.0" stroke="#0000b2" stroke-width="4.0" fill="#0000b2" />
<circle cx="740.0" cy="480.0" r="2.0" stroke="#b20000" stroke-width="4.0" fill="#b20000" />
</g>
</g>
</svg>