<?xml version="1.0" encoding="UTF-8" standalone="no"?>
<!-- Created with Digital by H.Neemann -->
<!-- created: Thu Sep 05 11:33:00 BRT 2024 -->

<svg
   xmlns:svg="http://www.w3.org/2000/svg"
   xmlns="http://www.w3.org/2000/svg"
   width="178.2mm"
   height="138.45mm"
   viewBox="304 -17 1188 923">
<g stroke-linecap="square">
<path d="M 660,640 L 680,640" stroke="#0000b2" stroke-width="4.0" fill="none"/>
<path d="M 500,620 L 500,640 L 520,640" stroke="#0000b2" stroke-width="4.0" fill="none"/>
<path d="M 420,620 L 420,640 L 440,640" stroke="#0000b2" stroke-width="4.0" fill="none"/>
<path d="M 380,0 L 720,0 L 720,180 L 800,180" stroke="#0000b2" stroke-width="4.0" fill="none"/>
<path d="M 460,900 L 620,900 L 660,900" stroke="#0000b2" stroke-width="4.0" fill="none"/>
<path d="M 500,560 L 500,580 L 520,580" stroke="#0000b2" stroke-width="4.0" fill="none"/>
<path d="M 420,560 L 420,580 L 440,580" stroke="#0000b2" stroke-width="4.0" fill="none"/>
<path d="M 860,580 L 920,580 L 940,580" stroke="#0000b2" stroke-width="4.0" fill="none"/>
<path d="M 460,160 L 460,260 L 580,260 L 594,260" stroke="#0000b2" stroke-width="4.0" fill="none"/>
<path d="M 380,840 L 440,840" stroke="#0000b2" stroke-width="4.0" fill="none"/>
<path d="M 460,840 L 500,840 L 500,700" stroke="#0000b2" stroke-width="4.0" fill="none"/>
<path d="M 640,880 L 640,840 L 740,840" stroke="#0000b2" stroke-width="4.0" fill="none"/>
<path d="M 980,200 L 1000,200" stroke="#0000b2" stroke-width="4.0" fill="none"/>
<path d="M 980,140 L 1000,140 L 1004,140" stroke="#0000b2" stroke-width="4.0" fill="none"/>
<path d="M 660,140 L 680,140 L 680,220 L 800,220" stroke="#0000b2" stroke-width="4.0" fill="none"/>
<path d="M 660,400 L 780,400" stroke="#0000b2" stroke-width="4.0" fill="none"/>
<path d="M 840,400 L 860,400 L 860,320 L 980,320" stroke="#0000b2" stroke-width="4.0" fill="none"/>
<path d="M 980,80 L 1000,80" stroke="#0000b2" stroke-width="4.0" fill="none"/>
<path d="M 900,720 L 920,720 L 920,680 L 940,680" stroke="#0000b2" stroke-width="4.0" fill="none"/>
<path d="M 720,660 L 740,660 L 740,440 L 780,440" stroke="#0000b2" stroke-width="4.0" fill="none"/>
<path d="M 1000,660 L 1080,660 L 1160,660" stroke="#0000b2" stroke-width="4.0" fill="none"/>
<path d="M 500,640 L 500,660 L 520,660" stroke="#0000b2" stroke-width="4.0" fill="none"/>
<path d="M 420,640 L 420,660 L 440,660" stroke="#0000b2" stroke-width="4.0" fill="none"/>
<path d="M 860,660 L 900,660 L 940,660" stroke="#0000b2" stroke-width="4.0" fill="none"/>
<path d="M 500,580 L 500,600 L 520,600" stroke="#0000b2" stroke-width="4.0" fill="none"/>
<path d="M 420,580 L 420,600 L 440,600" stroke="#0000b2" stroke-width="4.0" fill="none"/>
<path d="M 460,860 L 520,860 L 520,800 L 420,800 L 420,700" stroke="#0000b2" stroke-width="4.0" fill="none"/>
<path d="M 840,220 L 920,220 L 920,280 L 980,280" stroke="#0000b2" stroke-width="4.0" fill="none"/>
<path d="M 440,380 L 440,220 L 580,220 L 594,220" stroke="#0000b2" stroke-width="4.0" fill="none"/>
<path d="M 380,480 L 460,480 L 580,480 L 594,480" stroke="#0000b2" stroke-width="4.0" fill="none"/>
<path d="M 620,900 L 620,800 L 740,800" stroke="#0000b2" stroke-width="4.0" fill="none"/>
<path d="M 980,160 L 1000,160" stroke="#0000b2" stroke-width="4.0" fill="none"/>
<path d="M 840,420 L 880,420 L 880,640 L 940,640" stroke="#0000b2" stroke-width="4.0" fill="none"/>
<path d="M 980,100 L 1000,100 L 1004,100" stroke="#0000b2" stroke-width="4.0" fill="none"/>
<path d="M 500,660 L 500,680 L 520,680" stroke="#0000b2" stroke-width="4.0" fill="none"/>
<path d="M 420,660 L 420,680 L 440,680" stroke="#0000b2" stroke-width="4.0" fill="none"/>
<path d="M 920,40 L 960,40" stroke="#0000b2" stroke-width="4.0" fill="none"/>
<path d="M 980,40 L 1000,40" stroke="#0000b2" stroke-width="4.0" fill="none"/>
<path d="M 660,40 L 700,40 L 700,200 L 800,200" stroke="#0000b2" stroke-width="4.0" fill="none"/>
<path d="M 660,620 L 680,620" stroke="#0000b2" stroke-width="4.0" fill="none"/>
<path d="M 500,600 L 500,620 L 520,620" stroke="#0000b2" stroke-width="4.0" fill="none"/>
<path d="M 420,600 L 420,620 L 440,620" stroke="#0000b2" stroke-width="4.0" fill="none"/>
<path d="M 800,300 L 820,300 L 820,260" stroke="#0000b2" stroke-width="4.0" fill="none"/>
<path d="M 1020,300 L 1060,300 L 1080,300" stroke="#0000b2" stroke-width="4.0" fill="none"/>
<path d="M 460,880 L 640,880 L 660,880" stroke="#0000b2" stroke-width="4.0" fill="none"/>
<path d="M 680,880 L 700,880 L 700,700" stroke="#0000b2" stroke-width="4.0" fill="none"/>
<path d="M 540,560 L 560,560 L 560,520 L 580,520 L 594,520" stroke="#0000b2" stroke-width="4.0" fill="none"/>
<path d="M 460,560 L 480,560 L 480,420 L 580,420" stroke="#0000b2" stroke-width="4.0" fill="none"/>
<path d="M 900,660 L 900,560 L 940,560" stroke="#0000b2" stroke-width="4.0" fill="none"/>
<path d="M 1000,560 L 1160,560" stroke="#0000b2" stroke-width="4.0" fill="none"/>
<path d="M 660,240 L 800,240" stroke="#0000b2" stroke-width="4.0" fill="none"/>
<path d="M 660,500 L 700,500 L 700,420 L 780,420" stroke="#0000b2" stroke-width="4.0" fill="none"/>
<path d="M 980,180 L 1000,180" stroke="#0000b2" stroke-width="4.0" fill="none"/>
<path d="M 840,820 L 900,820 L 1100,820 L 1100,380 L 1000,380 L 1000,320" stroke="#0000b2" stroke-width="4.0" fill="none"/>
<path d="M 660,680 L 660,760 L 1080,760 L 1080,660" stroke="#0000b2" stroke-width="4.0" fill="none"/>
<path d="M 920,60 L 940,60 L 940,140 L 960,140" stroke="#0000b2" stroke-width="4.0" fill="none"/>
<path d="M 980,60 L 1000,60" stroke="#0000b2" stroke-width="4.0" fill="none"/>
<path d="M 380,380 L 440,380 L 580,380" stroke="#0000b2" stroke-width="4.0" fill="none"/>
<path d="M 500,680 L 500,700 L 520,700" stroke="#0000b2" stroke-width="4.0" fill="none"/>
<path d="M 420,680 L 420,700 L 440,700" stroke="#0000b2" stroke-width="4.0" fill="none"/>
<path d="M 584,160 L 580,160 L 460,160 L 460,60 L 580,60" stroke="#0000b2" stroke-width="4.0" fill="none"/>
<path d="M 460,260 L 460,480" stroke="#0000b2" stroke-width="4.0" fill="none"/>
<path d="M 900,820 L 900,780 L 780,780 L 780,740 L 820,740" stroke="#0000b2" stroke-width="4.0" fill="none"/>
<path d="M 680,660 L 660,660 L 660,680 L 680,680" stroke="#0000b2" stroke-width="4.0" fill="none"/>
<path d="M 940,540 L 920,540 L 920,500 L 1160,500 L 1160,120 L 1100,120" stroke="#0000b2" stroke-width="4.0" fill="none"/>
<path d="M 780,320 L 420,320 L 420,560 L 440,560" stroke="#0000b2" stroke-width="4.0" fill="none"/>
<path d="M 1060,300 L 1060,260 L 940,260 L 940,200 L 880,200 L 880,40 L 900,40" stroke="#0000b2" stroke-width="4.0" fill="none"/>
<path d="M 780,300 L 500,300 L 500,560 L 520,560" stroke="#0000b2" stroke-width="4.0" fill="none"/>
<path d="M 580,20 L 440,20 L 440,120 L 580,120 L 584,120" stroke="#0000b2" stroke-width="4.0" fill="none"/>
<path d="M 440,120 L 440,220" stroke="#0000b2" stroke-width="4.0" fill="none"/>
<path d="M 920,580 L 920,620 L 760,620 L 760,700 L 820,700" stroke="#0000b2" stroke-width="4.0" fill="none"/>
<path d="M 440,840 L 450,840 L 460,840" stroke="#000000" stroke-width="4.0" fill="none"/>
<path d="M 460,860 L 450,860" stroke="#000000" stroke-width="4.0" fill="none"/>
<path d="M 460,880 L 450,880" stroke="#000000" stroke-width="4.0" fill="none"/>
<path d="M 460,900 L 450,900" stroke="#000000" stroke-width="4.0" fill="none"/>
<path d="M 660,880 L 670,880 L 680,880" stroke="#000000" stroke-width="4.0" fill="none"/>
<path d="M 660,900 L 670,900" stroke="#000000" stroke-width="4.0" fill="none"/>
<path d="M 440,560 L 450,560 L 460,560" stroke="#000000" stroke-width="4.0" fill="none"/>
<path d="M 440,580 L 450,580" stroke="#000000" stroke-width="4.0" fill="none"/>
<path d="M 440,600 L 450,600" stroke="#000000" stroke-width="4.0" fill="none"/>
<path d="M 440,620 L 450,620" stroke="#000000" stroke-width="4.0" fill="none"/>
<path d="M 440,640 L 450,640" stroke="#000000" stroke-width="4.0" fill="none"/>
<path d="M 440,660 L 450,660" stroke="#000000" stroke-width="4.0" fill="none"/>
<path d="M 440,680 L 450,680" stroke="#000000" stroke-width="4.0" fill="none"/>
<path d="M 440,700 L 450,700" stroke="#000000" stroke-width="4.0" fill="none"/>
<path d="M 520,560 L 530,560 L 540,560" stroke="#000000" stroke-width="4.0" fill="none"/>
<path d="M 520,580 L 530,580" stroke="#000000" stroke-width="4.0" fill="none"/>
<path d="M 520,600 L 530,600" stroke="#000000" stroke-width="4.0" fill="none"/>
<path d="M 520,620 L 530,620" stroke="#000000" stroke-width="4.0" fill="none"/>
<path d="M 520,640 L 530,640" stroke="#000000" stroke-width="4.0" fill="none"/>
<path d="M 520,660 L 530,660" stroke="#000000" stroke-width="4.0" fill="none"/>
<path d="M 520,680 L 530,680" stroke="#000000" stroke-width="4.0" fill="none"/>
<path d="M 520,700 L 530,700" stroke="#000000" stroke-width="4.0" fill="none"/>
<path d="M 780,300 L 790,300 L 800,300" stroke="#000000" stroke-width="4.0" fill="none"/>
<path d="M 780,320 L 790,320" stroke="#000000" stroke-width="4.0" fill="none"/>
<path d="M 1001,40 L 1001,89" stroke="#000000" stroke-width="4.0" fill="none"/>
<path d="M 1001,200 L 1001,151" stroke="#000000" stroke-width="4.0" fill="none"/>
<path d="M 960,40 L 970,40 L 980,40" stroke="#000000" stroke-width="4.0" fill="none"/>
<path d="M 980,60 L 970,60" stroke="#000000" stroke-width="4.0" fill="none"/>
<path d="M 980,80 L 970,80" stroke="#000000" stroke-width="4.0" fill="none"/>
<path d="M 980,100 L 970,100" stroke="#000000" stroke-width="4.0" fill="none"/>
<path d="M 960,140 L 970,140 L 980,140" stroke="#000000" stroke-width="4.0" fill="none"/>
<path d="M 980,160 L 970,160" stroke="#000000" stroke-width="4.0" fill="none"/>
<path d="M 980,180 L 970,180" stroke="#000000" stroke-width="4.0" fill="none"/>
<path d="M 980,200 L 970,200" stroke="#000000" stroke-width="4.0" fill="none"/>
<path d="M 900,40 L 910,40 L 920,40" stroke="#000000" stroke-width="4.0" fill="none"/>
<path d="M 920,60 L 910,60" stroke="#000000" stroke-width="4.0" fill="none"/>
<g>
<circle cx="500.0" cy="640.0" r="4.0" stroke="#0000b2" stroke-width="4.0" fill="#0000b2" />
<circle cx="420.0" cy="640.0" r="4.0" stroke="#0000b2" stroke-width="4.0" fill="#0000b2" />
<circle cx="620.0" cy="900.0" r="4.0" stroke="#0000b2" stroke-width="4.0" fill="#0000b2" />
<circle cx="500.0" cy="580.0" r="4.0" stroke="#0000b2" stroke-width="4.0" fill="#0000b2" />
<circle cx="420.0" cy="580.0" r="4.0" stroke="#0000b2" stroke-width="4.0" fill="#0000b2" />
<circle cx="920.0" cy="580.0" r="4.0" stroke="#0000b2" stroke-width="4.0" fill="#0000b2" />
<circle cx="460.0" cy="260.0" r="4.0" stroke="#0000b2" stroke-width="4.0" fill="#0000b2" />
<circle cx="1080.0" cy="660.0" r="4.0" stroke="#0000b2" stroke-width="4.0" fill="#0000b2" />
<circle cx="500.0" cy="660.0" r="4.0" stroke="#0000b2" stroke-width="4.0" fill="#0000b2" />
<circle cx="420.0" cy="660.0" r="4.0" stroke="#0000b2" stroke-width="4.0" fill="#0000b2" />
<circle cx="900.0" cy="660.0" r="4.0" stroke="#0000b2" stroke-width="4.0" fill="#0000b2" />
<circle cx="500.0" cy="600.0" r="4.0" stroke="#0000b2" stroke-width="4.0" fill="#0000b2" />
<circle cx="420.0" cy="600.0" r="4.0" stroke="#0000b2" stroke-width="4.0" fill="#0000b2" />
<circle cx="440.0" cy="220.0" r="4.0" stroke="#0000b2" stroke-width="4.0" fill="#0000b2" />
<circle cx="460.0" cy="480.0" r="4.0" stroke="#0000b2" stroke-width="4.0" fill="#0000b2" />
<circle cx="460.0" cy="160.0" r="4.0" stroke="#0000b2" stroke-width="4.0" fill="#0000b2" />
<circle cx="660.0" cy="680.0" r="4.0" stroke="#0000b2" stroke-width="4.0" fill="#0000b2" />
<circle cx="500.0" cy="680.0" r="4.0" stroke="#0000b2" stroke-width="4.0" fill="#0000b2" />
<circle cx="420.0" cy="680.0" r="4.0" stroke="#0000b2" stroke-width="4.0" fill="#0000b2" />
<circle cx="500.0" cy="620.0" r="4.0" stroke="#0000b2" stroke-width="4.0" fill="#0000b2" />
<circle cx="420.0" cy="620.0" r="4.0" stroke="#0000b2" stroke-width="4.0" fill="#0000b2" />
<circle cx="1060.0" cy="300.0" r="4.0" stroke="#0000b2" stroke-width="4.0" fill="#0000b2" />
<circle cx="640.0" cy="880.0" r="4.0" stroke="#0000b2" stroke-width="4.0" fill="#0000b2" />
<circle cx="500.0" cy="560.0" r="4.0" stroke="#0000b2" stroke-width="4.0" fill="#0000b2" />
<circle cx="420.0" cy="560.0" r="4.0" stroke="#0000b2" stroke-width="4.0" fill="#0000b2" />
<circle cx="900.0" cy="820.0" r="4.0" stroke="#0000b2" stroke-width="4.0" fill="#0000b2" />
<circle cx="440.0" cy="120.0" r="4.0" stroke="#0000b2" stroke-width="4.0" fill="#0000b2" />
<circle cx="440.0" cy="380.0" r="4.0" stroke="#0000b2" stroke-width="4.0" fill="#0000b2" />
<circle cx="500.0" cy="700.0" r="4.0" stroke="#0000b2" stroke-width="4.0" fill="#0000b2" />
<circle cx="420.0" cy="700.0" r="4.0" stroke="#0000b2" stroke-width="4.0" fill="#0000b2" />
</g>
<g>
<path d="M 781,390 L 839,390 L 839,450 L 781,450 Z" stroke="#000000" stroke-width="4.0" fill="none"/>
<text text-anchor="start" x="784.0" y="406.75" fill="#808080" style="font-size:18px">a</text>
<text text-anchor="start" x="784.0" y="426.75" fill="#808080" style="font-size:18px">b</text>
<text text-anchor="start" x="784.0" y="446.75" fill="#808080" style="font-size:18px">c<tspan style="font-size:80%;baseline-shift:sub;">i</tspan></text>
<text text-anchor="end" x="836.0" y="406.75" fill="#808080" style="font-size:18px">s</text>
<text text-anchor="end" x="836.0" y="426.75" fill="#808080" style="font-size:18px">c<tspan style="font-size:80%;baseline-shift:sub;">o</tspan></text>
<text text-anchor="middle" x="810.0" y="467.5" fill="#808080" style="font-size:18px">Soma</text>
<circle cx="780.0" cy="400.0" r="2.0" stroke="#0000b2" stroke-width="4.0" fill="#0000b2" />
<circle cx="780.0" cy="420.0" r="2.0" stroke="#0000b2" stroke-width="4.0" fill="#0000b2" />
<circle cx="780.0" cy="440.0" r="2.0" stroke="#0000b2" stroke-width="4.0" fill="#0000b2" />
<circle cx="840.0" cy="400.0" r="2.0" stroke="#b20000" stroke-width="4.0" fill="#b20000" />
<circle cx="840.0" cy="420.0" r="2.0" stroke="#b20000" stroke-width="4.0" fill="#b20000" />
</g>
<g>
<path d="M 630,430 L 581,430 L 581,370 L 630,370 C 640,370 660,380 659,400 C 659,420 640,430 630,430 Z" stroke="#000000" stroke-width="4.0" fill="none"/>
<circle cx="580.0" cy="380.0" r="2.0" stroke="#0000b2" stroke-width="4.0" fill="#0000b2" />
<circle cx="580.0" cy="420.0" r="2.0" stroke="#0000b2" stroke-width="4.0" fill="#0000b2" />
<circle cx="660.0" cy="400.0" r="2.0" stroke="#b20000" stroke-width="4.0" fill="#b20000" />
</g>
<g>
<path d="M 610,530 L 590,530 C 600,514 600,486 590,470 L 610,470 C 630,470 650,480 660,500 C 650,520 630,530 610,530 Z" stroke="#000000" stroke-width="4.0" fill="none"/>
<path d="M 580,530 C 590,520 590,480 580,470" stroke="#000000" stroke-width="4.0" fill="none"/>
<circle cx="580.0" cy="480.0" r="2.0" stroke="#0000b2" stroke-width="4.0" fill="#0000b2" />
<circle cx="580.0" cy="520.0" r="2.0" stroke="#0000b2" stroke-width="4.0" fill="#0000b2" />
<circle cx="660.0" cy="500.0" r="2.0" stroke="#b20000" stroke-width="4.0" fill="#b20000" />
</g>
<g>
<path d="M 681,616 L 719,625 L 719,695 L 681,704 Z" stroke="#000000" stroke-width="4.0" fill="none"/>
<text text-anchor="start" x="683.0" y="635.5" fill="#808080" style="font-size:18px">0</text>
<circle cx="700.0" cy="700.0" r="2.0" stroke="#0000b2" stroke-width="4.0" fill="#0000b2" />
<circle cx="680.0" cy="620.0" r="2.0" stroke="#0000b2" stroke-width="4.0" fill="#0000b2" />
<circle cx="680.0" cy="640.0" r="2.0" stroke="#0000b2" stroke-width="4.0" fill="#0000b2" />
<circle cx="680.0" cy="660.0" r="2.0" stroke="#0000b2" stroke-width="4.0" fill="#0000b2" />
<circle cx="680.0" cy="680.0" r="2.0" stroke="#0000b2" stroke-width="4.0" fill="#0000b2" />
<circle cx="720.0" cy="660.0" r="2.0" stroke="#b20000" stroke-width="4.0" fill="#b20000" />
</g>
<g>
<path d="M 941,630 L 999,630 L 999,690 L 941,690 Z" stroke="#000000" stroke-width="4.0" fill="none"/>
<text text-anchor="start" x="944.0" y="646.75" fill="#808080" style="font-size:18px">D</text>
<path d="M 941,667 L 948,660 L 941,653" stroke="#000000" stroke-width="2.0" fill="none"/>
<text text-anchor="start" x="951.0" y="666.75" fill="#808080" style="font-size:18px">C</text>
<text text-anchor="start" x="944.0" y="686.75" fill="#808080" style="font-size:18px">en</text>
<text text-anchor="end" x="996.0" y="666.75" fill="#808080" style="font-size:18px">Q</text>
<text text-anchor="middle" x="970.0" y="707.5" fill="#808080" style="font-size:18px">Reg</text>
<circle cx="940.0" cy="640.0" r="2.0" stroke="#0000b2" stroke-width="4.0" fill="#0000b2" />
<circle cx="940.0" cy="660.0" r="2.0" stroke="#0000b2" stroke-width="4.0" fill="#0000b2" />
<circle cx="940.0" cy="680.0" r="2.0" stroke="#0000b2" stroke-width="4.0" fill="#0000b2" />
<circle cx="1000.0" cy="660.0" r="2.0" stroke="#b20000" stroke-width="4.0" fill="#b20000" />
</g>
<g>
<text text-anchor="end" x="657.0" y="629.0" fill="#000000" style="font-size:24px">0</text>
<circle cx="660.0" cy="620.0" r="2.0" stroke="#b20000" stroke-width="4.0" fill="#b20000" />
</g>
<g>
<text text-anchor="end" x="657.0" y="649.0" fill="#000000" style="font-size:24px">1</text>
<circle cx="660.0" cy="640.0" r="2.0" stroke="#b20000" stroke-width="4.0" fill="#b20000" />
</g>
<g>
<path d="M 349,825 L 379,825 L 379,855 L 349,855 Z" stroke="#000000" stroke-width="4.0" fill="none"/>
<circle cx="364.0" cy="840.0" r="9.0" stroke="#000000" stroke-width="4.0" fill="none" />
<text text-anchor="end" x="335.0" y="849.0" fill="#000000" style="font-size:24px"><tspan style="font-style:italic;">op</tspan></text>
<circle cx="380.0" cy="840.0" r="2.0" stroke="#b20000" stroke-width="4.0" fill="#b20000" />
</g>
<g>
<path d="M 349,365 L 379,365 L 379,395 L 349,395 Z" stroke="#000000" stroke-width="4.0" fill="none"/>
<circle cx="364.0" cy="380.0" r="9.0" stroke="#000000" stroke-width="4.0" fill="none" />
<text text-anchor="end" x="335.0" y="389.0" fill="#000000" style="font-size:24px"><tspan style="font-style:italic;">A</tspan></text>
<circle cx="380.0" cy="380.0" r="2.0" stroke="#b20000" stroke-width="4.0" fill="#b20000" />
</g>
<g>
<path d="M 349,465 L 379,465 L 379,495 L 349,495 Z" stroke="#000000" stroke-width="4.0" fill="none"/>
<circle cx="364.0" cy="480.0" r="9.0" stroke="#000000" stroke-width="4.0" fill="none" />
<text text-anchor="end" x="335.0" y="489.0" fill="#000000" style="font-size:24px"><tspan style="font-style:italic;">B</tspan></text>
<circle cx="380.0" cy="480.0" r="2.0" stroke="#b20000" stroke-width="4.0" fill="#b20000" />
</g>
<g>
<text text-anchor="end" x="438.0" y="837.0" fill="#808080" style="font-size:12px">0-3</text>
<text text-anchor="start" x="462.0" y="837.0" fill="#808080" style="font-size:12px">0</text>
<text text-anchor="start" x="462.0" y="857.0" fill="#808080" style="font-size:12px">1</text>
<text text-anchor="start" x="462.0" y="877.0" fill="#808080" style="font-size:12px">2</text>
<text text-anchor="start" x="462.0" y="897.0" fill="#808080" style="font-size:12px">3</text>
<path d="M 448,838 L 452,838 L 452,902 L 448,902 Z" stroke="#000000" stroke-width="4.0" fill="#000000" fill-opacity="1.0"/>
<circle cx="440.0" cy="840.0" r="2.0" stroke="#0000b2" stroke-width="4.0" fill="#0000b2" />
<circle cx="460.0" cy="840.0" r="2.0" stroke="#b20000" stroke-width="4.0" fill="#b20000" />
<circle cx="460.0" cy="860.0" r="2.0" stroke="#b20000" stroke-width="4.0" fill="#b20000" />
<circle cx="460.0" cy="880.0" r="2.0" stroke="#b20000" stroke-width="4.0" fill="#b20000" />
<circle cx="460.0" cy="900.0" r="2.0" stroke="#b20000" stroke-width="4.0" fill="#b20000" />
</g>
<g>
<text text-anchor="end" x="658.0" y="877.0" fill="#808080" style="font-size:12px">0</text>
<text text-anchor="end" x="658.0" y="897.0" fill="#808080" style="font-size:12px">1</text>
<text text-anchor="start" x="682.0" y="877.0" fill="#808080" style="font-size:12px">0,1</text>
<path d="M 668,878 L 672,878 L 672,902 L 668,902 Z" stroke="#000000" stroke-width="4.0" fill="#000000" fill-opacity="1.0"/>
<circle cx="660.0" cy="880.0" r="2.0" stroke="#0000b2" stroke-width="4.0" fill="#0000b2" />
<circle cx="660.0" cy="900.0" r="2.0" stroke="#0000b2" stroke-width="4.0" fill="#0000b2" />
<circle cx="680.0" cy="880.0" r="2.0" stroke="#b20000" stroke-width="4.0" fill="#b20000" />
</g>
<g>
<text text-anchor="end" x="438.0" y="557.0" fill="#808080" style="font-size:12px">0</text>
<text text-anchor="end" x="438.0" y="577.0" fill="#808080" style="font-size:12px">1</text>
<text text-anchor="end" x="438.0" y="597.0" fill="#808080" style="font-size:12px">2</text>
<text text-anchor="end" x="438.0" y="617.0" fill="#808080" style="font-size:12px">3</text>
<text text-anchor="end" x="438.0" y="637.0" fill="#808080" style="font-size:12px">4</text>
<text text-anchor="end" x="438.0" y="657.0" fill="#808080" style="font-size:12px">5</text>
<text text-anchor="end" x="438.0" y="677.0" fill="#808080" style="font-size:12px">6</text>
<text text-anchor="end" x="438.0" y="697.0" fill="#808080" style="font-size:12px">7</text>
<text text-anchor="start" x="462.0" y="557.0" fill="#808080" style="font-size:12px">0-7</text>
<path d="M 448,558 L 452,558 L 452,702 L 448,702 Z" stroke="#000000" stroke-width="4.0" fill="#000000" fill-opacity="1.0"/>
<circle cx="440.0" cy="560.0" r="2.0" stroke="#0000b2" stroke-width="4.0" fill="#0000b2" />
<circle cx="440.0" cy="580.0" r="2.0" stroke="#0000b2" stroke-width="4.0" fill="#0000b2" />
<circle cx="440.0" cy="600.0" r="2.0" stroke="#0000b2" stroke-width="4.0" fill="#0000b2" />
<circle cx="440.0" cy="620.0" r="2.0" stroke="#0000b2" stroke-width="4.0" fill="#0000b2" />
<circle cx="440.0" cy="640.0" r="2.0" stroke="#0000b2" stroke-width="4.0" fill="#0000b2" />
<circle cx="440.0" cy="660.0" r="2.0" stroke="#0000b2" stroke-width="4.0" fill="#0000b2" />
<circle cx="440.0" cy="680.0" r="2.0" stroke="#0000b2" stroke-width="4.0" fill="#0000b2" />
<circle cx="440.0" cy="700.0" r="2.0" stroke="#0000b2" stroke-width="4.0" fill="#0000b2" />
<circle cx="460.0" cy="560.0" r="2.0" stroke="#b20000" stroke-width="4.0" fill="#b20000" />
</g>
<g>
<text text-anchor="end" x="518.0" y="557.0" fill="#808080" style="font-size:12px">0</text>
<text text-anchor="end" x="518.0" y="577.0" fill="#808080" style="font-size:12px">1</text>
<text text-anchor="end" x="518.0" y="597.0" fill="#808080" style="font-size:12px">2</text>
<text text-anchor="end" x="518.0" y="617.0" fill="#808080" style="font-size:12px">3</text>
<text text-anchor="end" x="518.0" y="637.0" fill="#808080" style="font-size:12px">4</text>
<text text-anchor="end" x="518.0" y="657.0" fill="#808080" style="font-size:12px">5</text>
<text text-anchor="end" x="518.0" y="677.0" fill="#808080" style="font-size:12px">6</text>
<text text-anchor="end" x="518.0" y="697.0" fill="#808080" style="font-size:12px">7</text>
<text text-anchor="start" x="542.0" y="557.0" fill="#808080" style="font-size:12px">0-7</text>
<path d="M 528,558 L 532,558 L 532,702 L 528,702 Z" stroke="#000000" stroke-width="4.0" fill="#000000" fill-opacity="1.0"/>
<circle cx="520.0" cy="560.0" r="2.0" stroke="#0000b2" stroke-width="4.0" fill="#0000b2" />
<circle cx="520.0" cy="580.0" r="2.0" stroke="#0000b2" stroke-width="4.0" fill="#0000b2" />
<circle cx="520.0" cy="600.0" r="2.0" stroke="#0000b2" stroke-width="4.0" fill="#0000b2" />
<circle cx="520.0" cy="620.0" r="2.0" stroke="#0000b2" stroke-width="4.0" fill="#0000b2" />
<circle cx="520.0" cy="640.0" r="2.0" stroke="#0000b2" stroke-width="4.0" fill="#0000b2" />
<circle cx="520.0" cy="660.0" r="2.0" stroke="#0000b2" stroke-width="4.0" fill="#0000b2" />
<circle cx="520.0" cy="680.0" r="2.0" stroke="#0000b2" stroke-width="4.0" fill="#0000b2" />
<circle cx="520.0" cy="700.0" r="2.0" stroke="#0000b2" stroke-width="4.0" fill="#0000b2" />
<circle cx="540.0" cy="560.0" r="2.0" stroke="#b20000" stroke-width="4.0" fill="#b20000" />
</g>
<g>
<path d="M 801,176 L 839,185 L 839,255 L 801,264 Z" stroke="#000000" stroke-width="4.0" fill="none"/>
<text text-anchor="start" x="803.0" y="195.5" fill="#808080" style="font-size:18px">0</text>
<circle cx="820.0" cy="260.0" r="2.0" stroke="#0000b2" stroke-width="4.0" fill="#0000b2" />
<circle cx="800.0" cy="180.0" r="2.0" stroke="#0000b2" stroke-width="4.0" fill="#0000b2" />
<circle cx="800.0" cy="200.0" r="2.0" stroke="#0000b2" stroke-width="4.0" fill="#0000b2" />
<circle cx="800.0" cy="220.0" r="2.0" stroke="#0000b2" stroke-width="4.0" fill="#0000b2" />
<circle cx="800.0" cy="240.0" r="2.0" stroke="#0000b2" stroke-width="4.0" fill="#0000b2" />
<circle cx="840.0" cy="220.0" r="2.0" stroke="#b20000" stroke-width="4.0" fill="#b20000" />
</g>
<g>
<path d="M 630,70 L 581,70 L 581,10 L 630,10 C 640,10 660,20 659,40 C 659,60 640,70 630,70 Z" stroke="#000000" stroke-width="4.0" fill="none"/>
<circle cx="580.0" cy="20.0" r="2.0" stroke="#0000b2" stroke-width="4.0" fill="#0000b2" />
<circle cx="580.0" cy="60.0" r="2.0" stroke="#0000b2" stroke-width="4.0" fill="#0000b2" />
<circle cx="660.0" cy="40.0" r="2.0" stroke="#b20000" stroke-width="4.0" fill="#b20000" />
</g>
<g>
<path d="M 610,270 L 590,270 C 600,254 600,226 590,210 L 610,210 C 630,210 650,220 660,240 C 650,260 630,270 610,270 Z" stroke="#000000" stroke-width="4.0" fill="none"/>
<path d="M 580,270 C 590,260 590,220 580,210" stroke="#000000" stroke-width="4.0" fill="none"/>
<circle cx="580.0" cy="220.0" r="2.0" stroke="#0000b2" stroke-width="4.0" fill="#0000b2" />
<circle cx="580.0" cy="260.0" r="2.0" stroke="#0000b2" stroke-width="4.0" fill="#0000b2" />
<circle cx="660.0" cy="240.0" r="2.0" stroke="#b20000" stroke-width="4.0" fill="#b20000" />
</g>
<g>
<path d="M 610,170 L 580,170 C 590,154 590,126 580,110 L 600,110 C 630,110 650,120 660,140 C 650,160 630,170 610,170 Z" stroke="#000000" stroke-width="4.0" fill="none"/>
<circle cx="580.0" cy="120.0" r="2.0" stroke="#0000b2" stroke-width="4.0" fill="#0000b2" />
<circle cx="580.0" cy="160.0" r="2.0" stroke="#0000b2" stroke-width="4.0" fill="#0000b2" />
<circle cx="660.0" cy="140.0" r="2.0" stroke="#b20000" stroke-width="4.0" fill="#b20000" />
</g>
<g>
<text text-anchor="end" x="778.0" y="297.0" fill="#808080" style="font-size:12px">0</text>
<text text-anchor="end" x="778.0" y="317.0" fill="#808080" style="font-size:12px">1</text>
<text text-anchor="start" x="802.0" y="297.0" fill="#808080" style="font-size:12px">0,1</text>
<path d="M 788,298 L 792,298 L 792,322 L 788,322 Z" stroke="#000000" stroke-width="4.0" fill="#000000" fill-opacity="1.0"/>
<circle cx="780.0" cy="300.0" r="2.0" stroke="#0000b2" stroke-width="4.0" fill="#0000b2" />
<circle cx="780.0" cy="320.0" r="2.0" stroke="#0000b2" stroke-width="4.0" fill="#0000b2" />
<circle cx="800.0" cy="300.0" r="2.0" stroke="#b20000" stroke-width="4.0" fill="#b20000" />
</g>
<g>
<path d="M 981,276 L 1019,285 L 1019,315 L 981,324 Z" stroke="#000000" stroke-width="4.0" fill="none"/>
<text text-anchor="start" x="983.0" y="295.5" fill="#808080" style="font-size:18px">0</text>
<circle cx="1000.0" cy="320.0" r="2.0" stroke="#0000b2" stroke-width="4.0" fill="#0000b2" />
<circle cx="980.0" cy="280.0" r="2.0" stroke="#0000b2" stroke-width="4.0" fill="#0000b2" />
<circle cx="980.0" cy="320.0" r="2.0" stroke="#0000b2" stroke-width="4.0" fill="#0000b2" />
<circle cx="1020.0" cy="300.0" r="2.0" stroke="#b20000" stroke-width="4.0" fill="#b20000" />
</g>
<g>
<circle cx="1096.0" cy="300.0" r="9.0" stroke="#000000" stroke-width="4.0" fill="none" />
<circle cx="1096.0" cy="300.0" r="15.0" stroke="#000000" stroke-width="4.0" fill="none" />
<text text-anchor="start" x="1125.0" y="309.0" fill="#000000" style="font-size:24px"><tspan style="font-style:italic;">R</tspan></text>
<circle cx="1080.0" cy="300.0" r="2.0" stroke="#0000b2" stroke-width="4.0" fill="#0000b2" />
</g>
<g>
<path d="M 829,645 L 859,645 L 859,675 L 829,675 Z" stroke="#000000" stroke-width="4.0" fill="none"/>
<text text-anchor="end" x="815.0" y="669.0" fill="#000000" style="font-size:24px"><tspan style="font-style:italic;">clk</tspan></text>
<path d="M 835,665 L 840,665 L 840,655 L 845,655 L 845,665 L 850,665 L 850,655 L 855,655" stroke="#000000" stroke-width="2.0" fill="none"/>
<circle cx="860.0" cy="660.0" r="2.0" stroke="#b20000" stroke-width="4.0" fill="#b20000" />
</g>
<g>
<path d="M 790,850 L 741,850 L 741,790 L 790,790 C 800,790 820,800 819,820 C 819,840 800,850 790,850 Z" stroke="#000000" stroke-width="4.0" fill="none"/>
<circle cx="830.0" cy="820.0" r="9.0" stroke="#000000" stroke-width="4.0" fill="none" />
<circle cx="740.0" cy="800.0" r="2.0" stroke="#0000b2" stroke-width="4.0" fill="#0000b2" />
<circle cx="740.0" cy="840.0" r="2.0" stroke="#0000b2" stroke-width="4.0" fill="#0000b2" />
<circle cx="840.0" cy="820.0" r="2.0" stroke="#b20000" stroke-width="4.0" fill="#b20000" />
</g>
<g>
<path d="M 1250,130 L 1330,130 L 1330,170 L 1250,170 Z" stroke="#b4ffb4" stroke-width="0.0" fill="#b4ffb4" fill-opacity="0.7843137254901961"/>
<path d="M 1250,130 L 1330,130 L 1330,170 L 1250,170 Z" stroke="#000000" stroke-width="2.0" fill="none"/>
<text text-anchor="middle" x="1290.0" y="159.0" fill="#000000" style="font-size:24px">Test</text>
<text text-anchor="middle" x="1290.0" y="120.0" fill="#000000" style="font-size:24px">test0</text>
</g>
<g>
<path d="M 1250,210 L 1330,210 L 1330,250 L 1250,250 Z" stroke="#b4ffb4" stroke-width="0.0" fill="#b4ffb4" fill-opacity="0.7843137254901961"/>
<path d="M 1250,210 L 1330,210 L 1330,250 L 1250,250 Z" stroke="#000000" stroke-width="2.0" fill="none"/>
<text text-anchor="middle" x="1290.0" y="239.0" fill="#000000" style="font-size:24px">Test</text>
<text text-anchor="middle" x="1290.0" y="200.0" fill="#000000" style="font-size:24px">test1</text>
</g>
<g>
<path d="M 1250,290 L 1330,290 L 1330,330 L 1250,330 Z" stroke="#b4ffb4" stroke-width="0.0" fill="#b4ffb4" fill-opacity="0.7843137254901961"/>
<path d="M 1250,290 L 1330,290 L 1330,330 L 1250,330 Z" stroke="#000000" stroke-width="2.0" fill="none"/>
<text text-anchor="middle" x="1290.0" y="319.0" fill="#000000" style="font-size:24px">Test</text>
<text text-anchor="middle" x="1290.0" y="280.0" fill="#000000" style="font-size:24px">test2</text>
</g>
<g>
<path d="M 1250,370 L 1330,370 L 1330,410 L 1250,410 Z" stroke="#b4ffb4" stroke-width="0.0" fill="#b4ffb4" fill-opacity="0.7843137254901961"/>
<path d="M 1250,370 L 1330,370 L 1330,410 L 1250,410 Z" stroke="#000000" stroke-width="2.0" fill="none"/>
<text text-anchor="middle" x="1290.0" y="399.0" fill="#000000" style="font-size:24px">Test</text>
<text text-anchor="middle" x="1290.0" y="360.0" fill="#000000" style="font-size:24px">test3</text>
</g>
<g>
<path d="M 1250,450 L 1330,450 L 1330,490 L 1250,490 Z" stroke="#b4ffb4" stroke-width="0.0" fill="#b4ffb4" fill-opacity="0.7843137254901961"/>
<path d="M 1250,450 L 1330,450 L 1330,490 L 1250,490 Z" stroke="#000000" stroke-width="2.0" fill="none"/>
<text text-anchor="middle" x="1290.0" y="479.0" fill="#000000" style="font-size:24px">Test</text>
<text text-anchor="middle" x="1290.0" y="440.0" fill="#000000" style="font-size:24px">test4</text>
</g>
<g>
<path d="M 1250,530 L 1330,530 L 1330,570 L 1250,570 Z" stroke="#b4ffb4" stroke-width="0.0" fill="#b4ffb4" fill-opacity="0.7843137254901961"/>
<path d="M 1250,530 L 1330,530 L 1330,570 L 1250,570 Z" stroke="#000000" stroke-width="2.0" fill="none"/>
<text text-anchor="middle" x="1290.0" y="559.0" fill="#000000" style="font-size:24px">Test</text>
<text text-anchor="middle" x="1290.0" y="520.0" fill="#000000" style="font-size:24px">test5</text>
</g>
<g>
<path d="M 1250,610 L 1330,610 L 1330,650 L 1250,650 Z" stroke="#b4ffb4" stroke-width="0.0" fill="#b4ffb4" fill-opacity="0.7843137254901961"/>
<path d="M 1250,610 L 1330,610 L 1330,650 L 1250,650 Z" stroke="#000000" stroke-width="2.0" fill="none"/>
<text text-anchor="middle" x="1290.0" y="639.0" fill="#000000" style="font-size:24px">Test</text>
<text text-anchor="middle" x="1290.0" y="600.0" fill="#000000" style="font-size:24px">test6</text>
</g>
<g>
<path d="M 1250,690 L 1330,690 L 1330,730 L 1250,730 Z" stroke="#b4ffb4" stroke-width="0.0" fill="#b4ffb4" fill-opacity="0.7843137254901961"/>
<path d="M 1250,690 L 1330,690 L 1330,730 L 1250,730 Z" stroke="#000000" stroke-width="2.0" fill="none"/>
<text text-anchor="middle" x="1290.0" y="719.0" fill="#000000" style="font-size:24px">Test</text>
<text text-anchor="middle" x="1290.0" y="680.0" fill="#000000" style="font-size:24px">test7</text>
</g>
<g>
<path d="M 1410,130 L 1490,130 L 1490,170 L 1410,170 Z" stroke="#b4ffb4" stroke-width="0.0" fill="#b4ffb4" fill-opacity="0.7843137254901961"/>
<path d="M 1410,130 L 1490,130 L 1490,170 L 1410,170 Z" stroke="#000000" stroke-width="2.0" fill="none"/>
<text text-anchor="middle" x="1450.0" y="159.0" fill="#000000" style="font-size:24px">Test</text>
<text text-anchor="middle" x="1450.0" y="120.0" fill="#000000" style="font-size:24px">test8</text>
</g>
<g>
<path d="M 1410,210 L 1490,210 L 1490,250 L 1410,250 Z" stroke="#b4ffb4" stroke-width="0.0" fill="#b4ffb4" fill-opacity="0.7843137254901961"/>
<path d="M 1410,210 L 1490,210 L 1490,250 L 1410,250 Z" stroke="#000000" stroke-width="2.0" fill="none"/>
<text text-anchor="middle" x="1450.0" y="239.0" fill="#000000" style="font-size:24px">Test</text>
<text text-anchor="middle" x="1450.0" y="200.0" fill="#000000" style="font-size:24px">test9</text>
</g>
<g>
<path d="M 1410,290 L 1490,290 L 1490,330 L 1410,330 Z" stroke="#b4ffb4" stroke-width="0.0" fill="#b4ffb4" fill-opacity="0.7843137254901961"/>
<path d="M 1410,290 L 1490,290 L 1490,330 L 1410,330 Z" stroke="#000000" stroke-width="2.0" fill="none"/>
<text text-anchor="middle" x="1450.0" y="319.0" fill="#000000" style="font-size:24px">Test</text>
<text text-anchor="middle" x="1450.0" y="280.0" fill="#000000" style="font-size:24px">test10</text>
</g>
<g>
<path d="M 1410,370 L 1490,370 L 1490,410 L 1410,410 Z" stroke="#b4ffb4" stroke-width="0.0" fill="#b4ffb4" fill-opacity="0.7843137254901961"/>
<path d="M 1410,370 L 1490,370 L 1490,410 L 1410,410 Z" stroke="#000000" stroke-width="2.0" fill="none"/>
<text text-anchor="middle" x="1450.0" y="399.0" fill="#000000" style="font-size:24px">Test</text>
<text text-anchor="middle" x="1450.0" y="360.0" fill="#000000" style="font-size:24px">test11</text>
</g>
<g>
<path d="M 1410,450 L 1490,450 L 1490,490 L 1410,490 Z" stroke="#b4ffb4" stroke-width="0.0" fill="#b4ffb4" fill-opacity="0.7843137254901961"/>
<path d="M 1410,450 L 1490,450 L 1490,490 L 1410,490 Z" stroke="#000000" stroke-width="2.0" fill="none"/>
<text text-anchor="middle" x="1450.0" y="479.0" fill="#000000" style="font-size:24px">Test</text>
<text text-anchor="middle" x="1450.0" y="440.0" fill="#000000" style="font-size:24px">test12</text>
</g>
<g>
<path d="M 1410,530 L 1490,530 L 1490,570 L 1410,570 Z" stroke="#b4ffb4" stroke-width="0.0" fill="#b4ffb4" fill-opacity="0.7843137254901961"/>
<path d="M 1410,530 L 1490,530 L 1490,570 L 1410,570 Z" stroke="#000000" stroke-width="2.0" fill="none"/>
<text text-anchor="middle" x="1450.0" y="559.0" fill="#000000" style="font-size:24px">Test</text>
<text text-anchor="middle" x="1450.0" y="520.0" fill="#000000" style="font-size:24px">test13</text>
</g>
<g>
<path d="M 1410,610 L 1490,610 L 1490,650 L 1410,650 Z" stroke="#b4ffb4" stroke-width="0.0" fill="#b4ffb4" fill-opacity="0.7843137254901961"/>
<path d="M 1410,610 L 1490,610 L 1490,650 L 1410,650 Z" stroke="#000000" stroke-width="2.0" fill="none"/>
<text text-anchor="middle" x="1450.0" y="639.0" fill="#000000" style="font-size:24px">Test</text>
<text text-anchor="middle" x="1450.0" y="600.0" fill="#000000" style="font-size:24px">test14</text>
</g>
<g>
<path d="M 1410,690 L 1490,690 L 1490,730 L 1410,730 Z" stroke="#b4ffb4" stroke-width="0.0" fill="#b4ffb4" fill-opacity="0.7843137254901961"/>
<path d="M 1410,690 L 1490,690 L 1490,730 L 1410,730 Z" stroke="#000000" stroke-width="2.0" fill="none"/>
<text text-anchor="middle" x="1450.0" y="719.0" fill="#000000" style="font-size:24px">Test</text>
<text text-anchor="middle" x="1450.0" y="680.0" fill="#000000" style="font-size:24px">test15</text>
</g>
<g>
<path d="M 1030,150 L 1000,150 C 1010,134 1010,106 1000,90 L 1020,90 C 1050,90 1070,100 1080,120 C 1070,140 1050,150 1030,150 Z" stroke="#000000" stroke-width="4.0" fill="none"/>
<circle cx="1090.0" cy="120.0" r="9.0" stroke="#000000" stroke-width="4.0" fill="none" />
<circle cx="1000.0" cy="40.0" r="2.0" stroke="#0000b2" stroke-width="4.0" fill="#0000b2" />
<circle cx="1000.0" cy="60.0" r="2.0" stroke="#0000b2" stroke-width="4.0" fill="#0000b2" />
<circle cx="1000.0" cy="80.0" r="2.0" stroke="#0000b2" stroke-width="4.0" fill="#0000b2" />
<circle cx="1000.0" cy="100.0" r="2.0" stroke="#0000b2" stroke-width="4.0" fill="#0000b2" />
<circle cx="1000.0" cy="140.0" r="2.0" stroke="#0000b2" stroke-width="4.0" fill="#0000b2" />
<circle cx="1000.0" cy="160.0" r="2.0" stroke="#0000b2" stroke-width="4.0" fill="#0000b2" />
<circle cx="1000.0" cy="180.0" r="2.0" stroke="#0000b2" stroke-width="4.0" fill="#0000b2" />
<circle cx="1000.0" cy="200.0" r="2.0" stroke="#0000b2" stroke-width="4.0" fill="#0000b2" />
<circle cx="1100.0" cy="120.0" r="2.0" stroke="#b20000" stroke-width="4.0" fill="#b20000" />
</g>
<g>
<text text-anchor="end" x="958.0" y="37.0" fill="#808080" style="font-size:12px">0-3</text>
<text text-anchor="start" x="982.0" y="37.0" fill="#808080" style="font-size:12px">0</text>
<text text-anchor="start" x="982.0" y="57.0" fill="#808080" style="font-size:12px">1</text>
<text text-anchor="start" x="982.0" y="77.0" fill="#808080" style="font-size:12px">2</text>
<text text-anchor="start" x="982.0" y="97.0" fill="#808080" style="font-size:12px">3</text>
<path d="M 968,38 L 972,38 L 972,102 L 968,102 Z" stroke="#000000" stroke-width="4.0" fill="#000000" fill-opacity="1.0"/>
<circle cx="960.0" cy="40.0" r="2.0" stroke="#0000b2" stroke-width="4.0" fill="#0000b2" />
<circle cx="980.0" cy="40.0" r="2.0" stroke="#b20000" stroke-width="4.0" fill="#b20000" />
<circle cx="980.0" cy="60.0" r="2.0" stroke="#b20000" stroke-width="4.0" fill="#b20000" />
<circle cx="980.0" cy="80.0" r="2.0" stroke="#b20000" stroke-width="4.0" fill="#b20000" />
<circle cx="980.0" cy="100.0" r="2.0" stroke="#b20000" stroke-width="4.0" fill="#b20000" />
</g>
<g>
<text text-anchor="end" x="958.0" y="137.0" fill="#808080" style="font-size:12px">0-3</text>
<text text-anchor="start" x="982.0" y="137.0" fill="#808080" style="font-size:12px">0</text>
<text text-anchor="start" x="982.0" y="157.0" fill="#808080" style="font-size:12px">1</text>
<text text-anchor="start" x="982.0" y="177.0" fill="#808080" style="font-size:12px">2</text>
<text text-anchor="start" x="982.0" y="197.0" fill="#808080" style="font-size:12px">3</text>
<path d="M 968,138 L 972,138 L 972,202 L 968,202 Z" stroke="#000000" stroke-width="4.0" fill="#000000" fill-opacity="1.0"/>
<circle cx="960.0" cy="140.0" r="2.0" stroke="#0000b2" stroke-width="4.0" fill="#0000b2" />
<circle cx="980.0" cy="140.0" r="2.0" stroke="#b20000" stroke-width="4.0" fill="#b20000" />
<circle cx="980.0" cy="160.0" r="2.0" stroke="#b20000" stroke-width="4.0" fill="#b20000" />
<circle cx="980.0" cy="180.0" r="2.0" stroke="#b20000" stroke-width="4.0" fill="#b20000" />
<circle cx="980.0" cy="200.0" r="2.0" stroke="#b20000" stroke-width="4.0" fill="#b20000" />
</g>
<g>
<text text-anchor="end" x="898.0" y="37.0" fill="#808080" style="font-size:12px">0-7</text>
<text text-anchor="start" x="922.0" y="37.0" fill="#808080" style="font-size:12px">0-3</text>
<text text-anchor="start" x="922.0" y="57.0" fill="#808080" style="font-size:12px">4-7</text>
<path d="M 908,38 L 912,38 L 912,62 L 908,62 Z" stroke="#000000" stroke-width="4.0" fill="#000000" fill-opacity="1.0"/>
<circle cx="900.0" cy="40.0" r="2.0" stroke="#0000b2" stroke-width="4.0" fill="#0000b2" />
<circle cx="920.0" cy="40.0" r="2.0" stroke="#b20000" stroke-width="4.0" fill="#b20000" />
<circle cx="920.0" cy="60.0" r="2.0" stroke="#b20000" stroke-width="4.0" fill="#b20000" />
</g>
<g>
<path d="M 941,530 L 999,530 L 999,590 L 941,590 Z" stroke="#000000" stroke-width="4.0" fill="none"/>
<text text-anchor="start" x="944.0" y="546.75" fill="#808080" style="font-size:18px">D</text>
<path d="M 941,567 L 948,560 L 941,553" stroke="#000000" stroke-width="2.0" fill="none"/>
<text text-anchor="start" x="951.0" y="566.75" fill="#808080" style="font-size:18px">C</text>
<text text-anchor="start" x="944.0" y="586.75" fill="#808080" style="font-size:18px">en</text>
<text text-anchor="end" x="996.0" y="566.75" fill="#808080" style="font-size:18px">Q</text>
<text text-anchor="middle" x="970.0" y="607.5" fill="#808080" style="font-size:18px">Reg</text>
<circle cx="940.0" cy="540.0" r="2.0" stroke="#0000b2" stroke-width="4.0" fill="#0000b2" />
<circle cx="940.0" cy="560.0" r="2.0" stroke="#0000b2" stroke-width="4.0" fill="#0000b2" />
<circle cx="940.0" cy="580.0" r="2.0" stroke="#0000b2" stroke-width="4.0" fill="#0000b2" />
<circle cx="1000.0" cy="560.0" r="2.0" stroke="#b20000" stroke-width="4.0" fill="#b20000" />
</g>
<g>
<circle cx="1176.0" cy="560.0" r="9.0" stroke="#000000" stroke-width="4.0" fill="none" />
<circle cx="1176.0" cy="560.0" r="15.0" stroke="#000000" stroke-width="4.0" fill="none" />
<text text-anchor="start" x="1205.0" y="569.0" fill="#000000" style="font-size:24px"><tspan style="font-style:italic;">Z</tspan></text>
<circle cx="1160.0" cy="560.0" r="2.0" stroke="#0000b2" stroke-width="4.0" fill="#0000b2" />
</g>
<g>
<circle cx="1176.0" cy="660.0" r="9.0" stroke="#000000" stroke-width="4.0" fill="none" />
<circle cx="1176.0" cy="660.0" r="15.0" stroke="#000000" stroke-width="4.0" fill="none" />
<text text-anchor="start" x="1205.0" y="669.0" fill="#000000" style="font-size:24px"><tspan style="font-style:italic;">C</tspan></text>
<circle cx="1160.0" cy="660.0" r="2.0" stroke="#0000b2" stroke-width="4.0" fill="#0000b2" />
</g>
<g>
<path d="M 829,565 L 859,565 L 859,595 L 829,595 Z" stroke="#000000" stroke-width="4.0" fill="none"/>
<circle cx="844.0" cy="580.0" r="9.0" stroke="#000000" stroke-width="4.0" fill="none" />
<text text-anchor="end" x="815.0" y="589.0" fill="#000000" style="font-size:24px"><tspan style="font-style:italic;">eFlags</tspan></text>
<circle cx="860.0" cy="580.0" r="2.0" stroke="#b20000" stroke-width="4.0" fill="#b20000" />
</g>
<g>
<path d="M 870,750 L 821,750 L 821,690 L 870,690 C 880,690 900,700 899,720 C 899,740 880,750 870,750 Z" stroke="#000000" stroke-width="4.0" fill="none"/>
<circle cx="820.0" cy="700.0" r="2.0" stroke="#0000b2" stroke-width="4.0" fill="#0000b2" />
<circle cx="820.0" cy="740.0" r="2.0" stroke="#0000b2" stroke-width="4.0" fill="#0000b2" />
<circle cx="900.0" cy="720.0" r="2.0" stroke="#b20000" stroke-width="4.0" fill="#b20000" />
</g>
<g>
<path d="M 349,-15 L 379,-15 L 379,15 L 349,15 Z" stroke="#000000" stroke-width="4.0" fill="none"/>
<circle cx="364.0" cy="0.0" r="9.0" stroke="#000000" stroke-width="4.0" fill="none" />
<text text-anchor="end" x="335.0" y="9.0" fill="#000000" style="font-size:24px"><tspan style="font-style:italic;">M</tspan></text>
<circle cx="380.0" cy="0.0" r="2.0" stroke="#b20000" stroke-width="4.0" fill="#b20000" />
</g>
</g>
</svg>