<?xml version="1.0" encoding="UTF-8" standalone="no"?>
<!-- Created with Digital by H.Neemann -->
<!-- created: Mon Aug 19 22:13:20 BRT 2024 -->

<svg
   xmlns:svg="http://www.w3.org/2000/svg"
   xmlns="http://www.w3.org/2000/svg"
   width="230.7mm"
   height="132.9mm"
   viewBox="292 26 1538 886">
<g stroke-linecap="square">
<path d="M 1600,240 L 1610,240 L 1620,240" stroke="#000000" stroke-width="4.0" fill="none"/>
<path d="M 1600,260 L 1610,260" stroke="#000000" stroke-width="4.0" fill="none"/>
<path d="M 1600,280 L 1610,280" stroke="#000000" stroke-width="4.0" fill="none"/>
<path d="M 1600,300 L 1610,300" stroke="#000000" stroke-width="4.0" fill="none"/>
<path d="M 1600,660 L 1610,660 L 1620,660" stroke="#000000" stroke-width="4.0" fill="none"/>
<path d="M 1600,680 L 1610,680" stroke="#000000" stroke-width="4.0" fill="none"/>
<path d="M 1600,700 L 1610,700" stroke="#000000" stroke-width="4.0" fill="none"/>
<path d="M 1600,720 L 1610,720" stroke="#000000" stroke-width="4.0" fill="none"/>
<path d="M 1600,740 L 1610,740" stroke="#000000" stroke-width="4.0" fill="none"/>
<path d="M 1720,780 L 1730,780 L 1740,780" stroke="#000000" stroke-width="4.0" fill="none"/>
<path d="M 1720,800 L 1730,800" stroke="#000000" stroke-width="4.0" fill="none"/>
<path d="M 1720,880 L 1730,880 L 1740,880" stroke="#000000" stroke-width="4.0" fill="none"/>
<path d="M 1720,900 L 1730,900" stroke="#000000" stroke-width="4.0" fill="none"/>
<path d="M 941,40 L 941,89" stroke="#000000" stroke-width="4.0" fill="none"/>
<path d="M 941,200 L 941,151" stroke="#000000" stroke-width="4.0" fill="none"/>
<path d="M 900,140 L 910,140 L 920,140" stroke="#000000" stroke-width="4.0" fill="none"/>
<path d="M 920,160 L 910,160" stroke="#000000" stroke-width="4.0" fill="none"/>
<path d="M 920,180 L 910,180" stroke="#000000" stroke-width="4.0" fill="none"/>
<path d="M 920,200 L 910,200" stroke="#000000" stroke-width="4.0" fill="none"/>
<path d="M 900,40 L 910,40 L 920,40" stroke="#000000" stroke-width="4.0" fill="none"/>
<path d="M 920,60 L 910,60" stroke="#000000" stroke-width="4.0" fill="none"/>
<path d="M 920,80 L 910,80" stroke="#000000" stroke-width="4.0" fill="none"/>
<path d="M 920,100 L 910,100" stroke="#000000" stroke-width="4.0" fill="none"/>
<path d="M 840,120 L 850,120 L 860,120" stroke="#000000" stroke-width="4.0" fill="none"/>
<path d="M 860,140 L 850,140" stroke="#000000" stroke-width="4.0" fill="none"/>
<path d="M 840,400 L 840,320 L 920,320" stroke="#0000b2" stroke-width="4.0" fill="none"/>
<path d="M 560,580 L 620,580 L 620,520 L 700,520" stroke="#0000b2" stroke-width="4.0" fill="none"/>
<path d="M 980,580 L 1040,580 L 1040,900 L 460,900 L 460,800" stroke="#0000b2" stroke-width="4.0" fill="none"/>
<path d="M 440,460 L 440,580 L 500,580" stroke="#0000b2" stroke-width="4.0" fill="none"/>
<path d="M 1700,900 L 1720,900" stroke="#0000b2" stroke-width="4.0" fill="none"/>
<path d="M 1580,260 L 1600,260" stroke="#0000b2" stroke-width="4.0" fill="none"/>
<path d="M 400,840 L 500,840" stroke="#0000b2" stroke-width="4.0" fill="none"/>
<path d="M 920,200 L 940,200" stroke="#0000b2" stroke-width="4.0" fill="none"/>
<path d="M 560,460 L 640,460 L 640,500 L 700,500" stroke="#0000b2" stroke-width="4.0" fill="none"/>
<path d="M 440,400 L 440,460 L 500,460" stroke="#0000b2" stroke-width="4.0" fill="none"/>
<path d="M 700,780 L 720,780 L 720,740" stroke="#0000b2" stroke-width="4.0" fill="none"/>
<path d="M 1740,780 L 1760,780" stroke="#0000b2" stroke-width="4.0" fill="none"/>
<path d="M 1700,780 L 1720,780" stroke="#0000b2" stroke-width="4.0" fill="none"/>
<path d="M 860,140 L 900,140" stroke="#0000b2" stroke-width="4.0" fill="none"/>
<path d="M 920,140 L 940,140" stroke="#0000b2" stroke-width="4.0" fill="none"/>
<path d="M 440,340 L 440,400 L 840,400 L 1060,400" stroke="#0000b2" stroke-width="4.0" fill="none"/>
<path d="M 400,720 L 500,720" stroke="#0000b2" stroke-width="4.0" fill="none"/>
<path d="M 1580,720 L 1600,720" stroke="#0000b2" stroke-width="4.0" fill="none"/>
<path d="M 920,80 L 940,80" stroke="#0000b2" stroke-width="4.0" fill="none"/>
<path d="M 640,500 L 640,660 L 700,660" stroke="#0000b2" stroke-width="4.0" fill="none"/>
<path d="M 820,220 L 820,660 L 920,660" stroke="#0000b2" stroke-width="4.0" fill="none"/>
<path d="M 1620,660 L 1760,660" stroke="#0000b2" stroke-width="4.0" fill="none"/>
<path d="M 1580,660 L 1600,660" stroke="#0000b2" stroke-width="4.0" fill="none"/>
<path d="M 400,340 L 440,340 L 500,340" stroke="#0000b2" stroke-width="4.0" fill="none"/>
<path d="M 900,340 L 920,340" stroke="#0000b2" stroke-width="4.0" fill="none"/>
<path d="M 560,340 L 600,340" stroke="#0000b2" stroke-width="4.0" fill="none"/>
<path d="M 1380,340 L 1420,340" stroke="#0000b2" stroke-width="4.0" fill="none"/>
<path d="M 1580,280 L 1600,280" stroke="#0000b2" stroke-width="4.0" fill="none"/>
<path d="M 980,600 L 1080,600" stroke="#0000b2" stroke-width="4.0" fill="none"/>
<path d="M 400,600 L 500,600" stroke="#0000b2" stroke-width="4.0" fill="none"/>
<path d="M 1720,600 L 1760,600" stroke="#0000b2" stroke-width="4.0" fill="none"/>
<path d="M 600,700 L 600,540 L 700,540" stroke="#0000b2" stroke-width="4.0" fill="none"/>
<path d="M 1720,540 L 1760,540" stroke="#0000b2" stroke-width="4.0" fill="none"/>
<path d="M 740,540 L 860,540 L 860,560 L 920,560" stroke="#0000b2" stroke-width="4.0" fill="none"/>
<path d="M 1120,220 L 1140,220 L 1140,320 L 1040,320 L 1040,420 L 1060,420" stroke="#0000b2" stroke-width="4.0" fill="none"/>
<path d="M 1700,800 L 1720,800" stroke="#0000b2" stroke-width="4.0" fill="none"/>
<path d="M 400,480 L 500,480" stroke="#0000b2" stroke-width="4.0" fill="none"/>
<path d="M 1720,480 L 1760,480" stroke="#0000b2" stroke-width="4.0" fill="none"/>
<path d="M 920,160 L 940,160" stroke="#0000b2" stroke-width="4.0" fill="none"/>
<path d="M 1720,420 L 1760,420" stroke="#0000b2" stroke-width="4.0" fill="none"/>
<path d="M 920,740 L 940,740 L 940,680" stroke="#0000b2" stroke-width="4.0" fill="none"/>
<path d="M 1580,740 L 1600,740" stroke="#0000b2" stroke-width="4.0" fill="none"/>
<path d="M 920,100 L 940,100" stroke="#0000b2" stroke-width="4.0" fill="none"/>
<path d="M 620,580 L 620,680 L 700,680" stroke="#0000b2" stroke-width="4.0" fill="none"/>
<path d="M 1580,680 L 1600,680" stroke="#0000b2" stroke-width="4.0" fill="none"/>
<path d="M 1720,360 L 1760,360" stroke="#0000b2" stroke-width="4.0" fill="none"/>
<path d="M 920,40 L 940,40" stroke="#0000b2" stroke-width="4.0" fill="none"/>
<path d="M 980,300 L 1020,300 L 1020,220 L 820,220 L 480,220 L 480,320 L 500,320" stroke="#0000b2" stroke-width="4.0" fill="none"/>
<path d="M 760,300 L 900,300 L 920,300" stroke="#0000b2" stroke-width="4.0" fill="none"/>
<path d="M 1380,300 L 1420,300" stroke="#0000b2" stroke-width="4.0" fill="none"/>
<path d="M 1720,300 L 1760,300" stroke="#0000b2" stroke-width="4.0" fill="none"/>
<path d="M 1580,300 L 1600,300" stroke="#0000b2" stroke-width="4.0" fill="none"/>
<path d="M 980,620 L 1080,620" stroke="#0000b2" stroke-width="4.0" fill="none"/>
<path d="M 700,620 L 720,620 L 720,580" stroke="#0000b2" stroke-width="4.0" fill="none"/>
<path d="M 440,820 L 440,880 L 960,880 L 960,660" stroke="#0000b2" stroke-width="4.0" fill="none"/>
<path d="M 1740,880 L 1760,880" stroke="#0000b2" stroke-width="4.0" fill="none"/>
<path d="M 1700,880 L 1720,880" stroke="#0000b2" stroke-width="4.0" fill="none"/>
<path d="M 680,560 L 700,560" stroke="#0000b2" stroke-width="4.0" fill="none"/>
<path d="M 900,300 L 900,240 L 1040,240" stroke="#0000b2" stroke-width="4.0" fill="none"/>
<path d="M 1380,240 L 1420,240" stroke="#0000b2" stroke-width="4.0" fill="none"/>
<path d="M 1620,240 L 1760,240" stroke="#0000b2" stroke-width="4.0" fill="none"/>
<path d="M 1580,240 L 1600,240" stroke="#0000b2" stroke-width="4.0" fill="none"/>
<path d="M 1720,180 L 1760,180" stroke="#0000b2" stroke-width="4.0" fill="none"/>
<path d="M 920,180 L 940,180" stroke="#0000b2" stroke-width="4.0" fill="none"/>
<path d="M 560,820 L 580,820 L 580,720 L 700,720" stroke="#0000b2" stroke-width="4.0" fill="none"/>
<path d="M 860,120 L 880,120 L 880,40 L 900,40" stroke="#0000b2" stroke-width="4.0" fill="none"/>
<path d="M 560,700 L 600,700 L 700,700" stroke="#0000b2" stroke-width="4.0" fill="none"/>
<path d="M 1580,700 L 1600,700" stroke="#0000b2" stroke-width="4.0" fill="none"/>
<path d="M 740,700 L 880,700 L 880,640 L 920,640" stroke="#0000b2" stroke-width="4.0" fill="none"/>
<path d="M 400,380 L 480,380 L 480,360 L 500,360" stroke="#0000b2" stroke-width="4.0" fill="none"/>
<path d="M 920,60 L 940,60" stroke="#0000b2" stroke-width="4.0" fill="none"/>
<path d="M 960,480 L 960,540" stroke="#0000b2" stroke-width="4.0" fill="none"/>
<path d="M 500,560 L 460,560 L 460,440 L 500,440" stroke="#0000b2" stroke-width="4.0" fill="none"/>
<path d="M 500,800 L 460,800 L 460,680 L 500,680" stroke="#0000b2" stroke-width="4.0" fill="none"/>
<path d="M 460,560 L 460,680" stroke="#0000b2" stroke-width="4.0" fill="none"/>
<path d="M 880,260 L 880,640" stroke="#0000b2" stroke-width="4.0" fill="none"/>
<path d="M 920,260 L 880,260 L 880,180 L 820,180 L 820,120 L 840,120" stroke="#0000b2" stroke-width="4.0" fill="none"/>
<path d="M 500,820 L 440,820 L 440,700 L 500,700" stroke="#0000b2" stroke-width="4.0" fill="none"/>
<path d="M 440,580 L 440,700" stroke="#0000b2" stroke-width="4.0" fill="none"/>
<path d="M 920,280 L 860,280 L 860,380 L 1060,380" stroke="#0000b2" stroke-width="4.0" fill="none"/>
<path d="M 860,380 L 860,540" stroke="#0000b2" stroke-width="4.0" fill="none"/>
<path d="M 1040,200 L 1020,200 L 1020,160 L 1040,160 L 1040,120 L 1020,120" stroke="#0000b2" stroke-width="4.0" fill="none"/>
<g>
<circle cx="880.0" cy="640.0" r="4.0" stroke="#0000b2" stroke-width="4.0" fill="#0000b2" />
<circle cx="620.0" cy="580.0" r="4.0" stroke="#0000b2" stroke-width="4.0" fill="#0000b2" />
<circle cx="440.0" cy="580.0" r="4.0" stroke="#0000b2" stroke-width="4.0" fill="#0000b2" />
<circle cx="880.0" cy="260.0" r="4.0" stroke="#0000b2" stroke-width="4.0" fill="#0000b2" />
<circle cx="440.0" cy="460.0" r="4.0" stroke="#0000b2" stroke-width="4.0" fill="#0000b2" />
<circle cx="440.0" cy="400.0" r="4.0" stroke="#0000b2" stroke-width="4.0" fill="#0000b2" />
<circle cx="840.0" cy="400.0" r="4.0" stroke="#0000b2" stroke-width="4.0" fill="#0000b2" />
<circle cx="440.0" cy="340.0" r="4.0" stroke="#0000b2" stroke-width="4.0" fill="#0000b2" />
<circle cx="860.0" cy="540.0" r="4.0" stroke="#0000b2" stroke-width="4.0" fill="#0000b2" />
<circle cx="820.0" cy="220.0" r="4.0" stroke="#0000b2" stroke-width="4.0" fill="#0000b2" />
<circle cx="460.0" cy="800.0" r="4.0" stroke="#0000b2" stroke-width="4.0" fill="#0000b2" />
<circle cx="460.0" cy="680.0" r="4.0" stroke="#0000b2" stroke-width="4.0" fill="#0000b2" />
<circle cx="900.0" cy="300.0" r="4.0" stroke="#0000b2" stroke-width="4.0" fill="#0000b2" />
<circle cx="460.0" cy="560.0" r="4.0" stroke="#0000b2" stroke-width="4.0" fill="#0000b2" />
<circle cx="440.0" cy="820.0" r="4.0" stroke="#0000b2" stroke-width="4.0" fill="#0000b2" />
<circle cx="640.0" cy="500.0" r="4.0" stroke="#0000b2" stroke-width="4.0" fill="#0000b2" />
<circle cx="600.0" cy="700.0" r="4.0" stroke="#0000b2" stroke-width="4.0" fill="#0000b2" />
<circle cx="440.0" cy="700.0" r="4.0" stroke="#0000b2" stroke-width="4.0" fill="#0000b2" />
<circle cx="860.0" cy="380.0" r="4.0" stroke="#0000b2" stroke-width="4.0" fill="#0000b2" />
</g>
<g>
<text text-anchor="start" x="964.0" y="546.0" fill="#808080" style="font-size:18px">op</text>
<text text-anchor="start" x="924.0" y="566.0" fill="#808080" style="font-size:18px">A</text>
<text text-anchor="start" x="924.0" y="647.0" fill="#808080" style="font-size:18px">B</text>
<text text-anchor="start" x="964.0" y="666.0" fill="#808080" style="font-size:18px">clk</text>
<text text-anchor="start" x="944.0" y="685.0" fill="#808080" style="font-size:18px">eFlags</text>
<text text-anchor="start" x="924.0" y="666.0" fill="#808080" style="font-size:18px">M</text>
<text text-anchor="end" x="976.0" y="586.0" fill="#808080" style="font-size:18px">R</text>
<text text-anchor="end" x="976.0" y="606.0" fill="#808080" style="font-size:18px">Z</text>
<text text-anchor="end" x="976.0" y="626.0" fill="#808080" style="font-size:18px">C</text>
<path d="M 920,500 L 980,560 L 980,640 L 920,700 L 920,620 L 940,600 L 920,580 Z" fill-rule="evenodd" stroke="#ffff00" stroke-width="1.0" fill="#ffff00" fill-opacity="0.4980392156862745"/>
<path d="M 920,500 L 980,560 L 980,640 L 920,700 L 920,620 L 940,600 L 920,580 Z" stroke="#000000" stroke-width="1.0" fill="none"/>
<circle cx="980.0" cy="580.0" r="2.0" stroke="#b20000" stroke-width="4.0" fill="#b20000" />
<circle cx="980.0" cy="600.0" r="2.0" stroke="#b20000" stroke-width="4.0" fill="#b20000" />
<circle cx="980.0" cy="620.0" r="2.0" stroke="#b20000" stroke-width="4.0" fill="#b20000" />
<circle cx="960.0" cy="540.0" r="2.0" stroke="#0000b2" stroke-width="4.0" fill="#0000b2" />
<circle cx="920.0" cy="560.0" r="2.0" stroke="#0000b2" stroke-width="4.0" fill="#0000b2" />
<circle cx="920.0" cy="640.0" r="2.0" stroke="#0000b2" stroke-width="4.0" fill="#0000b2" />
<circle cx="960.0" cy="660.0" r="2.0" stroke="#0000b2" stroke-width="4.0" fill="#0000b2" />
<circle cx="940.0" cy="680.0" r="2.0" stroke="#0000b2" stroke-width="4.0" fill="#0000b2" />
<circle cx="920.0" cy="660.0" r="2.0" stroke="#0000b2" stroke-width="4.0" fill="#0000b2" />
</g>
<g>
<path d="M 501,310 L 559,310 L 559,370 L 501,370 Z" stroke="#000000" stroke-width="4.0" fill="none"/>
<text text-anchor="middle" x="530.0" y="302.0" fill="#000000" style="font-size:24px">IR</text>
<text text-anchor="start" x="504.0" y="326.75" fill="#808080" style="font-size:18px">D</text>
<path d="M 501,347 L 508,340 L 501,333" stroke="#000000" stroke-width="2.0" fill="none"/>
<text text-anchor="start" x="511.0" y="346.75" fill="#808080" style="font-size:18px">C</text>
<text text-anchor="start" x="504.0" y="366.75" fill="#808080" style="font-size:18px">en</text>
<text text-anchor="end" x="556.0" y="346.75" fill="#808080" style="font-size:18px">Q</text>
<text text-anchor="middle" x="530.0" y="387.5" fill="#808080" style="font-size:18px">Reg</text>
<circle cx="500.0" cy="320.0" r="2.0" stroke="#0000b2" stroke-width="4.0" fill="#0000b2" />
<circle cx="500.0" cy="340.0" r="2.0" stroke="#0000b2" stroke-width="4.0" fill="#0000b2" />
<circle cx="500.0" cy="360.0" r="2.0" stroke="#0000b2" stroke-width="4.0" fill="#0000b2" />
<circle cx="560.0" cy="340.0" r="2.0" stroke="#b20000" stroke-width="4.0" fill="#b20000" />
</g>
<g>
<path d="M 501,430 L 559,430 L 559,490 L 501,490 Z" stroke="#000000" stroke-width="4.0" fill="none"/>
<text text-anchor="middle" x="530.0" y="422.0" fill="#000000" style="font-size:24px">r0</text>
<text text-anchor="start" x="504.0" y="446.75" fill="#808080" style="font-size:18px">D</text>
<path d="M 501,467 L 508,460 L 501,453" stroke="#000000" stroke-width="2.0" fill="none"/>
<text text-anchor="start" x="511.0" y="466.75" fill="#808080" style="font-size:18px">C</text>
<text text-anchor="start" x="504.0" y="486.75" fill="#808080" style="font-size:18px">en</text>
<text text-anchor="end" x="556.0" y="466.75" fill="#808080" style="font-size:18px">Q</text>
<text text-anchor="middle" x="530.0" y="507.5" fill="#808080" style="font-size:18px">Reg</text>
<circle cx="500.0" cy="440.0" r="2.0" stroke="#0000b2" stroke-width="4.0" fill="#0000b2" />
<circle cx="500.0" cy="460.0" r="2.0" stroke="#0000b2" stroke-width="4.0" fill="#0000b2" />
<circle cx="500.0" cy="480.0" r="2.0" stroke="#0000b2" stroke-width="4.0" fill="#0000b2" />
<circle cx="560.0" cy="460.0" r="2.0" stroke="#b20000" stroke-width="4.0" fill="#b20000" />
</g>
<g>
<path d="M 501,550 L 559,550 L 559,610 L 501,610 Z" stroke="#000000" stroke-width="4.0" fill="none"/>
<text text-anchor="middle" x="530.0" y="542.0" fill="#000000" style="font-size:24px">r1</text>
<text text-anchor="start" x="504.0" y="566.75" fill="#808080" style="font-size:18px">D</text>
<path d="M 501,587 L 508,580 L 501,573" stroke="#000000" stroke-width="2.0" fill="none"/>
<text text-anchor="start" x="511.0" y="586.75" fill="#808080" style="font-size:18px">C</text>
<text text-anchor="start" x="504.0" y="606.75" fill="#808080" style="font-size:18px">en</text>
<text text-anchor="end" x="556.0" y="586.75" fill="#808080" style="font-size:18px">Q</text>
<text text-anchor="middle" x="530.0" y="627.5" fill="#808080" style="font-size:18px">Reg</text>
<circle cx="500.0" cy="560.0" r="2.0" stroke="#0000b2" stroke-width="4.0" fill="#0000b2" />
<circle cx="500.0" cy="580.0" r="2.0" stroke="#0000b2" stroke-width="4.0" fill="#0000b2" />
<circle cx="500.0" cy="600.0" r="2.0" stroke="#0000b2" stroke-width="4.0" fill="#0000b2" />
<circle cx="560.0" cy="580.0" r="2.0" stroke="#b20000" stroke-width="4.0" fill="#b20000" />
</g>
<g>
<path d="M 501,670 L 559,670 L 559,730 L 501,730 Z" stroke="#000000" stroke-width="4.0" fill="none"/>
<text text-anchor="middle" x="530.0" y="662.0" fill="#000000" style="font-size:24px">r2</text>
<text text-anchor="start" x="504.0" y="686.75" fill="#808080" style="font-size:18px">D</text>
<path d="M 501,707 L 508,700 L 501,693" stroke="#000000" stroke-width="2.0" fill="none"/>
<text text-anchor="start" x="511.0" y="706.75" fill="#808080" style="font-size:18px">C</text>
<text text-anchor="start" x="504.0" y="726.75" fill="#808080" style="font-size:18px">en</text>
<text text-anchor="end" x="556.0" y="706.75" fill="#808080" style="font-size:18px">Q</text>
<text text-anchor="middle" x="530.0" y="747.5" fill="#808080" style="font-size:18px">Reg</text>
<circle cx="500.0" cy="680.0" r="2.0" stroke="#0000b2" stroke-width="4.0" fill="#0000b2" />
<circle cx="500.0" cy="700.0" r="2.0" stroke="#0000b2" stroke-width="4.0" fill="#0000b2" />
<circle cx="500.0" cy="720.0" r="2.0" stroke="#0000b2" stroke-width="4.0" fill="#0000b2" />
<circle cx="560.0" cy="700.0" r="2.0" stroke="#b20000" stroke-width="4.0" fill="#b20000" />
</g>
<g>
<path d="M 501,790 L 559,790 L 559,850 L 501,850 Z" stroke="#000000" stroke-width="4.0" fill="none"/>
<text text-anchor="middle" x="530.0" y="782.0" fill="#000000" style="font-size:24px">p</text>
<text text-anchor="start" x="504.0" y="806.75" fill="#808080" style="font-size:18px">D</text>
<path d="M 501,827 L 508,820 L 501,813" stroke="#000000" stroke-width="2.0" fill="none"/>
<text text-anchor="start" x="511.0" y="826.75" fill="#808080" style="font-size:18px">C</text>
<text text-anchor="start" x="504.0" y="846.75" fill="#808080" style="font-size:18px">en</text>
<text text-anchor="end" x="556.0" y="826.75" fill="#808080" style="font-size:18px">Q</text>
<text text-anchor="middle" x="530.0" y="867.5" fill="#808080" style="font-size:18px">Reg</text>
<circle cx="500.0" cy="800.0" r="2.0" stroke="#0000b2" stroke-width="4.0" fill="#0000b2" />
<circle cx="500.0" cy="820.0" r="2.0" stroke="#0000b2" stroke-width="4.0" fill="#0000b2" />
<circle cx="500.0" cy="840.0" r="2.0" stroke="#0000b2" stroke-width="4.0" fill="#0000b2" />
<circle cx="560.0" cy="820.0" r="2.0" stroke="#b20000" stroke-width="4.0" fill="#b20000" />
</g>
<g>
<path d="M 701,496 L 739,505 L 739,575 L 701,584 Z" stroke="#000000" stroke-width="4.0" fill="none"/>
<text text-anchor="start" x="703.0" y="515.5" fill="#808080" style="font-size:18px">0</text>
<circle cx="720.0" cy="580.0" r="2.0" stroke="#0000b2" stroke-width="4.0" fill="#0000b2" />
<circle cx="700.0" cy="500.0" r="2.0" stroke="#0000b2" stroke-width="4.0" fill="#0000b2" />
<circle cx="700.0" cy="520.0" r="2.0" stroke="#0000b2" stroke-width="4.0" fill="#0000b2" />
<circle cx="700.0" cy="540.0" r="2.0" stroke="#0000b2" stroke-width="4.0" fill="#0000b2" />
<circle cx="700.0" cy="560.0" r="2.0" stroke="#0000b2" stroke-width="4.0" fill="#0000b2" />
<circle cx="740.0" cy="540.0" r="2.0" stroke="#b20000" stroke-width="4.0" fill="#b20000" />
</g>
<g>
<path d="M 701,656 L 739,665 L 739,735 L 701,744 Z" stroke="#000000" stroke-width="4.0" fill="none"/>
<text text-anchor="start" x="703.0" y="675.5" fill="#808080" style="font-size:18px">0</text>
<circle cx="720.0" cy="740.0" r="2.0" stroke="#0000b2" stroke-width="4.0" fill="#0000b2" />
<circle cx="700.0" cy="660.0" r="2.0" stroke="#0000b2" stroke-width="4.0" fill="#0000b2" />
<circle cx="700.0" cy="680.0" r="2.0" stroke="#0000b2" stroke-width="4.0" fill="#0000b2" />
<circle cx="700.0" cy="700.0" r="2.0" stroke="#0000b2" stroke-width="4.0" fill="#0000b2" />
<circle cx="700.0" cy="720.0" r="2.0" stroke="#0000b2" stroke-width="4.0" fill="#0000b2" />
<circle cx="740.0" cy="700.0" r="2.0" stroke="#b20000" stroke-width="4.0" fill="#b20000" />
</g>
<g>
<path d="M 369,325 L 399,325 L 399,355 L 369,355 Z" stroke="#000000" stroke-width="4.0" fill="none"/>
<text text-anchor="end" x="355.0" y="349.0" fill="#000000" style="font-size:24px"><tspan style="font-style:italic;">clock</tspan></text>
<path d="M 375,345 L 380,345 L 380,335 L 385,335 L 385,345 L 390,345 L 390,335 L 395,335" stroke="#000000" stroke-width="2.0" fill="none"/>
<circle cx="400.0" cy="340.0" r="2.0" stroke="#b20000" stroke-width="4.0" fill="#b20000" />
</g>
<g>
<path d="M 921,250 L 979,250 L 979,350 L 921,350 Z" stroke="#000000" stroke-width="4.0" fill="none"/>
<text text-anchor="start" x="924.0" y="266.75" fill="#808080" style="font-size:18px">A</text>
<text text-anchor="start" x="924.0" y="286.75" fill="#808080" style="font-size:18px">Din</text>
<text text-anchor="start" x="924.0" y="306.75" fill="#808080" style="font-size:18px">str</text>
<path d="M 921,327 L 928,320 L 921,313" stroke="#000000" stroke-width="2.0" fill="none"/>
<text text-anchor="start" x="931.0" y="326.75" fill="#808080" style="font-size:18px">C</text>
<text text-anchor="start" x="924.0" y="346.75" fill="#808080" style="font-size:18px">ld</text>
<text text-anchor="end" x="976.0" y="306.75" fill="#808080" style="font-size:18px">D</text>
<text text-anchor="middle" x="950.0" y="367.5" fill="#808080" style="font-size:18px">RAM</text>
<circle cx="920.0" cy="260.0" r="2.0" stroke="#0000b2" stroke-width="4.0" fill="#0000b2" />
<circle cx="920.0" cy="280.0" r="2.0" stroke="#0000b2" stroke-width="4.0" fill="#0000b2" />
<circle cx="920.0" cy="300.0" r="2.0" stroke="#0000b2" stroke-width="4.0" fill="#0000b2" />
<circle cx="920.0" cy="320.0" r="2.0" stroke="#0000b2" stroke-width="4.0" fill="#0000b2" />
<circle cx="920.0" cy="340.0" r="2.0" stroke="#0000b2" stroke-width="4.0" fill="#0000b2" />
<circle cx="980.0" cy="300.0" r="2.0" stroke="#b20000" stroke-width="4.0" fill="#b20000" />
</g>
<g>
<path d="M 1061,370 L 1119,370 L 1119,430 L 1061,430 Z" stroke="#000000" stroke-width="4.0" fill="none"/>
<text text-anchor="start" x="1064.0" y="386.75" fill="#808080" style="font-size:18px">D</text>
<path d="M 1061,407 L 1068,400 L 1061,393" stroke="#000000" stroke-width="2.0" fill="none"/>
<text text-anchor="start" x="1071.0" y="406.75" fill="#808080" style="font-size:18px">C</text>
<text text-anchor="start" x="1064.0" y="426.75" fill="#808080" style="font-size:18px">en</text>
<text text-anchor="middle" x="1090.0" y="447.5" fill="#808080" style="font-size:18px">Terminal</text>
<circle cx="1060.0" cy="380.0" r="2.0" stroke="#0000b2" stroke-width="4.0" fill="#0000b2" />
<circle cx="1060.0" cy="400.0" r="2.0" stroke="#0000b2" stroke-width="4.0" fill="#0000b2" />
<circle cx="1060.0" cy="420.0" r="2.0" stroke="#0000b2" stroke-width="4.0" fill="#0000b2" />
</g>
<g>
<text text-anchor="end" x="897.0" y="349.0" fill="#000000" style="font-size:24px">1</text>
<circle cx="900.0" cy="340.0" r="2.0" stroke="#b20000" stroke-width="4.0" fill="#b20000" />
</g>
<g>
<path d="M 1090,250 L 1041,250 L 1041,190 L 1090,190 C 1100,190 1120,200 1119,220 C 1119,240 1100,250 1090,250 Z" stroke="#000000" stroke-width="4.0" fill="none"/>
<circle cx="1040.0" cy="200.0" r="2.0" stroke="#0000b2" stroke-width="4.0" fill="#0000b2" />
<circle cx="1040.0" cy="240.0" r="2.0" stroke="#0000b2" stroke-width="4.0" fill="#0000b2" />
<circle cx="1120.0" cy="220.0" r="2.0" stroke="#b20000" stroke-width="4.0" fill="#b20000" />
</g>
<g>
<path d="M 600,340 L 614,348 L 614,332 Z" stroke="#000000" stroke-width="4.0" fill="none"/>
<text text-anchor="start" x="619.0" y="346.75" fill="#808080" style="font-size:18px">instr</text>
<circle cx="600.0" cy="340.0" r="2.0" stroke="#0000b2" stroke-width="4.0" fill="#0000b2" />
</g>
<g>
<path d="M 1380,240 L 1366,232 L 1366,248 Z" stroke="#000000" stroke-width="4.0" fill="none"/>
<text text-anchor="end" x="1361.0" y="246.75" fill="#808080" style="font-size:18px">instr</text>
<circle cx="1380.0" cy="240.0" r="2.0" stroke="#0000b2" stroke-width="4.0" fill="#0000b2" />
</g>
<g>
<path d="M 1080,600 L 1094,608 L 1094,592 Z" stroke="#000000" stroke-width="4.0" fill="none"/>
<text text-anchor="start" x="1099.0" y="606.75" fill="#808080" style="font-size:18px">Z</text>
<circle cx="1080.0" cy="600.0" r="2.0" stroke="#0000b2" stroke-width="4.0" fill="#0000b2" />
</g>
<g>
<path d="M 1380,300 L 1366,292 L 1366,308 Z" stroke="#000000" stroke-width="4.0" fill="none"/>
<text text-anchor="end" x="1361.0" y="306.75" fill="#808080" style="font-size:18px">Z</text>
<circle cx="1380.0" cy="300.0" r="2.0" stroke="#0000b2" stroke-width="4.0" fill="#0000b2" />
</g>
<g>
<path d="M 1080,620 L 1094,628 L 1094,612 Z" stroke="#000000" stroke-width="4.0" fill="none"/>
<text text-anchor="start" x="1099.0" y="626.75" fill="#808080" style="font-size:18px">C</text>
<circle cx="1080.0" cy="620.0" r="2.0" stroke="#0000b2" stroke-width="4.0" fill="#0000b2" />
</g>
<g>
<path d="M 1380,340 L 1366,332 L 1366,348 Z" stroke="#000000" stroke-width="4.0" fill="none"/>
<text text-anchor="end" x="1361.0" y="346.75" fill="#808080" style="font-size:18px">C</text>
<circle cx="1380.0" cy="340.0" r="2.0" stroke="#0000b2" stroke-width="4.0" fill="#0000b2" />
</g>
<g>
<path d="M 960,480 L 946,472 L 946,488 Z" stroke="#000000" stroke-width="4.0" fill="none"/>
<text text-anchor="end" x="941.0" y="486.75" fill="#808080" style="font-size:18px">op</text>
<circle cx="960.0" cy="480.0" r="2.0" stroke="#0000b2" stroke-width="4.0" fill="#0000b2" />
</g>
<g>
<path d="M 1760,240 L 1774,248 L 1774,232 Z" stroke="#000000" stroke-width="4.0" fill="none"/>
<text text-anchor="start" x="1779.0" y="246.75" fill="#808080" style="font-size:18px">op</text>
<circle cx="1760.0" cy="240.0" r="2.0" stroke="#0000b2" stroke-width="4.0" fill="#0000b2" />
</g>
<g>
<path d="M 920,740 L 906,732 L 906,748 Z" stroke="#000000" stroke-width="4.0" fill="none"/>
<text text-anchor="end" x="901.0" y="746.75" fill="#808080" style="font-size:18px">eF</text>
<circle cx="920.0" cy="740.0" r="2.0" stroke="#0000b2" stroke-width="4.0" fill="#0000b2" />
</g>
<g>
<path d="M 1760,300 L 1774,308 L 1774,292 Z" stroke="#000000" stroke-width="4.0" fill="none"/>
<text text-anchor="start" x="1779.0" y="306.75" fill="#808080" style="font-size:18px">eF</text>
<circle cx="1760.0" cy="300.0" r="2.0" stroke="#0000b2" stroke-width="4.0" fill="#0000b2" />
</g>
<g>
<path d="M 760,300 L 746,292 L 746,308 Z" stroke="#000000" stroke-width="4.0" fill="none"/>
<text text-anchor="end" x="741.0" y="306.75" fill="#808080" style="font-size:18px">wr</text>
<circle cx="760.0" cy="300.0" r="2.0" stroke="#0000b2" stroke-width="4.0" fill="#0000b2" />
</g>
<g>
<path d="M 1760,180 L 1774,188 L 1774,172 Z" stroke="#000000" stroke-width="4.0" fill="none"/>
<text text-anchor="start" x="1779.0" y="186.75" fill="#808080" style="font-size:18px">wr</text>
<circle cx="1760.0" cy="180.0" r="2.0" stroke="#0000b2" stroke-width="4.0" fill="#0000b2" />
</g>
<g>
<path d="M 400,380 L 386,372 L 386,388 Z" stroke="#000000" stroke-width="4.0" fill="none"/>
<text text-anchor="end" x="381.0" y="386.75" fill="#808080" style="font-size:18px">eI</text>
<circle cx="400.0" cy="380.0" r="2.0" stroke="#0000b2" stroke-width="4.0" fill="#0000b2" />
</g>
<g>
<path d="M 1760,360 L 1774,368 L 1774,352 Z" stroke="#000000" stroke-width="4.0" fill="none"/>
<text text-anchor="start" x="1779.0" y="366.75" fill="#808080" style="font-size:18px">eI</text>
<circle cx="1760.0" cy="360.0" r="2.0" stroke="#0000b2" stroke-width="4.0" fill="#0000b2" />
</g>
<g>
<path d="M 400,480 L 386,472 L 386,488 Z" stroke="#000000" stroke-width="4.0" fill="none"/>
<text text-anchor="end" x="381.0" y="486.75" fill="#808080" style="font-size:18px">eR0</text>
<circle cx="400.0" cy="480.0" r="2.0" stroke="#0000b2" stroke-width="4.0" fill="#0000b2" />
</g>
<g>
<path d="M 1760,420 L 1774,428 L 1774,412 Z" stroke="#000000" stroke-width="4.0" fill="none"/>
<text text-anchor="start" x="1779.0" y="426.75" fill="#808080" style="font-size:18px">eR0</text>
<circle cx="1760.0" cy="420.0" r="2.0" stroke="#0000b2" stroke-width="4.0" fill="#0000b2" />
</g>
<g>
<path d="M 400,600 L 386,592 L 386,608 Z" stroke="#000000" stroke-width="4.0" fill="none"/>
<text text-anchor="end" x="381.0" y="606.75" fill="#808080" style="font-size:18px">eR1</text>
<circle cx="400.0" cy="600.0" r="2.0" stroke="#0000b2" stroke-width="4.0" fill="#0000b2" />
</g>
<g>
<path d="M 1760,480 L 1774,488 L 1774,472 Z" stroke="#000000" stroke-width="4.0" fill="none"/>
<text text-anchor="start" x="1779.0" y="486.75" fill="#808080" style="font-size:18px">eR1</text>
<circle cx="1760.0" cy="480.0" r="2.0" stroke="#0000b2" stroke-width="4.0" fill="#0000b2" />
</g>
<g>
<path d="M 400,720 L 386,712 L 386,728 Z" stroke="#000000" stroke-width="4.0" fill="none"/>
<text text-anchor="end" x="381.0" y="726.75" fill="#808080" style="font-size:18px">eR2</text>
<circle cx="400.0" cy="720.0" r="2.0" stroke="#0000b2" stroke-width="4.0" fill="#0000b2" />
</g>
<g>
<path d="M 1760,540 L 1774,548 L 1774,532 Z" stroke="#000000" stroke-width="4.0" fill="none"/>
<text text-anchor="start" x="1779.0" y="546.75" fill="#808080" style="font-size:18px">eR2</text>
<circle cx="1760.0" cy="540.0" r="2.0" stroke="#0000b2" stroke-width="4.0" fill="#0000b2" />
</g>
<g>
<path d="M 400,840 L 386,832 L 386,848 Z" stroke="#000000" stroke-width="4.0" fill="none"/>
<text text-anchor="end" x="381.0" y="846.75" fill="#808080" style="font-size:18px">eP</text>
<circle cx="400.0" cy="840.0" r="2.0" stroke="#0000b2" stroke-width="4.0" fill="#0000b2" />
</g>
<g>
<path d="M 1760,600 L 1774,608 L 1774,592 Z" stroke="#000000" stroke-width="4.0" fill="none"/>
<text text-anchor="start" x="1779.0" y="606.75" fill="#808080" style="font-size:18px">eP</text>
<circle cx="1760.0" cy="600.0" r="2.0" stroke="#0000b2" stroke-width="4.0" fill="#0000b2" />
</g>
<g>
<path d="M 680,560 L 666,552 L 666,568 Z" stroke="#000000" stroke-width="4.0" fill="none"/>
<text text-anchor="end" x="661.0" y="566.75" fill="#808080" style="font-size:18px">offset</text>
<circle cx="680.0" cy="560.0" r="2.0" stroke="#0000b2" stroke-width="4.0" fill="#0000b2" />
</g>
<g>
<path d="M 1760,660 L 1774,668 L 1774,652 Z" stroke="#000000" stroke-width="4.0" fill="none"/>
<text text-anchor="start" x="1779.0" y="666.75" fill="#808080" style="font-size:18px">offset</text>
<circle cx="1760.0" cy="660.0" r="2.0" stroke="#0000b2" stroke-width="4.0" fill="#0000b2" />
</g>
<g>
<path d="M 700,780 L 686,772 L 686,788 Z" stroke="#000000" stroke-width="4.0" fill="none"/>
<text text-anchor="end" x="681.0" y="786.75" fill="#808080" style="font-size:18px">sB</text>
<circle cx="700.0" cy="780.0" r="2.0" stroke="#0000b2" stroke-width="4.0" fill="#0000b2" />
</g>
<g>
<path d="M 1760,880 L 1774,888 L 1774,872 Z" stroke="#000000" stroke-width="4.0" fill="none"/>
<text text-anchor="start" x="1779.0" y="886.75" fill="#808080" style="font-size:18px">sB</text>
<circle cx="1760.0" cy="880.0" r="2.0" stroke="#0000b2" stroke-width="4.0" fill="#0000b2" />
</g>
<g>
<path d="M 700,620 L 686,612 L 686,628 Z" stroke="#000000" stroke-width="4.0" fill="none"/>
<text text-anchor="end" x="681.0" y="626.75" fill="#808080" style="font-size:18px">sA</text>
<circle cx="700.0" cy="620.0" r="2.0" stroke="#0000b2" stroke-width="4.0" fill="#0000b2" />
</g>
<g>
<path d="M 1760,780 L 1774,788 L 1774,772 Z" stroke="#000000" stroke-width="4.0" fill="none"/>
<text text-anchor="start" x="1779.0" y="786.75" fill="#808080" style="font-size:18px">sA</text>
<circle cx="1760.0" cy="780.0" r="2.0" stroke="#0000b2" stroke-width="4.0" fill="#0000b2" />
</g>
<g>
<text text-anchor="start" x="1422.0" y="248.0" fill="#000000" style="font-size:24px">?</text>
<circle cx="1420.0" cy="240.0" r="2.0" stroke="#0000b2" stroke-width="4.0" fill="#0000b2" />
</g>
<g>
<text text-anchor="start" x="1422.0" y="308.0" fill="#000000" style="font-size:24px">?</text>
<circle cx="1420.0" cy="300.0" r="2.0" stroke="#0000b2" stroke-width="4.0" fill="#0000b2" />
</g>
<g>
<text text-anchor="start" x="1422.0" y="348.0" fill="#000000" style="font-size:24px">?</text>
<circle cx="1420.0" cy="340.0" r="2.0" stroke="#0000b2" stroke-width="4.0" fill="#0000b2" />
</g>
<g>
<path d="M 1719,190 L 1661,190 L 1661,170 L 1719,170 Z" stroke="#000000" stroke-width="4.0" fill="none"/>
<path d="M 1665,186 L 1690,186 L 1690,174 L 1665,174 Z" stroke="#808080" stroke-width="0.0" fill="#808080" fill-opacity="1.0"/>
<circle cx="1720.0" cy="180.0" r="2.0" stroke="#b20000" stroke-width="4.0" fill="#b20000" />
</g>
<g>
<path d="M 1719,310 L 1661,310 L 1661,290 L 1719,290 Z" stroke="#000000" stroke-width="4.0" fill="none"/>
<path d="M 1665,306 L 1690,306 L 1690,294 L 1665,294 Z" stroke="#808080" stroke-width="0.0" fill="#808080" fill-opacity="1.0"/>
<circle cx="1720.0" cy="300.0" r="2.0" stroke="#b20000" stroke-width="4.0" fill="#b20000" />
</g>
<g>
<path d="M 1719,370 L 1661,370 L 1661,350 L 1719,350 Z" stroke="#000000" stroke-width="4.0" fill="none"/>
<path d="M 1665,366 L 1690,366 L 1690,354 L 1665,354 Z" stroke="#808080" stroke-width="0.0" fill="#808080" fill-opacity="1.0"/>
<circle cx="1720.0" cy="360.0" r="2.0" stroke="#b20000" stroke-width="4.0" fill="#b20000" />
</g>
<g>
<path d="M 1719,430 L 1661,430 L 1661,410 L 1719,410 Z" stroke="#000000" stroke-width="4.0" fill="none"/>
<path d="M 1665,426 L 1690,426 L 1690,414 L 1665,414 Z" stroke="#808080" stroke-width="0.0" fill="#808080" fill-opacity="1.0"/>
<circle cx="1720.0" cy="420.0" r="2.0" stroke="#b20000" stroke-width="4.0" fill="#b20000" />
</g>
<g>
<path d="M 1719,490 L 1661,490 L 1661,470 L 1719,470 Z" stroke="#000000" stroke-width="4.0" fill="none"/>
<path d="M 1665,486 L 1690,486 L 1690,474 L 1665,474 Z" stroke="#808080" stroke-width="0.0" fill="#808080" fill-opacity="1.0"/>
<circle cx="1720.0" cy="480.0" r="2.0" stroke="#b20000" stroke-width="4.0" fill="#b20000" />
</g>
<g>
<path d="M 1719,550 L 1661,550 L 1661,530 L 1719,530 Z" stroke="#000000" stroke-width="4.0" fill="none"/>
<path d="M 1665,546 L 1690,546 L 1690,534 L 1665,534 Z" stroke="#808080" stroke-width="0.0" fill="#808080" fill-opacity="1.0"/>
<circle cx="1720.0" cy="540.0" r="2.0" stroke="#b20000" stroke-width="4.0" fill="#b20000" />
</g>
<g>
<path d="M 1719,610 L 1661,610 L 1661,590 L 1719,590 Z" stroke="#000000" stroke-width="4.0" fill="none"/>
<path d="M 1665,606 L 1690,606 L 1690,594 L 1665,594 Z" stroke="#808080" stroke-width="0.0" fill="#808080" fill-opacity="1.0"/>
<circle cx="1720.0" cy="600.0" r="2.0" stroke="#b20000" stroke-width="4.0" fill="#b20000" />
</g>
<g>
<path d="M 1699,790 L 1641,790 L 1641,770 L 1699,770 Z" stroke="#000000" stroke-width="4.0" fill="none"/>
<path d="M 1645,786 L 1670,786 L 1670,774 L 1645,774 Z" stroke="#808080" stroke-width="0.0" fill="#808080" fill-opacity="1.0"/>
<circle cx="1700.0" cy="780.0" r="2.0" stroke="#b20000" stroke-width="4.0" fill="#b20000" />
</g>
<g>
<path d="M 1699,890 L 1641,890 L 1641,870 L 1699,870 Z" stroke="#000000" stroke-width="4.0" fill="none"/>
<path d="M 1645,886 L 1670,886 L 1670,874 L 1645,874 Z" stroke="#808080" stroke-width="0.0" fill="#808080" fill-opacity="1.0"/>
<circle cx="1700.0" cy="880.0" r="2.0" stroke="#b20000" stroke-width="4.0" fill="#b20000" />
</g>
<g>
<text text-anchor="end" x="1598.0" y="237.0" fill="#808080" style="font-size:12px">0</text>
<text text-anchor="end" x="1598.0" y="257.0" fill="#808080" style="font-size:12px">1</text>
<text text-anchor="end" x="1598.0" y="277.0" fill="#808080" style="font-size:12px">2</text>
<text text-anchor="end" x="1598.0" y="297.0" fill="#808080" style="font-size:12px">3</text>
<text text-anchor="start" x="1622.0" y="237.0" fill="#808080" style="font-size:12px">0-3</text>
<path d="M 1608,238 L 1612,238 L 1612,302 L 1608,302 Z" stroke="#000000" stroke-width="4.0" fill="#000000" fill-opacity="1.0"/>
<circle cx="1600.0" cy="240.0" r="2.0" stroke="#0000b2" stroke-width="4.0" fill="#0000b2" />
<circle cx="1600.0" cy="260.0" r="2.0" stroke="#0000b2" stroke-width="4.0" fill="#0000b2" />
<circle cx="1600.0" cy="280.0" r="2.0" stroke="#0000b2" stroke-width="4.0" fill="#0000b2" />
<circle cx="1600.0" cy="300.0" r="2.0" stroke="#0000b2" stroke-width="4.0" fill="#0000b2" />
<circle cx="1620.0" cy="240.0" r="2.0" stroke="#b20000" stroke-width="4.0" fill="#b20000" />
</g>
<g>
<path d="M 1579,250 L 1521,250 L 1521,230 L 1579,230 Z" stroke="#000000" stroke-width="4.0" fill="none"/>
<path d="M 1525,246 L 1550,246 L 1550,234 L 1525,234 Z" stroke="#808080" stroke-width="0.0" fill="#808080" fill-opacity="1.0"/>
<circle cx="1580.0" cy="240.0" r="2.0" stroke="#b20000" stroke-width="4.0" fill="#b20000" />
</g>
<g>
<path d="M 1579,270 L 1521,270 L 1521,250 L 1579,250 Z" stroke="#000000" stroke-width="4.0" fill="none"/>
<path d="M 1525,266 L 1550,266 L 1550,254 L 1525,254 Z" stroke="#808080" stroke-width="0.0" fill="#808080" fill-opacity="1.0"/>
<circle cx="1580.0" cy="260.0" r="2.0" stroke="#b20000" stroke-width="4.0" fill="#b20000" />
</g>
<g>
<path d="M 1579,290 L 1521,290 L 1521,270 L 1579,270 Z" stroke="#000000" stroke-width="4.0" fill="none"/>
<path d="M 1525,286 L 1550,286 L 1550,274 L 1525,274 Z" stroke="#808080" stroke-width="0.0" fill="#808080" fill-opacity="1.0"/>
<circle cx="1580.0" cy="280.0" r="2.0" stroke="#b20000" stroke-width="4.0" fill="#b20000" />
</g>
<g>
<path d="M 1579,310 L 1521,310 L 1521,290 L 1579,290 Z" stroke="#000000" stroke-width="4.0" fill="none"/>
<path d="M 1525,306 L 1550,306 L 1550,294 L 1525,294 Z" stroke="#808080" stroke-width="0.0" fill="#808080" fill-opacity="1.0"/>
<circle cx="1580.0" cy="300.0" r="2.0" stroke="#b20000" stroke-width="4.0" fill="#b20000" />
</g>
<g>
<text text-anchor="end" x="1598.0" y="657.0" fill="#808080" style="font-size:12px">0</text>
<text text-anchor="end" x="1598.0" y="677.0" fill="#808080" style="font-size:12px">1</text>
<text text-anchor="end" x="1598.0" y="697.0" fill="#808080" style="font-size:12px">2</text>
<text text-anchor="end" x="1598.0" y="717.0" fill="#808080" style="font-size:12px">3</text>
<text text-anchor="end" x="1598.0" y="737.0" fill="#808080" style="font-size:12px">4-7</text>
<text text-anchor="start" x="1622.0" y="657.0" fill="#808080" style="font-size:12px">0-7</text>
<path d="M 1608,658 L 1612,658 L 1612,742 L 1608,742 Z" stroke="#000000" stroke-width="4.0" fill="#000000" fill-opacity="1.0"/>
<circle cx="1600.0" cy="660.0" r="2.0" stroke="#0000b2" stroke-width="4.0" fill="#0000b2" />
<circle cx="1600.0" cy="680.0" r="2.0" stroke="#0000b2" stroke-width="4.0" fill="#0000b2" />
<circle cx="1600.0" cy="700.0" r="2.0" stroke="#0000b2" stroke-width="4.0" fill="#0000b2" />
<circle cx="1600.0" cy="720.0" r="2.0" stroke="#0000b2" stroke-width="4.0" fill="#0000b2" />
<circle cx="1600.0" cy="740.0" r="2.0" stroke="#0000b2" stroke-width="4.0" fill="#0000b2" />
<circle cx="1620.0" cy="660.0" r="2.0" stroke="#b20000" stroke-width="4.0" fill="#b20000" />
</g>
<g>
<path d="M 1579,670 L 1521,670 L 1521,650 L 1579,650 Z" stroke="#000000" stroke-width="4.0" fill="none"/>
<path d="M 1525,666 L 1550,666 L 1550,654 L 1525,654 Z" stroke="#808080" stroke-width="0.0" fill="#808080" fill-opacity="1.0"/>
<circle cx="1580.0" cy="660.0" r="2.0" stroke="#b20000" stroke-width="4.0" fill="#b20000" />
</g>
<g>
<path d="M 1579,690 L 1521,690 L 1521,670 L 1579,670 Z" stroke="#000000" stroke-width="4.0" fill="none"/>
<path d="M 1525,686 L 1550,686 L 1550,674 L 1525,674 Z" stroke="#808080" stroke-width="0.0" fill="#808080" fill-opacity="1.0"/>
<circle cx="1580.0" cy="680.0" r="2.0" stroke="#b20000" stroke-width="4.0" fill="#b20000" />
</g>
<g>
<path d="M 1579,710 L 1521,710 L 1521,690 L 1579,690 Z" stroke="#000000" stroke-width="4.0" fill="none"/>
<path d="M 1525,706 L 1550,706 L 1550,694 L 1525,694 Z" stroke="#808080" stroke-width="0.0" fill="#808080" fill-opacity="1.0"/>
<circle cx="1580.0" cy="700.0" r="2.0" stroke="#b20000" stroke-width="4.0" fill="#b20000" />
</g>
<g>
<path d="M 1579,730 L 1521,730 L 1521,710 L 1579,710 Z" stroke="#000000" stroke-width="4.0" fill="none"/>
<path d="M 1525,726 L 1550,726 L 1550,714 L 1525,714 Z" stroke="#808080" stroke-width="0.0" fill="#808080" fill-opacity="1.0"/>
<circle cx="1580.0" cy="720.0" r="2.0" stroke="#b20000" stroke-width="4.0" fill="#b20000" />
</g>
<g>
<text text-anchor="end" x="1577.0" y="749.0" fill="#000000" style="font-size:24px">0</text>
<circle cx="1580.0" cy="740.0" r="2.0" stroke="#b20000" stroke-width="4.0" fill="#b20000" />
</g>
<g>
<text text-anchor="end" x="1718.0" y="777.0" fill="#808080" style="font-size:12px">0</text>
<text text-anchor="end" x="1718.0" y="797.0" fill="#808080" style="font-size:12px">1</text>
<text text-anchor="start" x="1742.0" y="777.0" fill="#808080" style="font-size:12px">0,1</text>
<path d="M 1728,778 L 1732,778 L 1732,802 L 1728,802 Z" stroke="#000000" stroke-width="4.0" fill="#000000" fill-opacity="1.0"/>
<circle cx="1720.0" cy="780.0" r="2.0" stroke="#0000b2" stroke-width="4.0" fill="#0000b2" />
<circle cx="1720.0" cy="800.0" r="2.0" stroke="#0000b2" stroke-width="4.0" fill="#0000b2" />
<circle cx="1740.0" cy="780.0" r="2.0" stroke="#b20000" stroke-width="4.0" fill="#b20000" />
</g>
<g>
<text text-anchor="end" x="1718.0" y="877.0" fill="#808080" style="font-size:12px">0</text>
<text text-anchor="end" x="1718.0" y="897.0" fill="#808080" style="font-size:12px">1</text>
<text text-anchor="start" x="1742.0" y="877.0" fill="#808080" style="font-size:12px">0,1</text>
<path d="M 1728,878 L 1732,878 L 1732,902 L 1728,902 Z" stroke="#000000" stroke-width="4.0" fill="#000000" fill-opacity="1.0"/>
<circle cx="1720.0" cy="880.0" r="2.0" stroke="#0000b2" stroke-width="4.0" fill="#0000b2" />
<circle cx="1720.0" cy="900.0" r="2.0" stroke="#0000b2" stroke-width="4.0" fill="#0000b2" />
<circle cx="1740.0" cy="880.0" r="2.0" stroke="#b20000" stroke-width="4.0" fill="#b20000" />
</g>
<g>
<path d="M 1699,810 L 1641,810 L 1641,790 L 1699,790 Z" stroke="#000000" stroke-width="4.0" fill="none"/>
<path d="M 1645,806 L 1670,806 L 1670,794 L 1645,794 Z" stroke="#808080" stroke-width="0.0" fill="#808080" fill-opacity="1.0"/>
<circle cx="1700.0" cy="800.0" r="2.0" stroke="#b20000" stroke-width="4.0" fill="#b20000" />
</g>
<g>
<path d="M 1699,910 L 1641,910 L 1641,890 L 1699,890 Z" stroke="#000000" stroke-width="4.0" fill="none"/>
<path d="M 1645,906 L 1670,906 L 1670,894 L 1645,894 Z" stroke="#808080" stroke-width="0.0" fill="#808080" fill-opacity="1.0"/>
<circle cx="1700.0" cy="900.0" r="2.0" stroke="#b20000" stroke-width="4.0" fill="#b20000" />
</g>
<g>
<path d="M 990,150 L 941,150 L 941,90 L 990,90 C 1000,90 1020,100 1019,120 C 1019,140 1000,150 990,150 Z" stroke="#000000" stroke-width="4.0" fill="none"/>
<circle cx="940.0" cy="40.0" r="2.0" stroke="#0000b2" stroke-width="4.0" fill="#0000b2" />
<circle cx="940.0" cy="60.0" r="2.0" stroke="#0000b2" stroke-width="4.0" fill="#0000b2" />
<circle cx="940.0" cy="80.0" r="2.0" stroke="#0000b2" stroke-width="4.0" fill="#0000b2" />
<circle cx="940.0" cy="100.0" r="2.0" stroke="#0000b2" stroke-width="4.0" fill="#0000b2" />
<circle cx="940.0" cy="140.0" r="2.0" stroke="#0000b2" stroke-width="4.0" fill="#0000b2" />
<circle cx="940.0" cy="160.0" r="2.0" stroke="#0000b2" stroke-width="4.0" fill="#0000b2" />
<circle cx="940.0" cy="180.0" r="2.0" stroke="#0000b2" stroke-width="4.0" fill="#0000b2" />
<circle cx="940.0" cy="200.0" r="2.0" stroke="#0000b2" stroke-width="4.0" fill="#0000b2" />
<circle cx="1020.0" cy="120.0" r="2.0" stroke="#b20000" stroke-width="4.0" fill="#b20000" />
</g>
<g>
<text text-anchor="end" x="898.0" y="137.0" fill="#808080" style="font-size:12px">0-3</text>
<text text-anchor="start" x="922.0" y="137.0" fill="#808080" style="font-size:12px">0</text>
<text text-anchor="start" x="922.0" y="157.0" fill="#808080" style="font-size:12px">1</text>
<text text-anchor="start" x="922.0" y="177.0" fill="#808080" style="font-size:12px">2</text>
<text text-anchor="start" x="922.0" y="197.0" fill="#808080" style="font-size:12px">3</text>
<path d="M 908,138 L 912,138 L 912,202 L 908,202 Z" stroke="#000000" stroke-width="4.0" fill="#000000" fill-opacity="1.0"/>
<circle cx="900.0" cy="140.0" r="2.0" stroke="#0000b2" stroke-width="4.0" fill="#0000b2" />
<circle cx="920.0" cy="140.0" r="2.0" stroke="#b20000" stroke-width="4.0" fill="#b20000" />
<circle cx="920.0" cy="160.0" r="2.0" stroke="#b20000" stroke-width="4.0" fill="#b20000" />
<circle cx="920.0" cy="180.0" r="2.0" stroke="#b20000" stroke-width="4.0" fill="#b20000" />
<circle cx="920.0" cy="200.0" r="2.0" stroke="#b20000" stroke-width="4.0" fill="#b20000" />
</g>
<g>
<text text-anchor="end" x="898.0" y="37.0" fill="#808080" style="font-size:12px">0-3</text>
<text text-anchor="start" x="922.0" y="37.0" fill="#808080" style="font-size:12px">0</text>
<text text-anchor="start" x="922.0" y="57.0" fill="#808080" style="font-size:12px">1</text>
<text text-anchor="start" x="922.0" y="77.0" fill="#808080" style="font-size:12px">2</text>
<text text-anchor="start" x="922.0" y="97.0" fill="#808080" style="font-size:12px">3</text>
<path d="M 908,38 L 912,38 L 912,102 L 908,102 Z" stroke="#000000" stroke-width="4.0" fill="#000000" fill-opacity="1.0"/>
<circle cx="900.0" cy="40.0" r="2.0" stroke="#0000b2" stroke-width="4.0" fill="#0000b2" />
<circle cx="920.0" cy="40.0" r="2.0" stroke="#b20000" stroke-width="4.0" fill="#b20000" />
<circle cx="920.0" cy="60.0" r="2.0" stroke="#b20000" stroke-width="4.0" fill="#b20000" />
<circle cx="920.0" cy="80.0" r="2.0" stroke="#b20000" stroke-width="4.0" fill="#b20000" />
<circle cx="920.0" cy="100.0" r="2.0" stroke="#b20000" stroke-width="4.0" fill="#b20000" />
</g>
<g>
<text text-anchor="end" x="838.0" y="117.0" fill="#808080" style="font-size:12px">0-7</text>
<text text-anchor="start" x="862.0" y="117.0" fill="#808080" style="font-size:12px">0-3</text>
<text text-anchor="start" x="862.0" y="137.0" fill="#808080" style="font-size:12px">4-7</text>
<path d="M 848,118 L 852,118 L 852,142 L 848,142 Z" stroke="#000000" stroke-width="4.0" fill="#000000" fill-opacity="1.0"/>
<circle cx="840.0" cy="120.0" r="2.0" stroke="#0000b2" stroke-width="4.0" fill="#0000b2" />
<circle cx="860.0" cy="120.0" r="2.0" stroke="#b20000" stroke-width="4.0" fill="#b20000" />
<circle cx="860.0" cy="140.0" r="2.0" stroke="#b20000" stroke-width="4.0" fill="#b20000" />
</g>
</g>
</svg>