<?xml version="1.0" encoding="UTF-8" standalone="no"?>
<!-- Created with Digital by H.Neemann -->
<!-- created: Sat Aug 24 20:38:51 BRT 2024 -->

<svg
   xmlns:svg="http://www.w3.org/2000/svg"
   xmlns="http://www.w3.org/2000/svg"
   width="108.9mm"
   height="107.1mm"
   viewBox="431 163 726 714">
<g stroke-linecap="square">
<path d="M 580,480 L 760,480 L 760,500 L 800,500" stroke="#0000b2" stroke-width="4.0" fill="none"/>
<path d="M 920,380 L 920,480 L 1020,480 L 1020,800 L 580,800" stroke="#0000b2" stroke-width="4.0" fill="none"/>
<path d="M 940,260 L 1080,260" stroke="#0000b2" stroke-width="4.0" fill="none"/>
<path d="M 760,580 L 920,580" stroke="#0000b2" stroke-width="4.0" fill="none"/>
<path d="M 700,420 L 740,420" stroke="#0000b2" stroke-width="4.0" fill="none"/>
<path d="M 580,740 L 1000,740 L 1000,400" stroke="#0000b2" stroke-width="4.0" fill="none"/>
<path d="M 880,520 L 900,520 L 900,560 L 920,560" stroke="#0000b2" stroke-width="4.0" fill="none"/>
<path d="M 940,360 L 980,360" stroke="#0000b2" stroke-width="4.0" fill="none"/>
<path d="M 700,560 L 740,560" stroke="#0000b2" stroke-width="4.0" fill="none"/>
<path d="M 760,560 L 780,560 L 780,540" stroke="#0000b2" stroke-width="4.0" fill="none"/>
<path d="M 940,560 L 980,560 L 980,440 L 960,440 L 960,400 L 980,400" stroke="#0000b2" stroke-width="4.0" fill="none"/>
<path d="M 580,240 L 900,240" stroke="#0000b2" stroke-width="4.0" fill="none"/>
<path d="M 580,400 L 740,400" stroke="#0000b2" stroke-width="4.0" fill="none"/>
<path d="M 580,340 L 900,340" stroke="#0000b2" stroke-width="4.0" fill="none"/>
<path d="M 580,660 L 860,660 L 860,600 L 920,600" stroke="#0000b2" stroke-width="4.0" fill="none"/>
<path d="M 580,180 L 760,180 L 760,300 L 920,300 L 920,280" stroke="#0000b2" stroke-width="4.0" fill="none"/>
<path d="M 860,280 L 900,280" stroke="#0000b2" stroke-width="4.0" fill="none"/>
<path d="M 580,600 L 620,600 L 620,580 L 660,580" stroke="#0000b2" stroke-width="4.0" fill="none"/>
<path d="M 760,380 L 900,380" stroke="#0000b2" stroke-width="4.0" fill="none"/>
<path d="M 700,380 L 740,380" stroke="#0000b2" stroke-width="4.0" fill="none"/>
<path d="M 1020,380 L 1080,380" stroke="#0000b2" stroke-width="4.0" fill="none"/>
<path d="M 580,540 L 660,540" stroke="#0000b2" stroke-width="4.0" fill="none"/>
<path d="M 580,860 L 680,860 L 680,580" stroke="#0000b2" stroke-width="4.0" fill="none"/>
<path d="M 1080,460 L 780,460 L 780,540 L 800,540" stroke="#0000b2" stroke-width="4.0" fill="none"/>
<path d="M 740,560 L 750,560 L 760,560" stroke="#000000" stroke-width="4.0" fill="none"/>
<path d="M 760,580 L 750,580" stroke="#000000" stroke-width="4.0" fill="none"/>
<path d="M 920,560 L 930,560 L 940,560" stroke="#000000" stroke-width="4.0" fill="none"/>
<path d="M 920,580 L 930,580" stroke="#000000" stroke-width="4.0" fill="none"/>
<path d="M 920,600 L 930,600" stroke="#000000" stroke-width="4.0" fill="none"/>
<path d="M 740,380 L 750,380 L 760,380" stroke="#000000" stroke-width="4.0" fill="none"/>
<path d="M 740,400 L 750,400" stroke="#000000" stroke-width="4.0" fill="none"/>
<path d="M 740,420 L 750,420" stroke="#000000" stroke-width="4.0" fill="none"/>
<g>
<circle cx="780.0" cy="540.0" r="4.0" stroke="#0000b2" stroke-width="4.0" fill="#0000b2" />
</g>
<g>
<circle cx="1096.0" cy="260.0" r="9.0" stroke="#000000" stroke-width="4.0" fill="none" />
<circle cx="1096.0" cy="260.0" r="15.0" stroke="#000000" stroke-width="4.0" fill="none" />
<text text-anchor="start" x="1125.0" y="269.0" fill="#000000" style="font-size:24px"><tspan style="font-style:italic;">A</tspan></text>
<circle cx="1080.0" cy="260.0" r="2.0" stroke="#0000b2" stroke-width="4.0" fill="#0000b2" />
</g>
<g>
<circle cx="1096.0" cy="380.0" r="9.0" stroke="#000000" stroke-width="4.0" fill="none" />
<circle cx="1096.0" cy="380.0" r="15.0" stroke="#000000" stroke-width="4.0" fill="none" />
<text text-anchor="start" x="1125.0" y="389.0" fill="#000000" style="font-size:24px"><tspan style="font-style:italic;">B</tspan></text>
<circle cx="1080.0" cy="380.0" r="2.0" stroke="#0000b2" stroke-width="4.0" fill="#0000b2" />
</g>
<g>
<path d="M 549,225 L 579,225 L 579,255 L 549,255 Z" stroke="#000000" stroke-width="4.0" fill="none"/>
<circle cx="564.0" cy="240.0" r="9.0" stroke="#000000" stroke-width="4.0" fill="none" />
<text text-anchor="end" x="535.0" y="249.0" fill="#000000" style="font-size:24px"><tspan style="font-style:italic;">Da</tspan></text>
<circle cx="580.0" cy="240.0" r="2.0" stroke="#b20000" stroke-width="4.0" fill="#b20000" />
</g>
<g>
<path d="M 549,325 L 579,325 L 579,355 L 549,355 Z" stroke="#000000" stroke-width="4.0" fill="none"/>
<circle cx="564.0" cy="340.0" r="9.0" stroke="#000000" stroke-width="4.0" fill="none" />
<text text-anchor="end" x="535.0" y="349.0" fill="#000000" style="font-size:24px"><tspan style="font-style:italic;">Db</tspan></text>
<circle cx="580.0" cy="340.0" r="2.0" stroke="#b20000" stroke-width="4.0" fill="#b20000" />
</g>
<g>
<path d="M 901,236 L 939,245 L 939,275 L 901,284 Z" stroke="#000000" stroke-width="4.0" fill="none"/>
<text text-anchor="start" x="903.0" y="255.5" fill="#808080" style="font-size:18px">0</text>
<circle cx="920.0" cy="280.0" r="2.0" stroke="#0000b2" stroke-width="4.0" fill="#0000b2" />
<circle cx="900.0" cy="240.0" r="2.0" stroke="#0000b2" stroke-width="4.0" fill="#0000b2" />
<circle cx="900.0" cy="280.0" r="2.0" stroke="#0000b2" stroke-width="4.0" fill="#0000b2" />
<circle cx="940.0" cy="260.0" r="2.0" stroke="#b20000" stroke-width="4.0" fill="#b20000" />
</g>
<g>
<text text-anchor="end" x="857.0" y="289.0" fill="#000000" style="font-size:24px">0</text>
<circle cx="860.0" cy="280.0" r="2.0" stroke="#b20000" stroke-width="4.0" fill="#b20000" />
</g>
<g>
<path d="M 549,645 L 579,645 L 579,675 L 549,675 Z" stroke="#000000" stroke-width="4.0" fill="none"/>
<circle cx="564.0" cy="660.0" r="9.0" stroke="#000000" stroke-width="4.0" fill="none" />
<text text-anchor="end" x="535.0" y="669.0" fill="#000000" style="font-size:24px"><tspan style="font-style:italic;">topImm</tspan></text>
<circle cx="580.0" cy="660.0" r="2.0" stroke="#b20000" stroke-width="4.0" fill="#b20000" />
</g>
<g>
<path d="M 549,585 L 579,585 L 579,615 L 549,615 Z" stroke="#000000" stroke-width="4.0" fill="none"/>
<circle cx="564.0" cy="600.0" r="9.0" stroke="#000000" stroke-width="4.0" fill="none" />
<text text-anchor="end" x="535.0" y="609.0" fill="#000000" style="font-size:24px"><tspan style="font-style:italic;">rD</tspan></text>
<circle cx="580.0" cy="600.0" r="2.0" stroke="#b20000" stroke-width="4.0" fill="#b20000" />
</g>
<g>
<path d="M 549,525 L 579,525 L 579,555 L 549,555 Z" stroke="#000000" stroke-width="4.0" fill="none"/>
<circle cx="564.0" cy="540.0" r="9.0" stroke="#000000" stroke-width="4.0" fill="none" />
<text text-anchor="end" x="535.0" y="549.0" fill="#000000" style="font-size:24px"><tspan style="font-style:italic;">rS2</tspan></text>
<circle cx="580.0" cy="540.0" r="2.0" stroke="#b20000" stroke-width="4.0" fill="#b20000" />
</g>
<g>
<path d="M 661,536 L 699,545 L 699,575 L 661,584 Z" stroke="#000000" stroke-width="4.0" fill="none"/>
<text text-anchor="start" x="663.0" y="555.5" fill="#808080" style="font-size:18px">0</text>
<circle cx="680.0" cy="580.0" r="2.0" stroke="#0000b2" stroke-width="4.0" fill="#0000b2" />
<circle cx="660.0" cy="540.0" r="2.0" stroke="#0000b2" stroke-width="4.0" fill="#0000b2" />
<circle cx="660.0" cy="580.0" r="2.0" stroke="#0000b2" stroke-width="4.0" fill="#0000b2" />
<circle cx="700.0" cy="560.0" r="2.0" stroke="#b20000" stroke-width="4.0" fill="#b20000" />
</g>
<g>
<text text-anchor="end" x="738.0" y="557.0" fill="#808080" style="font-size:12px">0-3</text>
<text text-anchor="start" x="762.0" y="557.0" fill="#808080" style="font-size:12px">0</text>
<text text-anchor="start" x="762.0" y="577.0" fill="#808080" style="font-size:12px">1-3</text>
<path d="M 748,558 L 752,558 L 752,582 L 748,582 Z" stroke="#000000" stroke-width="4.0" fill="#000000" fill-opacity="1.0"/>
<circle cx="740.0" cy="560.0" r="2.0" stroke="#0000b2" stroke-width="4.0" fill="#0000b2" />
<circle cx="760.0" cy="560.0" r="2.0" stroke="#b20000" stroke-width="4.0" fill="#b20000" />
<circle cx="760.0" cy="580.0" r="2.0" stroke="#b20000" stroke-width="4.0" fill="#b20000" />
</g>
<g>
<text text-anchor="end" x="918.0" y="557.0" fill="#808080" style="font-size:12px">0</text>
<text text-anchor="end" x="918.0" y="577.0" fill="#808080" style="font-size:12px">1-3</text>
<text text-anchor="end" x="918.0" y="597.0" fill="#808080" style="font-size:12px">4-15</text>
<text text-anchor="start" x="942.0" y="557.0" fill="#808080" style="font-size:12px">0-15</text>
<path d="M 928,558 L 932,558 L 932,602 L 928,602 Z" stroke="#000000" stroke-width="4.0" fill="#000000" fill-opacity="1.0"/>
<circle cx="920.0" cy="560.0" r="2.0" stroke="#0000b2" stroke-width="4.0" fill="#0000b2" />
<circle cx="920.0" cy="580.0" r="2.0" stroke="#0000b2" stroke-width="4.0" fill="#0000b2" />
<circle cx="920.0" cy="600.0" r="2.0" stroke="#0000b2" stroke-width="4.0" fill="#0000b2" />
<circle cx="940.0" cy="560.0" r="2.0" stroke="#b20000" stroke-width="4.0" fill="#b20000" />
</g>
<g>
<path d="M 850,550 L 801,550 L 801,490 L 850,490 C 860,490 880,500 879,520 C 879,540 860,550 850,550 Z" stroke="#000000" stroke-width="4.0" fill="none"/>
<circle cx="800.0" cy="500.0" r="2.0" stroke="#0000b2" stroke-width="4.0" fill="#0000b2" />
<circle cx="800.0" cy="540.0" r="2.0" stroke="#0000b2" stroke-width="4.0" fill="#0000b2" />
<circle cx="880.0" cy="520.0" r="2.0" stroke="#b20000" stroke-width="4.0" fill="#b20000" />
</g>
<g>
<path d="M 549,465 L 579,465 L 579,495 L 549,495 Z" stroke="#000000" stroke-width="4.0" fill="none"/>
<circle cx="564.0" cy="480.0" r="9.0" stroke="#000000" stroke-width="4.0" fill="none" />
<text text-anchor="end" x="535.0" y="489.0" fill="#000000" style="font-size:24px"><tspan style="font-style:italic;">even</tspan></text>
<circle cx="580.0" cy="480.0" r="2.0" stroke="#b20000" stroke-width="4.0" fill="#b20000" />
</g>
<g>
<circle cx="1096.0" cy="460.0" r="9.0" stroke="#000000" stroke-width="4.0" fill="none" />
<circle cx="1096.0" cy="460.0" r="15.0" stroke="#000000" stroke-width="4.0" fill="none" />
<text text-anchor="start" x="1125.0" y="469.0" fill="#000000" style="font-size:24px"><tspan style="font-style:italic;">alt</tspan></text>
<circle cx="1080.0" cy="460.0" r="2.0" stroke="#0000b2" stroke-width="4.0" fill="#0000b2" />
</g>
<g>
<path d="M 901,336 L 939,345 L 939,375 L 901,384 Z" stroke="#000000" stroke-width="4.0" fill="none"/>
<text text-anchor="start" x="903.0" y="355.5" fill="#808080" style="font-size:18px">0</text>
<circle cx="920.0" cy="380.0" r="2.0" stroke="#0000b2" stroke-width="4.0" fill="#0000b2" />
<circle cx="900.0" cy="340.0" r="2.0" stroke="#0000b2" stroke-width="4.0" fill="#0000b2" />
<circle cx="900.0" cy="380.0" r="2.0" stroke="#0000b2" stroke-width="4.0" fill="#0000b2" />
<circle cx="940.0" cy="360.0" r="2.0" stroke="#b20000" stroke-width="4.0" fill="#b20000" />
</g>
<g>
<text text-anchor="end" x="738.0" y="377.0" fill="#808080" style="font-size:12px">0</text>
<text text-anchor="end" x="738.0" y="397.0" fill="#808080" style="font-size:12px">1</text>
<text text-anchor="end" x="738.0" y="417.0" fill="#808080" style="font-size:12px">2-15</text>
<text text-anchor="start" x="762.0" y="377.0" fill="#808080" style="font-size:12px">0-15</text>
<path d="M 748,378 L 752,378 L 752,422 L 748,422 Z" stroke="#000000" stroke-width="4.0" fill="#000000" fill-opacity="1.0"/>
<circle cx="740.0" cy="380.0" r="2.0" stroke="#0000b2" stroke-width="4.0" fill="#0000b2" />
<circle cx="740.0" cy="400.0" r="2.0" stroke="#0000b2" stroke-width="4.0" fill="#0000b2" />
<circle cx="740.0" cy="420.0" r="2.0" stroke="#0000b2" stroke-width="4.0" fill="#0000b2" />
<circle cx="760.0" cy="380.0" r="2.0" stroke="#b20000" stroke-width="4.0" fill="#b20000" />
</g>
<g>
<text text-anchor="end" x="697.0" y="389.0" fill="#000000" style="font-size:24px">0</text>
<circle cx="700.0" cy="380.0" r="2.0" stroke="#b20000" stroke-width="4.0" fill="#b20000" />
</g>
<g>
<text text-anchor="end" x="697.0" y="429.0" fill="#000000" style="font-size:24px">0</text>
<circle cx="700.0" cy="420.0" r="2.0" stroke="#b20000" stroke-width="4.0" fill="#b20000" />
</g>
<g>
<path d="M 981,356 L 1019,365 L 1019,395 L 981,404 Z" stroke="#000000" stroke-width="4.0" fill="none"/>
<text text-anchor="start" x="983.0" y="375.5" fill="#808080" style="font-size:18px">0</text>
<circle cx="1000.0" cy="400.0" r="2.0" stroke="#0000b2" stroke-width="4.0" fill="#0000b2" />
<circle cx="980.0" cy="360.0" r="2.0" stroke="#0000b2" stroke-width="4.0" fill="#0000b2" />
<circle cx="980.0" cy="400.0" r="2.0" stroke="#0000b2" stroke-width="4.0" fill="#0000b2" />
<circle cx="1020.0" cy="380.0" r="2.0" stroke="#b20000" stroke-width="4.0" fill="#b20000" />
</g>
<g>
<path d="M 549,385 L 579,385 L 579,415 L 549,415 Z" stroke="#000000" stroke-width="4.0" fill="none"/>
<circle cx="564.0" cy="400.0" r="9.0" stroke="#000000" stroke-width="4.0" fill="none" />
<text text-anchor="end" x="535.0" y="409.0" fill="#000000" style="font-size:24px"><tspan style="font-style:italic;">const2</tspan></text>
<circle cx="580.0" cy="400.0" r="2.0" stroke="#b20000" stroke-width="4.0" fill="#b20000" />
</g>
<g>
<path d="M 549,725 L 579,725 L 579,755 L 549,755 Z" stroke="#000000" stroke-width="4.0" fill="none"/>
<circle cx="564.0" cy="740.0" r="9.0" stroke="#000000" stroke-width="4.0" fill="none" />
<text text-anchor="end" x="535.0" y="749.0" fill="#000000" style="font-size:24px"><tspan style="font-style:italic;">selImm</tspan></text>
<circle cx="580.0" cy="740.0" r="2.0" stroke="#b20000" stroke-width="4.0" fill="#b20000" />
</g>
<g>
<path d="M 549,785 L 579,785 L 579,815 L 549,815 Z" stroke="#000000" stroke-width="4.0" fill="none"/>
<circle cx="564.0" cy="800.0" r="9.0" stroke="#000000" stroke-width="4.0" fill="none" />
<text text-anchor="end" x="535.0" y="809.0" fill="#000000" style="font-size:24px"><tspan style="font-style:italic;">selConst</tspan></text>
<circle cx="580.0" cy="800.0" r="2.0" stroke="#b20000" stroke-width="4.0" fill="#b20000" />
</g>
<g>
<path d="M 549,165 L 579,165 L 579,195 L 549,195 Z" stroke="#000000" stroke-width="4.0" fill="none"/>
<circle cx="564.0" cy="180.0" r="9.0" stroke="#000000" stroke-width="4.0" fill="none" />
<text text-anchor="end" x="535.0" y="189.0" fill="#000000" style="font-size:24px"><tspan style="font-style:italic;">Azero</tspan></text>
<circle cx="580.0" cy="180.0" r="2.0" stroke="#b20000" stroke-width="4.0" fill="#b20000" />
</g>
<g>
<path d="M 549,845 L 579,845 L 579,875 L 549,875 Z" stroke="#000000" stroke-width="4.0" fill="none"/>
<circle cx="564.0" cy="860.0" r="9.0" stroke="#000000" stroke-width="4.0" fill="none" />
<text text-anchor="end" x="535.0" y="869.0" fill="#000000" style="font-size:24px"><tspan style="font-style:italic;">immLow</tspan></text>
<circle cx="580.0" cy="860.0" r="2.0" stroke="#b20000" stroke-width="4.0" fill="#b20000" />
</g>
</g>
</svg>