<?xml version="1.0" encoding="UTF-8" standalone="no"?>
<!-- Created with Digital by H.Neemann -->
<!-- created: Sat Aug 24 20:43:45 BRT 2024 -->

<svg
   xmlns:svg="http://www.w3.org/2000/svg"
   xmlns="http://www.w3.org/2000/svg"
   width="189.45mm"
   height="176.1mm"
   viewBox="152 203 1263 1174">
<g stroke-linecap="square">
<path d="M 420,640 L 460,640" stroke="#0000b2" stroke-width="4.0" fill="none"/>
<path d="M 520,640 L 1260,640" stroke="#0000b2" stroke-width="4.0" fill="none"/>
<path d="M 280,960 L 340,960" stroke="#0000b2" stroke-width="4.0" fill="none"/>
<path d="M 780,1280 L 820,1280 L 820,1300 L 840,1300" stroke="#0000b2" stroke-width="4.0" fill="none"/>
<path d="M 700,580 L 780,580 L 780,1060 L 1080,1060" stroke="#0000b2" stroke-width="4.0" fill="none"/>
<path d="M 280,900 L 340,900" stroke="#0000b2" stroke-width="4.0" fill="none"/>
<path d="M 520,520 L 580,520" stroke="#0000b2" stroke-width="4.0" fill="none"/>
<path d="M 600,520 L 640,520 L 640,420 L 680,420" stroke="#0000b2" stroke-width="4.0" fill="none"/>
<path d="M 520,780 L 640,780 L 640,1020 L 320,1020 L 320,980 L 360,980" stroke="#0000b2" stroke-width="4.0" fill="none"/>
<path d="M 700,460 L 740,460" stroke="#0000b2" stroke-width="4.0" fill="none"/>
<path d="M 260,400 L 320,400 L 320,860 L 480,860 L 480,920 L 520,920 L 527,920" stroke="#0000b2" stroke-width="4.0" fill="none"/>
<path d="M 260,340 L 440,340 L 440,520 L 460,520" stroke="#0000b2" stroke-width="4.0" fill="none"/>
<path d="M 440,520 L 440,660 L 460,660" stroke="#0000b2" stroke-width="4.0" fill="none"/>
<path d="M 360,660 L 380,660" stroke="#0000b2" stroke-width="4.0" fill="none"/>
<path d="M 780,1300 L 800,1300 L 800,1320 L 840,1320" stroke="#0000b2" stroke-width="4.0" fill="none"/>
<path d="M 280,920 L 340,920" stroke="#0000b2" stroke-width="4.0" fill="none"/>
<path d="M 600,920 L 620,920 L 620,840 L 420,840 L 420,780 L 460,780" stroke="#0000b2" stroke-width="4.0" fill="none"/>
<path d="M 780,1240 L 840,1240" stroke="#0000b2" stroke-width="4.0" fill="none"/>
<path d="M 740,1180 L 740,1240 L 760,1240" stroke="#0000b2" stroke-width="4.0" fill="none"/>
<path d="M 600,540 L 640,540 L 680,540" stroke="#0000b2" stroke-width="4.0" fill="none"/>
<path d="M 700,540 L 740,540 L 740,1180 L 1260,1180" stroke="#0000b2" stroke-width="4.0" fill="none"/>
<path d="M 440,660 L 440,800 L 460,800" stroke="#0000b2" stroke-width="4.0" fill="none"/>
<path d="M 1060,1120 L 1260,1120" stroke="#0000b2" stroke-width="4.0" fill="none"/>
<path d="M 700,480 L 740,480" stroke="#0000b2" stroke-width="4.0" fill="none"/>
<path d="M 1180,1060 L 1260,1060" stroke="#0000b2" stroke-width="4.0" fill="none"/>
<path d="M 700,420 L 740,420" stroke="#0000b2" stroke-width="4.0" fill="none"/>
<path d="M 440,940 L 520,940 L 524,940" stroke="#0000b2" stroke-width="4.0" fill="none"/>
<path d="M 280,940 L 340,940" stroke="#0000b2" stroke-width="4.0" fill="none"/>
<path d="M 780,1260 L 840,1260" stroke="#0000b2" stroke-width="4.0" fill="none"/>
<path d="M 700,560 L 760,560 L 760,1120 L 960,1120" stroke="#0000b2" stroke-width="4.0" fill="none"/>
<path d="M 260,500 L 300,500 L 460,500" stroke="#0000b2" stroke-width="4.0" fill="none"/>
<path d="M 700,440 L 740,440" stroke="#0000b2" stroke-width="4.0" fill="none"/>
<path d="M 640,540 L 640,580 L 360,580 L 360,620 L 380,620" stroke="#0000b2" stroke-width="4.0" fill="none"/>
<path d="M 524,900 L 520,900 L 500,900 L 500,860 L 560,860 L 560,800 L 520,800" stroke="#0000b2" stroke-width="4.0" fill="none"/>
<path d="M 260,900 L 220,900 L 220,840 L 300,840 L 300,500" stroke="#0000b2" stroke-width="4.0" fill="none"/>
<path d="M 580,520 L 590,520 L 600,520" stroke="#000000" stroke-width="4.0" fill="none"/>
<path d="M 600,540 L 590,540" stroke="#000000" stroke-width="4.0" fill="none"/>
<path d="M 680,540 L 690,540 L 700,540" stroke="#000000" stroke-width="4.0" fill="none"/>
<path d="M 700,560 L 690,560" stroke="#000000" stroke-width="4.0" fill="none"/>
<path d="M 700,580 L 690,580" stroke="#000000" stroke-width="4.0" fill="none"/>
<path d="M 361,900 L 361,909" stroke="#000000" stroke-width="4.0" fill="none"/>
<path d="M 361,980 L 361,971" stroke="#000000" stroke-width="4.0" fill="none"/>
<path d="M 260,900 L 270,900 L 280,900" stroke="#000000" stroke-width="4.0" fill="none"/>
<path d="M 280,920 L 270,920" stroke="#000000" stroke-width="4.0" fill="none"/>
<path d="M 280,940 L 270,940" stroke="#000000" stroke-width="4.0" fill="none"/>
<path d="M 280,960 L 270,960" stroke="#000000" stroke-width="4.0" fill="none"/>
<path d="M 280,980 L 270,980" stroke="#000000" stroke-width="4.0" fill="none"/>
<path d="M 680,420 L 690,420 L 700,420" stroke="#000000" stroke-width="4.0" fill="none"/>
<path d="M 700,440 L 690,440" stroke="#000000" stroke-width="4.0" fill="none"/>
<path d="M 700,460 L 690,460" stroke="#000000" stroke-width="4.0" fill="none"/>
<path d="M 700,480 L 690,480" stroke="#000000" stroke-width="4.0" fill="none"/>
<path d="M 861,1240 L 861,1249" stroke="#000000" stroke-width="4.0" fill="none"/>
<path d="M 861,1320 L 861,1311" stroke="#000000" stroke-width="4.0" fill="none"/>
<path d="M 760,1240 L 770,1240 L 780,1240" stroke="#000000" stroke-width="4.0" fill="none"/>
<path d="M 780,1260 L 770,1260" stroke="#000000" stroke-width="4.0" fill="none"/>
<path d="M 780,1280 L 770,1280" stroke="#000000" stroke-width="4.0" fill="none"/>
<path d="M 780,1300 L 770,1300" stroke="#000000" stroke-width="4.0" fill="none"/>
<g>
<circle cx="440.0" cy="520.0" r="4.0" stroke="#0000b2" stroke-width="4.0" fill="#0000b2" />
<circle cx="440.0" cy="660.0" r="4.0" stroke="#0000b2" stroke-width="4.0" fill="#0000b2" />
<circle cx="640.0" cy="540.0" r="4.0" stroke="#0000b2" stroke-width="4.0" fill="#0000b2" />
<circle cx="740.0" cy="1180.0" r="4.0" stroke="#0000b2" stroke-width="4.0" fill="#0000b2" />
<circle cx="300.0" cy="500.0" r="4.0" stroke="#0000b2" stroke-width="4.0" fill="#0000b2" />
</g>
<g>
<path d="M 229,325 L 259,325 L 259,355 L 229,355 Z" stroke="#000000" stroke-width="4.0" fill="none"/>
<circle cx="244.0" cy="340.0" r="9.0" stroke="#000000" stroke-width="4.0" fill="none" />
<text text-anchor="end" x="215.0" y="349.0" fill="#000000" style="font-size:24px"><tspan style="font-style:italic;">clock</tspan></text>
<circle cx="260.0" cy="340.0" r="2.0" stroke="#b20000" stroke-width="4.0" fill="#b20000" />
</g>
<g>
<path d="M 229,385 L 259,385 L 259,415 L 229,415 Z" stroke="#000000" stroke-width="4.0" fill="none"/>
<circle cx="244.0" cy="400.0" r="9.0" stroke="#000000" stroke-width="4.0" fill="none" />
<text text-anchor="end" x="215.0" y="409.0" fill="#000000" style="font-size:24px"><tspan style="font-style:italic;">reset</tspan></text>
<circle cx="260.0" cy="400.0" r="2.0" stroke="#b20000" stroke-width="4.0" fill="#b20000" />
</g>
<g>
<path d="M 229,485 L 259,485 L 259,515 L 229,515 Z" stroke="#000000" stroke-width="4.0" fill="none"/>
<circle cx="244.0" cy="500.0" r="9.0" stroke="#000000" stroke-width="4.0" fill="none" />
<text text-anchor="end" x="215.0" y="509.0" fill="#000000" style="font-size:24px"><tspan style="font-style:italic;">dIn</tspan></text>
<circle cx="260.0" cy="500.0" r="2.0" stroke="#b20000" stroke-width="4.0" fill="#b20000" />
</g>
<g>
<path d="M 229,585 L 259,585 L 259,615 L 229,615 Z" stroke="#000000" stroke-width="4.0" fill="none"/>
<circle cx="244.0" cy="600.0" r="9.0" stroke="#000000" stroke-width="4.0" fill="none" />
<text text-anchor="end" x="215.0" y="609.0" fill="#000000" style="font-size:24px"><tspan style="font-style:italic;">alt</tspan></text>
<circle cx="260.0" cy="600.0" r="2.0" stroke="#b20000" stroke-width="4.0" fill="#b20000" />
</g>
<g>
<path d="M 229,665 L 259,665 L 259,695 L 229,695 Z" stroke="#000000" stroke-width="4.0" fill="none"/>
<circle cx="244.0" cy="680.0" r="9.0" stroke="#000000" stroke-width="4.0" fill="none" />
<text text-anchor="end" x="215.0" y="689.0" fill="#000000" style="font-size:24px"><tspan style="font-style:italic;">NE</tspan></text>
<circle cx="260.0" cy="680.0" r="2.0" stroke="#b20000" stroke-width="4.0" fill="#b20000" />
</g>
<g>
<path d="M 229,725 L 259,725 L 259,755 L 229,755 Z" stroke="#000000" stroke-width="4.0" fill="none"/>
<circle cx="244.0" cy="740.0" r="9.0" stroke="#000000" stroke-width="4.0" fill="none" />
<text text-anchor="end" x="215.0" y="749.0" fill="#000000" style="font-size:24px"><tspan style="font-style:italic;">GE</tspan></text>
<circle cx="260.0" cy="740.0" r="2.0" stroke="#b20000" stroke-width="4.0" fill="#b20000" />
</g>
<g>
<circle cx="1276.0" cy="220.0" r="9.0" stroke="#000000" stroke-width="4.0" fill="none" />
<circle cx="1276.0" cy="220.0" r="15.0" stroke="#000000" stroke-width="4.0" fill="none" />
<text text-anchor="start" x="1305.0" y="229.0" fill="#000000" style="font-size:24px"><tspan style="font-style:italic;">wr</tspan></text>
<circle cx="1260.0" cy="220.0" r="2.0" stroke="#0000b2" stroke-width="4.0" fill="#0000b2" />
</g>
<g>
<circle cx="1276.0" cy="280.0" r="9.0" stroke="#000000" stroke-width="4.0" fill="none" />
<circle cx="1276.0" cy="280.0" r="15.0" stroke="#000000" stroke-width="4.0" fill="none" />
<text text-anchor="start" x="1305.0" y="289.0" fill="#000000" style="font-size:24px"><tspan style="font-style:italic;">rd</tspan></text>
<circle cx="1260.0" cy="280.0" r="2.0" stroke="#0000b2" stroke-width="4.0" fill="#0000b2" />
</g>
<g>
<circle cx="1276.0" cy="340.0" r="9.0" stroke="#000000" stroke-width="4.0" fill="none" />
<circle cx="1276.0" cy="340.0" r="15.0" stroke="#000000" stroke-width="4.0" fill="none" />
<text text-anchor="start" x="1305.0" y="349.0" fill="#000000" style="font-size:24px"><tspan style="font-style:italic;">sign</tspan></text>
<circle cx="1260.0" cy="340.0" r="2.0" stroke="#0000b2" stroke-width="4.0" fill="#0000b2" />
</g>
<g>
<circle cx="1276.0" cy="400.0" r="9.0" stroke="#000000" stroke-width="4.0" fill="none" />
<circle cx="1276.0" cy="400.0" r="15.0" stroke="#000000" stroke-width="4.0" fill="none" />
<text text-anchor="start" x="1305.0" y="409.0" fill="#000000" style="font-size:24px"><tspan style="font-style:italic;">word</tspan></text>
<circle cx="1260.0" cy="400.0" r="2.0" stroke="#0000b2" stroke-width="4.0" fill="#0000b2" />
</g>
<g>
<circle cx="1276.0" cy="460.0" r="9.0" stroke="#000000" stroke-width="4.0" fill="none" />
<circle cx="1276.0" cy="460.0" r="15.0" stroke="#000000" stroke-width="4.0" fill="none" />
<text text-anchor="start" x="1305.0" y="469.0" fill="#000000" style="font-size:24px"><tspan style="font-style:italic;">sub</tspan></text>
<circle cx="1260.0" cy="460.0" r="2.0" stroke="#0000b2" stroke-width="4.0" fill="#0000b2" />
</g>
<g>
<circle cx="1276.0" cy="520.0" r="9.0" stroke="#000000" stroke-width="4.0" fill="none" />
<circle cx="1276.0" cy="520.0" r="15.0" stroke="#000000" stroke-width="4.0" fill="none" />
<text text-anchor="start" x="1305.0" y="529.0" fill="#000000" style="font-size:24px"><tspan style="font-style:italic;">logic</tspan></text>
<circle cx="1260.0" cy="520.0" r="2.0" stroke="#0000b2" stroke-width="4.0" fill="#0000b2" />
</g>
<g>
<circle cx="1276.0" cy="580.0" r="9.0" stroke="#000000" stroke-width="4.0" fill="none" />
<circle cx="1276.0" cy="580.0" r="15.0" stroke="#000000" stroke-width="4.0" fill="none" />
<text text-anchor="start" x="1305.0" y="589.0" fill="#000000" style="font-size:24px"><tspan style="font-style:italic;">logSelect</tspan></text>
<circle cx="1260.0" cy="580.0" r="2.0" stroke="#0000b2" stroke-width="4.0" fill="#0000b2" />
</g>
<g>
<circle cx="1276.0" cy="640.0" r="9.0" stroke="#000000" stroke-width="4.0" fill="none" />
<circle cx="1276.0" cy="640.0" r="15.0" stroke="#000000" stroke-width="4.0" fill="none" />
<text text-anchor="start" x="1305.0" y="649.0" fill="#000000" style="font-size:24px"><tspan style="font-style:italic;">topImm</tspan></text>
<circle cx="1260.0" cy="640.0" r="2.0" stroke="#0000b2" stroke-width="4.0" fill="#0000b2" />
</g>
<g>
<circle cx="1276.0" cy="700.0" r="9.0" stroke="#000000" stroke-width="4.0" fill="none" />
<circle cx="1276.0" cy="700.0" r="15.0" stroke="#000000" stroke-width="4.0" fill="none" />
<text text-anchor="start" x="1305.0" y="709.0" fill="#000000" style="font-size:24px"><tspan style="font-style:italic;">even</tspan></text>
<circle cx="1260.0" cy="700.0" r="2.0" stroke="#0000b2" stroke-width="4.0" fill="#0000b2" />
</g>
<g>
<circle cx="1276.0" cy="760.0" r="9.0" stroke="#000000" stroke-width="4.0" fill="none" />
<circle cx="1276.0" cy="760.0" r="15.0" stroke="#000000" stroke-width="4.0" fill="none" />
<text text-anchor="start" x="1305.0" y="769.0" fill="#000000" style="font-size:24px"><tspan style="font-style:italic;">const2</tspan></text>
<circle cx="1260.0" cy="760.0" r="2.0" stroke="#0000b2" stroke-width="4.0" fill="#0000b2" />
</g>
<g>
<circle cx="1276.0" cy="820.0" r="9.0" stroke="#000000" stroke-width="4.0" fill="none" />
<circle cx="1276.0" cy="820.0" r="15.0" stroke="#000000" stroke-width="4.0" fill="none" />
<text text-anchor="start" x="1305.0" y="829.0" fill="#000000" style="font-size:24px"><tspan style="font-style:italic;">selImm</tspan></text>
<circle cx="1260.0" cy="820.0" r="2.0" stroke="#0000b2" stroke-width="4.0" fill="#0000b2" />
</g>
<g>
<circle cx="1276.0" cy="880.0" r="9.0" stroke="#000000" stroke-width="4.0" fill="none" />
<circle cx="1276.0" cy="880.0" r="15.0" stroke="#000000" stroke-width="4.0" fill="none" />
<text text-anchor="start" x="1305.0" y="889.0" fill="#000000" style="font-size:24px"><tspan style="font-style:italic;">selConst</tspan></text>
<circle cx="1260.0" cy="880.0" r="2.0" stroke="#0000b2" stroke-width="4.0" fill="#0000b2" />
</g>
<g>
<circle cx="1276.0" cy="940.0" r="9.0" stroke="#000000" stroke-width="4.0" fill="none" />
<circle cx="1276.0" cy="940.0" r="15.0" stroke="#000000" stroke-width="4.0" fill="none" />
<text text-anchor="start" x="1305.0" y="949.0" fill="#000000" style="font-size:24px"><tspan style="font-style:italic;">Azero</tspan></text>
<circle cx="1260.0" cy="940.0" r="2.0" stroke="#0000b2" stroke-width="4.0" fill="#0000b2" />
</g>
<g>
<circle cx="1276.0" cy="1000.0" r="9.0" stroke="#000000" stroke-width="4.0" fill="none" />
<circle cx="1276.0" cy="1000.0" r="15.0" stroke="#000000" stroke-width="4.0" fill="none" />
<text text-anchor="start" x="1305.0" y="1009.0" fill="#000000" style="font-size:24px"><tspan style="font-style:italic;">we</tspan></text>
<circle cx="1260.0" cy="1000.0" r="2.0" stroke="#0000b2" stroke-width="4.0" fill="#0000b2" />
</g>
<g>
<circle cx="1276.0" cy="1060.0" r="9.0" stroke="#000000" stroke-width="4.0" fill="none" />
<circle cx="1276.0" cy="1060.0" r="15.0" stroke="#000000" stroke-width="4.0" fill="none" />
<text text-anchor="start" x="1305.0" y="1069.0" fill="#000000" style="font-size:24px"><tspan style="font-style:italic;">Rw</tspan></text>
<circle cx="1260.0" cy="1060.0" r="2.0" stroke="#0000b2" stroke-width="4.0" fill="#0000b2" />
</g>
<g>
<circle cx="1276.0" cy="1120.0" r="9.0" stroke="#000000" stroke-width="4.0" fill="none" />
<circle cx="1276.0" cy="1120.0" r="15.0" stroke="#000000" stroke-width="4.0" fill="none" />
<text text-anchor="start" x="1305.0" y="1129.0" fill="#000000" style="font-size:24px"><tspan style="font-style:italic;">Ra</tspan></text>
<circle cx="1260.0" cy="1120.0" r="2.0" stroke="#0000b2" stroke-width="4.0" fill="#0000b2" />
</g>
<g>
<circle cx="1276.0" cy="1180.0" r="9.0" stroke="#000000" stroke-width="4.0" fill="none" />
<circle cx="1276.0" cy="1180.0" r="15.0" stroke="#000000" stroke-width="4.0" fill="none" />
<text text-anchor="start" x="1305.0" y="1189.0" fill="#000000" style="font-size:24px"><tspan style="font-style:italic;">Rb</tspan></text>
<circle cx="1260.0" cy="1180.0" r="2.0" stroke="#0000b2" stroke-width="4.0" fill="#0000b2" />
</g>
<g>
<circle cx="1276.0" cy="1240.0" r="9.0" stroke="#000000" stroke-width="4.0" fill="none" />
<circle cx="1276.0" cy="1240.0" r="15.0" stroke="#000000" stroke-width="4.0" fill="none" />
<text text-anchor="start" x="1305.0" y="1249.0" fill="#000000" style="font-size:24px"><tspan style="font-style:italic;">selRd</tspan></text>
<circle cx="1260.0" cy="1240.0" r="2.0" stroke="#0000b2" stroke-width="4.0" fill="#0000b2" />
</g>
<g>
<circle cx="1276.0" cy="1300.0" r="9.0" stroke="#000000" stroke-width="4.0" fill="none" />
<circle cx="1276.0" cy="1300.0" r="15.0" stroke="#000000" stroke-width="4.0" fill="none" />
<text text-anchor="start" x="1305.0" y="1309.0" fill="#000000" style="font-size:24px"><tspan style="font-style:italic;">slt</tspan></text>
<circle cx="1260.0" cy="1300.0" r="2.0" stroke="#0000b2" stroke-width="4.0" fill="#0000b2" />
</g>
<g>
<path d="M 461,490 L 519,490 L 519,550 L 461,550 Z" stroke="#000000" stroke-width="4.0" fill="none"/>
<text text-anchor="middle" x="490.0" y="482.0" fill="#000000" style="font-size:24px">IR</text>
<text text-anchor="start" x="464.0" y="506.75" fill="#808080" style="font-size:18px">D</text>
<path d="M 461,527 L 468,520 L 461,513" stroke="#000000" stroke-width="2.0" fill="none"/>
<text text-anchor="start" x="471.0" y="526.75" fill="#808080" style="font-size:18px">C</text>
<text text-anchor="start" x="464.0" y="546.75" fill="#808080" style="font-size:18px">en</text>
<text text-anchor="end" x="516.0" y="526.75" fill="#808080" style="font-size:18px">Q</text>
<text text-anchor="middle" x="490.0" y="567.5" fill="#808080" style="font-size:18px">Reg</text>
<circle cx="460.0" cy="500.0" r="2.0" stroke="#0000b2" stroke-width="4.0" fill="#0000b2" />
<circle cx="460.0" cy="520.0" r="2.0" stroke="#0000b2" stroke-width="4.0" fill="#0000b2" />
<circle cx="460.0" cy="540.0" r="2.0" stroke="#0000b2" stroke-width="4.0" fill="#0000b2" />
<circle cx="520.0" cy="520.0" r="2.0" stroke="#b20000" stroke-width="4.0" fill="#b20000" />
</g>
<g>
<path d="M 461,630 L 519,630 L 519,670 L 461,670 Z" stroke="#000000" stroke-width="4.0" fill="none"/>
<text text-anchor="middle" x="490.0" y="622.0" fill="#000000" style="font-size:24px">IM</text>
<text text-anchor="start" x="464.0" y="646.75" fill="#808080" style="font-size:18px">D</text>
<path d="M 461,667 L 468,660 L 461,653" stroke="#000000" stroke-width="2.0" fill="none"/>
<text text-anchor="start" x="471.0" y="666.75" fill="#808080" style="font-size:18px">C</text>
<text text-anchor="end" x="516.0" y="646.75" fill="#808080" style="font-size:18px">Q</text>
<text text-anchor="end" x="516.0" y="666.75" fill="#808080" style="font-size:18px"><tspan style="text-decoration:overline;">Q</tspan></text>
<text text-anchor="middle" x="490.0" y="687.5" fill="#808080" style="font-size:18px">D</text>
<circle cx="460.0" cy="640.0" r="2.0" stroke="#0000b2" stroke-width="4.0" fill="#0000b2" />
<circle cx="460.0" cy="660.0" r="2.0" stroke="#0000b2" stroke-width="4.0" fill="#0000b2" />
<circle cx="520.0" cy="640.0" r="2.0" stroke="#b20000" stroke-width="4.0" fill="#b20000" />
<circle cx="520.0" cy="660.0" r="2.0" stroke="#b20000" stroke-width="4.0" fill="#b20000" />
</g>
<g>
<text text-anchor="end" x="578.0" y="517.0" fill="#808080" style="font-size:12px">0-15</text>
<text text-anchor="start" x="602.0" y="517.0" fill="#808080" style="font-size:12px">0-3</text>
<text text-anchor="start" x="602.0" y="537.0" fill="#808080" style="font-size:12px">4-15</text>
<path d="M 588,518 L 592,518 L 592,542 L 588,542 Z" stroke="#000000" stroke-width="4.0" fill="#000000" fill-opacity="1.0"/>
<circle cx="580.0" cy="520.0" r="2.0" stroke="#0000b2" stroke-width="4.0" fill="#0000b2" />
<circle cx="600.0" cy="520.0" r="2.0" stroke="#b20000" stroke-width="4.0" fill="#b20000" />
<circle cx="600.0" cy="540.0" r="2.0" stroke="#b20000" stroke-width="4.0" fill="#b20000" />
</g>
<g>
<text text-anchor="end" x="678.0" y="537.0" fill="#808080" style="font-size:12px">0-11</text>
<text text-anchor="start" x="702.0" y="537.0" fill="#808080" style="font-size:12px">0-3</text>
<text text-anchor="start" x="702.0" y="557.0" fill="#808080" style="font-size:12px">4-7</text>
<text text-anchor="start" x="702.0" y="577.0" fill="#808080" style="font-size:12px">8-11</text>
<path d="M 688,538 L 692,538 L 692,582 L 688,582 Z" stroke="#000000" stroke-width="4.0" fill="#000000" fill-opacity="1.0"/>
<circle cx="680.0" cy="540.0" r="2.0" stroke="#0000b2" stroke-width="4.0" fill="#0000b2" />
<circle cx="700.0" cy="540.0" r="2.0" stroke="#b20000" stroke-width="4.0" fill="#b20000" />
<circle cx="700.0" cy="560.0" r="2.0" stroke="#b20000" stroke-width="4.0" fill="#b20000" />
<circle cx="700.0" cy="580.0" r="2.0" stroke="#b20000" stroke-width="4.0" fill="#b20000" />
</g>
<g>
<path d="M 381,616 L 419,625 L 419,655 L 381,664 Z" stroke="#000000" stroke-width="4.0" fill="none"/>
<text text-anchor="start" x="383.0" y="635.5" fill="#808080" style="font-size:18px">0</text>
<circle cx="400.0" cy="660.0" r="2.0" stroke="#0000b2" stroke-width="4.0" fill="#0000b2" />
<circle cx="380.0" cy="620.0" r="2.0" stroke="#0000b2" stroke-width="4.0" fill="#0000b2" />
<circle cx="380.0" cy="660.0" r="2.0" stroke="#0000b2" stroke-width="4.0" fill="#0000b2" />
<circle cx="420.0" cy="640.0" r="2.0" stroke="#b20000" stroke-width="4.0" fill="#b20000" />
</g>
<g>
<text text-anchor="end" x="357.0" y="669.0" fill="#000000" style="font-size:24px">0</text>
<circle cx="360.0" cy="660.0" r="2.0" stroke="#b20000" stroke-width="4.0" fill="#b20000" />
</g>
<g>
<path d="M 461,770 L 519,770 L 519,810 L 461,810 Z" stroke="#000000" stroke-width="4.0" fill="none"/>
<text text-anchor="middle" x="490.0" y="762.0" fill="#000000" style="font-size:24px">fetch</text>
<text text-anchor="start" x="464.0" y="786.75" fill="#808080" style="font-size:18px">D</text>
<path d="M 461,807 L 468,800 L 461,793" stroke="#000000" stroke-width="2.0" fill="none"/>
<text text-anchor="start" x="471.0" y="806.75" fill="#808080" style="font-size:18px">C</text>
<text text-anchor="end" x="516.0" y="786.75" fill="#808080" style="font-size:18px">Q</text>
<text text-anchor="end" x="516.0" y="806.75" fill="#808080" style="font-size:18px"><tspan style="text-decoration:overline;">Q</tspan></text>
<text text-anchor="middle" x="490.0" y="827.5" fill="#808080" style="font-size:18px">D</text>
<circle cx="460.0" cy="780.0" r="2.0" stroke="#0000b2" stroke-width="4.0" fill="#0000b2" />
<circle cx="460.0" cy="800.0" r="2.0" stroke="#0000b2" stroke-width="4.0" fill="#0000b2" />
<circle cx="520.0" cy="780.0" r="2.0" stroke="#b20000" stroke-width="4.0" fill="#b20000" />
<circle cx="520.0" cy="800.0" r="2.0" stroke="#b20000" stroke-width="4.0" fill="#b20000" />
</g>
<g>
<path d="M 550,950 L 520,950 C 530,934 530,906 520,890 L 540,890 C 570,890 590,900 600,920 C 590,940 570,950 550,950 Z" stroke="#000000" stroke-width="4.0" fill="none"/>
<circle cx="520.0" cy="900.0" r="2.0" stroke="#0000b2" stroke-width="4.0" fill="#0000b2" />
<circle cx="520.0" cy="920.0" r="2.0" stroke="#0000b2" stroke-width="4.0" fill="#0000b2" />
<circle cx="520.0" cy="940.0" r="2.0" stroke="#0000b2" stroke-width="4.0" fill="#0000b2" />
<circle cx="600.0" cy="920.0" r="2.0" stroke="#b20000" stroke-width="4.0" fill="#b20000" />
</g>
<g>
<path d="M 410,970 L 361,970 L 361,910 L 410,910 C 420,910 440,920 439,940 C 439,960 420,970 410,970 Z" stroke="#000000" stroke-width="4.0" fill="none"/>
<circle cx="350.0" cy="900.0" r="8.0" stroke="#000000" stroke-width="4.0" fill="none" />
<circle cx="350.0" cy="920.0" r="8.0" stroke="#000000" stroke-width="4.0" fill="none" />
<circle cx="350.0" cy="940.0" r="8.0" stroke="#000000" stroke-width="4.0" fill="none" />
<circle cx="350.0" cy="960.0" r="8.0" stroke="#000000" stroke-width="4.0" fill="none" />
<circle cx="340.0" cy="900.0" r="2.0" stroke="#0000b2" stroke-width="4.0" fill="#0000b2" />
<circle cx="340.0" cy="920.0" r="2.0" stroke="#0000b2" stroke-width="4.0" fill="#0000b2" />
<circle cx="340.0" cy="940.0" r="2.0" stroke="#0000b2" stroke-width="4.0" fill="#0000b2" />
<circle cx="340.0" cy="960.0" r="2.0" stroke="#0000b2" stroke-width="4.0" fill="#0000b2" />
<circle cx="360.0" cy="980.0" r="2.0" stroke="#0000b2" stroke-width="4.0" fill="#0000b2" />
<circle cx="440.0" cy="940.0" r="2.0" stroke="#b20000" stroke-width="4.0" fill="#b20000" />
</g>
<g>
<text text-anchor="end" x="258.0" y="897.0" fill="#808080" style="font-size:12px">0-15</text>
<text text-anchor="start" x="282.0" y="897.0" fill="#808080" style="font-size:12px">0</text>
<text text-anchor="start" x="282.0" y="917.0" fill="#808080" style="font-size:12px">1</text>
<text text-anchor="start" x="282.0" y="937.0" fill="#808080" style="font-size:12px">2</text>
<text text-anchor="start" x="282.0" y="957.0" fill="#808080" style="font-size:12px">3</text>
<text text-anchor="start" x="282.0" y="977.0" fill="#808080" style="font-size:12px">4-15</text>
<path d="M 268,898 L 272,898 L 272,982 L 268,982 Z" stroke="#000000" stroke-width="4.0" fill="#000000" fill-opacity="1.0"/>
<circle cx="260.0" cy="900.0" r="2.0" stroke="#0000b2" stroke-width="4.0" fill="#0000b2" />
<circle cx="280.0" cy="900.0" r="2.0" stroke="#b20000" stroke-width="4.0" fill="#b20000" />
<circle cx="280.0" cy="920.0" r="2.0" stroke="#b20000" stroke-width="4.0" fill="#b20000" />
<circle cx="280.0" cy="940.0" r="2.0" stroke="#b20000" stroke-width="4.0" fill="#b20000" />
<circle cx="280.0" cy="960.0" r="2.0" stroke="#b20000" stroke-width="4.0" fill="#b20000" />
<circle cx="280.0" cy="980.0" r="2.0" stroke="#b20000" stroke-width="4.0" fill="#b20000" />
</g>
<g>
<path d="M 1081,1046 L 1179,1046 L 1179,1094 L 1081,1094 Z" stroke="#ffffb4" stroke-width="0.0" fill="#ffffb4" fill-opacity="0.7843137254901961"/>
<path d="M 1081,1046 L 1179,1046 L 1179,1094 L 1081,1094 Z" stroke="#000000" stroke-width="4.0" fill="none"/>
<text text-anchor="start" x="1084.0" y="1066.75" fill="#808080" style="font-size:18px">rin</text>
<text text-anchor="start" x="1084.0" y="1086.75" fill="#808080" style="font-size:18px">pc</text>
<text text-anchor="end" x="1176.0" y="1066.75" fill="#808080" style="font-size:18px">rout</text>
<text text-anchor="end" x="1176.0" y="1086.75" fill="#808080" style="font-size:18px">z</text>
<text text-anchor="middle" x="1130.0" y="1111.5" fill="#808080" style="font-size:18px">r0</text>
<circle cx="1080.0" cy="1060.0" r="2.0" stroke="#0000b2" stroke-width="4.0" fill="#0000b2" />
<circle cx="1080.0" cy="1080.0" r="2.0" stroke="#0000b2" stroke-width="4.0" fill="#0000b2" />
<circle cx="1180.0" cy="1060.0" r="2.0" stroke="#b20000" stroke-width="4.0" fill="#b20000" />
<circle cx="1180.0" cy="1080.0" r="2.0" stroke="#b20000" stroke-width="4.0" fill="#b20000" />
</g>
<g>
<path d="M 961,1106 L 1059,1106 L 1059,1154 L 961,1154 Z" stroke="#ffffb4" stroke-width="0.0" fill="#ffffb4" fill-opacity="0.7843137254901961"/>
<path d="M 961,1106 L 1059,1106 L 1059,1154 L 961,1154 Z" stroke="#000000" stroke-width="4.0" fill="none"/>
<text text-anchor="start" x="964.0" y="1126.75" fill="#808080" style="font-size:18px">rin</text>
<text text-anchor="start" x="964.0" y="1146.75" fill="#808080" style="font-size:18px">pc</text>
<text text-anchor="end" x="1056.0" y="1126.75" fill="#808080" style="font-size:18px">rout</text>
<text text-anchor="end" x="1056.0" y="1146.75" fill="#808080" style="font-size:18px">z</text>
<text text-anchor="middle" x="1010.0" y="1171.5" fill="#808080" style="font-size:18px">r0</text>
<circle cx="960.0" cy="1120.0" r="2.0" stroke="#0000b2" stroke-width="4.0" fill="#0000b2" />
<circle cx="960.0" cy="1140.0" r="2.0" stroke="#0000b2" stroke-width="4.0" fill="#0000b2" />
<circle cx="1060.0" cy="1120.0" r="2.0" stroke="#b20000" stroke-width="4.0" fill="#b20000" />
<circle cx="1060.0" cy="1140.0" r="2.0" stroke="#b20000" stroke-width="4.0" fill="#b20000" />
</g>
<g>
<text text-anchor="end" x="678.0" y="417.0" fill="#808080" style="font-size:12px">0-3</text>
<text text-anchor="start" x="702.0" y="417.0" fill="#808080" style="font-size:12px">0</text>
<text text-anchor="start" x="702.0" y="437.0" fill="#808080" style="font-size:12px">1</text>
<text text-anchor="start" x="702.0" y="457.0" fill="#808080" style="font-size:12px">2</text>
<text text-anchor="start" x="702.0" y="477.0" fill="#808080" style="font-size:12px">3</text>
<path d="M 688,418 L 692,418 L 692,482 L 688,482 Z" stroke="#000000" stroke-width="4.0" fill="#000000" fill-opacity="1.0"/>
<circle cx="680.0" cy="420.0" r="2.0" stroke="#0000b2" stroke-width="4.0" fill="#0000b2" />
<circle cx="700.0" cy="420.0" r="2.0" stroke="#b20000" stroke-width="4.0" fill="#b20000" />
<circle cx="700.0" cy="440.0" r="2.0" stroke="#b20000" stroke-width="4.0" fill="#b20000" />
<circle cx="700.0" cy="460.0" r="2.0" stroke="#b20000" stroke-width="4.0" fill="#b20000" />
<circle cx="700.0" cy="480.0" r="2.0" stroke="#b20000" stroke-width="4.0" fill="#b20000" />
</g>
<g>
<path d="M 740,420 L 754,428 L 754,412 Z" stroke="#000000" stroke-width="4.0" fill="none"/>
<text text-anchor="start" x="759.0" y="426.75" fill="#808080" style="font-size:18px">IR0</text>
<circle cx="740.0" cy="420.0" r="2.0" stroke="#0000b2" stroke-width="4.0" fill="#0000b2" />
</g>
<g>
<path d="M 740,440 L 754,448 L 754,432 Z" stroke="#000000" stroke-width="4.0" fill="none"/>
<text text-anchor="start" x="759.0" y="446.75" fill="#808080" style="font-size:18px">IR1</text>
<circle cx="740.0" cy="440.0" r="2.0" stroke="#0000b2" stroke-width="4.0" fill="#0000b2" />
</g>
<g>
<path d="M 740,460 L 754,468 L 754,452 Z" stroke="#000000" stroke-width="4.0" fill="none"/>
<text text-anchor="start" x="759.0" y="466.75" fill="#808080" style="font-size:18px">IR2</text>
<circle cx="740.0" cy="460.0" r="2.0" stroke="#0000b2" stroke-width="4.0" fill="#0000b2" />
</g>
<g>
<path d="M 740,480 L 754,488 L 754,472 Z" stroke="#000000" stroke-width="4.0" fill="none"/>
<text text-anchor="start" x="759.0" y="486.75" fill="#808080" style="font-size:18px">IR3</text>
<circle cx="740.0" cy="480.0" r="2.0" stroke="#0000b2" stroke-width="4.0" fill="#0000b2" />
</g>
<g>
<path d="M 910,1310 L 861,1310 L 861,1250 L 910,1250 C 920,1250 940,1260 939,1280 C 939,1300 920,1310 910,1310 Z" stroke="#000000" stroke-width="4.0" fill="none"/>
<circle cx="850.0" cy="1240.0" r="8.0" stroke="#000000" stroke-width="4.0" fill="none" />
<circle cx="850.0" cy="1260.0" r="8.0" stroke="#000000" stroke-width="4.0" fill="none" />
<circle cx="850.0" cy="1300.0" r="8.0" stroke="#000000" stroke-width="4.0" fill="none" />
<circle cx="850.0" cy="1320.0" r="8.0" stroke="#000000" stroke-width="4.0" fill="none" />
<circle cx="840.0" cy="1240.0" r="2.0" stroke="#0000b2" stroke-width="4.0" fill="#0000b2" />
<circle cx="840.0" cy="1260.0" r="2.0" stroke="#0000b2" stroke-width="4.0" fill="#0000b2" />
<circle cx="840.0" cy="1300.0" r="2.0" stroke="#0000b2" stroke-width="4.0" fill="#0000b2" />
<circle cx="840.0" cy="1320.0" r="2.0" stroke="#0000b2" stroke-width="4.0" fill="#0000b2" />
<circle cx="940.0" cy="1280.0" r="2.0" stroke="#b20000" stroke-width="4.0" fill="#b20000" />
</g>
<g>
<text text-anchor="end" x="758.0" y="1237.0" fill="#808080" style="font-size:12px">0-3</text>
<text text-anchor="start" x="782.0" y="1237.0" fill="#808080" style="font-size:12px">0</text>
<text text-anchor="start" x="782.0" y="1257.0" fill="#808080" style="font-size:12px">1</text>
<text text-anchor="start" x="782.0" y="1277.0" fill="#808080" style="font-size:12px">2</text>
<text text-anchor="start" x="782.0" y="1297.0" fill="#808080" style="font-size:12px">3</text>
<path d="M 768,1238 L 772,1238 L 772,1302 L 768,1302 Z" stroke="#000000" stroke-width="4.0" fill="#000000" fill-opacity="1.0"/>
<circle cx="760.0" cy="1240.0" r="2.0" stroke="#0000b2" stroke-width="4.0" fill="#0000b2" />
<circle cx="780.0" cy="1240.0" r="2.0" stroke="#b20000" stroke-width="4.0" fill="#b20000" />
<circle cx="780.0" cy="1260.0" r="2.0" stroke="#b20000" stroke-width="4.0" fill="#b20000" />
<circle cx="780.0" cy="1280.0" r="2.0" stroke="#b20000" stroke-width="4.0" fill="#b20000" />
<circle cx="780.0" cy="1300.0" r="2.0" stroke="#b20000" stroke-width="4.0" fill="#b20000" />
</g>
<g>
<circle cx="1276.0" cy="1360.0" r="9.0" stroke="#000000" stroke-width="4.0" fill="none" />
<circle cx="1276.0" cy="1360.0" r="15.0" stroke="#000000" stroke-width="4.0" fill="none" />
<text text-anchor="start" x="1305.0" y="1369.0" fill="#000000" style="font-size:24px"><tspan style="font-style:italic;">immLow</tspan></text>
<circle cx="1260.0" cy="1360.0" r="2.0" stroke="#0000b2" stroke-width="4.0" fill="#0000b2" />
</g>
</g>
</svg>