<?xml version="1.0" encoding="UTF-8" standalone="no"?>
<!-- Created with Digital by H.Neemann -->
<!-- created: Fri Aug 23 19:26:08 BRT 2024 -->

<svg
   xmlns:svg="http://www.w3.org/2000/svg"
   xmlns="http://www.w3.org/2000/svg"
   width="166.95mm"
   height="48.0mm"
   viewBox="172 118 1113 320">
<g stroke-linecap="square">
<path d="M 1080,160 L 1180,160" stroke="#0000b2" stroke-width="4.0" fill="none"/>
<path d="M 1000,320 L 1180,320" stroke="#0000b2" stroke-width="4.0" fill="none"/>
<path d="M 280,320 L 840,320" stroke="#0000b2" stroke-width="4.0" fill="none"/>
<path d="M 1160,260 L 1180,260" stroke="#0000b2" stroke-width="4.0" fill="none"/>
<path d="M 1080,140 L 1100,140 L 1100,120 L 800,120 L 800,380 L 840,380" stroke="#0000b2" stroke-width="4.0" fill="none"/>
<path d="M 280,220 L 1180,220" stroke="#0000b2" stroke-width="4.0" fill="none"/>
<path d="M 1060,140 L 1070,140 L 1080,140" stroke="#000000" stroke-width="4.0" fill="none"/>
<path d="M 1080,160 L 1070,160" stroke="#000000" stroke-width="4.0" fill="none"/>
<g>
</g>
<g>
<circle cx="1196.0" cy="160.0" r="9.0" stroke="#000000" stroke-width="4.0" fill="none" />
<circle cx="1196.0" cy="160.0" r="15.0" stroke="#000000" stroke-width="4.0" fill="none" />
<text text-anchor="start" x="1225.0" y="169.0" fill="#000000" style="font-size:24px"><tspan style="font-style:italic;">addr</tspan></text>
<circle cx="1180.0" cy="160.0" r="2.0" stroke="#0000b2" stroke-width="4.0" fill="#0000b2" />
</g>
<g>
<circle cx="1196.0" cy="220.0" r="9.0" stroke="#000000" stroke-width="4.0" fill="none" />
<circle cx="1196.0" cy="220.0" r="15.0" stroke="#000000" stroke-width="4.0" fill="none" />
<text text-anchor="start" x="1225.0" y="229.0" fill="#000000" style="font-size:24px"><tspan style="font-style:italic;">wr</tspan></text>
<circle cx="1180.0" cy="220.0" r="2.0" stroke="#0000b2" stroke-width="4.0" fill="#0000b2" />
</g>
<g>
<circle cx="1196.0" cy="320.0" r="9.0" stroke="#000000" stroke-width="4.0" fill="none" />
<circle cx="1196.0" cy="320.0" r="15.0" stroke="#000000" stroke-width="4.0" fill="none" />
<text text-anchor="start" x="1225.0" y="329.0" fill="#000000" style="font-size:24px"><tspan style="font-style:italic;">dOut</tspan></text>
<circle cx="1180.0" cy="320.0" r="2.0" stroke="#0000b2" stroke-width="4.0" fill="#0000b2" />
</g>
<g>
<path d="M 249,145 L 279,145 L 279,175 L 249,175 Z" stroke="#000000" stroke-width="4.0" fill="none"/>
<text text-anchor="end" x="235.0" y="169.0" fill="#000000" style="font-size:24px"><tspan style="font-style:italic;">clock</tspan></text>
<path d="M 255,165 L 260,165 L 260,155 L 265,155 L 265,165 L 270,165 L 270,155 L 275,155" stroke="#000000" stroke-width="2.0" fill="none"/>
<circle cx="280.0" cy="160.0" r="2.0" stroke="#b20000" stroke-width="4.0" fill="#b20000" />
</g>
<g>
<path d="M 249,205 L 279,205 L 279,235 L 249,235 Z" stroke="#000000" stroke-width="4.0" fill="none"/>
<circle cx="264.0" cy="220.0" r="9.0" stroke="#000000" stroke-width="4.0" fill="none" />
<text text-anchor="end" x="235.0" y="229.0" fill="#000000" style="font-size:24px"><tspan style="font-style:italic;">reset</tspan></text>
<circle cx="280.0" cy="220.0" r="2.0" stroke="#b20000" stroke-width="4.0" fill="#b20000" />
</g>
<g>
<path d="M 249,305 L 279,305 L 279,335 L 249,335 Z" stroke="#000000" stroke-width="4.0" fill="none"/>
<circle cx="264.0" cy="320.0" r="9.0" stroke="#000000" stroke-width="4.0" fill="none" />
<text text-anchor="end" x="235.0" y="329.0" fill="#000000" style="font-size:24px"><tspan style="font-style:italic;">dIn</tspan></text>
<circle cx="280.0" cy="320.0" r="2.0" stroke="#b20000" stroke-width="4.0" fill="#b20000" />
</g>
<g>
<text text-anchor="end" x="1058.0" y="137.0" fill="#808080" style="font-size:12px">0-15</text>
<text text-anchor="start" x="1082.0" y="137.0" fill="#808080" style="font-size:12px">0</text>
<text text-anchor="start" x="1082.0" y="157.0" fill="#808080" style="font-size:12px">1-15</text>
<path d="M 1068,138 L 1072,138 L 1072,162 L 1068,162 Z" stroke="#000000" stroke-width="4.0" fill="#000000" fill-opacity="1.0"/>
<circle cx="1060.0" cy="140.0" r="2.0" stroke="#0000b2" stroke-width="4.0" fill="#0000b2" />
<circle cx="1080.0" cy="140.0" r="2.0" stroke="#b20000" stroke-width="4.0" fill="#b20000" />
<circle cx="1080.0" cy="160.0" r="2.0" stroke="#b20000" stroke-width="4.0" fill="#b20000" />
</g>
<g>
<circle cx="1196.0" cy="260.0" r="9.0" stroke="#000000" stroke-width="4.0" fill="none" />
<circle cx="1196.0" cy="260.0" r="15.0" stroke="#000000" stroke-width="4.0" fill="none" />
<text text-anchor="start" x="1225.0" y="269.0" fill="#000000" style="font-size:24px"><tspan style="font-style:italic;">rd</tspan></text>
<circle cx="1180.0" cy="260.0" r="2.0" stroke="#0000b2" stroke-width="4.0" fill="#0000b2" />
</g>
<g>
<text text-anchor="end" x="1157.0" y="269.0" fill="#000000" style="font-size:24px">1</text>
<circle cx="1160.0" cy="260.0" r="2.0" stroke="#b20000" stroke-width="4.0" fill="#b20000" />
</g>
<g>
<path d="M 841,306 L 999,306 L 999,414 L 841,414 Z" stroke="#ffffb4" stroke-width="0.0" fill="#ffffb4" fill-opacity="0.7843137254901961"/>
<path d="M 841,306 L 999,306 L 999,414 L 841,414 Z" stroke="#000000" stroke-width="4.0" fill="none"/>
<text text-anchor="start" x="844.0" y="326.75" fill="#808080" style="font-size:18px">dIn</text>
<text text-anchor="start" x="844.0" y="346.75" fill="#808080" style="font-size:18px">sign</text>
<text text-anchor="start" x="844.0" y="366.75" fill="#808080" style="font-size:18px">word</text>
<text text-anchor="start" x="844.0" y="386.75" fill="#808080" style="font-size:18px">A0</text>
<text text-anchor="start" x="844.0" y="406.75" fill="#808080" style="font-size:18px">fromRS2</text>
<text text-anchor="end" x="996.0" y="326.75" fill="#808080" style="font-size:18px">dOut</text>
<text text-anchor="end" x="996.0" y="346.75" fill="#808080" style="font-size:18px">toRD</text>
<text text-anchor="middle" x="920.0" y="431.5" fill="#808080" style="font-size:18px">bytes</text>
<circle cx="840.0" cy="320.0" r="2.0" stroke="#0000b2" stroke-width="4.0" fill="#0000b2" />
<circle cx="840.0" cy="340.0" r="2.0" stroke="#0000b2" stroke-width="4.0" fill="#0000b2" />
<circle cx="840.0" cy="360.0" r="2.0" stroke="#0000b2" stroke-width="4.0" fill="#0000b2" />
<circle cx="840.0" cy="380.0" r="2.0" stroke="#0000b2" stroke-width="4.0" fill="#0000b2" />
<circle cx="840.0" cy="400.0" r="2.0" stroke="#0000b2" stroke-width="4.0" fill="#0000b2" />
<circle cx="1000.0" cy="320.0" r="2.0" stroke="#b20000" stroke-width="4.0" fill="#b20000" />
<circle cx="1000.0" cy="340.0" r="2.0" stroke="#b20000" stroke-width="4.0" fill="#b20000" />
</g>
</g>
</svg>