<?xml version="1.0" encoding="UTF-8" standalone="no"?>
<!-- Created with Digital by H.Neemann -->
<!-- created: Thu Aug 22 14:24:44 BRT 2024 -->

<svg
   xmlns:svg="http://www.w3.org/2000/svg"
   xmlns="http://www.w3.org/2000/svg"
   width="166.95mm"
   height="64.95mm"
   viewBox="172 118 1113 433">
<g stroke-linecap="square">
<path d="M 560,280 L 570,280 L 580,280" stroke="#000000" stroke-width="4.0" fill="none"/>
<path d="M 580,300 L 570,300" stroke="#000000" stroke-width="4.0" fill="none"/>
<path d="M 860,420 L 870,420 L 880,420" stroke="#000000" stroke-width="4.0" fill="none"/>
<path d="M 880,440 L 870,440" stroke="#000000" stroke-width="4.0" fill="none"/>
<path d="M 780,380 L 790,380 L 800,380" stroke="#000000" stroke-width="4.0" fill="none"/>
<path d="M 780,400 L 790,400" stroke="#000000" stroke-width="4.0" fill="none"/>
<path d="M 1120,320 L 1130,320 L 1140,320" stroke="#000000" stroke-width="4.0" fill="none"/>
<path d="M 1120,340 L 1130,340" stroke="#000000" stroke-width="4.0" fill="none"/>
<path d="M 1060,140 L 1070,140 L 1080,140" stroke="#000000" stroke-width="4.0" fill="none"/>
<path d="M 1080,160 L 1070,160" stroke="#000000" stroke-width="4.0" fill="none"/>
<path d="M 560,380 L 570,380 L 580,380" stroke="#000000" stroke-width="4.0" fill="none"/>
<path d="M 560,400 L 570,400" stroke="#000000" stroke-width="4.0" fill="none"/>
<path d="M 560,420 L 570,420" stroke="#000000" stroke-width="4.0" fill="none"/>
<path d="M 560,440 L 570,440" stroke="#000000" stroke-width="4.0" fill="none"/>
<path d="M 560,460 L 570,460" stroke="#000000" stroke-width="4.0" fill="none"/>
<path d="M 560,480 L 570,480" stroke="#000000" stroke-width="4.0" fill="none"/>
<path d="M 560,500 L 570,500" stroke="#000000" stroke-width="4.0" fill="none"/>
<path d="M 560,520 L 570,520" stroke="#000000" stroke-width="4.0" fill="none"/>
<path d="M 780,300 L 790,300 L 800,300" stroke="#000000" stroke-width="4.0" fill="none"/>
<path d="M 800,320 L 790,320" stroke="#000000" stroke-width="4.0" fill="none"/>
<path d="M 1080,160 L 1180,160" stroke="#0000b2" stroke-width="4.0" fill="none"/>
<path d="M 1140,320 L 1180,320" stroke="#0000b2" stroke-width="4.0" fill="none"/>
<path d="M 800,320 L 820,320 L 820,360 L 420,360 L 420,400 L 440,400" stroke="#0000b2" stroke-width="4.0" fill="none"/>
<path d="M 660,300 L 660,320 L 700,320" stroke="#0000b2" stroke-width="4.0" fill="none"/>
<path d="M 540,460 L 540,480 L 560,480" stroke="#0000b2" stroke-width="4.0" fill="none"/>
<path d="M 620,300 L 620,420 L 700,420" stroke="#0000b2" stroke-width="4.0" fill="none"/>
<path d="M 520,420 L 540,420 L 560,420" stroke="#0000b2" stroke-width="4.0" fill="none"/>
<path d="M 1080,420 L 1100,420 L 1100,340 L 1120,340" stroke="#0000b2" stroke-width="4.0" fill="none"/>
<path d="M 880,420 L 920,420 L 980,420" stroke="#0000b2" stroke-width="4.0" fill="none"/>
<path d="M 820,420 L 860,420" stroke="#0000b2" stroke-width="4.0" fill="none"/>
<path d="M 540,500 L 540,520 L 560,520" stroke="#0000b2" stroke-width="4.0" fill="none"/>
<path d="M 740,300 L 760,300 L 780,300" stroke="#0000b2" stroke-width="4.0" fill="none"/>
<path d="M 580,300 L 620,300 L 660,300 L 660,260 L 880,260 L 880,380 L 980,380" stroke="#0000b2" stroke-width="4.0" fill="none"/>
<path d="M 1020,300 L 1060,300 L 1060,320 L 1120,320" stroke="#0000b2" stroke-width="4.0" fill="none"/>
<path d="M 540,440 L 540,460 L 560,460" stroke="#0000b2" stroke-width="4.0" fill="none"/>
<path d="M 940,340 L 940,460 L 1000,460 L 1000,420" stroke="#0000b2" stroke-width="4.0" fill="none"/>
<path d="M 1080,140 L 1100,140 L 1100,120 L 840,120 L 840,340" stroke="#0000b2" stroke-width="4.0" fill="none"/>
<path d="M 740,400 L 780,400" stroke="#0000b2" stroke-width="4.0" fill="none"/>
<path d="M 1020,400 L 1040,400" stroke="#0000b2" stroke-width="4.0" fill="none"/>
<path d="M 680,280 L 680,240 L 900,240 L 900,320 L 980,320" stroke="#0000b2" stroke-width="4.0" fill="none"/>
<path d="M 720,320 L 720,340 L 840,340 L 940,340 L 1000,340 L 1000,320" stroke="#0000b2" stroke-width="4.0" fill="none"/>
<path d="M 540,480 L 540,500 L 560,500" stroke="#0000b2" stroke-width="4.0" fill="none"/>
<path d="M 280,280 L 560,280" stroke="#0000b2" stroke-width="4.0" fill="none"/>
<path d="M 580,280 L 680,280 L 700,280" stroke="#0000b2" stroke-width="4.0" fill="none"/>
<path d="M 920,420 L 920,280 L 980,280" stroke="#0000b2" stroke-width="4.0" fill="none"/>
<path d="M 540,400 L 540,420 L 540,440 L 560,440" stroke="#0000b2" stroke-width="4.0" fill="none"/>
<path d="M 360,440 L 440,440" stroke="#0000b2" stroke-width="4.0" fill="none"/>
<path d="M 880,440 L 1040,440" stroke="#0000b2" stroke-width="4.0" fill="none"/>
<path d="M 280,220 L 1180,220" stroke="#0000b2" stroke-width="4.0" fill="none"/>
<path d="M 760,300 L 760,380 L 780,380" stroke="#0000b2" stroke-width="4.0" fill="none"/>
<path d="M 580,380 L 700,380" stroke="#0000b2" stroke-width="4.0" fill="none"/>
<path d="M 800,380 L 820,380" stroke="#0000b2" stroke-width="4.0" fill="none"/>
<path d="M 360,540 L 720,540 L 1060,540 L 1060,440" stroke="#0000b2" stroke-width="4.0" fill="none"/>
<path d="M 720,420 L 720,540" stroke="#0000b2" stroke-width="4.0" fill="none"/>
<path d="M 560,400 L 540,400 L 540,380 L 560,380" stroke="#0000b2" stroke-width="4.0" fill="none"/>
<g>
<circle cx="540.0" cy="480.0" r="4.0" stroke="#0000b2" stroke-width="4.0" fill="#0000b2" />
<circle cx="540.0" cy="420.0" r="4.0" stroke="#0000b2" stroke-width="4.0" fill="#0000b2" />
<circle cx="920.0" cy="420.0" r="4.0" stroke="#0000b2" stroke-width="4.0" fill="#0000b2" />
<circle cx="760.0" cy="300.0" r="4.0" stroke="#0000b2" stroke-width="4.0" fill="#0000b2" />
<circle cx="620.0" cy="300.0" r="4.0" stroke="#0000b2" stroke-width="4.0" fill="#0000b2" />
<circle cx="660.0" cy="300.0" r="4.0" stroke="#0000b2" stroke-width="4.0" fill="#0000b2" />
<circle cx="540.0" cy="460.0" r="4.0" stroke="#0000b2" stroke-width="4.0" fill="#0000b2" />
<circle cx="540.0" cy="400.0" r="4.0" stroke="#0000b2" stroke-width="4.0" fill="#0000b2" />
<circle cx="840.0" cy="340.0" r="4.0" stroke="#0000b2" stroke-width="4.0" fill="#0000b2" />
<circle cx="940.0" cy="340.0" r="4.0" stroke="#0000b2" stroke-width="4.0" fill="#0000b2" />
<circle cx="540.0" cy="500.0" r="4.0" stroke="#0000b2" stroke-width="4.0" fill="#0000b2" />
<circle cx="680.0" cy="280.0" r="4.0" stroke="#0000b2" stroke-width="4.0" fill="#0000b2" />
<circle cx="540.0" cy="440.0" r="4.0" stroke="#0000b2" stroke-width="4.0" fill="#0000b2" />
<circle cx="720.0" cy="540.0" r="4.0" stroke="#0000b2" stroke-width="4.0" fill="#0000b2" />
</g>
<g>
<circle cx="1196.0" cy="160.0" r="9.0" stroke="#000000" stroke-width="4.0" fill="none" />
<circle cx="1196.0" cy="160.0" r="15.0" stroke="#000000" stroke-width="4.0" fill="none" />
<text text-anchor="start" x="1225.0" y="169.0" fill="#000000" style="font-size:24px"><tspan style="font-style:italic;">addr</tspan></text>
<circle cx="1180.0" cy="160.0" r="2.0" stroke="#0000b2" stroke-width="4.0" fill="#0000b2" />
</g>
<g>
<circle cx="1196.0" cy="220.0" r="9.0" stroke="#000000" stroke-width="4.0" fill="none" />
<circle cx="1196.0" cy="220.0" r="15.0" stroke="#000000" stroke-width="4.0" fill="none" />
<text text-anchor="start" x="1225.0" y="229.0" fill="#000000" style="font-size:24px"><tspan style="font-style:italic;">wr</tspan></text>
<circle cx="1180.0" cy="220.0" r="2.0" stroke="#0000b2" stroke-width="4.0" fill="#0000b2" />
</g>
<g>
<circle cx="1196.0" cy="320.0" r="9.0" stroke="#000000" stroke-width="4.0" fill="none" />
<circle cx="1196.0" cy="320.0" r="15.0" stroke="#000000" stroke-width="4.0" fill="none" />
<text text-anchor="start" x="1225.0" y="329.0" fill="#000000" style="font-size:24px"><tspan style="font-style:italic;">dOut</tspan></text>
<circle cx="1180.0" cy="320.0" r="2.0" stroke="#0000b2" stroke-width="4.0" fill="#0000b2" />
</g>
<g>
<path d="M 249,145 L 279,145 L 279,175 L 249,175 Z" stroke="#000000" stroke-width="4.0" fill="none"/>
<text text-anchor="end" x="235.0" y="169.0" fill="#000000" style="font-size:24px"><tspan style="font-style:italic;">clock</tspan></text>
<path d="M 255,165 L 260,165 L 260,155 L 265,155 L 265,165 L 270,165 L 270,155 L 275,155" stroke="#000000" stroke-width="2.0" fill="none"/>
<circle cx="280.0" cy="160.0" r="2.0" stroke="#b20000" stroke-width="4.0" fill="#b20000" />
</g>
<g>
<path d="M 249,205 L 279,205 L 279,235 L 249,235 Z" stroke="#000000" stroke-width="4.0" fill="none"/>
<circle cx="264.0" cy="220.0" r="9.0" stroke="#000000" stroke-width="4.0" fill="none" />
<text text-anchor="end" x="235.0" y="229.0" fill="#000000" style="font-size:24px"><tspan style="font-style:italic;">reset</tspan></text>
<circle cx="280.0" cy="220.0" r="2.0" stroke="#b20000" stroke-width="4.0" fill="#b20000" />
</g>
<g>
<path d="M 249,265 L 279,265 L 279,295 L 249,295 Z" stroke="#000000" stroke-width="4.0" fill="none"/>
<circle cx="264.0" cy="280.0" r="9.0" stroke="#000000" stroke-width="4.0" fill="none" />
<text text-anchor="end" x="235.0" y="289.0" fill="#000000" style="font-size:24px"><tspan style="font-style:italic;">dIn</tspan></text>
<circle cx="280.0" cy="280.0" r="2.0" stroke="#b20000" stroke-width="4.0" fill="#b20000" />
</g>
<g>
<path d="M 981,276 L 1019,285 L 1019,315 L 981,324 Z" stroke="#000000" stroke-width="4.0" fill="none"/>
<text text-anchor="start" x="983.0" y="295.5" fill="#808080" style="font-size:18px">0</text>
<circle cx="1000.0" cy="320.0" r="2.0" stroke="#0000b2" stroke-width="4.0" fill="#0000b2" />
<circle cx="980.0" cy="280.0" r="2.0" stroke="#0000b2" stroke-width="4.0" fill="#0000b2" />
<circle cx="980.0" cy="320.0" r="2.0" stroke="#0000b2" stroke-width="4.0" fill="#0000b2" />
<circle cx="1020.0" cy="300.0" r="2.0" stroke="#b20000" stroke-width="4.0" fill="#b20000" />
</g>
<g>
<path d="M 1041,396 L 1079,405 L 1079,435 L 1041,444 Z" stroke="#000000" stroke-width="4.0" fill="none"/>
<text text-anchor="start" x="1043.0" y="415.5" fill="#808080" style="font-size:18px">0</text>
<circle cx="1060.0" cy="440.0" r="2.0" stroke="#0000b2" stroke-width="4.0" fill="#0000b2" />
<circle cx="1040.0" cy="400.0" r="2.0" stroke="#0000b2" stroke-width="4.0" fill="#0000b2" />
<circle cx="1040.0" cy="440.0" r="2.0" stroke="#0000b2" stroke-width="4.0" fill="#0000b2" />
<circle cx="1080.0" cy="420.0" r="2.0" stroke="#b20000" stroke-width="4.0" fill="#b20000" />
</g>
<g>
<path d="M 981,376 L 1019,385 L 1019,415 L 981,424 Z" stroke="#000000" stroke-width="4.0" fill="none"/>
<text text-anchor="start" x="983.0" y="395.5" fill="#808080" style="font-size:18px">0</text>
<circle cx="1000.0" cy="420.0" r="2.0" stroke="#0000b2" stroke-width="4.0" fill="#0000b2" />
<circle cx="980.0" cy="380.0" r="2.0" stroke="#0000b2" stroke-width="4.0" fill="#0000b2" />
<circle cx="980.0" cy="420.0" r="2.0" stroke="#0000b2" stroke-width="4.0" fill="#0000b2" />
<circle cx="1020.0" cy="400.0" r="2.0" stroke="#b20000" stroke-width="4.0" fill="#b20000" />
</g>
<g>
<path d="M 701,276 L 739,285 L 739,315 L 701,324 Z" stroke="#000000" stroke-width="4.0" fill="none"/>
<text text-anchor="start" x="703.0" y="295.5" fill="#808080" style="font-size:18px">0</text>
<circle cx="720.0" cy="320.0" r="2.0" stroke="#0000b2" stroke-width="4.0" fill="#0000b2" />
<circle cx="700.0" cy="280.0" r="2.0" stroke="#0000b2" stroke-width="4.0" fill="#0000b2" />
<circle cx="700.0" cy="320.0" r="2.0" stroke="#0000b2" stroke-width="4.0" fill="#0000b2" />
<circle cx="740.0" cy="300.0" r="2.0" stroke="#b20000" stroke-width="4.0" fill="#b20000" />
</g>
<g>
<path d="M 701,376 L 739,385 L 739,415 L 701,424 Z" stroke="#000000" stroke-width="4.0" fill="none"/>
<text text-anchor="start" x="703.0" y="395.5" fill="#808080" style="font-size:18px">0</text>
<circle cx="720.0" cy="420.0" r="2.0" stroke="#0000b2" stroke-width="4.0" fill="#0000b2" />
<circle cx="700.0" cy="380.0" r="2.0" stroke="#0000b2" stroke-width="4.0" fill="#0000b2" />
<circle cx="700.0" cy="420.0" r="2.0" stroke="#0000b2" stroke-width="4.0" fill="#0000b2" />
<circle cx="740.0" cy="400.0" r="2.0" stroke="#b20000" stroke-width="4.0" fill="#b20000" />
</g>
<g>
<text text-anchor="end" x="558.0" y="277.0" fill="#808080" style="font-size:12px">0-15</text>
<text text-anchor="start" x="582.0" y="277.0" fill="#808080" style="font-size:12px">0-7</text>
<text text-anchor="start" x="582.0" y="297.0" fill="#808080" style="font-size:12px">8-15</text>
<path d="M 568,278 L 572,278 L 572,302 L 568,302 Z" stroke="#000000" stroke-width="4.0" fill="#000000" fill-opacity="1.0"/>
<circle cx="560.0" cy="280.0" r="2.0" stroke="#0000b2" stroke-width="4.0" fill="#0000b2" />
<circle cx="580.0" cy="280.0" r="2.0" stroke="#b20000" stroke-width="4.0" fill="#b20000" />
<circle cx="580.0" cy="300.0" r="2.0" stroke="#b20000" stroke-width="4.0" fill="#b20000" />
</g>
<g>
<text text-anchor="end" x="858.0" y="417.0" fill="#808080" style="font-size:12px">0-15</text>
<text text-anchor="start" x="882.0" y="417.0" fill="#808080" style="font-size:12px">0-7</text>
<text text-anchor="start" x="882.0" y="437.0" fill="#808080" style="font-size:12px">8-15</text>
<path d="M 868,418 L 872,418 L 872,442 L 868,442 Z" stroke="#000000" stroke-width="4.0" fill="#000000" fill-opacity="1.0"/>
<circle cx="860.0" cy="420.0" r="2.0" stroke="#0000b2" stroke-width="4.0" fill="#0000b2" />
<circle cx="880.0" cy="420.0" r="2.0" stroke="#b20000" stroke-width="4.0" fill="#b20000" />
<circle cx="880.0" cy="440.0" r="2.0" stroke="#b20000" stroke-width="4.0" fill="#b20000" />
</g>
<g>
<text text-anchor="end" x="778.0" y="377.0" fill="#808080" style="font-size:12px">0-7</text>
<text text-anchor="end" x="778.0" y="397.0" fill="#808080" style="font-size:12px">8-15</text>
<text text-anchor="start" x="802.0" y="377.0" fill="#808080" style="font-size:12px">0-15</text>
<path d="M 788,378 L 792,378 L 792,402 L 788,402 Z" stroke="#000000" stroke-width="4.0" fill="#000000" fill-opacity="1.0"/>
<circle cx="780.0" cy="380.0" r="2.0" stroke="#0000b2" stroke-width="4.0" fill="#0000b2" />
<circle cx="780.0" cy="400.0" r="2.0" stroke="#0000b2" stroke-width="4.0" fill="#0000b2" />
<circle cx="800.0" cy="380.0" r="2.0" stroke="#b20000" stroke-width="4.0" fill="#b20000" />
</g>
<g>
<text text-anchor="end" x="1118.0" y="317.0" fill="#808080" style="font-size:12px">0-7</text>
<text text-anchor="end" x="1118.0" y="337.0" fill="#808080" style="font-size:12px">8-15</text>
<text text-anchor="start" x="1142.0" y="317.0" fill="#808080" style="font-size:12px">0-15</text>
<path d="M 1128,318 L 1132,318 L 1132,342 L 1128,342 Z" stroke="#000000" stroke-width="4.0" fill="#000000" fill-opacity="1.0"/>
<circle cx="1120.0" cy="320.0" r="2.0" stroke="#0000b2" stroke-width="4.0" fill="#0000b2" />
<circle cx="1120.0" cy="340.0" r="2.0" stroke="#0000b2" stroke-width="4.0" fill="#0000b2" />
<circle cx="1140.0" cy="320.0" r="2.0" stroke="#b20000" stroke-width="4.0" fill="#b20000" />
</g>
<g>
<text text-anchor="end" x="1058.0" y="137.0" fill="#808080" style="font-size:12px">0-15</text>
<text text-anchor="start" x="1082.0" y="137.0" fill="#808080" style="font-size:12px">0</text>
<text text-anchor="start" x="1082.0" y="157.0" fill="#808080" style="font-size:12px">1-15</text>
<path d="M 1068,138 L 1072,138 L 1072,162 L 1068,162 Z" stroke="#000000" stroke-width="4.0" fill="#000000" fill-opacity="1.0"/>
<circle cx="1060.0" cy="140.0" r="2.0" stroke="#0000b2" stroke-width="4.0" fill="#0000b2" />
<circle cx="1080.0" cy="140.0" r="2.0" stroke="#b20000" stroke-width="4.0" fill="#b20000" />
<circle cx="1080.0" cy="160.0" r="2.0" stroke="#b20000" stroke-width="4.0" fill="#b20000" />
</g>
<g>
<text text-anchor="end" x="558.0" y="377.0" fill="#808080" style="font-size:12px">0</text>
<text text-anchor="end" x="558.0" y="397.0" fill="#808080" style="font-size:12px">1</text>
<text text-anchor="end" x="558.0" y="417.0" fill="#808080" style="font-size:12px">2</text>
<text text-anchor="end" x="558.0" y="437.0" fill="#808080" style="font-size:12px">3</text>
<text text-anchor="end" x="558.0" y="457.0" fill="#808080" style="font-size:12px">4</text>
<text text-anchor="end" x="558.0" y="477.0" fill="#808080" style="font-size:12px">5</text>
<text text-anchor="end" x="558.0" y="497.0" fill="#808080" style="font-size:12px">6</text>
<text text-anchor="end" x="558.0" y="517.0" fill="#808080" style="font-size:12px">7</text>
<text text-anchor="start" x="582.0" y="377.0" fill="#808080" style="font-size:12px">0-7</text>
<path d="M 568,378 L 572,378 L 572,522 L 568,522 Z" stroke="#000000" stroke-width="4.0" fill="#000000" fill-opacity="1.0"/>
<circle cx="560.0" cy="380.0" r="2.0" stroke="#0000b2" stroke-width="4.0" fill="#0000b2" />
<circle cx="560.0" cy="400.0" r="2.0" stroke="#0000b2" stroke-width="4.0" fill="#0000b2" />
<circle cx="560.0" cy="420.0" r="2.0" stroke="#0000b2" stroke-width="4.0" fill="#0000b2" />
<circle cx="560.0" cy="440.0" r="2.0" stroke="#0000b2" stroke-width="4.0" fill="#0000b2" />
<circle cx="560.0" cy="460.0" r="2.0" stroke="#0000b2" stroke-width="4.0" fill="#0000b2" />
<circle cx="560.0" cy="480.0" r="2.0" stroke="#0000b2" stroke-width="4.0" fill="#0000b2" />
<circle cx="560.0" cy="500.0" r="2.0" stroke="#0000b2" stroke-width="4.0" fill="#0000b2" />
<circle cx="560.0" cy="520.0" r="2.0" stroke="#0000b2" stroke-width="4.0" fill="#0000b2" />
<circle cx="580.0" cy="380.0" r="2.0" stroke="#b20000" stroke-width="4.0" fill="#b20000" />
</g>
<g>
<text text-anchor="end" x="778.0" y="297.0" fill="#808080" style="font-size:12px">0-7</text>
<text text-anchor="start" x="802.0" y="297.0" fill="#808080" style="font-size:12px">0-6</text>
<text text-anchor="start" x="802.0" y="317.0" fill="#808080" style="font-size:12px">7</text>
<path d="M 788,298 L 792,298 L 792,322 L 788,322 Z" stroke="#000000" stroke-width="4.0" fill="#000000" fill-opacity="1.0"/>
<circle cx="780.0" cy="300.0" r="2.0" stroke="#0000b2" stroke-width="4.0" fill="#0000b2" />
<circle cx="800.0" cy="300.0" r="2.0" stroke="#b20000" stroke-width="4.0" fill="#b20000" />
<circle cx="800.0" cy="320.0" r="2.0" stroke="#b20000" stroke-width="4.0" fill="#b20000" />
</g>
<g>
<path d="M 490,450 L 441,450 L 441,390 L 490,390 C 500,390 520,400 519,420 C 519,440 500,450 490,450 Z" stroke="#000000" stroke-width="4.0" fill="none"/>
<circle cx="440.0" cy="400.0" r="2.0" stroke="#0000b2" stroke-width="4.0" fill="#0000b2" />
<circle cx="440.0" cy="440.0" r="2.0" stroke="#0000b2" stroke-width="4.0" fill="#0000b2" />
<circle cx="520.0" cy="420.0" r="2.0" stroke="#b20000" stroke-width="4.0" fill="#b20000" />
</g>
<g>
<path d="M 360,440 L 346,432 L 346,448 Z" stroke="#000000" stroke-width="4.0" fill="none"/>
<text text-anchor="end" x="341.0" y="446.75" fill="#808080" style="font-size:18px">sign</text>
<circle cx="360.0" cy="440.0" r="2.0" stroke="#0000b2" stroke-width="4.0" fill="#0000b2" />
</g>
<g>
<path d="M 360,540 L 346,532 L 346,548 Z" stroke="#000000" stroke-width="4.0" fill="none"/>
<text text-anchor="end" x="341.0" y="546.75" fill="#808080" style="font-size:18px">word</text>
<circle cx="360.0" cy="540.0" r="2.0" stroke="#0000b2" stroke-width="4.0" fill="#0000b2" />
</g>
<g>
<path d="M 820,420 L 806,412 L 806,428 Z" stroke="#000000" stroke-width="4.0" fill="none"/>
<text text-anchor="end" x="801.0" y="426.75" fill="#808080" style="font-size:18px">rS2</text>
<circle cx="820.0" cy="420.0" r="2.0" stroke="#0000b2" stroke-width="4.0" fill="#0000b2" />
</g>
<g>
<path d="M 820,380 L 834,388 L 834,372 Z" stroke="#000000" stroke-width="4.0" fill="none"/>
<text text-anchor="start" x="839.0" y="386.75" fill="#808080" style="font-size:18px">rD</text>
<circle cx="820.0" cy="380.0" r="2.0" stroke="#0000b2" stroke-width="4.0" fill="#0000b2" />
</g>
</g>
</svg>