<?xml version="1.0" encoding="UTF-8" standalone="no"?>
<!-- Created with Digital by H.Neemann -->
<!-- created: Thu Aug 22 12:42:37 BRT 2024 -->

<svg
   xmlns:svg="http://www.w3.org/2000/svg"
   xmlns="http://www.w3.org/2000/svg"
   width="86.1mm"
   height="40.05mm"
   viewBox="521 283 574 267">
<g stroke-linecap="square">
<path d="M 801,460 L 801,469" stroke="#000000" stroke-width="4.0" fill="none"/>
<path d="M 801,540 L 801,531" stroke="#000000" stroke-width="4.0" fill="none"/>
<path d="M 720,480 L 730,480 L 740,480" stroke="#000000" stroke-width="4.0" fill="none"/>
<path d="M 740,500 L 730,500" stroke="#000000" stroke-width="4.0" fill="none"/>
<path d="M 740,520 L 730,520" stroke="#000000" stroke-width="4.0" fill="none"/>
<path d="M 740,540 L 730,540" stroke="#000000" stroke-width="4.0" fill="none"/>
<path d="M 600,400 L 760,400 L 800,400 L 800,340" stroke="#0000b2" stroke-width="4.0" fill="none"/>
<path d="M 820,320 L 940,320 L 940,300 L 1000,300" stroke="#0000b2" stroke-width="4.0" fill="none"/>
<path d="M 740,480 L 780,480" stroke="#0000b2" stroke-width="4.0" fill="none"/>
<path d="M 680,300 L 680,480 L 720,480" stroke="#0000b2" stroke-width="4.0" fill="none"/>
<path d="M 760,340 L 780,340" stroke="#0000b2" stroke-width="4.0" fill="none"/>
<path d="M 880,500 L 920,500 L 920,400 L 1000,400" stroke="#0000b2" stroke-width="4.0" fill="none"/>
<path d="M 740,500 L 780,500" stroke="#0000b2" stroke-width="4.0" fill="none"/>
<path d="M 740,520 L 780,520" stroke="#0000b2" stroke-width="4.0" fill="none"/>
<path d="M 600,300 L 680,300 L 780,300" stroke="#0000b2" stroke-width="4.0" fill="none"/>
<path d="M 740,540 L 780,540" stroke="#0000b2" stroke-width="4.0" fill="none"/>
<path d="M 760,400 L 760,460 L 780,460" stroke="#0000b2" stroke-width="4.0" fill="none"/>
<g>
<circle cx="760.0" cy="400.0" r="4.0" stroke="#0000b2" stroke-width="4.0" fill="#0000b2" />
<circle cx="680.0" cy="300.0" r="4.0" stroke="#0000b2" stroke-width="4.0" fill="#0000b2" />
</g>
<g>
<path d="M 569,285 L 599,285 L 599,315 L 569,315 Z" stroke="#000000" stroke-width="4.0" fill="none"/>
<circle cx="584.0" cy="300.0" r="9.0" stroke="#000000" stroke-width="4.0" fill="none" />
<text text-anchor="end" x="555.0" y="309.0" fill="#000000" style="font-size:24px"><tspan style="font-style:italic;">rin</tspan></text>
<circle cx="600.0" cy="300.0" r="2.0" stroke="#b20000" stroke-width="4.0" fill="#b20000" />
</g>
<g>
<path d="M 569,385 L 599,385 L 599,415 L 569,415 Z" stroke="#000000" stroke-width="4.0" fill="none"/>
<circle cx="584.0" cy="400.0" r="9.0" stroke="#000000" stroke-width="4.0" fill="none" />
<text text-anchor="end" x="555.0" y="409.0" fill="#000000" style="font-size:24px"><tspan style="font-style:italic;">pc</tspan></text>
<circle cx="600.0" cy="400.0" r="2.0" stroke="#b20000" stroke-width="4.0" fill="#b20000" />
</g>
<g>
<circle cx="1016.0" cy="300.0" r="9.0" stroke="#000000" stroke-width="4.0" fill="none" />
<circle cx="1016.0" cy="300.0" r="15.0" stroke="#000000" stroke-width="4.0" fill="none" />
<text text-anchor="start" x="1045.0" y="309.0" fill="#000000" style="font-size:24px"><tspan style="font-style:italic;">rout</tspan></text>
<circle cx="1000.0" cy="300.0" r="2.0" stroke="#0000b2" stroke-width="4.0" fill="#0000b2" />
</g>
<g>
<circle cx="1016.0" cy="400.0" r="9.0" stroke="#000000" stroke-width="4.0" fill="none" />
<circle cx="1016.0" cy="400.0" r="15.0" stroke="#000000" stroke-width="4.0" fill="none" />
<text text-anchor="start" x="1045.0" y="409.0" fill="#000000" style="font-size:24px"><tspan style="font-style:italic;">z</tspan></text>
<circle cx="1000.0" cy="400.0" r="2.0" stroke="#0000b2" stroke-width="4.0" fill="#0000b2" />
</g>
<g>
<path d="M 781,296 L 819,305 L 819,335 L 781,344 Z" stroke="#000000" stroke-width="4.0" fill="none"/>
<text text-anchor="start" x="783.0" y="315.5" fill="#808080" style="font-size:18px">0</text>
<circle cx="800.0" cy="340.0" r="2.0" stroke="#0000b2" stroke-width="4.0" fill="#0000b2" />
<circle cx="780.0" cy="300.0" r="2.0" stroke="#0000b2" stroke-width="4.0" fill="#0000b2" />
<circle cx="780.0" cy="340.0" r="2.0" stroke="#0000b2" stroke-width="4.0" fill="#0000b2" />
<circle cx="820.0" cy="320.0" r="2.0" stroke="#b20000" stroke-width="4.0" fill="#b20000" />
</g>
<g>
<text text-anchor="end" x="757.0" y="349.0" fill="#000000" style="font-size:24px">0</text>
<circle cx="760.0" cy="340.0" r="2.0" stroke="#b20000" stroke-width="4.0" fill="#b20000" />
</g>
<g>
<path d="M 850,530 L 801,530 L 801,470 L 850,470 C 860,470 880,480 879,500 C 879,520 860,530 850,530 Z" stroke="#000000" stroke-width="4.0" fill="none"/>
<circle cx="790.0" cy="460.0" r="8.0" stroke="#000000" stroke-width="4.0" fill="none" />
<circle cx="790.0" cy="480.0" r="8.0" stroke="#000000" stroke-width="4.0" fill="none" />
<circle cx="790.0" cy="500.0" r="8.0" stroke="#000000" stroke-width="4.0" fill="none" />
<circle cx="790.0" cy="520.0" r="8.0" stroke="#000000" stroke-width="4.0" fill="none" />
<circle cx="790.0" cy="540.0" r="8.0" stroke="#000000" stroke-width="4.0" fill="none" />
<circle cx="780.0" cy="460.0" r="2.0" stroke="#0000b2" stroke-width="4.0" fill="#0000b2" />
<circle cx="780.0" cy="480.0" r="2.0" stroke="#0000b2" stroke-width="4.0" fill="#0000b2" />
<circle cx="780.0" cy="500.0" r="2.0" stroke="#0000b2" stroke-width="4.0" fill="#0000b2" />
<circle cx="780.0" cy="520.0" r="2.0" stroke="#0000b2" stroke-width="4.0" fill="#0000b2" />
<circle cx="780.0" cy="540.0" r="2.0" stroke="#0000b2" stroke-width="4.0" fill="#0000b2" />
<circle cx="880.0" cy="500.0" r="2.0" stroke="#b20000" stroke-width="4.0" fill="#b20000" />
</g>
<g>
<text text-anchor="end" x="718.0" y="477.0" fill="#808080" style="font-size:12px">0-3</text>
<text text-anchor="start" x="742.0" y="477.0" fill="#808080" style="font-size:12px">0</text>
<text text-anchor="start" x="742.0" y="497.0" fill="#808080" style="font-size:12px">1</text>
<text text-anchor="start" x="742.0" y="517.0" fill="#808080" style="font-size:12px">2</text>
<text text-anchor="start" x="742.0" y="537.0" fill="#808080" style="font-size:12px">3</text>
<path d="M 728,478 L 732,478 L 732,542 L 728,542 Z" stroke="#000000" stroke-width="4.0" fill="#000000" fill-opacity="1.0"/>
<circle cx="720.0" cy="480.0" r="2.0" stroke="#0000b2" stroke-width="4.0" fill="#0000b2" />
<circle cx="740.0" cy="480.0" r="2.0" stroke="#b20000" stroke-width="4.0" fill="#b20000" />
<circle cx="740.0" cy="500.0" r="2.0" stroke="#b20000" stroke-width="4.0" fill="#b20000" />
<circle cx="740.0" cy="520.0" r="2.0" stroke="#b20000" stroke-width="4.0" fill="#b20000" />
<circle cx="740.0" cy="540.0" r="2.0" stroke="#b20000" stroke-width="4.0" fill="#b20000" />
</g>
</g>
</svg>