<?xml version="1.0" encoding="UTF-8" standalone="no"?>
<!-- Created with Digital by H.Neemann -->
<!-- created: Tue Sep 03 17:36:57 BRT 2024 -->

<svg
   xmlns:svg="http://www.w3.org/2000/svg"
   xmlns="http://www.w3.org/2000/svg"
   width="105.9mm"
   height="231.6mm"
   viewBox="-297 -202 706 1544">
<g stroke-linecap="square">
<path d="M -80,-20 L -80,0 L 20,0" stroke="#0000b2" stroke-width="4.0" fill="none"/>
<path d="M -160,400 L -160,640 L 20,640" stroke="#0000b2" stroke-width="4.0" fill="none"/>
<path d="M -100,1340 L -100,1280 L 20,1280" stroke="#0000b2" stroke-width="4.0" fill="none"/>
<path d="M 100,260 L 140,260 L 140,180 L 160,180" stroke="#0000b2" stroke-width="4.0" fill="none"/>
<path d="M 100,900 L 260,900" stroke="#0000b2" stroke-width="4.0" fill="none"/>
<path d="M -200,760 L -200,1160 L 20,1160" stroke="#0000b2" stroke-width="4.0" fill="none"/>
<path d="M 240,140 L 260,140" stroke="#0000b2" stroke-width="4.0" fill="none"/>
<path d="M 220,780 L 260,780" stroke="#0000b2" stroke-width="4.0" fill="none"/>
<path d="M -160,-80 L -160,400 L 20,400" stroke="#0000b2" stroke-width="4.0" fill="none"/>
<path d="M -140,-20 L -140,20 L 20,20" stroke="#0000b2" stroke-width="4.0" fill="none"/>
<path d="M 100,20 L 140,20 L 140,100 L 160,100" stroke="#0000b2" stroke-width="4.0" fill="none"/>
<path d="M 100,660 L 260,660" stroke="#0000b2" stroke-width="4.0" fill="none"/>
<path d="M -160,1340 L -160,1300 L 20,1300" stroke="#0000b2" stroke-width="4.0" fill="none"/>
<path d="M 100,1300 L 260,1300" stroke="#0000b2" stroke-width="4.0" fill="none"/>
<path d="M -40,-100 L -40,280 L 20,280" stroke="#0000b2" stroke-width="4.0" fill="none"/>
<path d="M 220,1180 L 260,1180" stroke="#0000b2" stroke-width="4.0" fill="none"/>
<path d="M 100,420 L 260,420" stroke="#0000b2" stroke-width="4.0" fill="none"/>
<path d="M -200,-20 L -200,40 L 20,40" stroke="#0000b2" stroke-width="4.0" fill="none"/>
<path d="M -260,600 L -260,680 L 20,680" stroke="#0000b2" stroke-width="4.0" fill="none"/>
<path d="M -200,1340 L -200,1320 L 20,1320" stroke="#0000b2" stroke-width="4.0" fill="none"/>
<path d="M -220,1040 L -220,1200 L 20,1200" stroke="#0000b2" stroke-width="4.0" fill="none"/>
<path d="M 100,180 L 120,180 L 120,160 L 160,160 L 164,160" stroke="#0000b2" stroke-width="4.0" fill="none"/>
<path d="M 100,820 L 120,820 L 120,800 L 140,800 L 144,800" stroke="#0000b2" stroke-width="4.0" fill="none"/>
<path d="M -220,900 L -220,820 L 20,820" stroke="#0000b2" stroke-width="4.0" fill="none"/>
<path d="M -200,560 L -200,440 L 20,440" stroke="#0000b2" stroke-width="4.0" fill="none"/>
<path d="M -100,-80 L -100,1080 L 260,1080" stroke="#0000b2" stroke-width="4.0" fill="none"/>
<path d="M -200,40 L -200,320 L 20,320" stroke="#0000b2" stroke-width="4.0" fill="none"/>
<path d="M 100,580 L 260,580" stroke="#0000b2" stroke-width="4.0" fill="none"/>
<path d="M 100,1220 L 120,1220 L 120,1200 L 140,1200 L 144,1200" stroke="#0000b2" stroke-width="4.0" fill="none"/>
<path d="M -260,120 L -260,200 L 20,200" stroke="#0000b2" stroke-width="4.0" fill="none"/>
<path d="M -280,-100 L -280,-80 L -260,-80 L -260,-60" stroke="#0000b2" stroke-width="4.0" fill="none"/>
<path d="M -220,-100 L -220,-80 L -200,-80 L -200,-60" stroke="#0000b2" stroke-width="4.0" fill="none"/>
<path d="M -160,-100 L -160,-80 L -140,-80 L -140,-60" stroke="#0000b2" stroke-width="4.0" fill="none"/>
<path d="M -100,-100 L -100,-80 L -80,-80 L -80,-60" stroke="#0000b2" stroke-width="4.0" fill="none"/>
<path d="M -140,740 L -140,80 L 20,80" stroke="#0000b2" stroke-width="4.0" fill="none"/>
<path d="M -80,0 L -80,720 L 20,720" stroke="#0000b2" stroke-width="4.0" fill="none"/>
<path d="M 100,340 L 260,340" stroke="#0000b2" stroke-width="4.0" fill="none"/>
<path d="M 100,980 L 260,980" stroke="#0000b2" stroke-width="4.0" fill="none"/>
<path d="M -260,1340 L -260,1240 L 20,1240" stroke="#0000b2" stroke-width="4.0" fill="none"/>
<path d="M -80,1340 L -80,1120 L 20,1120" stroke="#0000b2" stroke-width="4.0" fill="none"/>
<path d="M 100,100 L 120,100 L 120,120 L 160,120 L 164,120" stroke="#0000b2" stroke-width="4.0" fill="none"/>
<path d="M 100,740 L 120,740 L 120,760 L 140,760 L 144,760" stroke="#0000b2" stroke-width="4.0" fill="none"/>
<path d="M -280,-80 L -280,240 L 20,240" stroke="#0000b2" stroke-width="4.0" fill="none"/>
<path d="M -160,640 L -160,880 L 20,880" stroke="#0000b2" stroke-width="4.0" fill="none"/>
<path d="M 100,500 L 260,500" stroke="#0000b2" stroke-width="4.0" fill="none"/>
<path d="M 100,1140 L 120,1140 L 120,1160 L 140,1160 L 144,1160" stroke="#0000b2" stroke-width="4.0" fill="none"/>
<path d="M -260,-20 L -260,120 L 20,120" stroke="#0000b2" stroke-width="4.0" fill="none"/>
<path d="M 20,600 L -260,600 L -260,360 L 20,360" stroke="#0000b2" stroke-width="4.0" fill="none"/>
<path d="M 20,920 L -260,920 L -260,840 L 20,840" stroke="#0000b2" stroke-width="4.0" fill="none"/>
<path d="M -260,200 L -260,360" stroke="#0000b2" stroke-width="4.0" fill="none"/>
<path d="M -260,680 L -260,840" stroke="#0000b2" stroke-width="4.0" fill="none"/>
<path d="M -260,920 L -260,1240" stroke="#0000b2" stroke-width="4.0" fill="none"/>
<path d="M -100,1080 L -100,1280" stroke="#0000b2" stroke-width="4.0" fill="none"/>
<path d="M 20,520 L -280,520 L -280,1000 L 20,1000 L 24,1000" stroke="#0000b2" stroke-width="4.0" fill="none"/>
<path d="M -280,240 L -280,520" stroke="#0000b2" stroke-width="4.0" fill="none"/>
<path d="M -280,1000 L -280,1340" stroke="#0000b2" stroke-width="4.0" fill="none"/>
<path d="M 20,560 L -200,560 L -200,760 L 20,760" stroke="#0000b2" stroke-width="4.0" fill="none"/>
<path d="M -200,1160 L -200,1320" stroke="#0000b2" stroke-width="4.0" fill="none"/>
<path d="M -200,320 L -200,440" stroke="#0000b2" stroke-width="4.0" fill="none"/>
<path d="M -40,280 L -40,1340" stroke="#0000b2" stroke-width="4.0" fill="none"/>
<path d="M 20,160 L -220,160 L -220,480 L 20,480" stroke="#0000b2" stroke-width="4.0" fill="none"/>
<path d="M 20,900 L -220,900 L -220,1040 L 260,1040" stroke="#0000b2" stroke-width="4.0" fill="none"/>
<path d="M -220,480 L -220,820" stroke="#0000b2" stroke-width="4.0" fill="none"/>
<path d="M -220,1200 L -220,1340" stroke="#0000b2" stroke-width="4.0" fill="none"/>
<path d="M -220,-80 L -220,160" stroke="#0000b2" stroke-width="4.0" fill="none"/>
<path d="M 20,800 L -140,800 L -140,740 L 20,740" stroke="#0000b2" stroke-width="4.0" fill="none"/>
<path d="M 24,960 L 20,960 L -140,960 L -140,1140 L 20,1140" stroke="#0000b2" stroke-width="4.0" fill="none"/>
<path d="M -140,1140 L -140,1340" stroke="#0000b2" stroke-width="4.0" fill="none"/>
<path d="M -140,800 L -140,960" stroke="#0000b2" stroke-width="4.0" fill="none"/>
<path d="M -140,20 L -140,80" stroke="#0000b2" stroke-width="4.0" fill="none"/>
<path d="M -160,880 L -160,1300" stroke="#0000b2" stroke-width="4.0" fill="none"/>
<path d="M -80,720 L -80,1120" stroke="#0000b2" stroke-width="4.0" fill="none"/>
<path d="M 161,100 L 161,109" stroke="#000000" stroke-width="4.0" fill="none"/>
<path d="M 161,180 L 161,171" stroke="#000000" stroke-width="4.0" fill="none"/>
<g>
<circle cx="-80.0" cy="0.0" r="4.0" stroke="#0000b2" stroke-width="4.0" fill="#0000b2" />
<circle cx="-160.0" cy="640.0" r="4.0" stroke="#0000b2" stroke-width="4.0" fill="#0000b2" />
<circle cx="-100.0" cy="1280.0" r="4.0" stroke="#0000b2" stroke-width="4.0" fill="#0000b2" />
<circle cx="-220.0" cy="900.0" r="4.0" stroke="#0000b2" stroke-width="4.0" fill="#0000b2" />
<circle cx="-280.0" cy="520.0" r="4.0" stroke="#0000b2" stroke-width="4.0" fill="#0000b2" />
<circle cx="-200.0" cy="1160.0" r="4.0" stroke="#0000b2" stroke-width="4.0" fill="#0000b2" />
<circle cx="-160.0" cy="400.0" r="4.0" stroke="#0000b2" stroke-width="4.0" fill="#0000b2" />
<circle cx="-220.0" cy="1040.0" r="4.0" stroke="#0000b2" stroke-width="4.0" fill="#0000b2" />
<circle cx="-140.0" cy="20.0" r="4.0" stroke="#0000b2" stroke-width="4.0" fill="#0000b2" />
<circle cx="-160.0" cy="1300.0" r="4.0" stroke="#0000b2" stroke-width="4.0" fill="#0000b2" />
<circle cx="-40.0" cy="280.0" r="4.0" stroke="#0000b2" stroke-width="4.0" fill="#0000b2" />
<circle cx="-260.0" cy="920.0" r="4.0" stroke="#0000b2" stroke-width="4.0" fill="#0000b2" />
<circle cx="-220.0" cy="160.0" r="4.0" stroke="#0000b2" stroke-width="4.0" fill="#0000b2" />
<circle cx="-140.0" cy="800.0" r="4.0" stroke="#0000b2" stroke-width="4.0" fill="#0000b2" />
<circle cx="-200.0" cy="40.0" r="4.0" stroke="#0000b2" stroke-width="4.0" fill="#0000b2" />
<circle cx="-260.0" cy="680.0" r="4.0" stroke="#0000b2" stroke-width="4.0" fill="#0000b2" />
<circle cx="-200.0" cy="1320.0" r="4.0" stroke="#0000b2" stroke-width="4.0" fill="#0000b2" />
<circle cx="-200.0" cy="560.0" r="4.0" stroke="#0000b2" stroke-width="4.0" fill="#0000b2" />
<circle cx="-220.0" cy="1200.0" r="4.0" stroke="#0000b2" stroke-width="4.0" fill="#0000b2" />
<circle cx="-220.0" cy="820.0" r="4.0" stroke="#0000b2" stroke-width="4.0" fill="#0000b2" />
<circle cx="-200.0" cy="440.0" r="4.0" stroke="#0000b2" stroke-width="4.0" fill="#0000b2" />
<circle cx="-100.0" cy="1080.0" r="4.0" stroke="#0000b2" stroke-width="4.0" fill="#0000b2" />
<circle cx="-200.0" cy="320.0" r="4.0" stroke="#0000b2" stroke-width="4.0" fill="#0000b2" />
<circle cx="-140.0" cy="960.0" r="4.0" stroke="#0000b2" stroke-width="4.0" fill="#0000b2" />
<circle cx="-260.0" cy="200.0" r="4.0" stroke="#0000b2" stroke-width="4.0" fill="#0000b2" />
<circle cx="-260.0" cy="840.0" r="4.0" stroke="#0000b2" stroke-width="4.0" fill="#0000b2" />
<circle cx="-280.0" cy="-80.0" r="4.0" stroke="#0000b2" stroke-width="4.0" fill="#0000b2" />
<circle cx="-220.0" cy="-80.0" r="4.0" stroke="#0000b2" stroke-width="4.0" fill="#0000b2" />
<circle cx="-160.0" cy="-80.0" r="4.0" stroke="#0000b2" stroke-width="4.0" fill="#0000b2" />
<circle cx="-100.0" cy="-80.0" r="4.0" stroke="#0000b2" stroke-width="4.0" fill="#0000b2" />
<circle cx="-140.0" cy="80.0" r="4.0" stroke="#0000b2" stroke-width="4.0" fill="#0000b2" />
<circle cx="-80.0" cy="720.0" r="4.0" stroke="#0000b2" stroke-width="4.0" fill="#0000b2" />
<circle cx="-260.0" cy="600.0" r="4.0" stroke="#0000b2" stroke-width="4.0" fill="#0000b2" />
<circle cx="-260.0" cy="1240.0" r="4.0" stroke="#0000b2" stroke-width="4.0" fill="#0000b2" />
<circle cx="-220.0" cy="480.0" r="4.0" stroke="#0000b2" stroke-width="4.0" fill="#0000b2" />
<circle cx="-80.0" cy="1120.0" r="4.0" stroke="#0000b2" stroke-width="4.0" fill="#0000b2" />
<circle cx="-140.0" cy="740.0" r="4.0" stroke="#0000b2" stroke-width="4.0" fill="#0000b2" />
<circle cx="-260.0" cy="360.0" r="4.0" stroke="#0000b2" stroke-width="4.0" fill="#0000b2" />
<circle cx="-280.0" cy="1000.0" r="4.0" stroke="#0000b2" stroke-width="4.0" fill="#0000b2" />
<circle cx="-280.0" cy="240.0" r="4.0" stroke="#0000b2" stroke-width="4.0" fill="#0000b2" />
<circle cx="-160.0" cy="880.0" r="4.0" stroke="#0000b2" stroke-width="4.0" fill="#0000b2" />
<circle cx="-140.0" cy="1140.0" r="4.0" stroke="#0000b2" stroke-width="4.0" fill="#0000b2" />
<circle cx="-260.0" cy="120.0" r="4.0" stroke="#0000b2" stroke-width="4.0" fill="#0000b2" />
<circle cx="-200.0" cy="760.0" r="4.0" stroke="#0000b2" stroke-width="4.0" fill="#0000b2" />
</g>
<g>
<circle cx="276.0" cy="140.0" r="9.0" stroke="#000000" stroke-width="4.0" fill="none" />
<circle cx="276.0" cy="140.0" r="15.0" stroke="#000000" stroke-width="4.0" fill="none" />
<text text-anchor="start" x="305.0" y="149.0" fill="#000000" style="font-size:24px"><tspan style="font-style:italic;">selImm</tspan></text>
<circle cx="260.0" cy="140.0" r="2.0" stroke="#0000b2" stroke-width="4.0" fill="#0000b2" />
</g>
<g>
<path d="M 190,170 L 160,170 C 170,154 170,126 160,110 L 180,110 C 210,110 230,120 240,140 C 230,160 210,170 190,170 Z" stroke="#000000" stroke-width="4.0" fill="none"/>
<circle cx="160.0" cy="100.0" r="2.0" stroke="#0000b2" stroke-width="4.0" fill="#0000b2" />
<circle cx="160.0" cy="120.0" r="2.0" stroke="#0000b2" stroke-width="4.0" fill="#0000b2" />
<circle cx="160.0" cy="160.0" r="2.0" stroke="#0000b2" stroke-width="4.0" fill="#0000b2" />
<circle cx="160.0" cy="180.0" r="2.0" stroke="#0000b2" stroke-width="4.0" fill="#0000b2" />
<circle cx="240.0" cy="140.0" r="2.0" stroke="#b20000" stroke-width="4.0" fill="#b20000" />
</g>
<g>
<path d="M 70,50 L 21,50 L 21,-10 L 70,-10 C 80,-10 100,0 99,20 C 99,40 80,50 70,50 Z" stroke="#000000" stroke-width="4.0" fill="none"/>
<circle cx="20.0" cy="0.0" r="2.0" stroke="#0000b2" stroke-width="4.0" fill="#0000b2" />
<circle cx="20.0" cy="20.0" r="2.0" stroke="#0000b2" stroke-width="4.0" fill="#0000b2" />
<circle cx="20.0" cy="40.0" r="2.0" stroke="#0000b2" stroke-width="4.0" fill="#0000b2" />
<circle cx="100.0" cy="20.0" r="2.0" stroke="#b20000" stroke-width="4.0" fill="#b20000" />
</g>
<g>
<path d="M 70,130 L 21,130 L 21,70 L 70,70 C 80,70 100,80 99,100 C 99,120 80,130 70,130 Z" stroke="#000000" stroke-width="4.0" fill="none"/>
<circle cx="20.0" cy="80.0" r="2.0" stroke="#0000b2" stroke-width="4.0" fill="#0000b2" />
<circle cx="20.0" cy="120.0" r="2.0" stroke="#0000b2" stroke-width="4.0" fill="#0000b2" />
<circle cx="100.0" cy="100.0" r="2.0" stroke="#b20000" stroke-width="4.0" fill="#b20000" />
</g>
<g>
<path d="M 70,210 L 21,210 L 21,150 L 70,150 C 80,150 100,160 99,180 C 99,200 80,210 70,210 Z" stroke="#000000" stroke-width="4.0" fill="none"/>
<circle cx="20.0" cy="160.0" r="2.0" stroke="#0000b2" stroke-width="4.0" fill="#0000b2" />
<circle cx="20.0" cy="200.0" r="2.0" stroke="#0000b2" stroke-width="4.0" fill="#0000b2" />
<circle cx="100.0" cy="180.0" r="2.0" stroke="#b20000" stroke-width="4.0" fill="#b20000" />
</g>
<g>
<path d="M 70,290 L 21,290 L 21,230 L 70,230 C 80,230 100,240 99,260 C 99,280 80,290 70,290 Z" stroke="#000000" stroke-width="4.0" fill="none"/>
<circle cx="20.0" cy="240.0" r="2.0" stroke="#0000b2" stroke-width="4.0" fill="#0000b2" />
<circle cx="20.0" cy="280.0" r="2.0" stroke="#0000b2" stroke-width="4.0" fill="#0000b2" />
<circle cx="100.0" cy="260.0" r="2.0" stroke="#b20000" stroke-width="4.0" fill="#b20000" />
</g>
<g>
<circle cx="276.0" cy="340.0" r="9.0" stroke="#000000" stroke-width="4.0" fill="none" />
<circle cx="276.0" cy="340.0" r="15.0" stroke="#000000" stroke-width="4.0" fill="none" />
<text text-anchor="start" x="305.0" y="349.0" fill="#000000" style="font-size:24px"><tspan style="font-style:italic;">selConst</tspan></text>
<circle cx="260.0" cy="340.0" r="2.0" stroke="#0000b2" stroke-width="4.0" fill="#0000b2" />
</g>
<g>
<path d="M 70,370 L 21,370 L 21,310 L 70,310 C 80,310 100,320 99,340 C 99,360 80,370 70,370 Z" stroke="#000000" stroke-width="4.0" fill="none"/>
<circle cx="20.0" cy="320.0" r="2.0" stroke="#0000b2" stroke-width="4.0" fill="#0000b2" />
<circle cx="20.0" cy="360.0" r="2.0" stroke="#0000b2" stroke-width="4.0" fill="#0000b2" />
<circle cx="100.0" cy="340.0" r="2.0" stroke="#b20000" stroke-width="4.0" fill="#b20000" />
</g>
<g>
<circle cx="276.0" cy="420.0" r="9.0" stroke="#000000" stroke-width="4.0" fill="none" />
<circle cx="276.0" cy="420.0" r="15.0" stroke="#000000" stroke-width="4.0" fill="none" />
<text text-anchor="start" x="305.0" y="429.0" fill="#000000" style="font-size:24px"><tspan style="font-style:italic;">sub</tspan></text>
<circle cx="260.0" cy="420.0" r="2.0" stroke="#0000b2" stroke-width="4.0" fill="#0000b2" />
</g>
<g>
<path d="M 70,450 L 21,450 L 21,390 L 70,390 C 80,390 100,400 99,420 C 99,440 80,450 70,450 Z" stroke="#000000" stroke-width="4.0" fill="none"/>
<circle cx="20.0" cy="400.0" r="2.0" stroke="#0000b2" stroke-width="4.0" fill="#0000b2" />
<circle cx="20.0" cy="440.0" r="2.0" stroke="#0000b2" stroke-width="4.0" fill="#0000b2" />
<circle cx="100.0" cy="420.0" r="2.0" stroke="#b20000" stroke-width="4.0" fill="#b20000" />
</g>
<g>
<circle cx="276.0" cy="500.0" r="9.0" stroke="#000000" stroke-width="4.0" fill="none" />
<circle cx="276.0" cy="500.0" r="15.0" stroke="#000000" stroke-width="4.0" fill="none" />
<text text-anchor="start" x="305.0" y="509.0" fill="#000000" style="font-size:24px"><tspan style="font-style:italic;">logic</tspan></text>
<circle cx="260.0" cy="500.0" r="2.0" stroke="#0000b2" stroke-width="4.0" fill="#0000b2" />
</g>
<g>
<path d="M 70,530 L 21,530 L 21,470 L 70,470 C 80,470 100,480 99,500 C 99,520 80,530 70,530 Z" stroke="#000000" stroke-width="4.0" fill="none"/>
<circle cx="20.0" cy="480.0" r="2.0" stroke="#0000b2" stroke-width="4.0" fill="#0000b2" />
<circle cx="20.0" cy="520.0" r="2.0" stroke="#0000b2" stroke-width="4.0" fill="#0000b2" />
<circle cx="100.0" cy="500.0" r="2.0" stroke="#b20000" stroke-width="4.0" fill="#b20000" />
</g>
<g>
<circle cx="276.0" cy="580.0" r="9.0" stroke="#000000" stroke-width="4.0" fill="none" />
<circle cx="276.0" cy="580.0" r="15.0" stroke="#000000" stroke-width="4.0" fill="none" />
<text text-anchor="start" x="305.0" y="589.0" fill="#000000" style="font-size:24px"><tspan style="font-style:italic;">aPC</tspan></text>
<circle cx="260.0" cy="580.0" r="2.0" stroke="#0000b2" stroke-width="4.0" fill="#0000b2" />
</g>
<g>
<path d="M 70,610 L 21,610 L 21,550 L 70,550 C 80,550 100,560 99,580 C 99,600 80,610 70,610 Z" stroke="#000000" stroke-width="4.0" fill="none"/>
<circle cx="20.0" cy="560.0" r="2.0" stroke="#0000b2" stroke-width="4.0" fill="#0000b2" />
<circle cx="20.0" cy="600.0" r="2.0" stroke="#0000b2" stroke-width="4.0" fill="#0000b2" />
<circle cx="100.0" cy="580.0" r="2.0" stroke="#b20000" stroke-width="4.0" fill="#b20000" />
</g>
<g>
<circle cx="276.0" cy="660.0" r="9.0" stroke="#000000" stroke-width="4.0" fill="none" />
<circle cx="276.0" cy="660.0" r="15.0" stroke="#000000" stroke-width="4.0" fill="none" />
<text text-anchor="start" x="305.0" y="669.0" fill="#000000" style="font-size:24px"><tspan style="font-style:italic;">lowImm</tspan></text>
<circle cx="260.0" cy="660.0" r="2.0" stroke="#0000b2" stroke-width="4.0" fill="#0000b2" />
</g>
<g>
<path d="M 70,690 L 21,690 L 21,630 L 70,630 C 80,630 100,640 99,660 C 99,680 80,690 70,690 Z" stroke="#000000" stroke-width="4.0" fill="none"/>
<circle cx="20.0" cy="640.0" r="2.0" stroke="#0000b2" stroke-width="4.0" fill="#0000b2" />
<circle cx="20.0" cy="680.0" r="2.0" stroke="#0000b2" stroke-width="4.0" fill="#0000b2" />
<circle cx="100.0" cy="660.0" r="2.0" stroke="#b20000" stroke-width="4.0" fill="#b20000" />
</g>
<g>
<circle cx="276.0" cy="780.0" r="9.0" stroke="#000000" stroke-width="4.0" fill="none" />
<circle cx="276.0" cy="780.0" r="15.0" stroke="#000000" stroke-width="4.0" fill="none" />
<text text-anchor="start" x="305.0" y="789.0" fill="#000000" style="font-size:24px"><tspan style="font-style:italic;">rd</tspan></text>
<circle cx="260.0" cy="780.0" r="2.0" stroke="#0000b2" stroke-width="4.0" fill="#0000b2" />
</g>
<g>
<path d="M 170,810 L 140,810 C 150,794 150,766 140,750 L 160,750 C 190,750 210,760 220,780 C 210,800 190,810 170,810 Z" stroke="#000000" stroke-width="4.0" fill="none"/>
<circle cx="140.0" cy="760.0" r="2.0" stroke="#0000b2" stroke-width="4.0" fill="#0000b2" />
<circle cx="140.0" cy="800.0" r="2.0" stroke="#0000b2" stroke-width="4.0" fill="#0000b2" />
<circle cx="220.0" cy="780.0" r="2.0" stroke="#b20000" stroke-width="4.0" fill="#b20000" />
</g>
<g>
<path d="M 70,770 L 21,770 L 21,710 L 70,710 C 80,710 100,720 99,740 C 99,760 80,770 70,770 Z" stroke="#000000" stroke-width="4.0" fill="none"/>
<circle cx="20.0" cy="720.0" r="2.0" stroke="#0000b2" stroke-width="4.0" fill="#0000b2" />
<circle cx="20.0" cy="740.0" r="2.0" stroke="#0000b2" stroke-width="4.0" fill="#0000b2" />
<circle cx="20.0" cy="760.0" r="2.0" stroke="#0000b2" stroke-width="4.0" fill="#0000b2" />
<circle cx="100.0" cy="740.0" r="2.0" stroke="#b20000" stroke-width="4.0" fill="#b20000" />
</g>
<g>
<path d="M 70,850 L 21,850 L 21,790 L 70,790 C 80,790 100,800 99,820 C 99,840 80,850 70,850 Z" stroke="#000000" stroke-width="4.0" fill="none"/>
<circle cx="20.0" cy="800.0" r="2.0" stroke="#0000b2" stroke-width="4.0" fill="#0000b2" />
<circle cx="20.0" cy="820.0" r="2.0" stroke="#0000b2" stroke-width="4.0" fill="#0000b2" />
<circle cx="20.0" cy="840.0" r="2.0" stroke="#0000b2" stroke-width="4.0" fill="#0000b2" />
<circle cx="100.0" cy="820.0" r="2.0" stroke="#b20000" stroke-width="4.0" fill="#b20000" />
</g>
<g>
<circle cx="276.0" cy="900.0" r="9.0" stroke="#000000" stroke-width="4.0" fill="none" />
<circle cx="276.0" cy="900.0" r="15.0" stroke="#000000" stroke-width="4.0" fill="none" />
<text text-anchor="start" x="305.0" y="909.0" fill="#000000" style="font-size:24px"><tspan style="font-style:italic;">wr</tspan></text>
<circle cx="260.0" cy="900.0" r="2.0" stroke="#0000b2" stroke-width="4.0" fill="#0000b2" />
</g>
<g>
<path d="M 70,930 L 21,930 L 21,870 L 70,870 C 80,870 100,880 99,900 C 99,920 80,930 70,930 Z" stroke="#000000" stroke-width="4.0" fill="none"/>
<circle cx="20.0" cy="880.0" r="2.0" stroke="#0000b2" stroke-width="4.0" fill="#0000b2" />
<circle cx="20.0" cy="900.0" r="2.0" stroke="#0000b2" stroke-width="4.0" fill="#0000b2" />
<circle cx="20.0" cy="920.0" r="2.0" stroke="#0000b2" stroke-width="4.0" fill="#0000b2" />
<circle cx="100.0" cy="900.0" r="2.0" stroke="#b20000" stroke-width="4.0" fill="#b20000" />
</g>
<g>
<circle cx="276.0" cy="980.0" r="9.0" stroke="#000000" stroke-width="4.0" fill="none" />
<circle cx="276.0" cy="980.0" r="15.0" stroke="#000000" stroke-width="4.0" fill="none" />
<text text-anchor="start" x="305.0" y="989.0" fill="#000000" style="font-size:24px"><tspan style="font-style:italic;">we</tspan></text>
<circle cx="260.0" cy="980.0" r="2.0" stroke="#0000b2" stroke-width="4.0" fill="#0000b2" />
</g>
<g>
<path d="M 50,1010 L 20,1010 C 30,994 30,966 20,950 L 40,950 C 70,950 90,960 100,980 C 90,1000 70,1010 50,1010 Z" stroke="#000000" stroke-width="4.0" fill="none"/>
<circle cx="20.0" cy="960.0" r="2.0" stroke="#0000b2" stroke-width="4.0" fill="#0000b2" />
<circle cx="20.0" cy="1000.0" r="2.0" stroke="#0000b2" stroke-width="4.0" fill="#0000b2" />
<circle cx="100.0" cy="980.0" r="2.0" stroke="#b20000" stroke-width="4.0" fill="#b20000" />
</g>
<g>
<circle cx="276.0" cy="1040.0" r="9.0" stroke="#000000" stroke-width="4.0" fill="none" />
<circle cx="276.0" cy="1040.0" r="15.0" stroke="#000000" stroke-width="4.0" fill="none" />
<text text-anchor="start" x="305.0" y="1049.0" fill="#000000" style="font-size:24px"><tspan style="font-style:italic;">sign</tspan></text>
<circle cx="260.0" cy="1040.0" r="2.0" stroke="#0000b2" stroke-width="4.0" fill="#0000b2" />
</g>
<g>
<circle cx="276.0" cy="1080.0" r="9.0" stroke="#000000" stroke-width="4.0" fill="none" />
<circle cx="276.0" cy="1080.0" r="15.0" stroke="#000000" stroke-width="4.0" fill="none" />
<text text-anchor="start" x="305.0" y="1089.0" fill="#000000" style="font-size:24px"><tspan style="font-style:italic;">word</tspan></text>
<circle cx="260.0" cy="1080.0" r="2.0" stroke="#0000b2" stroke-width="4.0" fill="#0000b2" />
</g>
<g>
<circle cx="276.0" cy="1180.0" r="9.0" stroke="#000000" stroke-width="4.0" fill="none" />
<circle cx="276.0" cy="1180.0" r="15.0" stroke="#000000" stroke-width="4.0" fill="none" />
<text text-anchor="start" x="305.0" y="1189.0" fill="#000000" style="font-size:24px"><tspan style="font-style:italic;">selRd</tspan></text>
<circle cx="260.0" cy="1180.0" r="2.0" stroke="#0000b2" stroke-width="4.0" fill="#0000b2" />
</g>
<g>
<path d="M 170,1210 L 140,1210 C 150,1194 150,1166 140,1150 L 160,1150 C 190,1150 210,1160 220,1180 C 210,1200 190,1210 170,1210 Z" stroke="#000000" stroke-width="4.0" fill="none"/>
<circle cx="140.0" cy="1160.0" r="2.0" stroke="#0000b2" stroke-width="4.0" fill="#0000b2" />
<circle cx="140.0" cy="1200.0" r="2.0" stroke="#0000b2" stroke-width="4.0" fill="#0000b2" />
<circle cx="220.0" cy="1180.0" r="2.0" stroke="#b20000" stroke-width="4.0" fill="#b20000" />
</g>
<g>
<path d="M 70,1170 L 21,1170 L 21,1110 L 70,1110 C 80,1110 100,1120 99,1140 C 99,1160 80,1170 70,1170 Z" stroke="#000000" stroke-width="4.0" fill="none"/>
<circle cx="20.0" cy="1120.0" r="2.0" stroke="#0000b2" stroke-width="4.0" fill="#0000b2" />
<circle cx="20.0" cy="1140.0" r="2.0" stroke="#0000b2" stroke-width="4.0" fill="#0000b2" />
<circle cx="20.0" cy="1160.0" r="2.0" stroke="#0000b2" stroke-width="4.0" fill="#0000b2" />
<circle cx="100.0" cy="1140.0" r="2.0" stroke="#b20000" stroke-width="4.0" fill="#b20000" />
</g>
<g>
<path d="M 70,1250 L 21,1250 L 21,1190 L 70,1190 C 80,1190 100,1200 99,1220 C 99,1240 80,1250 70,1250 Z" stroke="#000000" stroke-width="4.0" fill="none"/>
<circle cx="20.0" cy="1200.0" r="2.0" stroke="#0000b2" stroke-width="4.0" fill="#0000b2" />
<circle cx="20.0" cy="1240.0" r="2.0" stroke="#0000b2" stroke-width="4.0" fill="#0000b2" />
<circle cx="100.0" cy="1220.0" r="2.0" stroke="#b20000" stroke-width="4.0" fill="#b20000" />
</g>
<g>
<circle cx="276.0" cy="1300.0" r="9.0" stroke="#000000" stroke-width="4.0" fill="none" />
<circle cx="276.0" cy="1300.0" r="15.0" stroke="#000000" stroke-width="4.0" fill="none" />
<text text-anchor="start" x="305.0" y="1309.0" fill="#000000" style="font-size:24px"><tspan style="font-style:italic;">slt</tspan></text>
<circle cx="260.0" cy="1300.0" r="2.0" stroke="#0000b2" stroke-width="4.0" fill="#0000b2" />
</g>
<g>
<path d="M 70,1330 L 21,1330 L 21,1270 L 70,1270 C 80,1270 100,1280 99,1300 C 99,1320 80,1330 70,1330 Z" stroke="#000000" stroke-width="4.0" fill="none"/>
<circle cx="20.0" cy="1280.0" r="2.0" stroke="#0000b2" stroke-width="4.0" fill="#0000b2" />
<circle cx="20.0" cy="1300.0" r="2.0" stroke="#0000b2" stroke-width="4.0" fill="#0000b2" />
<circle cx="20.0" cy="1320.0" r="2.0" stroke="#0000b2" stroke-width="4.0" fill="#0000b2" />
<circle cx="100.0" cy="1300.0" r="2.0" stroke="#b20000" stroke-width="4.0" fill="#b20000" />
</g>
<g>
<path d="M -265,-131 L -265,-101 L -295,-101 L -295,-131 Z" stroke="#000000" stroke-width="4.0" fill="none"/>
<circle cx="-280.0" cy="-116.0" r="9.0" stroke="#000000" stroke-width="4.0" fill="none" />
<text text-anchor="start" x="-280.0" y="-136.0" fill="#000000" style="font-size:24px" transform="rotate(-90,-280.0,-145.0)" ><tspan style="font-style:italic;">IR3</tspan></text>
<circle cx="-280.0" cy="-100.0" r="2.0" stroke="#b20000" stroke-width="4.0" fill="#b20000" />
</g>
<g>
<path d="M -248,-59 L -260,-41 L -272,-59 Z" stroke="#000000" stroke-width="4.0" fill="none"/>
<circle cx="-260.0" cy="-30.0" r="9.0" stroke="#000000" stroke-width="4.0" fill="none" />
<circle cx="-260.0" cy="-60.0" r="2.0" stroke="#0000b2" stroke-width="4.0" fill="#0000b2" />
<circle cx="-260.0" cy="-20.0" r="2.0" stroke="#b20000" stroke-width="4.0" fill="#b20000" />
</g>
<g>
<path d="M -205,-131 L -205,-101 L -235,-101 L -235,-131 Z" stroke="#000000" stroke-width="4.0" fill="none"/>
<circle cx="-220.0" cy="-116.0" r="9.0" stroke="#000000" stroke-width="4.0" fill="none" />
<text text-anchor="start" x="-220.0" y="-136.0" fill="#000000" style="font-size:24px" transform="rotate(-90,-220.0,-145.0)" ><tspan style="font-style:italic;">IR2</tspan></text>
<circle cx="-220.0" cy="-100.0" r="2.0" stroke="#b20000" stroke-width="4.0" fill="#b20000" />
</g>
<g>
<path d="M -188,-59 L -200,-41 L -212,-59 Z" stroke="#000000" stroke-width="4.0" fill="none"/>
<circle cx="-200.0" cy="-30.0" r="9.0" stroke="#000000" stroke-width="4.0" fill="none" />
<circle cx="-200.0" cy="-60.0" r="2.0" stroke="#0000b2" stroke-width="4.0" fill="#0000b2" />
<circle cx="-200.0" cy="-20.0" r="2.0" stroke="#b20000" stroke-width="4.0" fill="#b20000" />
</g>
<g>
<path d="M -145,-131 L -145,-101 L -175,-101 L -175,-131 Z" stroke="#000000" stroke-width="4.0" fill="none"/>
<circle cx="-160.0" cy="-116.0" r="9.0" stroke="#000000" stroke-width="4.0" fill="none" />
<text text-anchor="start" x="-160.0" y="-136.0" fill="#000000" style="font-size:24px" transform="rotate(-90,-160.0,-145.0)" ><tspan style="font-style:italic;">IR1</tspan></text>
<circle cx="-160.0" cy="-100.0" r="2.0" stroke="#b20000" stroke-width="4.0" fill="#b20000" />
</g>
<g>
<path d="M -128,-59 L -140,-41 L -152,-59 Z" stroke="#000000" stroke-width="4.0" fill="none"/>
<circle cx="-140.0" cy="-30.0" r="9.0" stroke="#000000" stroke-width="4.0" fill="none" />
<circle cx="-140.0" cy="-60.0" r="2.0" stroke="#0000b2" stroke-width="4.0" fill="#0000b2" />
<circle cx="-140.0" cy="-20.0" r="2.0" stroke="#b20000" stroke-width="4.0" fill="#b20000" />
</g>
<g>
<path d="M -85,-131 L -85,-101 L -115,-101 L -115,-131 Z" stroke="#000000" stroke-width="4.0" fill="none"/>
<circle cx="-100.0" cy="-116.0" r="9.0" stroke="#000000" stroke-width="4.0" fill="none" />
<text text-anchor="start" x="-100.0" y="-136.0" fill="#000000" style="font-size:24px" transform="rotate(-90,-100.0,-145.0)" ><tspan style="font-style:italic;">IR0</tspan></text>
<circle cx="-100.0" cy="-100.0" r="2.0" stroke="#b20000" stroke-width="4.0" fill="#b20000" />
</g>
<g>
<path d="M -68,-59 L -80,-41 L -92,-59 Z" stroke="#000000" stroke-width="4.0" fill="none"/>
<circle cx="-80.0" cy="-30.0" r="9.0" stroke="#000000" stroke-width="4.0" fill="none" />
<circle cx="-80.0" cy="-60.0" r="2.0" stroke="#0000b2" stroke-width="4.0" fill="#0000b2" />
<circle cx="-80.0" cy="-20.0" r="2.0" stroke="#b20000" stroke-width="4.0" fill="#b20000" />
</g>
<g>
<path d="M -25,-131 L -25,-101 L -55,-101 L -55,-131 Z" stroke="#000000" stroke-width="4.0" fill="none"/>
<circle cx="-40.0" cy="-116.0" r="9.0" stroke="#000000" stroke-width="4.0" fill="none" />
<text text-anchor="start" x="-40.0" y="-136.0" fill="#000000" style="font-size:24px" transform="rotate(-90,-40.0,-145.0)" ><tspan style="font-style:italic;">imm</tspan></text>
<circle cx="-40.0" cy="-100.0" r="2.0" stroke="#b20000" stroke-width="4.0" fill="#b20000" />
</g>
</g>
</svg>