<?xml version="1.0" encoding="UTF-8" standalone="no"?>
<!-- Created with Digital by H.Neemann -->
<!-- created: Wed Sep 04 19:01:11 BRT 2024 -->

<svg
   xmlns:svg="http://www.w3.org/2000/svg"
   xmlns="http://www.w3.org/2000/svg"
   width="141.3mm"
   height="114.9mm"
   viewBox="689 26 942 766">
<g stroke-linecap="square">
<path d="M 712,720 L 762,720" stroke-dasharray="4.0,4.0" stroke="#000000" stroke-width="1.0" fill="none"/>
<path d="M 712,755 L 762,755" stroke-dasharray="4.0,4.0" stroke="#000000" stroke-width="1.0" fill="none"/>
<path d="M 762,685 L 712,685 L 712,790 L 762,790 Z" stroke-dasharray="4.0,4.0" stroke="#000000" stroke-width="1.0" fill="none"/>
<path d="M 737,685 L 737,790" stroke-dasharray="4.0,4.0" stroke="#000000" stroke-width="1.0" fill="none"/>
<path d="M 1120,320 L 1140,320 L 1320,320 L 1320,340 L 1380,340" stroke="#0000b2" stroke-width="4.0" fill="none"/>
<path d="M 820,320 L 840,320 L 960,320" stroke="#0000b2" stroke-width="4.0" fill="none"/>
<path d="M 820,480 L 880,480" stroke="#0000b2" stroke-width="4.0" fill="none"/>
<path d="M 1220,400 L 1220,480 L 1560,480" stroke="#0000b2" stroke-width="4.0" fill="none"/>
<path d="M 1520,580 L 1540,580 L 1540,500 L 1560,500" stroke="#0000b2" stroke-width="4.0" fill="none"/>
<path d="M 740,480 L 740,420 L 840,420 L 840,320" stroke="#0000b2" stroke-width="4.0" fill="none"/>
<path d="M 1200,360 L 1200,420 L 1380,420" stroke="#0000b2" stroke-width="4.0" fill="none"/>
<path d="M 900,480 L 900,520 L 1120,520 L 1420,520 L 1520,520 L 1520,100 L 1420,100 L 1420,60 L 1400,60" stroke="#0000b2" stroke-width="4.0" fill="none"/>
<path d="M 1280,360 L 1380,360" stroke="#0000b2" stroke-width="4.0" fill="none"/>
<path d="M 1120,360 L 1140,360 L 1200,360 L 1200,260 L 1380,260" stroke="#0000b2" stroke-width="4.0" fill="none"/>
<path d="M 1240,40 L 1340,40" stroke="#0000b2" stroke-width="4.0" fill="none"/>
<path d="M 1240,340 L 1240,460 L 1560,460" stroke="#0000b2" stroke-width="4.0" fill="none"/>
<path d="M 920,460 L 940,460 L 940,400 L 880,400 L 880,360 L 920,360 L 960,360" stroke="#0000b2" stroke-width="4.0" fill="none"/>
<path d="M 1120,400 L 1180,400 L 1180,220 L 1380,220" stroke="#0000b2" stroke-width="4.0" fill="none"/>
<path d="M 1100,560 L 1120,560 L 1120,520" stroke="#0000b2" stroke-width="4.0" fill="none"/>
<path d="M 1420,520 L 1420,560 L 1440,560" stroke="#0000b2" stroke-width="4.0" fill="none"/>
<path d="M 1120,340 L 1240,340 L 1260,340" stroke="#0000b2" stroke-width="4.0" fill="none"/>
<path d="M 1280,340 L 1300,340 L 1300,200 L 1380,200" stroke="#0000b2" stroke-width="4.0" fill="none"/>
<path d="M 1100,600 L 1140,600 L 1140,360" stroke="#0000b2" stroke-width="4.0" fill="none"/>
<path d="M 1180,400 L 1180,600 L 1440,600" stroke="#0000b2" stroke-width="4.0" fill="none"/>
<path d="M 1460,240 L 1460,280 L 1480,280 L 1480,380 L 1440,380" stroke="#0000b2" stroke-width="4.0" fill="none"/>
<path d="M 1440,220 L 1460,220" stroke="#0000b2" stroke-width="4.0" fill="none"/>
<path d="M 1480,220 L 1500,220 L 1500,500 L 860,500 L 860,440 L 880,440" stroke="#0000b2" stroke-width="4.0" fill="none"/>
<path d="M 1120,380 L 1380,380" stroke="#0000b2" stroke-width="4.0" fill="none"/>
<path d="M 820,380 L 860,380 L 860,340 L 960,340" stroke="#0000b2" stroke-width="4.0" fill="none"/>
<path d="M 1380,400 L 1220,400 L 1220,240 L 1380,240" stroke="#0000b2" stroke-width="4.0" fill="none"/>
<path d="M 1380,180 L 1320,180 L 1320,60 L 1340,60" stroke="#0000b2" stroke-width="4.0" fill="none"/>
<path d="M 1320,180 L 1320,320" stroke="#0000b2" stroke-width="4.0" fill="none"/>
<path d="M 1020,580 L 720,580 L 720,500 L 760,500" stroke="#0000b2" stroke-width="4.0" fill="none"/>
<path d="M 1140,260 L 1140,320" stroke="#0000b2" stroke-width="4.0" fill="none"/>
<path d="M 920,280 L 920,360" stroke="#0000b2" stroke-width="4.0" fill="none"/>
<path d="M 760,480 L 740,480 L 700,480 L 700,640 L 1220,640 L 1220,480" stroke="#0000b2" stroke-width="4.0" fill="none"/>
<path d="M 712,715 L 737,715 L 762,715" stroke="#000000" stroke-width="4.0" fill="none"/>
<path d="M 712,750 L 737,750 L 737,725 L 762,725" stroke="#000000" stroke-width="4.0" fill="none"/>
<path d="M 712,785 L 737,785 L 762,785" stroke="#000000" stroke-width="4.0" fill="none"/>
<path d="M 1460,220 L 1470,220 L 1480,220" stroke="#000000" stroke-width="4.0" fill="none"/>
<path d="M 1460,240 L 1470,240" stroke="#000000" stroke-width="4.0" fill="none"/>
<path d="M 1260,340 L 1270,340 L 1280,340" stroke="#000000" stroke-width="4.0" fill="none"/>
<path d="M 1280,360 L 1270,360" stroke="#000000" stroke-width="4.0" fill="none"/>
<g>
<circle cx="1140.0" cy="320.0" r="4.0" stroke="#0000b2" stroke-width="4.0" fill="#0000b2" />
<circle cx="840.0" cy="320.0" r="4.0" stroke="#0000b2" stroke-width="4.0" fill="#0000b2" />
<circle cx="1320.0" cy="320.0" r="4.0" stroke="#0000b2" stroke-width="4.0" fill="#0000b2" />
<circle cx="740.0" cy="480.0" r="4.0" stroke="#0000b2" stroke-width="4.0" fill="#0000b2" />
<circle cx="1220.0" cy="480.0" r="4.0" stroke="#0000b2" stroke-width="4.0" fill="#0000b2" />
<circle cx="1120.0" cy="520.0" r="4.0" stroke="#0000b2" stroke-width="4.0" fill="#0000b2" />
<circle cx="1420.0" cy="520.0" r="4.0" stroke="#0000b2" stroke-width="4.0" fill="#0000b2" />
<circle cx="920.0" cy="360.0" r="4.0" stroke="#0000b2" stroke-width="4.0" fill="#0000b2" />
<circle cx="1140.0" cy="360.0" r="4.0" stroke="#0000b2" stroke-width="4.0" fill="#0000b2" />
<circle cx="1200.0" cy="360.0" r="4.0" stroke="#0000b2" stroke-width="4.0" fill="#0000b2" />
<circle cx="1220.0" cy="400.0" r="4.0" stroke="#0000b2" stroke-width="4.0" fill="#0000b2" />
<circle cx="1180.0" cy="400.0" r="4.0" stroke="#0000b2" stroke-width="4.0" fill="#0000b2" />
<circle cx="1240.0" cy="340.0" r="4.0" stroke="#0000b2" stroke-width="4.0" fill="#0000b2" />
<circle cx="1320.0" cy="180.0" r="4.0" stroke="#0000b2" stroke-width="4.0" fill="#0000b2" />
</g>
<g>
<path d="M 1381,330 L 1439,330 L 1439,430 L 1381,430 Z" stroke="#000000" stroke-width="4.0" fill="none"/>
<text text-anchor="middle" x="1410.0" y="322.0" fill="#000000" style="font-size:24px">mem1 high</text>
<text text-anchor="start" x="1384.0" y="346.75" fill="#808080" style="font-size:18px">A</text>
<text text-anchor="start" x="1384.0" y="366.75" fill="#808080" style="font-size:18px">Din</text>
<text text-anchor="start" x="1384.0" y="386.75" fill="#808080" style="font-size:18px">str</text>
<path d="M 1381,407 L 1388,400 L 1381,393" stroke="#000000" stroke-width="2.0" fill="none"/>
<text text-anchor="start" x="1391.0" y="406.75" fill="#808080" style="font-size:18px">C</text>
<text text-anchor="start" x="1384.0" y="426.75" fill="#808080" style="font-size:18px">ld</text>
<text text-anchor="end" x="1436.0" y="386.75" fill="#808080" style="font-size:18px">D</text>
<text text-anchor="middle" x="1410.0" y="447.5" fill="#808080" style="font-size:18px">RAM</text>
<circle cx="1380.0" cy="340.0" r="2.0" stroke="#0000b2" stroke-width="4.0" fill="#0000b2" />
<circle cx="1380.0" cy="360.0" r="2.0" stroke="#0000b2" stroke-width="4.0" fill="#0000b2" />
<circle cx="1380.0" cy="380.0" r="2.0" stroke="#0000b2" stroke-width="4.0" fill="#0000b2" />
<circle cx="1380.0" cy="400.0" r="2.0" stroke="#0000b2" stroke-width="4.0" fill="#0000b2" />
<circle cx="1380.0" cy="420.0" r="2.0" stroke="#0000b2" stroke-width="4.0" fill="#0000b2" />
<circle cx="1440.0" cy="380.0" r="2.0" stroke="#b20000" stroke-width="4.0" fill="#b20000" />
</g>
<g>
<path d="M 1561,450 L 1619,450 L 1619,510 L 1561,510 Z" stroke="#000000" stroke-width="4.0" fill="none"/>
<text text-anchor="start" x="1564.0" y="466.75" fill="#808080" style="font-size:18px">D</text>
<path d="M 1561,487 L 1568,480 L 1561,473" stroke="#000000" stroke-width="2.0" fill="none"/>
<text text-anchor="start" x="1571.0" y="486.75" fill="#808080" style="font-size:18px">C</text>
<text text-anchor="start" x="1564.0" y="506.75" fill="#808080" style="font-size:18px">en</text>
<text text-anchor="middle" x="1590.0" y="527.5" fill="#808080" style="font-size:18px">Terminal</text>
<circle cx="1560.0" cy="460.0" r="2.0" stroke="#0000b2" stroke-width="4.0" fill="#0000b2" />
<circle cx="1560.0" cy="480.0" r="2.0" stroke="#0000b2" stroke-width="4.0" fill="#0000b2" />
<circle cx="1560.0" cy="500.0" r="2.0" stroke="#0000b2" stroke-width="4.0" fill="#0000b2" />
</g>
<g>
<path d="M 1490,610 L 1441,610 L 1441,550 L 1490,550 C 1500,550 1520,560 1519,580 C 1519,600 1500,610 1490,610 Z" stroke="#000000" stroke-width="4.0" fill="none"/>
<circle cx="1440.0" cy="560.0" r="2.0" stroke="#0000b2" stroke-width="4.0" fill="#0000b2" />
<circle cx="1440.0" cy="600.0" r="2.0" stroke="#0000b2" stroke-width="4.0" fill="#0000b2" />
<circle cx="1520.0" cy="580.0" r="2.0" stroke="#b20000" stroke-width="4.0" fill="#b20000" />
</g>
<g>
<path d="M 1341,30 L 1399,30 L 1399,90 L 1341,90 Z" stroke="#000000" stroke-width="4.0" fill="none"/>
<text text-anchor="start" x="1344.0" y="46.75" fill="#808080" style="font-size:18px">a</text>
<text text-anchor="start" x="1344.0" y="66.75" fill="#808080" style="font-size:18px">b</text>
<text text-anchor="end" x="1396.0" y="46.75" fill="#808080" style="font-size:18px">&gt;</text>
<text text-anchor="end" x="1396.0" y="66.75" fill="#808080" style="font-size:18px">=</text>
<text text-anchor="end" x="1396.0" y="86.75" fill="#808080" style="font-size:18px">&lt;</text>
<circle cx="1340.0" cy="40.0" r="2.0" stroke="#0000b2" stroke-width="4.0" fill="#0000b2" />
<circle cx="1340.0" cy="60.0" r="2.0" stroke="#0000b2" stroke-width="4.0" fill="#0000b2" />
<circle cx="1400.0" cy="40.0" r="2.0" stroke="#b20000" stroke-width="4.0" fill="#b20000" />
<circle cx="1400.0" cy="60.0" r="2.0" stroke="#b20000" stroke-width="4.0" fill="#b20000" />
<circle cx="1400.0" cy="80.0" r="2.0" stroke="#b20000" stroke-width="4.0" fill="#b20000" />
</g>
<g>
<text text-anchor="end" x="1237.0" y="49.0" fill="#000000" style="font-size:24px">7FFF</text>
<circle cx="1240.0" cy="40.0" r="2.0" stroke="#b20000" stroke-width="4.0" fill="#b20000" />
</g>
<g>
<path d="M 789,305 L 819,305 L 819,335 L 789,335 Z" stroke="#000000" stroke-width="4.0" fill="none"/>
<text text-anchor="end" x="775.0" y="329.0" fill="#000000" style="font-size:24px"><tspan style="font-style:italic;">clk</tspan></text>
<path d="M 795,325 L 800,325 L 800,315 L 805,315 L 805,325 L 810,325 L 810,315 L 815,315" stroke="#000000" stroke-width="2.0" fill="none"/>
<circle cx="820.0" cy="320.0" r="2.0" stroke="#b20000" stroke-width="4.0" fill="#b20000" />
</g>
<g>
<path d="M 961,306 L 1119,306 L 1119,414 L 961,414 Z" stroke="#ffffb4" stroke-width="0.0" fill="#ffffb4" fill-opacity="0.7843137254901961"/>
<path d="M 961,306 L 1119,306 L 1119,414 L 961,414 Z" stroke="#000000" stroke-width="4.0" fill="none"/>
<text text-anchor="middle" x="1040.0" y="298.0" fill="#000000" style="font-size:24px">cpu</text>
<path d="M 961,327 L 968,320 L 961,313" stroke="#000000" stroke-width="2.0" fill="none"/>
<text text-anchor="start" x="971.0" y="326.75" fill="#808080" style="font-size:18px">clock</text>
<text text-anchor="start" x="964.0" y="346.75" fill="#808080" style="font-size:18px">reset</text>
<text text-anchor="start" x="964.0" y="366.75" fill="#808080" style="font-size:18px">dIn</text>
<text text-anchor="end" x="1116.0" y="326.75" fill="#808080" style="font-size:18px">addr</text>
<text text-anchor="end" x="1116.0" y="346.75" fill="#808080" style="font-size:18px">dOut</text>
<text text-anchor="end" x="1116.0" y="366.75" fill="#808080" style="font-size:18px">rd</text>
<text text-anchor="end" x="1116.0" y="386.75" fill="#808080" style="font-size:18px">wrH</text>
<text text-anchor="end" x="1116.0" y="406.75" fill="#808080" style="font-size:18px">wrL</text>
<text text-anchor="middle" x="1040.0" y="431.5" fill="#808080" style="font-size:18px">drv16</text>
<circle cx="960.0" cy="320.0" r="2.0" stroke="#0000b2" stroke-width="4.0" fill="#0000b2" />
<circle cx="960.0" cy="340.0" r="2.0" stroke="#0000b2" stroke-width="4.0" fill="#0000b2" />
<circle cx="960.0" cy="360.0" r="2.0" stroke="#0000b2" stroke-width="4.0" fill="#0000b2" />
<circle cx="1120.0" cy="320.0" r="2.0" stroke="#b20000" stroke-width="4.0" fill="#b20000" />
<circle cx="1120.0" cy="340.0" r="2.0" stroke="#b20000" stroke-width="4.0" fill="#b20000" />
<circle cx="1120.0" cy="360.0" r="2.0" stroke="#b20000" stroke-width="4.0" fill="#b20000" />
<circle cx="1120.0" cy="380.0" r="2.0" stroke="#b20000" stroke-width="4.0" fill="#b20000" />
<circle cx="1120.0" cy="400.0" r="2.0" stroke="#b20000" stroke-width="4.0" fill="#b20000" />
</g>
<g>
<path d="M 881,436 L 919,445 L 919,475 L 881,484 Z" stroke="#000000" stroke-width="4.0" fill="none"/>
<text text-anchor="start" x="883.0" y="455.5" fill="#808080" style="font-size:18px">0</text>
<circle cx="900.0" cy="480.0" r="2.0" stroke="#0000b2" stroke-width="4.0" fill="#0000b2" />
<circle cx="880.0" cy="440.0" r="2.0" stroke="#0000b2" stroke-width="4.0" fill="#0000b2" />
<circle cx="880.0" cy="480.0" r="2.0" stroke="#0000b2" stroke-width="4.0" fill="#0000b2" />
<circle cx="920.0" cy="460.0" r="2.0" stroke="#b20000" stroke-width="4.0" fill="#b20000" />
</g>
<g>
<path d="M 761,470 L 819,470 L 819,510 L 761,510 Z" stroke="#000000" stroke-width="4.0" fill="none"/>
<path d="M 761,487 L 768,480 L 761,473" stroke="#000000" stroke-width="2.0" fill="none"/>
<text text-anchor="start" x="771.0" y="486.75" fill="#808080" style="font-size:18px">C</text>
<text text-anchor="start" x="764.0" y="506.75" fill="#808080" style="font-size:18px">en</text>
<text text-anchor="end" x="816.0" y="486.75" fill="#808080" style="font-size:18px">D</text>
<text text-anchor="end" x="816.0" y="506.75" fill="#808080" style="font-size:18px">av</text>
<text text-anchor="middle" x="790.0" y="527.5" fill="#808080" style="font-size:18px">Teclado</text>
<circle cx="760.0" cy="480.0" r="2.0" stroke="#0000b2" stroke-width="4.0" fill="#0000b2" />
<circle cx="760.0" cy="500.0" r="2.0" stroke="#0000b2" stroke-width="4.0" fill="#0000b2" />
<circle cx="820.0" cy="480.0" r="2.0" stroke="#b20000" stroke-width="4.0" fill="#b20000" />
<circle cx="820.0" cy="500.0" r="2.0" stroke="#b20000" stroke-width="4.0" fill="#b20000" />
</g>
<g>
<path d="M 1050,550 L 1099,550 L 1099,610 L 1050,610 C 1040,610 1020,600 1021,580 C 1021,560 1040,550 1050,550 Z" stroke="#000000" stroke-width="4.0" fill="none"/>
<circle cx="1100.0" cy="600.0" r="2.0" stroke="#0000b2" stroke-width="4.0" fill="#0000b2" />
<circle cx="1100.0" cy="560.0" r="2.0" stroke="#0000b2" stroke-width="4.0" fill="#0000b2" />
<circle cx="1020.0" cy="580.0" r="2.0" stroke="#b20000" stroke-width="4.0" fill="#b20000" />
</g>
<g>
<path d="M 819,390 L 761,390 L 761,370 L 819,370 Z" stroke="#000000" stroke-width="4.0" fill="none"/>
<text text-anchor="end" x="750.0" y="389.0" fill="#000000" style="font-size:24px">reset</text>
<path d="M 765,386 L 790,386 L 790,374 L 765,374 Z" stroke="#808080" stroke-width="0.0" fill="#808080" fill-opacity="1.0"/>
<circle cx="820.0" cy="380.0" r="2.0" stroke="#b20000" stroke-width="4.0" fill="#b20000" />
</g>
<g>
<text text-anchor="end" x="710.0" y="711.0" fill="#000000" style="font-size:24px">A</text>
<text text-anchor="end" x="710.0" y="746.0" fill="#000000" style="font-size:24px">B</text>
<text text-anchor="end" x="710.0" y="781.0" fill="#000000" style="font-size:24px">C</text>
</g>
<g>
<path d="M 1381,170 L 1439,170 L 1439,270 L 1381,270 Z" stroke="#000000" stroke-width="4.0" fill="none"/>
<text text-anchor="middle" x="1410.0" y="162.0" fill="#000000" style="font-size:24px">mem0 low</text>
<text text-anchor="start" x="1384.0" y="186.75" fill="#808080" style="font-size:18px">A</text>
<text text-anchor="start" x="1384.0" y="206.75" fill="#808080" style="font-size:18px">Din</text>
<text text-anchor="start" x="1384.0" y="226.75" fill="#808080" style="font-size:18px">str</text>
<path d="M 1381,247 L 1388,240 L 1381,233" stroke="#000000" stroke-width="2.0" fill="none"/>
<text text-anchor="start" x="1391.0" y="246.75" fill="#808080" style="font-size:18px">C</text>
<text text-anchor="start" x="1384.0" y="266.75" fill="#808080" style="font-size:18px">ld</text>
<text text-anchor="end" x="1436.0" y="226.75" fill="#808080" style="font-size:18px">D</text>
<text text-anchor="middle" x="1410.0" y="287.5" fill="#808080" style="font-size:18px">RAM</text>
<circle cx="1380.0" cy="180.0" r="2.0" stroke="#0000b2" stroke-width="4.0" fill="#0000b2" />
<circle cx="1380.0" cy="200.0" r="2.0" stroke="#0000b2" stroke-width="4.0" fill="#0000b2" />
<circle cx="1380.0" cy="220.0" r="2.0" stroke="#0000b2" stroke-width="4.0" fill="#0000b2" />
<circle cx="1380.0" cy="240.0" r="2.0" stroke="#0000b2" stroke-width="4.0" fill="#0000b2" />
<circle cx="1380.0" cy="260.0" r="2.0" stroke="#0000b2" stroke-width="4.0" fill="#0000b2" />
<circle cx="1440.0" cy="220.0" r="2.0" stroke="#b20000" stroke-width="4.0" fill="#b20000" />
</g>
<g>
<text text-anchor="end" x="1458.0" y="217.0" fill="#808080" style="font-size:12px">0-7</text>
<text text-anchor="end" x="1458.0" y="237.0" fill="#808080" style="font-size:12px">8-15</text>
<text text-anchor="start" x="1482.0" y="217.0" fill="#808080" style="font-size:12px">0-15</text>
<path d="M 1468,218 L 1472,218 L 1472,242 L 1468,242 Z" stroke="#000000" stroke-width="4.0" fill="#000000" fill-opacity="1.0"/>
<circle cx="1460.0" cy="220.0" r="2.0" stroke="#0000b2" stroke-width="4.0" fill="#0000b2" />
<circle cx="1460.0" cy="240.0" r="2.0" stroke="#0000b2" stroke-width="4.0" fill="#0000b2" />
<circle cx="1480.0" cy="220.0" r="2.0" stroke="#b20000" stroke-width="4.0" fill="#b20000" />
</g>
<g>
<text text-anchor="end" x="1258.0" y="337.0" fill="#808080" style="font-size:12px">0-15</text>
<text text-anchor="start" x="1282.0" y="337.0" fill="#808080" style="font-size:12px">0-7</text>
<text text-anchor="start" x="1282.0" y="357.0" fill="#808080" style="font-size:12px">8-15</text>
<path d="M 1268,338 L 1272,338 L 1272,362 L 1268,362 Z" stroke="#000000" stroke-width="4.0" fill="#000000" fill-opacity="1.0"/>
<circle cx="1260.0" cy="340.0" r="2.0" stroke="#0000b2" stroke-width="4.0" fill="#0000b2" />
<circle cx="1280.0" cy="340.0" r="2.0" stroke="#b20000" stroke-width="4.0" fill="#b20000" />
<circle cx="1280.0" cy="360.0" r="2.0" stroke="#b20000" stroke-width="4.0" fill="#b20000" />
</g>
<g>
<text text-anchor="start" x="1142.0" y="256.0" fill="#000000" style="font-size:24px">addr</text>
<text text-anchor="start" x="1142.0" y="282.0" fill="#000000" style="font-size:24px">?</text>
<circle cx="1140.0" cy="260.0" r="2.0" stroke="#0000b2" stroke-width="4.0" fill="#0000b2" />
</g>
<g>
<text text-anchor="start" x="922.0" y="276.0" fill="#000000" style="font-size:24px">dIn</text>
<text text-anchor="start" x="922.0" y="302.0" fill="#000000" style="font-size:24px">?</text>
<circle cx="920.0" cy="280.0" r="2.0" stroke="#0000b2" stroke-width="4.0" fill="#0000b2" />
</g>
</g>
</svg>